<?xml version='1.0' encoding='utf-8'?>
<svg xmlns="http://www.w3.org/2000/svg" version="1.1" x="0.00px" y="0.00px" width="400.00px" height="400.00px" viewBox="0.00 0.00 400.00 400.00">
  <symbol id="frame" viewBox="0.00 0.00 400.00 400.00">
    <g class="layers.drawing-primary">
      <path d="M94.84,132.75L94.73,132.34L94.55,131.95L94.30,131.61L93.99,131.33L93.62,131.11L93.22,130.97L92.81,130.90L92.38,130.92L91.97,131.03L91.59,131.21L91.25,131.46L90.96,131.77L90.74,132.14L90.60,132.53L90.54,132.95L90.56,133.38L91.79,139.43L92.84,143.21L96.57,151.89L99.42,160.98L100.55,172.43L102.17,197.34L103.16,216.18L105.01,236.48L108.03,253.61L109.36,264.64L110.65,287.08L109.69,295.46L114.23,336.85L114.98,340.31L115.95,342.52L116.20,343.08L116.55,343.59L117.00,344.01L117.52,344.34L118.09,344.57L118.70,344.67L119.32,344.66L119.92,344.53L120.48,344.28L120.99,343.92L121.41,343.48L121.74,342.96L121.97,342.38L122.07,341.78L122.06,341.16L121.92,340.56L121.50,338.50L120.69,335.87L115.87,295.81L116.82,287.50L115.16,264.17L113.71,252.83L110.71,235.83L108.77,215.81L107.65,197.01L105.50,172.01L104.02,160.21L100.40,150.48L96.64,141.83L95.38,138.74z" fill="currentColor" stroke="none" fill-opacity="1.00" fill-rule="nonzero" />
      <path d="M123.27,339.39L122.83,339.12L122.34,338.94L121.83,338.86L121.31,338.88L120.81,339.01L120.34,339.22L119.92,339.53L119.57,339.91L119.30,340.35L119.12,340.84L119.04,341.35L119.06,341.87L119.18,342.38L119.40,342.85L119.70,343.27L120.09,343.62L122.02,345.07L127.07,349.45L133.95,352.32L145.25,355.56L152.32,357.38L165.17,361.02L180.86,363.89L190.69,363.94L201.48,364.88L230.67,362.63L251.58,358.60L265.20,354.27L268.21,352.92L273.06,348.59L276.40,342.61L276.31,342.58L275.09,343.34L276.00,342.48L276.46,342.49L276.91,342.41L277.34,342.25L277.73,342.00L278.06,341.69L278.32,341.31L278.51,340.89L278.61,340.44L278.62,339.98L278.54,339.53L278.38,339.10L278.13,338.71L277.81,338.38L277.44,338.12L277.02,337.93L276.57,337.83L274.99,336.54L273.15,336.82L272.48,337.20L271.75,337.66L271.15,338.28L270.74,339.03L270.57,339.85L268.37,344.53L265.24,347.84L263.23,348.82L250.31,353.03L230.06,357.09L201.70,359.45L191.01,358.63L181.57,358.67L166.47,355.89L153.66,352.46L146.65,350.57L135.76,347.40L130.18,345.21L125.43,341.03z" fill="currentColor" stroke="none" fill-opacity="1.00" fill-rule="nonzero" />
      <path d="M103.39,131.38L102.90,131.14L102.38,131.00L101.83,130.97L101.29,131.04L100.77,131.21L100.30,131.49L99.89,131.85L99.56,132.28L99.32,132.77L99.18,133.30L99.14,133.84L99.21,134.38L99.39,134.90L99.66,135.37L100.02,135.78L100.45,136.12L107.00,140.08L116.62,144.48L128.17,148.57L136.67,151.40L158.23,154.66L166.95,154.69L187.15,155.91L201.42,156.57L206.10,156.98L231.87,154.71L259.52,150.77L267.11,148.86L273.35,146.70L283.20,142.54L290.35,139.00L298.22,135.72L299.30,134.97L300.03,133.88L300.35,132.19L300.55,131.58L300.63,130.95L300.58,130.31L300.41,129.69L300.12,129.12L299.72,128.61L299.24,128.19L298.68,127.87L298.07,127.67L297.43,127.60L296.79,127.64L296.17,127.81L295.60,128.10L295.09,128.50L294.68,128.99L294.36,129.54L294.06,129.83L287.51,133.00L280.55,136.56L271.07,140.62L265.35,142.73L258.45,144.62L231.24,148.66L206.33,150.97L201.85,150.63L187.48,150.02L167.21,148.83L158.86,148.87L138.21,145.87L130.00,143.25L118.78,139.35L109.69,135.40z" fill="currentColor" stroke="none" fill-opacity="1.00" fill-rule="nonzero" />
      <path d="M300.55,134.72L300.29,134.27L299.96,133.88L299.55,133.57L299.09,133.34L298.59,133.20L298.07,133.17L297.56,133.23L297.07,133.40L296.62,133.65L296.23,133.99L295.92,134.40L295.69,134.86L295.55,135.36L295.52,135.88L295.58,136.39L295.75,136.88L296.82,138.74L297.09,140.45L294.68,156.64L292.43,188.94L291.69,196.12L291.54,202.04L290.35,206.54L288.86,218.52L286.04,236.34L285.43,242.42L279.21,286.38L279.50,294.01L276.54,319.97L276.26,331.78L275.56,335.75L274.90,336.13L274.41,336.68L274.04,337.33L273.80,338.03L273.70,338.76L273.74,339.50L273.93,340.22L274.26,340.88L274.71,341.47L275.26,341.96L275.90,342.33L276.60,342.58L277.34,342.67L278.08,342.63L278.79,342.44L279.46,342.11L280.05,341.67L281.43,340.38L282.14,339.48L282.55,338.40L283.67,332.98L283.84,320.61L286.66,294.52L286.35,287.03L292.16,243.27L292.71,237.25L295.25,219.43L296.59,207.72L297.37,202.98L297.41,196.54L298.02,189.43L300.02,157.26L301.98,140.73L301.56,137.64z" fill="currentColor" stroke="none" fill-opacity="1.00" fill-rule="nonzero" />
      <path d="M111.36,154.19L110.96,153.98L110.54,153.85L110.09,153.81L109.65,153.86L109.23,153.99L108.84,154.21L108.50,154.49L108.22,154.84L108.01,155.23L107.89,155.66L107.85,156.10L107.89,156.54L108.03,156.97L108.24,157.36L108.52,157.70L108.87,157.98L116.44,163.32L128.16,168.37L134.60,169.57L144.63,170.74L150.92,172.72L172.51,177.24L178.55,177.86L187.31,177.44L202.90,176.47L206.98,176.38L213.48,176.56L219.74,175.58L227.02,174.84L241.07,173.01L244.38,172.87L262.89,167.89L270.55,164.82L277.06,161.56L282.91,158.50L284.35,157.11L284.10,157.49L285.58,158.51L286.23,158.84L286.94,159.00L287.67,159.00L288.38,158.84L289.04,158.52L289.61,158.05L290.24,157.51L291.06,156.45L291.39,155.89L291.61,155.29L291.70,154.65L291.67,154.01L291.52,153.39L291.24,152.80L290.86,152.29L290.38,151.86L289.83,151.53L289.22,151.31L288.58,151.22L287.94,151.25L287.32,151.40L286.74,151.68L286.22,152.06L285.79,152.54L285.39,153.10L286.94,152.63L287.37,152.11L285.60,151.23L284.83,150.95L284.01,150.89L283.20,151.04L282.47,151.40L279.87,153.18L274.37,156.28L268.19,159.36L261.16,162.30L243.81,167.20L240.70,167.34L226.40,169.31L219.07,170.11L213.34,171.13L207.05,171.01L202.72,171.12L187.01,172.10L178.87,172.54L173.45,172.03L152.38,167.69L145.99,165.62L135.42,164.40L129.92,163.47L119.07,158.88z" fill="currentColor" stroke="none" fill-opacity="1.00" fill-rule="nonzero" />
      <path d="M93.71,133.64L93.83,134.20L94.06,134.72L94.39,135.18L94.80,135.57L95.28,135.87L95.81,136.08L96.37,136.17L96.94,136.16L97.49,136.03L98.01,135.80L98.48,135.47L98.87,135.06L99.17,134.58L99.37,134.05L99.47,133.49L99.45,132.92L99.13,126.47L98.39,127.23L95.90,128.97L95.75,128.35L98.57,129.04L107.79,132.83L111.37,133.92L129.47,138.70L135.22,140.15L152.95,143.17L172.17,144.79L186.70,145.75L189.96,146.43L195.24,146.76L203.66,147.12L217.02,146.64L224.78,145.02L235.82,143.04L241.52,143.76L252.32,143.24L280.42,135.33L283.23,134.39L291.05,130.57L298.19,127.58L299.05,127.01L299.70,126.22L299.24,126.65L297.43,126.92L295.88,125.85L295.79,127.27L295.87,129.82L295.96,130.51L296.19,131.17L296.54,131.77L297.00,132.29L297.55,132.71L298.18,133.01L298.85,133.19L299.55,133.23L300.23,133.13L300.89,132.91L301.49,132.55L302.01,132.09L302.43,131.54L302.73,130.91L302.91,130.24L302.95,129.55L302.83,126.83L302.37,123.66L302.14,122.81L301.71,122.04L301.10,121.41L300.30,120.75L299.58,120.31L298.78,120.05L297.94,119.99L297.11,120.13L296.01,120.35L294.84,120.95L293.96,121.94L294.33,121.76L288.28,124.80L280.95,128.74L278.67,129.67L251.70,137.59L241.94,138.09L236.05,137.46L223.75,139.66L216.57,141.25L203.78,141.77L195.52,141.42L190.86,141.16L187.61,140.48L172.56,139.63L153.68,138.21L136.34,135.30L130.73,133.86L112.78,129.16L109.60,128.16L100.41,124.31L98.37,123.42L98.20,122.38L97.27,121.98L96.26,121.86L95.26,122.02L94.35,122.51L93.64,122.82L93.03,123.29L92.53,123.89L92.19,124.59L92.01,125.34L92.01,126.12L92.18,126.88L92.49,127.67z" fill="currentColor" stroke="none" fill-opacity="1.00" fill-rule="nonzero" />
      <path d="M127.51,201.04L127.40,201.97L128.38,211.02L129.54,221.83L130.51,234.43L131.58,251.20L133.26,269.25L135.25,285.50L137.49,300.17L139.72,312.83L142.29,323.02L145.78,330.48L146.43,331.28L149.00,333.23L150.31,334.82L152.98,336.86L153.42,337.11L153.92,337.25L154.43,337.28L154.93,337.19L157.36,336.46L157.96,336.17L158.45,335.71L158.79,335.13L159.83,332.50L160.66,328.42L161.84,323.57L162.52,316.54L162.50,306.19L161.92,293.60L159.68,278.10L157.37,262.12L153.97,244.72L150.21,227.79L147.49,212.71L145.64,201.25L143.93,192.36L142.43,186.53L140.44,181.95L140.12,181.40L139.68,180.93L139.15,180.58L138.55,180.36L137.92,180.28L137.28,180.34L134.77,180.94L134.02,181.23L133.38,181.72L132.91,182.38L133.46,182.69L133.61,182.22L132.38,182.24L129.84,182.98L129.20,183.24L128.66,183.67L128.25,184.23L128.01,184.87L127.67,186.81L127.62,187.57L127.80,188.30L128.91,190.68L129.64,194.52zM134.14,195.43L134.22,194.32L133.51,189.63L132.47,187.12L132.29,187.18L133.07,187.37L134.01,187.74L134.59,187.81L135.18,187.74L135.74,187.55L136.24,187.24L136.67,186.83L136.99,186.34L137.04,185.80L136.61,185.56L137.02,188.15L138.38,193.52L140.08,202.21L141.99,213.64L144.83,228.83L148.71,245.80L152.20,262.96L154.64,278.85L156.97,293.98L157.66,306.28L157.80,316.24L157.28,322.67L156.20,327.43L155.55,331.06L155.01,332.50L154.69,332.62L153.52,331.79L152.20,330.23L149.48,328.12L146.43,321.75L143.92,312.00L141.68,299.50L139.43,284.96L137.43,268.83L135.76,250.91L134.71,234.15L133.77,221.48L132.68,210.58L131.85,202.00z" fill="currentColor" stroke="none" fill-opacity="1.00" fill-rule="nonzero" />
      <path d="M189.92,330.01L188.70,324.13L187.81,315.45L186.42,306.06L185.43,294.17L185.16,282.20L185.63,270.29L186.08,256.91L186.15,243.71L186.19,232.03L186.89,220.83L187.91,212.37L190.00,204.95L192.28,198.92L193.69,195.54L194.96,193.08L196.26,190.99L197.38,189.21L198.46,188.29L199.86,188.28L201.58,188.98L202.94,191.42L204.05,198.09L204.05,207.16L203.82,219.57L204.12,234.48L204.65,249.81L205.40,265.74L206.53,282.45L207.20,296.13L205.16,308.53L202.62,318.47L201.38,326.73L200.27,333.20L198.99,336.55L198.03,337.17L197.20,337.65L196.28,338.16L195.14,337.45L193.81,334.25L193.36,333.55zM189.84,336.35L191.32,339.93L191.75,340.60L192.39,341.08L195.08,342.46L195.62,342.65L196.20,342.70L196.77,342.60L198.79,342.04L200.40,341.26L202.27,339.92L203.05,338.92L204.77,334.77L206.07,327.51L207.28,319.52L209.77,309.59L211.86,296.64L211.15,282.20L209.96,265.50L209.15,249.63L208.56,234.37L208.20,219.60L208.40,207.21L208.41,197.92L207.23,190.36L205.24,186.19L204.80,185.61L204.20,185.20L201.41,183.76L200.39,183.53L197.75,183.42L197.05,183.53L196.40,183.82L194.17,185.13L191.85,187.83L190.24,190.06L188.59,192.90L186.93,196.70L184.54,203.03L182.31,211.03L181.21,220.24L180.54,231.77L180.57,243.71L180.63,256.80L180.34,270.12L180.03,282.11L180.48,294.39L181.73,306.57L183.30,316.00L184.29,324.71L185.70,331.55L185.91,332.13L186.28,332.63z" fill="currentColor" stroke="none" fill-opacity="1.00" fill-rule="nonzero" />
      <path d="M241.66,334.83L240.52,334.86L239.02,334.32L237.53,332.65L236.36,330.06L236.05,326.07L236.47,320.75L236.56,314.25L235.59,306.42L235.34,298.58L238.03,289.74L240.87,280.24L241.68,269.95L242.26,259.93L242.97,250.24L243.70,240.58L245.16,231.11L247.36,222.69L249.22,214.66L249.87,206.76L250.63,200.62L253.00,196.22L255.55,193.26L256.09,192.25L257.09,188.88L257.91,186.09L259.24,184.82L260.81,184.54L261.85,184.92L262.61,186.45L263.17,189.33L263.75,190.54L266.12,193.22L268.01,197.66L267.77,206.43L266.72,217.44L265.18,229.51L262.93,245.16L260.18,261.15L256.88,277.45L254.22,292.60L253.22,305.21L252.09,316.05L250.01,324.97L247.97,329.24L245.55,332.18L243.11,333.81zM245.34,337.18L248.04,335.46L251.34,331.75L253.94,326.63L256.40,316.93L257.46,305.60L258.33,293.22L260.98,278.26L264.35,261.97L267.23,245.89L269.63,230.15L271.31,218.01L272.50,206.83L272.91,197.29L272.72,196.26L270.51,190.94L267.98,187.78L267.59,185.24L266.16,181.82L265.82,181.27L265.36,180.82L264.80,180.50L262.18,179.35L260.74,179.17L257.61,179.61L256.85,179.84L256.19,180.29L253.66,182.58L252.89,183.81L251.83,187.31L250.99,190.13L248.65,192.89L245.60,198.51L244.51,206.18L243.98,213.67L242.24,221.41L240.09,229.94L238.64,239.93L238.00,249.90L237.43,259.63L237.00,269.66L236.44,279.20L233.80,288.49L231.12,297.69L231.39,306.67L232.41,314.35L232.36,320.49L231.92,325.91L232.29,330.76L233.98,334.67L236.53,337.33L237.23,337.80L239.46,338.68L240.17,338.81L242.30,338.82L242.88,338.73L243.41,338.47z" fill="currentColor" stroke="none" fill-opacity="1.00" fill-rule="nonzero" />
      <path d="M194.72,74.73L176.63,74.23L157.49,74.82L138.74,77.29L125.07,80.22L112.76,83.60L103.56,86.80L97.38,90.42L96.90,90.82L96.55,91.35L94.52,95.33L93.96,98.40L92.31,100.12L91.73,101.38L89.65,112.56L89.65,113.48L89.94,114.34L91.53,117.38L92.49,118.45L95.82,120.74L100.45,123.72L110.81,128.65L123.55,133.81L137.62,139.05L152.18,143.12L165.38,145.32L174.08,146.02L181.85,146.22L188.67,146.27L195.28,145.33L201.21,144.06L207.02,143.53L213.67,143.37L221.66,142.98L231.41,142.57L243.31,141.22L259.15,136.46L275.07,130.58L286.80,126.51L294.51,123.16L295.37,122.55L298.40,119.19L298.82,118.60L299.04,117.92L299.62,114.80L299.92,104.49L301.03,100.95L301.15,100.25L301.05,99.55L299.57,94.78L299.23,94.08L298.68,93.54L292.66,89.46L284.97,85.63L276.23,82.67L263.21,80.50L249.45,77.57L235.00,75.15L215.15,74.13zM215.03,77.78L234.48,78.83L248.69,81.28L262.43,84.32L275.06,86.54L283.19,89.44L290.27,93.15L295.40,96.85L296.32,100.18L295.23,103.30L294.60,114.06L294.19,116.27L291.92,118.59L285.02,121.60L273.31,125.49L257.48,131.17L242.42,135.64L231.06,136.90L221.39,137.38L213.39,137.95L206.69,138.44L200.54,139.26L194.52,140.61L188.59,141.40L182.06,141.11L174.52,140.61L166.23,139.71L153.61,137.49L139.56,133.49L125.74,128.29L113.26,123.23L103.48,118.67L99.04,115.80L96.24,114.08L95.44,112.54L96.76,102.94L98.21,100.99L98.61,100.35L98.79,99.62L98.89,96.95L100.24,93.81L105.17,90.63L113.90,87.39L125.94,83.94L139.31,80.97L157.70,78.49L176.59,77.88L194.67,78.36z" fill="currentColor" stroke="none" fill-opacity="1.00" fill-rule="nonzero" />
      <path d="M195.45,130.67L189.73,128.78L183.10,126.61L174.74,126.30L166.31,126.69L153.81,125.24L139.57,122.18L125.45,118.03L112.78,113.51L103.03,109.18L99.62,105.99L98.66,103.69L98.35,101.85L98.44,99.66L98.81,97.15L100.34,94.22L105.29,91.47L114.39,89.57L126.64,86.85L139.76,82.34L157.80,78.16L176.61,76.35L194.69,75.64L214.92,77.06L234.47,79.15L248.96,80.60L262.99,82.16L275.20,85.14L282.20,90.11L288.18,95.34L294.11,98.84L296.62,101.31L296.82,103.74L295.68,106.10L292.53,108.56L285.26,111.65L273.61,115.82L257.69,120.72L242.29,124.53L230.90,127.07L221.54,129.04L213.75,129.78L207.01,130.15L200.92,130.61zM201.00,135.46L207.20,135.25L213.99,135.20L222.17,134.62L232.07,132.63L243.56,130.03L259.12,126.09L275.28,120.94L287.12,116.53L294.87,113.07L299.24,109.60L299.94,108.69L301.49,105.14L301.70,103.88L301.21,99.93L300.98,99.14L300.49,98.48L297.06,95.32L290.87,91.86L284.85,86.85L277.20,81.61L276.51,81.30L263.77,78.34L249.35,76.84L234.85,75.46L215.28,73.43L194.85,72.01L176.42,72.71L157.33,74.52L138.84,78.74L125.73,83.14L113.61,85.69L104.19,87.45L97.72,90.64L97.22,91.00L96.84,91.49L94.60,95.17L93.60,98.79L93.15,101.58L93.27,104.57L94.47,108.53L95.16,109.61L99.29,113.76L110.46,118.99L123.54,123.65L138.03,127.86L152.75,130.95L165.92,132.35L174.80,131.74L181.95,131.61L188.25,133.43L194.35,135.33z" fill="currentColor" stroke="none" fill-opacity="1.00" fill-rule="nonzero" />
      <path d="M180.12,95.56L182.01,89.81L184.30,85.47L186.20,84.28L191.93,83.20L201.92,83.03L211.53,83.64L217.31,84.21L218.74,84.58L219.69,85.54L220.98,89.59L222.09,94.37L224.02,98.35L224.51,98.77L224.87,97.95L224.94,97.74L223.45,97.68L221.97,97.57L221.32,97.53L220.19,95.62L218.21,92.60L214.78,89.83L213.92,89.43L212.98,89.36L210.54,89.57L204.94,88.51L197.57,87.11L191.52,86.64L187.62,87.30L186.91,87.53L186.29,87.94L185.81,88.51L183.78,91.95L181.86,95.56L180.74,97.76L179.69,98.38L178.65,98.98L178.19,99.45zM174.00,99.37L173.87,99.89L173.86,100.43L173.98,100.95L174.21,101.43L174.56,101.84L174.99,102.15L177.18,103.69L177.82,103.94L178.50,104.01L179.17,103.89L181.65,103.18L184.13,101.47L184.90,100.58L186.22,97.92L188.11,94.61L189.69,92.39L191.44,92.18L196.72,92.57L203.97,93.86L210.00,94.85L212.58,94.59L214.32,95.73L216.11,98.37L217.94,100.92L218.54,101.52L219.30,101.87L220.97,102.31L223.28,102.42L225.20,102.40L226.89,102.04L227.48,101.80L227.99,101.40L228.36,100.88L228.91,99.89L229.11,99.36L229.18,98.80L229.12,98.23L228.92,97.70L228.10,96.22L226.38,93.03L225.18,88.47L223.61,83.72L223.08,82.85L221.29,81.12L220.81,80.76L220.26,80.56L218.07,80.12L211.84,79.67L202.07,79.18L191.71,79.35L185.14,80.47L181.74,82.34L181.00,83.14L178.51,88.17L176.31,94.09z" fill="currentColor" stroke="none" fill-opacity="1.00" fill-rule="nonzero" />
    </g>
  </symbol>
</svg>