<?xml version='1.0' encoding='utf-8'?>
<svg xmlns="http://www.w3.org/2000/svg" version="1.1" x="0.00px" y="0.00px" width="400.00px" height="400.00px" viewBox="0.00 0.00 400.00 400.00">
  <symbol id="frame" viewBox="0.00 0.00 400.00 400.00">
    <g class="layers.drawing-primary">
      <path d="M96.98,132.74L96.89,132.32L96.73,131.93L96.49,131.58L96.18,131.29L95.83,131.05L95.43,130.90L95.02,130.82L94.59,130.82L94.18,130.91L93.79,131.07L93.44,131.31L93.14,131.62L92.91,131.97L92.75,132.36L92.67,132.78L92.68,133.21L93.67,139.18L94.41,142.66L96.25,151.51L96.88,161.08L97.98,172.69L101.42,197.56L103.18,216.20L103.80,236.45L105.78,253.83L107.53,264.88L109.23,287.30L108.93,295.77L114.21,336.91L115.92,340.91L117.68,343.23L118.06,343.72L118.53,344.12L119.07,344.42L119.66,344.60L120.27,344.68L120.88,344.63L121.48,344.46L122.02,344.18L122.51,343.79L122.91,343.32L123.21,342.78L123.39,342.20L123.47,341.59L123.42,340.97L123.25,340.38L122.97,339.83L121.85,337.68L120.56,335.50L115.11,295.73L115.41,287.33L113.32,264.29L111.47,253.11L109.53,236.15L108.80,215.92L106.87,196.95L102.92,172.10L101.51,160.62L100.30,151.01L98.35,141.77L97.28,138.64z" fill="currentColor" stroke="none" fill-opacity="1.00" fill-rule="nonzero" />
      <path d="M123.47,338.56L123.02,338.31L122.52,338.15L122.01,338.09L121.49,338.13L120.99,338.28L120.53,338.51L120.12,338.84L119.79,339.23L119.54,339.69L119.38,340.18L119.32,340.70L119.36,341.21L119.50,341.71L119.74,342.17L120.06,342.58L120.46,342.91L122.50,344.32L127.60,348.62L133.26,352.48L144.15,357.67L151.65,359.91L165.09,362.61L180.88,364.89L190.54,365.31L201.44,366.51L230.89,363.51L251.72,358.73L265.00,353.00L266.20,352.03L267.68,350.03L271.57,347.78L274.82,345.14L274.63,345.50L273.65,344.86L274.13,343.88L274.32,344.30L274.59,344.67L274.92,344.99L275.31,345.23L275.74,345.39L276.20,345.46L276.66,345.45L277.10,345.35L277.52,345.16L277.89,344.89L278.21,344.55L278.45,344.16L278.61,343.73L278.69,343.28L278.67,342.82L278.57,342.38L279.39,341.40L278.95,340.52L278.27,339.81L277.42,339.32L276.78,339.13L274.55,338.83L273.68,338.81L272.83,339.02L272.07,339.45L268.17,342.62L264.07,345.34L263.22,346.13L261.94,348.02L250.16,353.23L230.13,357.99L201.72,361.08L191.01,360.01L181.50,359.66L166.03,357.40L152.99,354.99L146.20,352.91L136.04,348.04L130.89,344.54L125.82,340.20z" fill="currentColor" stroke="none" fill-opacity="1.00" fill-rule="nonzero" />
      <path d="M103.69,131.25L103.22,130.97L102.71,130.80L102.16,130.72L101.62,130.76L101.09,130.90L100.60,131.14L100.17,131.47L99.81,131.88L99.53,132.35L99.36,132.87L99.28,133.41L99.32,133.95L99.46,134.48L99.70,134.97L100.03,135.41L100.44,135.77L106.74,140.20L116.24,145.15L128.56,148.19L137.57,149.32L158.39,152.67L166.42,154.46L186.97,156.73L201.62,156.74L206.42,156.61L231.83,154.86L259.60,151.45L267.26,149.74L273.65,147.73L283.44,142.01L289.72,136.37L296.36,132.86L296.90,132.12L297.43,131.76L297.88,131.30L298.23,130.76L298.47,130.17L298.59,129.54L298.59,128.90L298.46,128.27L298.21,127.68L297.85,127.14L297.39,126.69L296.85,126.34L296.26,126.10L295.62,125.98L294.98,125.99L294.35,126.12L293.76,126.37L292.79,126.45L286.04,130.84L279.79,136.58L271.29,141.67L265.69,143.57L258.65,145.27L231.32,148.80L206.16,150.60L201.56,150.78L187.44,150.84L167.53,148.69L159.56,146.97L138.41,143.65L129.70,142.68L118.46,140.04L109.72,135.70z" fill="currentColor" stroke="none" fill-opacity="1.00" fill-rule="nonzero" />
      <path d="M300.75,135.03L300.55,134.55L300.27,134.12L299.91,133.75L299.48,133.47L299.00,133.27L298.50,133.16L297.98,133.16L297.47,133.26L297.00,133.45L296.57,133.74L296.20,134.10L295.91,134.53L295.71,135.00L295.61,135.51L295.60,136.03L295.70,136.53L296.49,138.44L296.51,140.24L294.36,156.65L292.57,188.88L291.37,195.82L290.05,201.42L288.39,205.99L287.90,218.68L286.14,236.55L286.15,242.68L280.57,286.55L280.04,293.78L276.03,319.79L275.99,332.12L275.82,337.00L275.34,338.07L275.14,338.78L275.08,339.52L275.16,340.25L275.39,340.96L275.75,341.61L276.23,342.17L276.81,342.63L277.47,342.97L278.18,343.17L278.92,343.23L279.66,343.15L280.36,342.92L281.01,342.56L281.58,342.08L282.04,341.50L282.37,340.84L283.04,339.17L283.50,332.34L283.31,320.59L287.15,294.71L287.69,287.34L292.91,243.29L292.86,236.99L294.34,219.16L294.58,207.45L295.72,203.05L296.99,196.98L298.13,189.64L299.71,157.18L301.41,140.63L301.34,137.98z" fill="currentColor" stroke="none" fill-opacity="1.00" fill-rule="nonzero" />
      <path d="M111.04,154.63L110.64,154.43L110.22,154.32L109.77,154.29L109.33,154.35L108.91,154.49L108.53,154.72L108.19,155.01L107.93,155.37L107.73,155.77L107.62,156.19L107.59,156.64L107.65,157.08L107.79,157.50L108.02,157.88L108.31,158.22L108.67,158.48L116.39,163.61L128.21,168.41L134.00,170.40L143.96,172.87L150.45,174.92L172.52,178.49L178.72,178.62L187.07,178.78L202.95,178.26L207.35,177.57L213.69,177.18L219.47,177.18L226.90,177.56L241.74,175.20L245.53,173.67L263.05,167.89L270.56,164.19L276.44,161.21L282.55,160.17L286.67,159.91L287.34,159.79L287.97,159.52L288.52,159.12L288.97,158.61L289.30,158.01L289.50,157.35L289.38,157.52L289.44,157.71L289.91,157.05L290.20,156.30L290.29,155.50L290.18,154.70L289.97,153.83L290.14,152.60L290.13,151.96L290.00,151.33L289.75,150.74L289.39,150.20L288.94,149.75L288.40,149.40L287.80,149.15L287.17,149.03L286.53,149.03L285.90,149.16L285.30,149.41L284.77,149.77L284.32,150.23L283.97,150.77L283.72,151.36L283.60,152.00L283.43,153.81L283.97,154.78L284.23,153.98L283.73,154.72L283.45,155.56L284.34,154.49L281.92,154.08L274.94,155.46L267.87,158.87L261.00,162.41L243.61,168.32L240.47,169.65L226.87,171.98L219.65,171.66L213.57,171.77L206.87,172.23L202.60,172.92L187.09,173.43L178.81,173.30L173.17,173.23L151.86,169.87L145.49,167.80L135.58,165.41L130.08,163.56L118.90,159.11z" fill="currentColor" stroke="none" fill-opacity="1.00" fill-rule="nonzero" />
      <path d="M91.12,132.87L91.10,133.44L91.19,134.00L91.39,134.53L91.69,135.02L92.08,135.43L92.54,135.76L93.06,136.00L93.61,136.12L94.18,136.14L94.74,136.05L95.27,135.85L95.75,135.55L96.17,135.16L96.50,134.70L96.73,134.19L96.86,133.63L97.59,128.69L97.33,129.26L98.13,128.74L98.75,128.00L98.91,127.97L97.62,127.53L98.47,128.12L106.94,133.61L110.40,135.44L129.67,138.82L135.78,138.92L152.82,142.98L171.95,145.78L187.09,145.70L190.59,145.09L195.16,145.37L203.45,146.44L216.88,146.66L224.68,145.66L236.32,143.62L242.17,142.50L252.05,140.13L279.18,134.10L281.64,134.68L282.60,134.72L283.53,134.45L291.19,131.05L298.29,128.00L299.15,127.41L299.80,126.60L300.19,125.63L299.72,126.39L298.09,127.15L296.81,126.74L297.32,128.16L298.33,130.51L298.67,131.11L299.12,131.64L299.67,132.07L300.29,132.39L300.96,132.58L301.65,132.63L302.34,132.55L303.00,132.33L303.61,131.99L304.14,131.54L304.57,131.00L304.88,130.38L305.07,129.71L305.12,129.02L305.04,128.33L304.83,127.67L303.72,125.16L302.10,122.35L301.31,121.40L300.24,120.78L299.09,120.36L298.19,120.16L297.27,120.21L296.39,120.50L295.35,120.89L294.47,121.49L293.81,122.32L293.41,123.30L294.00,122.60L288.47,125.26L281.88,128.66L279.73,128.16L278.49,128.18L250.77,134.59L241.01,136.95L235.31,138.14L223.88,140.26L216.75,141.25L203.98,141.12L195.76,140.06L190.59,139.73L186.79,140.35L172.48,140.62L153.86,138.07L136.66,134.02L130.31,133.85L112.37,130.87L109.58,129.36L101.14,123.80L98.76,122.25L98.06,122.00L97.32,121.94L96.58,122.08L95.91,122.40L94.36,122.51L93.32,123.58L93.65,123.68L93.42,123.64L92.71,124.09L92.13,124.70L91.72,125.44L91.51,126.25z" fill="currentColor" stroke="none" fill-opacity="1.00" fill-rule="nonzero" />
      <path d="M127.39,201.49L128.97,211.10L130.71,221.78L131.48,234.31L132.11,251.11L133.85,269.20L136.32,285.43L138.63,299.97L140.20,312.62L142.19,322.92L145.70,330.52L146.36,331.32L149.04,333.36L150.51,334.81L153.11,336.48L153.75,336.75L154.44,336.80L156.92,336.62L157.48,336.51L157.99,336.25L158.43,335.87L160.38,333.68L160.74,333.11L160.92,332.47L161.46,328.35L160.76,322.73L160.16,316.45L161.10,306.55L161.52,293.84L159.79,278.17L157.96,262.13L155.58,244.66L152.95,227.49L149.77,212.15L146.20,200.69L143.33,192.20L141.64,186.78L139.87,182.64L139.15,181.63L137.49,180.23L136.34,179.62L134.03,179.11L133.46,179.03L132.89,179.08L132.34,179.24L131.83,179.52L131.40,179.90L131.06,180.37L130.82,180.89L130.06,183.53L129.97,184.81L130.54,186.46L130.27,186.75L129.01,188.59L128.56,189.74L128.13,194.50zM132.65,195.01L133.10,190.85L134.26,189.56L135.18,188.22L135.50,187.36L135.50,186.45L135.14,184.49L134.68,184.06L134.39,184.72L135.02,185.36L136.28,188.59L137.93,193.92L140.83,202.42L144.34,213.44L147.55,228.41L150.27,245.42L152.77,262.77L154.72,278.76L156.56,293.88L156.28,306.19L155.43,316.25L156.15,323.25L156.89,328.09L156.53,331.22L155.66,332.24L154.81,332.32L153.40,331.49L152.00,330.13L149.41,328.16L146.37,321.83L144.44,312.01L142.84,299.40L140.48,284.79L138.02,268.74L136.29,250.89L135.67,234.13L134.94,221.42L133.24,210.41L131.82,201.69z" fill="currentColor" stroke="none" fill-opacity="1.00" fill-rule="nonzero" />
      <path d="M189.79,330.21L188.13,324.15L186.84,315.56L186.11,306.25L186.05,294.29L186.11,282.21L186.41,270.26L186.79,256.90L187.01,243.75L187.25,232.16L188.59,221.13L190.27,212.62L190.27,204.04L190.09,197.74L191.18,194.86L193.29,192.83L195.37,190.93L197.05,188.95L198.34,188.14L199.86,188.09L201.53,188.83L202.65,191.36L203.42,198.12L203.33,207.23L203.11,219.62L203.67,234.54L204.66,249.88L205.70,265.78L206.75,282.44L207.32,296.10L204.94,308.44L202.06,318.30L201.87,327.19L201.94,333.85L200.49,336.68L199.34,336.95L198.34,336.79L196.74,337.08L195.25,336.40L192.47,334.14zM188.95,336.92L192.68,340.08L195.57,341.44L196.18,341.60L196.81,341.59L197.99,341.44L199.03,341.66L202.54,341.11L203.20,340.87L203.77,340.45L204.18,339.87L206.44,335.51L206.71,334.39L206.63,327.22L206.74,319.31L209.51,309.64L211.97,296.70L211.37,282.21L210.25,265.48L209.15,249.58L208.09,234.33L207.48,219.63L207.69,207.29L207.77,198.03L206.99,190.57L205.40,186.32L204.98,185.65L204.34,185.17L201.57,183.63L200.58,183.37L197.87,183.14L196.61,183.43L194.21,184.56L191.72,186.92L189.61,188.60L186.80,191.10L186.08,192.17L184.48,196.18L184.29,197.31L184.48,204.12L184.56,211.80L182.97,220.14L181.62,231.63L181.43,243.66L181.35,256.79L181.12,270.14L180.98,282.14L181.10,294.32L181.39,306.40L182.32,316.03L183.76,324.95L185.60,331.73z" fill="currentColor" stroke="none" fill-opacity="1.00" fill-rule="nonzero" />
      <path d="M242.34,335.45L241.52,335.04L240.35,333.68L238.12,331.83L236.36,329.62L235.46,325.88L235.29,320.64L235.36,314.26L235.60,306.70L236.23,298.60L237.52,289.34L238.84,279.78L241.06,270.27L243.54,260.54L245.26,250.80L246.54,241.01L247.43,231.12L247.62,222.12L247.87,213.96L248.41,206.45L249.19,199.98L250.87,194.81L252.53,191.46L254.81,189.72L257.59,188.78L260.24,187.69L261.90,186.96L263.07,186.76L264.57,187.16L265.97,188.60L266.02,191.71L265.45,197.03L265.33,206.33L264.82,217.28L263.27,229.23L260.73,244.84L258.61,261.05L257.15,277.70L255.50,292.79L252.55,304.72L249.44,315.23L247.91,324.44L246.42,328.85L244.83,332.52L243.36,334.82zM245.80,338.09L246.48,337.44L248.35,334.63L250.28,330.48L251.99,325.67L253.70,316.33L256.66,305.86L259.56,293.63L261.30,278.14L262.83,261.57L265.04,245.52L267.71,229.93L269.41,217.81L270.08,206.54L270.31,197.46L270.94,192.12L270.97,187.60L270.89,186.98L270.66,186.41L270.30,185.91L267.81,183.15L267.25,182.70L266.60,182.42L263.95,181.65L260.99,181.73L258.25,182.67L255.78,183.62L252.64,184.65L248.69,187.49L247.89,188.45L245.87,192.57L243.93,198.57L243.05,205.89L242.54,213.65L242.35,221.99L242.24,230.77L241.48,240.43L240.35,250.03L238.82,259.47L236.50,269.17L234.39,278.88L233.14,288.76L231.96,298.10L231.41,306.45L231.22,314.17L231.18,320.64L231.35,326.22L232.48,331.04L232.88,331.84L235.10,334.58L237.51,336.35L238.74,337.87L239.33,338.35L241.45,339.49L241.92,339.67L242.42,339.72L242.92,339.65L243.38,339.46z" fill="currentColor" stroke="none" fill-opacity="1.00" fill-rule="nonzero" />
      <path d="M194.84,73.24L176.52,73.29L157.39,74.42L138.68,77.03L125.00,79.96L112.79,84.01L103.97,88.34L98.31,91.52L94.42,93.44L91.16,96.64L90.80,97.17L90.58,97.79L90.54,98.43L90.66,99.07L91.64,102.40L92.90,112.99L92.74,115.33L92.96,116.62L94.23,119.89L94.96,120.92L99.27,124.84L110.06,130.37L123.37,134.91L138.25,138.21L152.87,140.73L165.48,143.34L174.01,144.56L182.33,143.74L188.76,142.79L194.33,144.02L200.07,145.95L206.77,146.69L214.10,146.05L222.29,144.47L231.94,141.47L242.97,138.28L258.64,136.43L275.50,133.25L287.85,128.68L295.72,124.46L299.91,120.29L300.48,119.40L301.90,115.70L302.06,114.68L301.43,103.85L301.22,102.98L299.69,99.67L296.76,95.98L292.28,90.89L285.59,85.46L276.95,81.35L263.85,78.07L249.53,76.09L234.78,75.27L215.13,74.55zM214.92,78.20L234.59,78.98L249.07,79.84L263.00,81.88L275.39,85.08L283.11,88.86L289.07,93.89L293.20,98.86L295.50,101.86L296.63,104.53L296.96,114.39L295.93,117.09L292.90,120.05L285.88,123.84L274.30,127.99L257.91,130.92L242.09,132.70L230.33,136.02L221.01,139.00L213.36,140.68L206.93,141.58L201.31,141.25L195.72,139.45L189.42,137.95L181.83,138.65L174.52,139.13L166.58,137.77L154.03,135.05L139.46,132.46L125.13,129.24L112.54,124.96L102.93,120.20L99.40,117.00L98.40,115.04L98.60,113.07L96.76,101.43L95.78,98.85L96.95,97.35L100.41,95.38L105.91,92.02L114.19,87.71L125.92,83.67L139.26,80.70L157.68,78.08L176.59,76.93L194.67,76.87z" fill="currentColor" stroke="none" fill-opacity="1.00" fill-rule="nonzero" />
      <path d="M195.33,127.59L188.72,128.33L182.10,128.87L174.66,128.58L166.34,128.08L153.66,126.24L139.34,123.21L125.46,118.67L113.37,112.83L103.73,107.43L98.06,105.44L96.14,104.20L96.30,102.97L97.86,100.81L99.34,98.37L101.36,95.77L106.15,92.37L114.34,88.06L125.97,83.65L139.23,80.29L157.61,77.20L176.54,75.72L194.66,75.35L214.90,77.08L234.40,79.47L248.73,81.51L262.57,83.89L274.96,86.66L283.10,89.59L289.86,93.17L293.52,97.89L294.28,101.48L294.87,103.95L294.45,105.73L291.95,107.87L284.85,110.88L273.36,115.55L257.75,121.60L242.68,125.95L231.28,127.11L221.72,127.73L213.87,127.66L207.21,127.20L200.95,127.92zM200.83,132.77L206.98,132.30L213.47,133.06L221.72,133.34L231.68,132.78L243.52,131.54L259.43,126.89L275.35,120.56L286.87,115.69L294.35,112.36L298.37,108.87L298.88,108.25L299.16,107.50L299.71,104.34L299.68,103.27L298.87,100.38L297.86,96.34L297.42,95.42L292.99,90.06L292.28,89.48L284.89,85.79L276.18,82.81L263.35,80.08L249.34,77.78L234.90,75.79L215.30,73.45L194.88,71.72L176.42,72.07L157.25,73.54L138.55,76.63L124.94,79.97L112.85,84.40L104.14,88.73L98.64,92.31L95.71,95.48L93.97,97.80L91.88,100.15L91.38,101.17L90.38,104.70L90.30,105.35L90.38,105.99L90.60,106.60L90.96,107.13L91.44,107.57L95.05,110.31L101.05,112.69L110.53,118.06L123.06,124.10L137.68,128.86L152.57,131.95L165.69,133.71L174.45,134.01L182.16,133.99L189.24,133.17L195.24,132.37z" fill="currentColor" stroke="none" fill-opacity="1.00" fill-rule="nonzero" />
      <path d="M178.56,95.06L181.90,90.46L185.58,87.19L186.99,86.08L192.22,84.35L202.03,83.56L211.61,83.68L217.10,84.05L218.06,84.58L218.75,85.82L219.99,90.01L221.01,94.74L222.19,98.25L222.32,98.93L222.91,100.02L223.14,100.10L223.52,99.15L224.03,98.58L223.21,97.63L222.31,96.73L219.37,94.98L216.62,93.00L214.81,90.83L214.09,90.26L213.22,89.99L210.83,89.60L204.86,88.63L197.44,87.64L191.26,87.95L190.01,88.33L188.02,89.61L187.38,90.14L186.93,90.85L186.13,93.06L183.51,95.54L181.07,97.66L179.52,99.11L178.55,99.53L178.05,99.47zM173.44,99.97L173.42,100.53L173.54,101.08L173.80,101.58L174.16,102.00L176.35,104.33L176.93,104.72L177.60,104.94L178.29,104.96L178.97,104.79L181.88,103.71L182.71,103.18L184.48,101.41L186.83,99.23L189.96,96.43L190.57,95.58L191.40,93.69L192.23,93.36L196.99,93.15L204.08,94.01L210.07,94.84L211.69,94.81L213.09,96.51L216.64,99.08L219.15,100.41L219.92,101.19L222.09,102.79L222.68,103.12L223.34,103.26L224.01,103.22L225.94,102.77L226.42,102.61L226.85,102.35L227.22,102.01L227.51,101.59L227.70,101.12L227.78,100.63L227.76,100.12L227.53,98.71L227.31,98.03L226.91,97.45L226.65,97.29L226.65,97.07L225.36,93.61L224.21,88.96L222.77,84.29L221.28,81.86L220.47,81.12L218.61,80.21L217.77,79.98L211.79,79.70L201.97,79.70L191.68,80.52L185.47,82.44L183.10,84.05L179.16,87.73L175.00,93.01L174.61,93.92z" fill="currentColor" stroke="none" fill-opacity="1.00" fill-rule="nonzero" />
    </g>
  </symbol>
</svg>