<?xml version='1.0' encoding='utf-8'?>
<svg xmlns="http://www.w3.org/2000/svg" version="1.1" x="0.00px" y="0.00px" width="400.00px" height="400.00px" viewBox="0.00 0.00 400.00 400.00">
  <symbol id="frame" viewBox="0.00 0.00 400.00 400.00">
    <g class="layers.drawing-primary">
      <path d="M94.99,132.63L94.86,132.22L94.66,131.85L94.39,131.52L94.06,131.25L93.69,131.05L93.28,130.93L92.86,130.89L92.44,130.94L92.03,131.06L91.66,131.26L91.33,131.53L91.07,131.86L90.87,132.23L90.75,132.64L90.71,133.06L90.75,133.48L92.31,139.48L93.72,143.17L97.22,151.67L99.81,160.84L100.41,172.35L101.30,197.34L101.91,216.21L104.13,236.64L107.48,253.75L109.03,264.71L110.55,287.34L110.92,295.82L116.93,336.28L117.09,338.70L116.61,340.45L116.46,341.05L116.42,341.66L116.51,342.27L116.71,342.85L117.02,343.39L117.43,343.85L117.93,344.22L118.48,344.49L119.08,344.64L119.69,344.68L120.30,344.59L120.88,344.39L121.42,344.08L121.88,343.67L122.25,343.18L122.52,342.62L123.61,340.32L123.81,338.88L123.43,335.63L117.08,295.39L116.72,287.02L114.82,264.18L113.15,252.85L109.81,235.88L107.52,215.90L106.78,197.13L105.38,172.10L104.44,160.25L101.08,150.36L97.43,141.60L95.84,138.55z" fill="currentColor" stroke="none" fill-opacity="1.00" fill-rule="nonzero" />
      <path d="M122.55,340.45L122.08,340.23L121.57,340.11L121.05,340.10L120.54,340.18L120.06,340.36L119.62,340.63L119.24,340.99L118.93,341.41L118.72,341.88L118.60,342.39L118.58,342.91L118.66,343.42L118.85,343.90L119.12,344.34L119.47,344.72L119.89,345.03L121.73,346.09L126.83,350.11L134.00,352.62L145.34,355.40L152.20,357.39L164.89,361.76L180.74,364.90L190.89,364.10L201.67,364.26L230.54,361.69L251.27,357.36L264.59,352.36L267.22,350.29L271.61,348.51L275.40,346.36L276.09,346.74L276.96,346.72L277.79,346.49L278.54,346.05L279.15,345.43L279.58,344.69L279.73,344.51L279.94,343.82L279.99,343.11L279.90,342.40L279.67,341.72L279.29,341.11L278.80,340.59L278.22,340.18L277.56,339.90L276.85,339.77L276.14,339.78L275.44,339.94L275.59,341.04L275.17,341.24L274.80,341.50L274.49,341.84L274.25,342.23L274.09,342.66L274.02,343.12L274.03,343.58L274.14,344.02L274.33,344.44L274.60,344.81L274.94,345.12L275.33,345.36L275.76,345.52L276.21,345.60L276.67,345.58L277.12,345.47L274.06,345.54L274.77,340.49L275.12,339.99L274.11,340.03L273.16,340.39L268.96,342.93L264.40,345.12L262.05,347.18L249.87,351.83L229.87,356.16L201.58,358.83L190.81,358.78L181.39,359.66L166.41,356.69L153.79,352.54L146.75,350.42L135.53,347.61L129.72,345.72L124.87,341.83z" fill="currentColor" stroke="none" fill-opacity="1.00" fill-rule="nonzero" />
      <path d="M104.09,130.53L103.61,130.26L103.09,130.09L102.55,130.02L102.01,130.06L101.48,130.20L100.99,130.45L100.56,130.78L100.20,131.20L99.94,131.67L99.76,132.19L99.70,132.73L99.74,133.28L99.88,133.80L100.13,134.29L100.46,134.72L100.88,135.08L107.17,139.41L116.58,144.23L128.12,148.55L136.60,151.52L158.07,155.27L166.63,156.08L187.01,157.72L201.56,158.11L206.36,158.24L232.03,155.74L259.71,151.59L267.48,148.35L273.18,144.95L282.41,140.80L289.43,137.66L297.39,135.17L298.85,134.17L299.43,133.89L299.93,133.49L300.35,133.00L300.67,132.44L300.87,131.83L300.94,131.19L300.89,130.55L300.72,129.94L300.43,129.36L300.04,128.86L299.55,128.44L298.99,128.12L298.38,127.92L297.74,127.85L297.10,127.90L296.48,128.07L294.86,128.28L287.06,131.46L279.71,134.85L270.31,139.12L264.71,142.60L258.35,145.48L231.35,149.70L206.31,152.23L201.70,152.16L187.40,151.83L167.14,150.22L158.94,149.52L138.24,146.02L130.05,143.26L118.93,139.18L110.11,134.88z" fill="currentColor" stroke="none" fill-opacity="1.00" fill-rule="nonzero" />
      <path d="M300.26,134.58L299.97,134.15L299.60,133.79L299.17,133.51L298.69,133.31L298.18,133.22L297.67,133.22L297.16,133.33L296.69,133.53L296.26,133.82L295.90,134.19L295.62,134.62L295.42,135.10L295.33,135.61L295.33,136.12L295.44,136.63L295.64,137.10L296.85,138.92L297.28,140.49L293.92,156.39L290.36,188.61L289.36,195.82L289.78,202.14L289.09,206.72L288.08,218.56L285.78,236.42L286.29,242.86L281.24,286.66L280.92,293.93L277.09,319.89L275.73,331.11L274.08,334.76L273.38,335.14L272.84,335.64L272.40,336.24L272.09,336.91L271.91,337.63L271.88,338.37L271.99,339.10L272.24,339.80L272.63,340.43L273.13,340.98L273.72,341.41L274.39,341.73L275.11,341.90L275.85,341.94L276.59,341.82L277.28,341.57L277.92,341.19L279.26,340.18L280.41,338.79L282.77,333.78L284.35,320.88L288.05,294.78L288.37,287.33L293.07,243.26L292.50,236.86L294.49,219.27L295.41,207.33L295.68,202.45L295.09,196.24L295.93,189.30L299.22,157.30L302.15,140.89L302.12,139.84L301.52,137.45z" fill="currentColor" stroke="none" fill-opacity="1.00" fill-rule="nonzero" />
      <path d="M110.94,154.65L110.53,154.47L110.10,154.37L109.65,154.36L109.22,154.44L108.80,154.60L108.43,154.83L108.10,155.14L107.85,155.50L107.67,155.91L107.57,156.34L107.56,156.79L107.63,157.22L107.79,157.64L108.03,158.01L108.34,158.34L108.70,158.59L116.57,163.43L128.42,167.87L133.95,170.06L143.91,173.00L150.71,174.62L172.81,176.92L178.76,176.59L186.75,177.82L202.77,178.39L207.06,178.33L213.62,178.55L219.91,177.66L227.23,177.01L241.62,174.96L245.07,174.49L263.38,169.35L271.10,166.27L277.71,163.00L283.66,160.02L286.95,158.07L287.50,157.63L287.95,157.08L288.25,156.45L288.41,155.76L288.41,155.05L288.28,153.60L288.19,152.71L287.84,154.15L288.12,154.45L288.64,154.06L289.06,153.58L289.39,153.02L289.60,152.41L289.69,151.78L289.65,151.13L289.49,150.51L289.20,149.93L288.82,149.42L288.33,148.99L287.78,148.67L287.17,148.46L286.53,148.37L285.89,148.41L285.27,148.57L284.69,148.85L283.28,149.72L282.64,150.23L282.14,150.89L281.83,151.65L281.71,152.46L281.78,152.86L282.02,154.38L282.51,154.05L280.74,154.64L275.06,157.70L268.75,160.80L261.61,163.78L244.11,168.89L240.84,169.33L226.64,171.47L219.32,172.18L213.52,173.13L207.16,172.97L202.89,173.04L187.40,172.50L179.28,171.29L173.13,171.63L151.77,169.49L145.33,167.90L135.75,165.14L130.29,163.02L118.93,158.84z" fill="currentColor" stroke="none" fill-opacity="1.00" fill-rule="nonzero" />
      <path d="M91.65,132.99L91.65,133.56L91.77,134.12L91.99,134.64L92.30,135.11L92.71,135.51L93.18,135.82L93.71,136.04L94.26,136.14L94.83,136.14L95.39,136.03L95.91,135.80L96.38,135.49L96.78,135.08L97.09,134.61L97.31,134.08L97.41,133.53L98.05,128.46L96.45,129.55L94.66,129.43L94.93,128.78L97.58,130.17L106.64,134.86L110.47,136.29L129.33,140.12L135.37,140.66L152.69,144.19L171.99,146.41L186.87,147.27L190.19,147.76L195.44,147.65L203.82,147.48L217.08,146.70L224.79,145.06L235.79,143.11L241.49,144.00L252.38,143.68L280.49,135.45L283.48,134.08L290.91,129.35L297.19,125.58L295.20,124.91L294.39,124.10L294.45,124.83L294.71,125.92L295.31,126.87L297.03,128.88L298.31,131.02L298.73,131.57L299.25,132.03L299.85,132.38L300.51,132.60L301.20,132.70L301.89,132.65L302.57,132.48L303.19,132.17L303.74,131.75L304.20,131.23L304.55,130.63L304.78,129.97L304.87,129.29L304.83,128.59L304.65,127.92L304.35,127.30L302.87,124.93L301.15,123.23L301.36,123.44L301.19,121.68L300.97,120.90L300.59,120.20L300.07,119.60L299.42,119.13L298.68,118.81L297.90,118.66L296.59,118.64L295.48,118.73L294.46,119.17L287.47,123.96L280.57,128.73L278.54,129.86L251.82,138.02L242.06,138.35L236.14,137.53L223.76,139.70L216.54,141.32L203.66,142.14L195.32,142.30L190.74,142.44L187.53,141.96L172.48,141.25L153.57,139.25L136.23,135.76L130.18,135.18L112.02,131.57L108.82,130.35L100.07,125.75L98.79,124.75L99.23,124.04L98.47,123.39L97.55,122.98L96.83,122.97L95.85,122.84L94.87,123.00L93.98,123.44L93.21,123.97L92.49,124.64L92.00,125.48L91.77,126.44z" fill="currentColor" stroke="none" fill-opacity="1.00" fill-rule="nonzero" />
      <path d="M129.96,202.07L129.88,210.65L129.99,221.62L131.43,234.45L133.37,251.13L134.64,269.03L135.21,285.32L136.86,300.18L140.18,312.91L143.52,322.81L145.73,330.14L148.06,333.73L148.57,334.26L149.22,334.59L151.42,335.28L154.20,335.39L156.03,335.43L156.68,335.34L157.27,335.08L159.32,333.78L159.91,333.23L160.27,332.51L161.40,328.71L161.39,322.96L160.79,316.20L159.86,306.21L158.39,293.95L158.33,278.61L158.15,262.37L156.07,244.64L153.38,227.42L150.11,212.07L146.44,200.61L143.12,192.10L140.33,186.85L138.05,183.75L137.22,183.00L136.46,182.60L135.36,182.22L134.41,182.07L133.47,182.27L132.51,182.74L130.50,184.46L129.14,185.61L127.21,188.61L126.87,189.72L126.67,194.67L126.89,195.77zM131.25,194.34L131.54,190.57L132.45,189.17L133.67,188.39L134.87,187.37L134.53,187.44L133.89,187.45L133.91,187.47L135.44,189.70L137.91,194.32L141.10,202.43L144.69,213.39L147.98,228.36L150.75,245.34L152.92,262.59L153.23,278.67L153.44,294.14L155.05,306.72L156.09,316.66L156.76,323.17L156.92,327.78L156.17,330.44L155.44,331.05L154.24,330.95L152.39,330.99L151.16,330.73L149.80,328.55L147.64,321.52L144.30,311.75L141.07,299.55L139.42,285.09L138.83,268.84L137.54,250.78L135.61,233.98L134.24,221.48L134.20,210.69L134.39,201.62L134.17,200.63z" fill="currentColor" stroke="none" fill-opacity="1.00" fill-rule="nonzero" />
      <path d="M189.85,330.41L188.72,324.18L188.01,315.47L187.07,306.13L186.59,294.25L186.70,282.27L187.47,270.36L187.95,256.93L187.51,243.62L187.17,232.09L188.51,221.12L190.19,212.61L190.45,204.16L190.54,197.72L191.35,194.29L192.68,192.02L194.12,190.78L195.92,190.51L197.52,190.48L198.71,190.24L200.17,189.31L201.57,189.53L202.79,191.54L204.02,198.23L204.93,207.27L205.85,219.55L206.00,234.33L205.33,249.62L205.15,265.61L205.90,282.42L206.45,296.27L206.24,309.02L205.57,319.00L202.73,326.35L199.43,332.39L197.83,336.70L197.54,338.30L197.53,338.44L196.78,338.31L194.86,337.14L192.09,334.59zM188.32,337.02L192.00,340.59L194.91,342.43L195.87,342.74L198.03,342.99L198.64,342.97L199.23,342.78L199.75,342.45L201.08,341.36L201.56,340.80L201.85,340.13L202.33,338.21L203.69,334.51L206.98,328.50L210.16,320.38L210.96,309.27L211.13,296.27L210.52,282.22L209.71,265.59L209.82,249.78L210.43,234.46L210.23,219.42L209.27,206.91L208.35,197.71L207.06,190.38L204.97,186.32L204.55,185.79L203.99,185.41L203.34,185.20L200.18,184.62L199.47,184.62L198.80,184.82L197.15,185.56L195.95,185.31L192.79,185.56L191.56,186.04L188.96,187.78L188.19,188.60L186.23,191.67L184.83,196.65L184.66,204.04L184.49,211.75L182.88,220.13L181.54,231.63L181.93,243.80L182.50,256.86L182.19,270.09L181.58,282.04L181.63,294.30L182.36,306.44L183.49,315.89L184.30,324.66L185.54,331.55z" fill="currentColor" stroke="none" fill-opacity="1.00" fill-rule="nonzero" />
      <path d="M241.63,336.03L240.99,335.36L239.58,334.26L238.17,332.40L237.06,329.79L236.40,325.78L236.07,320.54L236.08,314.28L236.46,306.79L237.27,298.80L239.20,289.67L241.20,280.08L241.26,269.73L241.15,259.82L242.68,250.53L245.05,241.11L246.70,231.21L247.14,222.11L247.58,213.97L248.22,206.45L249.08,200.06L251.04,195.08L252.97,191.89L255.29,190.22L257.98,189.36L260.65,188.01L262.31,186.82L263.28,186.50L264.66,186.96L266.01,188.42L265.81,191.58L264.88,196.89L265.87,206.65L266.63,217.58L264.72,229.30L260.94,244.69L257.93,260.83L256.02,277.51L254.48,292.79L253.57,305.29L252.52,316.03L249.57,324.46L246.66,328.32L244.33,331.59L242.42,333.59zM245.53,336.20L247.37,334.34L250.00,330.85L253.15,326.79L256.76,317.25L257.82,305.65L258.61,293.18L260.17,277.98L262.12,261.55L265.19,245.69L269.10,230.30L271.23,218.09L270.61,206.30L269.75,197.41L270.69,192.33L271.07,187.74L271.04,187.09L270.83,186.46L270.46,185.91L268.02,183.05L266.85,182.30L264.15,181.41L262.81,181.36L260.69,181.78L258.05,183.27L256.13,184.23L253.22,185.12L249.30,187.76L248.55,188.58L246.23,192.47L243.89,198.38L242.87,205.82L242.26,213.57L241.88,221.86L241.54,230.54L240.08,239.99L237.83,249.45L236.34,259.28L236.57,269.77L236.70,279.41L234.88,288.79L233.04,298.05L232.27,306.44L231.94,314.13L231.95,320.61L232.29,326.15L233.05,330.72L234.53,334.28L236.71,336.89L238.81,338.66L241.79,339.78L242.25,339.86L242.71,339.84L243.16,339.72L243.57,339.49L243.91,339.17L244.17,338.79z" fill="currentColor" stroke="none" fill-opacity="1.00" fill-rule="nonzero" />
      <path d="M194.85,72.33L176.42,73.54L157.45,75.83L138.91,78.00L125.16,80.08L112.72,83.43L103.61,87.20L97.57,90.58L93.91,93.82L91.69,97.41L91.41,98.37L91.00,101.53L90.81,112.99L91.12,114.27L92.52,117.00L93.37,118.01L96.18,120.18L100.84,123.11L111.23,127.75L123.93,132.72L137.91,137.92L152.35,142.09L165.31,144.81L173.90,146.08L181.84,146.30L188.67,146.35L195.29,145.35L201.22,144.04L207.00,143.55L213.63,143.49L221.68,143.18L231.44,142.75L243.34,141.37L259.19,136.58L275.11,130.66L286.81,126.46L294.44,122.99L298.31,119.21L298.96,118.10L299.79,115.04L299.87,104.19L300.16,100.77L299.95,99.54L298.04,95.61L297.68,95.07L297.19,94.65L291.35,91.06L283.86,87.64L276.33,83.46L263.60,79.64L249.63,76.48L235.03,74.28L215.16,73.78zM214.94,77.42L234.59,77.97L248.85,80.18L262.54,83.38L274.53,87.09L281.86,91.33L289.11,94.84L294.17,98.16L295.40,100.95L295.06,103.81L294.80,114.02L294.23,116.12L291.84,118.44L284.97,121.58L273.31,125.59L257.51,131.29L242.45,135.79L231.08,137.07L221.41,137.57L213.43,138.07L206.74,138.45L200.56,139.23L194.50,140.64L188.58,141.47L182.05,141.19L174.61,140.69L166.43,139.25L153.87,136.48L139.86,132.37L126.07,127.19L113.57,122.28L103.79,118.01L99.58,115.37L97.29,113.81L96.51,112.28L96.20,101.84L96.27,99.28L97.38,96.92L100.01,94.24L105.36,90.97L113.90,87.20L125.85,83.84L139.38,81.69L157.88,79.48L176.71,77.18L194.72,75.97z" fill="currentColor" stroke="none" fill-opacity="1.00" fill-rule="nonzero" />
      <path d="M195.28,129.08L188.88,129.26L182.20,129.27L174.66,128.85L166.39,128.34L153.92,125.89L139.84,121.71L125.68,117.24L112.32,113.91L102.32,110.56L99.36,106.93L98.85,103.90L98.10,101.41L97.79,99.30L98.29,97.06L100.22,94.33L105.38,91.53L114.34,89.09L126.49,86.08L139.66,82.21L157.76,78.65L176.58,78.20L194.65,78.86L215.08,78.33L234.78,77.51L249.22,78.39L263.03,81.22L275.14,85.09L282.14,90.18L288.06,95.46L294.22,98.85L296.92,101.30L297.24,103.89L296.07,106.56L292.95,109.47L285.85,113.09L274.13,116.87L257.81,120.22L242.15,122.89L230.60,125.89L221.35,128.25L213.63,129.16L207.09,129.69L201.16,129.41zM200.83,134.25L206.90,134.79L214.00,134.56L222.13,133.81L231.99,131.40L243.23,128.43L258.81,125.68L275.39,122.11L287.69,117.98L295.62,113.80L299.88,109.77L300.46,108.93L301.96,105.11L302.11,103.85L301.47,99.76L301.21,98.98L300.69,98.33L297.03,95.22L290.75,91.98L284.82,86.94L277.22,81.61L264.10,77.47L249.84,74.66L234.90,73.80L214.97,74.68L194.72,75.23L176.66,74.55L157.52,74.98L138.87,78.57L125.55,82.38L113.39,85.26L104.11,87.57L97.76,90.65L97.02,91.27L94.34,94.60L92.94,98.36L92.93,102.05L93.45,104.76L93.80,108.44L94.38,109.83L98.22,114.88L98.84,115.47L99.60,115.86L110.53,119.58L123.99,122.92L138.10,127.34L152.42,131.50L165.52,133.95L174.42,134.28L182.10,134.39L189.01,134.13L195.10,133.85z" fill="currentColor" stroke="none" fill-opacity="1.00" fill-rule="nonzero" />
      <path d="M181.40,96.09L182.65,89.83L184.32,85.23L186.14,84.00L191.93,82.99L202.00,82.55L211.58,82.62L216.45,83.37L216.85,84.27L216.96,86.08L217.07,86.61L217.30,87.09L217.65,87.51L221.10,90.71L223.89,93.98L224.14,96.24L223.75,96.26L223.97,96.16L223.47,96.30L223.02,96.53L222.63,96.87L222.32,97.28L222.11,97.74L222.01,98.24L222.01,98.76L222.13,99.25L222.36,99.71L222.23,98.39L221.95,97.79L220.71,98.64L219.75,98.96L218.23,96.73L216.18,93.99L214.68,91.63L214.04,90.98L213.21,90.59L211.11,89.95L205.00,88.63L197.54,87.33L191.48,87.02L187.82,87.82L187.23,88.02L186.70,88.36L186.27,88.80L185.95,89.34L184.56,92.80L183.59,97.09L182.76,99.10L181.76,99.03L180.25,98.07L179.59,98.85zM175.50,98.85L175.35,99.29L175.30,99.76L175.35,100.22L175.50,100.67L175.73,101.07L176.04,101.42L176.42,101.69L176.85,101.88L177.83,102.49L179.55,103.69L180.73,104.08L184.23,104.30L184.88,104.27L185.50,104.08L186.05,103.73L186.49,103.26L186.80,102.69L188.28,98.71L189.30,94.64L190.29,92.76L191.58,92.57L196.78,92.81L203.96,93.97L209.82,95.09L211.07,95.17L212.11,96.84L214.37,99.77L217.02,102.81L217.46,103.21L217.97,103.49L218.54,103.63L219.13,103.64L221.82,103.33L222.91,102.93L224.67,101.68L225.96,100.66L226.32,100.32L226.60,99.91L226.78,99.45L226.87,98.96L226.85,98.47L226.73,97.99L226.51,97.54L226.45,99.42L225.01,100.72L226.05,100.29L227.58,99.10L227.98,98.73L228.28,98.27L228.46,97.75L228.51,97.21L228.36,93.07L228.21,92.30L227.80,91.63L224.28,87.75L221.04,84.99L221.07,83.53L220.83,82.71L219.64,80.51L219.36,80.10L219.00,79.77L218.56,79.53L218.08,79.41L211.99,78.65L201.96,78.70L191.64,79.14L185.08,80.19L184.33,80.48L181.57,82.25L181.08,82.69L180.77,83.27L178.96,88.67L177.58,94.64z" fill="currentColor" stroke="none" fill-opacity="1.00" fill-rule="nonzero" />
    </g>
  </symbol>
</svg>