<?xml version='1.0' encoding='utf-8'?>
<svg xmlns="http://www.w3.org/2000/svg" version="1.1" x="0.00px" y="0.00px" width="400.00px" height="400.00px" viewBox="0.00 0.00 400.00 400.00">
  <symbol id="frame" viewBox="0.00 0.00 400.00 400.00">
    <g class="layers.drawing-primary">
      <path d="M95.95,132.86L95.88,132.44L95.73,132.04L95.50,131.68L95.21,131.38L94.86,131.13L94.47,130.96L94.06,130.87L93.64,130.86L93.22,130.93L92.82,131.08L92.46,131.31L92.16,131.60L91.91,131.95L91.74,132.34L91.65,132.75L91.64,133.18L92.43,139.24L92.99,142.92L96.56,151.86L99.27,160.94L99.91,172.39L100.77,197.37L101.34,216.24L103.49,236.70L106.79,253.84L108.32,264.77L109.83,287.34L110.03,295.85L115.89,336.61L116.87,340.02L117.44,342.05L117.60,342.65L117.88,343.20L118.25,343.69L118.72,344.09L119.25,344.40L119.84,344.59L120.45,344.67L121.06,344.63L121.66,344.47L122.21,344.20L122.70,343.82L123.10,343.36L123.41,342.82L123.61,342.24L123.68,341.63L123.64,341.01L123.48,338.64L122.30,335.36L116.20,295.51L116.01,287.12L114.12,264.24L112.46,252.95L109.18,235.97L106.96,215.95L106.25,197.17L104.88,172.14L103.90,160.32L100.41,150.51L96.90,141.92L96.06,138.85z" fill="currentColor" stroke="none" fill-opacity="1.00" fill-rule="nonzero" />
      <path d="M123.04,339.47L122.57,339.23L122.07,339.09L121.56,339.05L121.04,339.11L120.55,339.27L120.10,339.53L119.70,339.86L119.38,340.27L119.14,340.73L119.00,341.23L118.96,341.75L119.02,342.26L119.18,342.76L119.44,343.21L119.77,343.60L120.18,343.93L122.13,345.17L127.23,349.34L133.30,352.87L144.35,357.46L151.71,359.64L164.97,362.78L180.85,365.12L190.78,364.71L201.61,365.14L230.63,361.73L251.17,356.59L264.37,353.05L267.10,352.71L268.26,352.28L272.94,349.47L277.04,344.81L278.01,343.52L278.35,342.74L278.49,341.90L278.42,341.06L277.87,341.92L277.20,341.87L277.60,341.65L277.95,341.36L278.24,341.00L278.45,340.59L278.58,340.15L278.62,339.69L278.57,339.24L278.43,338.80L278.21,338.40L277.91,338.04L277.55,337.76L277.14,337.55L276.70,337.42L276.25,337.38L275.79,337.43L275.35,337.57L273.46,337.19L272.78,337.59L272.20,338.12L271.76,338.78L271.48,339.52L271.38,340.30L271.46,341.08L271.81,341.23L271.86,340.96L269.18,344.54L265.65,347.02L263.37,347.34L249.74,351.07L229.78,356.22L201.59,359.70L190.85,359.39L181.37,359.87L166.05,357.60L153.10,354.73L146.22,352.63L135.77,348.25L130.39,345.15L125.37,340.98z" fill="currentColor" stroke="none" fill-opacity="1.00" fill-rule="nonzero" />
      <path d="M103.88,130.97L103.41,130.69L102.90,130.51L102.36,130.44L101.81,130.47L101.28,130.60L100.79,130.84L100.35,131.16L99.99,131.57L99.71,132.04L99.53,132.56L99.45,133.10L99.48,133.64L99.62,134.17L99.85,134.66L100.18,135.10L100.59,135.46L106.84,139.94L116.29,144.95L128.60,148.02L137.57,149.18L158.29,152.75L166.22,154.95L186.96,157.19L201.83,156.17L206.71,155.04L231.62,152.76L259.13,148.81L266.57,146.84L272.62,144.65L282.25,140.76L289.48,137.52L297.20,134.55L298.07,134.01L298.77,133.24L299.22,132.31L299.26,130.91L299.40,130.28L299.41,129.64L299.30,129.01L299.06,128.41L298.72,127.87L298.27,127.41L297.74,127.04L297.15,126.78L296.53,126.65L295.89,126.63L295.25,126.75L294.66,126.98L294.12,127.33L293.65,127.77L293.29,128.30L293.03,128.89L293.01,128.72L286.81,131.45L279.72,134.73L270.29,138.58L264.74,140.74L258.03,142.66L230.98,146.71L205.94,149.07L201.14,150.24L187.31,151.30L167.54,149.22L159.68,147.10L138.47,143.51L129.75,142.52L118.54,139.84L109.86,135.47z" fill="currentColor" stroke="none" fill-opacity="1.00" fill-rule="nonzero" />
      <path d="M302.77,135.72L302.78,135.20L302.70,134.69L302.52,134.21L302.25,133.77L301.89,133.40L301.47,133.10L301.00,132.88L300.50,132.77L299.98,132.75L299.47,132.83L298.99,133.02L298.55,133.29L298.18,133.64L297.88,134.06L297.66,134.53L297.55,135.03L297.44,137.34L296.56,139.37L293.68,156.47L291.47,188.75L290.27,195.81L289.28,201.49L287.87,206.07L287.43,218.62L285.56,236.32L284.42,242.08L277.59,286.18L278.00,293.90L275.24,319.90L275.36,331.97L275.01,336.07L274.47,336.50L274.06,337.12L273.79,337.81L273.65,338.54L273.66,339.28L273.81,340.01L274.10,340.69L274.52,341.30L275.05,341.82L275.67,342.22L276.35,342.50L277.08,342.64L277.82,342.63L278.55,342.48L279.23,342.19L279.84,341.77L280.36,341.24L281.44,339.90L281.99,338.99L282.25,337.96L282.84,332.58L282.55,320.43L285.16,294.34L284.73,286.87L291.10,243.30L292.20,237.44L293.87,219.13L294.10,207.31L295.03,202.83L295.93,196.72L297.03,189.51L299.01,157.16L301.21,141.00L302.06,138.93z" fill="currentColor" stroke="none" fill-opacity="1.00" fill-rule="nonzero" />
      <path d="M109.90,156.32L109.49,156.16L109.05,156.09L108.61,156.10L108.17,156.20L107.77,156.38L107.40,156.63L107.10,156.95L106.86,157.33L106.70,157.74L106.62,158.18L106.64,158.62L106.73,159.06L106.91,159.46L107.17,159.83L107.49,160.13L107.87,160.37L116.08,164.85L128.23,168.90L134.21,170.43L144.19,172.47L150.78,174.13L172.68,177.24L178.75,177.25L186.95,177.87L202.87,177.71L207.59,176.39L213.60,175.49L219.15,175.84L226.63,176.72L241.58,174.24L245.30,172.24L262.62,167.14L270.27,165.45L277.32,163.31L283.76,161.00L287.48,159.70L288.13,159.36L288.69,158.88L289.13,158.29L289.40,157.60L289.52,156.88L289.46,156.79L289.62,156.81L289.95,155.98L290.04,155.10L289.88,154.22L289.63,153.46L289.84,152.28L289.85,151.63L289.74,151.00L289.50,150.40L289.16,149.86L288.71,149.40L288.18,149.03L287.59,148.77L286.96,148.64L286.32,148.62L285.69,148.74L285.09,148.97L284.55,149.32L284.08,149.77L283.72,150.30L283.46,150.89L283.32,151.51L283.10,153.41L283.24,154.83L283.64,154.91L283.69,154.37L283.28,155.82L283.88,154.94L281.64,155.26L275.51,157.66L268.84,159.66L261.22,161.47L243.33,166.90L240.08,168.74L226.85,171.14L219.70,170.36L213.61,170.06L206.58,171.12L202.43,172.36L187.23,172.52L179.04,171.94L173.23,171.97L151.93,169.02L145.44,167.33L135.43,165.33L129.77,163.93L118.22,160.16z" fill="currentColor" stroke="none" fill-opacity="1.00" fill-rule="nonzero" />
      <path d="M93.54,133.56L93.65,134.12L93.87,134.64L94.18,135.12L94.58,135.52L95.05,135.83L95.58,136.05L96.13,136.16L96.70,136.16L97.26,136.05L97.78,135.84L98.25,135.52L98.66,135.12L98.97,134.65L99.19,134.12L99.30,133.57L99.30,133.00L99.16,126.56L98.00,128.15L94.30,128.88L94.46,128.31L94.96,129.04L95.67,129.57L97.62,130.31L106.97,134.48L110.78,135.70L129.26,140.05L135.15,141.14L152.58,144.77L171.93,147.08L187.27,146.07L188.23,145.82L191.10,144.44L195.46,144.09L203.67,144.60L216.71,145.15L224.12,145.70L236.17,145.08L242.16,144.96L252.64,143.52L280.49,135.50L283.38,134.39L291.02,129.58L297.76,125.63L296.66,125.49L295.39,124.40L295.20,124.34L295.17,127.15L295.13,129.85L295.20,130.55L295.39,131.21L295.71,131.83L296.15,132.37L296.68,132.82L297.29,133.15L297.96,133.36L298.65,133.43L299.34,133.37L300.01,133.17L300.62,132.85L301.16,132.42L301.61,131.88L301.94,131.27L302.15,130.61L302.22,129.92L302.23,127.19L302.17,124.22L302.12,122.86L301.85,121.70L301.21,120.69L300.37,119.63L299.64,119.01L298.76,118.60L297.81,118.45L296.85,118.55L295.53,118.95L287.56,124.20L280.76,128.89L278.66,129.86L251.65,137.92L241.84,139.29L235.96,139.52L224.33,140.25L217.05,139.76L203.97,139.26L195.60,138.74L190.19,139.15L186.37,140.78L172.28,141.90L153.48,139.84L136.14,136.26L130.34,135.17L112.20,130.94L108.89,129.86L99.93,125.79L99.00,125.16L99.70,124.50L99.25,123.80L98.66,123.22L97.94,122.79L97.15,122.54L96.15,122.55L95.46,122.49L94.78,122.57L94.13,122.78L93.54,123.12L93.02,123.58L92.61,124.13L92.32,124.75L92.16,125.42L92.14,126.10L92.26,126.78L92.48,127.51z" fill="currentColor" stroke="none" fill-opacity="1.00" fill-rule="nonzero" />
      <path d="M128.45,201.85L128.68,210.82L129.10,221.75L129.84,234.45L130.81,251.25L132.89,269.33L135.67,285.54L137.95,300.01L138.84,312.78L140.35,323.35L140.64,324.15L144.89,331.21L145.28,331.69L145.79,332.04L149.26,333.77L150.92,334.85L153.34,335.97L156.42,336.34L157.19,336.26L157.90,335.92L160.32,334.18L160.88,333.60L161.20,332.86L162.18,328.70L161.58,322.73L160.81,316.27L160.83,306.35L160.30,293.79L157.39,278.26L154.45,262.54L153.47,245.19L152.95,227.83L151.05,212.13L148.08,200.36L144.81,191.54L140.67,186.11L138.14,184.08L138.05,183.11L137.72,182.24L137.12,181.54L135.24,180.06L134.75,179.73L134.20,179.52L133.62,179.43L133.03,179.48L132.47,179.65L131.95,179.94L130.08,181.38L129.39,182.11L128.28,184.05L127.37,186.16L126.83,189.46L127.44,195.03zM131.96,194.49L131.52,189.90L131.91,187.90L132.63,186.60L133.50,185.29L133.43,184.80L132.99,185.05L132.98,186.03L133.30,186.88L133.88,187.59L136.40,189.83L139.66,193.94L142.66,201.91L145.54,213.00L147.48,228.14L148.11,245.40L149.24,263.02L152.39,279.22L155.36,294.20L156.00,306.42L156.08,316.43L156.98,323.32L157.64,328.08L156.99,331.03L155.97,331.96L154.79,331.75L153.16,331.05L151.53,330.01L148.28,328.41L144.56,322.29L143.11,312.40L142.18,299.62L139.83,284.86L137.05,268.79L134.99,250.95L134.04,234.21L133.34,221.57L133.00,210.71L132.87,201.64z" fill="currentColor" stroke="none" fill-opacity="1.00" fill-rule="nonzero" />
      <path d="M192.33,330.26L192.10,329.23L189.24,323.48L186.79,315.35L185.71,306.21L185.55,294.26L185.33,282.15L185.24,270.23L185.84,257.05L187.51,244.06L188.78,232.29L187.60,220.33L186.81,211.96L188.92,204.89L191.59,198.84L193.09,195.11L194.26,192.33L195.55,190.09L196.87,188.29L198.16,187.49L199.64,187.69L201.42,188.84L202.87,191.45L203.98,198.11L204.02,207.17L203.85,219.57L204.11,234.48L204.52,249.80L205.21,265.74L206.36,282.46L207.05,296.13L205.04,308.52L202.53,318.46L201.41,326.78L200.44,333.24L199.15,336.43L198.03,336.92L196.72,337.98L195.38,338.93L193.68,338.50L192.23,335.65zM187.75,336.11L187.99,337.17L190.14,341.41L190.49,341.92L190.97,342.31L191.54,342.56L195.16,343.59L195.80,343.67L196.43,343.57L197.01,343.30L199.39,341.82L200.50,340.95L202.04,340.12L202.65,339.65L203.07,339.01L204.92,334.89L206.12,327.47L207.20,319.49L209.65,309.57L211.71,296.63L210.97,282.19L209.77,265.50L209.02,249.65L208.54,234.38L208.23,219.59L208.37,207.21L208.33,197.92L207.16,190.39L205.18,186.24L204.49,185.45L202.00,183.55L201.13,183.16L198.34,182.44L197.49,182.40L196.67,182.66L193.99,183.91L193.16,184.59L191.23,186.82L189.40,189.52L187.83,192.81L186.27,196.54L183.55,202.72L181.13,210.86L181.03,211.95L181.92,220.89L183.13,232.00L181.97,243.40L180.42,256.50L179.95,270.09L180.21,282.23L180.59,294.38L180.99,306.44L182.30,316.12L185.05,324.96L187.88,330.71z" fill="currentColor" stroke="none" fill-opacity="1.00" fill-rule="nonzero" />
      <path d="M242.99,336.10L242.16,335.29L241.64,333.40L241.39,332.83L240.97,332.37L239.44,331.03L237.74,329.09L236.60,325.53L235.95,320.45L235.73,314.24L236.11,306.77L236.92,298.76L238.81,289.62L240.75,280.02L241.88,270.06L242.99,260.14L243.50,250.26L243.68,240.50L245.05,231.17L247.78,222.92L249.97,214.88L250.03,206.56L250.25,200.05L251.60,194.88L252.98,191.46L255.04,189.59L257.64,188.40L260.38,186.58L261.89,185.28L262.34,185.08L262.71,186.46L263.34,189.32L263.82,190.36L266.01,193.13L267.73,197.60L267.34,206.36L266.16,217.32L264.20,229.30L261.38,244.89L259.01,261.07L257.31,277.72L255.82,292.98L254.43,305.35L252.90,316.16L250.62,325.13L248.31,329.60L246.17,333.31L244.28,335.61zM246.16,339.24L247.03,338.63L249.43,335.81L251.94,331.68L254.51,326.90L257.19,317.14L258.66,305.89L259.94,293.42L261.47,278.14L263.23,261.65L265.68,245.65L268.62,230.10L270.73,218.03L272.07,206.82L272.63,197.34L272.47,196.35L270.49,191.04L268.13,187.76L267.65,185.11L266.12,181.75L265.74,181.20L265.24,180.76L264.64,180.46L263.99,180.32L261.40,180.07L260.49,180.15L259.67,180.54L257.36,182.10L255.19,183.51L252.38,184.76L248.82,187.82L248.12,188.83L246.45,193.01L244.91,198.99L244.64,206.45L244.72,213.85L242.75,221.35L240.04,229.77L238.61,239.94L238.53,250.08L238.17,259.71L237.22,269.57L236.28,279.25L234.48,288.76L232.69,298.03L231.93,306.42L231.59,314.13L231.84,320.69L232.53,326.24L233.96,330.76L234.38,331.49L236.50,333.87L238.04,335.01L238.48,336.79L238.97,337.66L241.02,339.80L241.37,340.09L241.78,340.29L242.22,340.39L242.68,340.39L243.12,340.29z" fill="currentColor" stroke="none" fill-opacity="1.00" fill-rule="nonzero" />
      <path d="M194.69,25.19L176.52,25.47L157.43,26.84L138.78,29.43L125.14,32.27L112.88,35.92L103.87,39.63L97.89,42.79L94.11,45.53L91.53,48.97L91.20,49.71L91.13,50.52L91.24,53.79L91.59,64.75L91.35,67.63L91.58,68.99L93.12,72.82L93.55,73.52L94.15,74.08L99.19,77.59L110.51,81.93L123.67,86.06L138.10,90.05L152.75,93.05L165.67,94.95L174.15,95.41L181.56,96.67L188.29,97.81L195.22,97.07L201.26,95.68L207.08,94.99L213.69,94.63L221.72,93.74L231.37,92.21L242.88,90.14L258.60,87.63L275.19,83.83L287.40,79.76L295.38,76.13L296.23,75.51L299.54,71.75L300.15,70.54L300.86,66.92L300.70,55.92L300.86,52.30L300.69,51.26L298.84,46.94L298.33,46.18L293.18,41.24L286.03,36.22L277.05,32.58L263.79,29.83L249.77,27.02L235.11,24.94L215.12,24.76zM215.11,28.41L234.70,28.63L249.07,30.74L263.00,33.64L275.69,36.39L283.79,39.78L290.22,44.49L294.78,49.12L296.12,52.56L295.87,55.71L295.83,66.19L295.30,68.87L292.72,71.61L285.64,74.84L273.89,78.60L257.65,82.16L241.98,84.57L230.44,86.61L220.98,88.17L213.21,89.23L206.60,89.91L200.48,90.89L194.53,92.34L188.83,92.96L182.52,91.65L175.01,90.05L166.41,89.33L153.85,87.35L139.58,84.36L125.40,80.39L112.51,76.33L102.25,72.54L98.20,69.73L97.10,67.39L97.30,65.03L96.44,53.47L96.10,50.98L97.26,48.96L100.17,46.55L105.60,43.41L114.13,39.67L126.01,35.99L139.36,33.10L157.76,30.50L176.63,29.12L194.75,28.82z" fill="currentColor" stroke="none" fill-opacity="1.00" fill-rule="nonzero" />
      <path d="M195.13,80.22L188.71,80.92L182.30,81.41L175.22,79.85L167.05,77.63L154.22,75.24L139.85,72.65L125.85,68.73L113.43,63.89L103.62,59.32L99.33,56.87L97.65,55.15L97.11,53.41L97.03,51.51L98.10,49.81L100.95,47.92L106.35,45.16L114.73,41.26L126.42,36.99L139.46,32.73L157.54,28.75L176.46,28.90L194.59,30.17L215.03,30.21L234.66,29.95L248.95,31.48L262.56,35.05L274.71,38.79L282.53,42.20L289.06,46.14L293.00,50.47L294.12,53.69L295.07,56.13L294.82,58.27L292.50,61.17L285.79,65.15L274.26,69.45L258.06,73.36L242.43,76.27L230.94,78.24L221.58,79.63L213.83,79.72L207.16,79.43L200.86,80.14zM201.01,84.98L207.03,84.54L213.56,85.14L221.78,85.24L231.80,83.86L243.41,81.83L259.16,78.80L275.71,74.64L287.87,69.95L295.54,65.26L299.19,60.73L299.54,60.11L299.70,59.42L299.93,55.96L299.76,54.83L298.53,52.02L297.14,48.44L296.66,47.66L292.04,42.90L284.54,38.51L276.19,35.03L263.64,31.31L249.76,27.79L234.94,26.25L215.02,26.56L194.78,26.54L176.66,25.26L157.37,25.08L138.57,29.11L125.22,33.36L113.32,37.56L104.61,41.38L98.93,44.01L95.28,46.10L94.62,46.71L92.62,49.22L92.28,49.86L92.15,50.57L91.89,53.56L92.47,57.07L93.09,58.27L95.36,60.99L100.74,64.46L111.00,69.32L123.83,74.31L138.41,78.35L153.19,80.95L165.74,83.16L173.94,85.13L181.67,86.50L189.19,85.77L195.30,85.00z" fill="currentColor" stroke="none" fill-opacity="1.00" fill-rule="nonzero" />
      <path d="M180.59,47.99L182.93,42.22L185.22,38.42L186.61,37.60L192.11,36.59L202.10,35.79L211.69,35.23L216.66,35.34L216.93,36.27L217.13,38.01L217.35,38.68L217.77,39.24L221.15,42.50L224.08,46.02L224.83,48.88L224.56,49.53L224.40,49.72L224.66,49.67L224.09,49.49L222.91,48.69L222.03,48.11L219.46,46.73L216.90,44.93L215.56,42.41L215.04,41.77L214.35,41.33L211.71,40.11L210.66,39.89L204.46,39.81L197.09,40.21L191.77,39.97L188.79,39.47L188.17,39.42L187.55,39.51L186.97,39.75L186.46,40.12L186.05,40.59L184.01,43.85L183.58,45.11L183.37,49.24L182.68,52.09L180.87,52.53L179.01,52.44L178.23,52.01zM173.53,51.03L173.31,51.47L173.19,51.95L173.18,52.44L173.28,52.92L173.47,53.37L173.76,53.76L175.95,56.58L176.43,56.98L176.99,57.26L177.60,57.39L180.90,57.74L185.50,56.57L186.12,56.30L186.65,55.87L187.05,55.32L187.29,54.68L188.26,50.14L188.61,46.13L189.49,45.07L190.90,45.44L196.98,45.74L204.54,45.25L210.11,45.18L211.52,45.71L212.87,47.89L213.61,48.70L216.78,50.86L219.48,52.25L220.33,52.80L222.19,53.81L223.13,54.11L225.00,54.26L225.80,54.20L226.54,53.87L227.29,53.35L228.48,52.04L229.34,49.59L229.37,48.36L228.31,44.41L227.84,43.50L224.38,39.58L221.16,36.69L221.03,35.23L220.75,34.46L219.51,32.50L219.20,32.10L218.81,31.79L218.34,31.58L217.85,31.49L211.79,31.25L201.84,31.94L191.71,32.75L185.60,33.79L182.79,35.20L182.04,35.94L179.53,40.38L177.07,45.93z" fill="currentColor" stroke="none" fill-opacity="1.00" fill-rule="nonzero" />
      <path d="M96.08,124.33L96.39,124.61L96.93,124.39L99.71,122.54L105.93,119.72L107.02,118.89L106.58,118.14L104.65,117.11L102.36,115.26L100.36,112.76L99.70,111.35L99.32,109.90L99.40,108.57L100.10,106.56L101.11,104.82L101.25,103.54L100.68,101.53L98.70,97.24L98.21,95.16L98.59,93.09L99.58,91.94L101.65,91.09L107.25,90.39L107.84,90.13L108.19,89.01L106.98,84.13L106.48,80.67L107.14,79.39L108.48,78.75L109.81,78.80L112.63,79.42L115.49,80.36L120.07,82.35L131.31,85.06L142.53,88.43L151.06,90.44L164.41,92.56L170.84,93.23L199.67,94.40L208.82,95.05L213.03,94.95L216.62,94.49L237.06,90.45L254.78,87.36L262.44,84.74L271.61,81.93L279.39,80.26L281.46,80.30L282.97,80.60L284.29,81.28L285.51,82.22L286.50,83.43L287.43,85.46L287.70,89.69L286.46,93.27L286.90,93.68L287.27,93.69L290.45,92.94L295.24,92.60L297.35,92.90L300.10,94.41L301.61,96.09L302.14,97.50L302.29,99.52L301.60,102.33L298.62,106.35L295.44,108.76L289.88,112.00L289.69,112.53L289.93,112.92L291.81,114.05L293.19,115.43L294.07,117.59L294.27,119.03L294.16,120.31L293.64,121.72L292.80,123.05L291.20,124.66L287.56,127.35L282.92,130.05L279.57,131.58L275.36,132.86L271.13,133.80L259.14,137.77L255.60,138.43L250.70,138.89L242.81,140.12L239.36,140.91L226.68,142.97L194.28,143.02L190.67,143.35L181.59,143.42L174.49,144.06L168.18,144.04L158.24,143.13L153.33,141.94L147.00,141.05L138.52,139.19L130.06,136.58L121.30,134.81L120.42,134.90M167.42,127.68L164.35,129.21L161.07,130.22L157.64,130.56L154.31,130.12L151.22,128.98L148.48,127.13L146.23,124.62L144.52,121.61L143.47,118.39L143.17,115.05L143.64,111.71L144.84,108.54L146.73,105.67L149.14,103.26L151.98,101.38L155.16,100.10L158.55,99.43L162.01,99.40L165.29,100.11L168.21,101.59L170.61,103.79L172.40,106.61L173.60,109.86L174.28,113.30L174.31,116.72L173.60,119.96L172.22,122.97L170.13,125.61zM237.34,128.67L233.15,129.00L229.08,128.59L225.29,127.26L221.98,124.95L219.37,121.85L217.65,118.17L216.96,114.18L217.41,110.25L219.02,106.68L221.61,103.66L224.98,101.31L228.86,99.67L232.95,98.84L237.03,98.90L240.93,99.91L244.48,101.87L247.40,104.71L249.49,108.17L250.68,112.03L250.86,116.07L249.89,119.92L247.87,123.17L244.97,125.73L241.38,127.60z" fill-rule="evenodd" fill="currentColor" stroke="none" fill-opacity="1.00" />
      <path d="M241.35,115.72L241.47,115.74L241.64,115.81L240.55,115.10L240.41,115.00L240.39,114.98L240.42,115.03L240.42,115.03L240.40,114.75L240.41,113.70L240.41,113.69L240.49,113.41L240.73,112.68L241.18,111.64L241.37,111.30L241.51,111.18L241.63,111.10L241.64,111.10L241.74,111.05L241.81,111.04L242.15,111.00L242.64,110.97L243.41,111.00L243.74,111.06L244.16,111.17L244.55,111.31L244.90,111.46L245.40,111.71L245.56,111.81L245.79,111.98L245.81,112.02L245.88,112.10L246.07,112.47L246.25,112.99L246.33,113.39L246.35,113.53L246.35,113.97L246.34,114.16L246.24,114.62L246.12,115.02L246.13,115.01L246.03,115.12L245.78,115.38L245.58,115.56L245.35,115.70L245.10,115.83L244.35,116.10L244.11,116.15L243.84,116.15L243.17,116.16L242.74,116.13L242.68,116.11L242.79,116.17L242.84,116.18L242.64,116.05L242.13,115.79L241.56,115.71zM240.99,119.42L240.56,119.23L240.71,119.34L241.41,119.70L241.98,119.85L242.96,119.95L243.89,119.96L244.41,119.94L245.20,119.81L246.49,119.37L247.12,119.07L247.71,118.71L248.34,118.20L248.85,117.67L249.20,117.25L249.53,116.69L249.89,115.69L250.08,114.83L250.15,114.21L250.15,113.36L250.09,112.79L249.94,112.09L249.62,111.10L249.18,110.23L248.87,109.75L248.54,109.36L247.82,108.75L247.33,108.44L246.57,108.04L246.00,107.79L245.34,107.55L244.62,107.36L243.96,107.24L242.70,107.17L241.89,107.20L241.23,107.28L240.65,107.41L240.07,107.64L239.83,107.75L239.24,108.14L238.59,108.72L237.86,109.79L237.21,111.25L236.87,112.26L236.72,112.79L236.63,113.30L236.60,114.80L236.65,115.52L236.82,116.25L237.09,116.86L237.61,117.57L238.24,118.13L239.71,119.09L240.13,119.30L240.75,119.47z" fill="currentColor" stroke="none" fill-opacity="1.00" fill-rule="nonzero" />
      <path d="M163.91,117.53L163.99,117.54L164.15,117.61L162.94,116.82L162.76,116.69L162.71,116.63L162.72,116.64L162.71,116.61L162.69,116.27L162.70,115.11L162.71,115.07L162.80,114.75L163.07,113.94L163.56,112.79L163.79,112.38L163.98,112.22L164.13,112.11L164.16,112.10L164.28,112.04L164.39,112.02L164.79,111.97L165.33,111.94L166.19,111.98L166.58,112.05L167.05,112.17L167.49,112.33L167.89,112.50L168.44,112.78L168.63,112.89L168.91,113.10L168.95,113.16L169.03,113.28L169.26,113.70L169.46,114.29L169.56,114.75L169.58,114.92L169.59,115.43L169.57,115.66L169.46,116.18L169.31,116.64L169.30,116.66L169.18,116.80L168.90,117.11L168.66,117.32L168.38,117.48L168.09,117.63L167.25,117.94L166.96,117.99L166.65,118.00L165.90,118.01L165.41,117.97L165.31,117.95L165.40,118.00L165.42,117.99L165.22,117.85L164.71,117.60L164.16,117.51zM163.60,121.16L163.19,120.98L163.36,121.10L164.07,121.46L164.67,121.62L165.70,121.73L166.70,121.73L167.25,121.71L168.09,121.57L169.46,121.10L170.13,120.78L170.75,120.40L171.41,119.86L171.95,119.30L172.31,118.86L172.66,118.28L173.03,117.23L173.24,116.32L173.31,115.66L173.31,114.75L173.24,114.17L173.08,113.41L172.74,112.36L172.28,111.44L171.95,110.94L171.61,110.53L170.85,109.89L170.34,109.57L169.52,109.14L168.91,108.88L168.21,108.63L167.44,108.42L166.73,108.29L165.39,108.22L164.53,108.25L163.82,108.34L163.22,108.47L162.62,108.71L162.37,108.83L161.74,109.24L161.06,109.85L160.31,110.97L159.61,112.54L159.24,113.62L159.08,114.19L158.99,114.72L158.96,116.32L159.02,117.09L159.20,117.85L159.48,118.48L160.02,119.20L160.68,119.78L162.26,120.82L162.68,121.03L163.32,121.20z" fill="currentColor" stroke="none" fill-opacity="1.00" fill-rule="nonzero" />
    </g>
  </symbol>
</svg>