<?xml version='1.0' encoding='utf-8'?>
<svg xmlns="http://www.w3.org/2000/svg" version="1.1" x="0.00px" y="0.00px" width="400.00px" height="400.00px" viewBox="0.00 0.00 400.00 400.00">
  <symbol id="frame" viewBox="0.00 0.00 400.00 400.00">
    <g class="layers.drawing-primary">
      <path d="M95.65,132.68L95.54,132.27L95.35,131.89L95.10,131.55L94.78,131.27L94.41,131.06L94.01,130.92L93.59,130.87L93.17,130.89L92.76,131.00L92.38,131.19L92.04,131.44L91.76,131.76L91.55,132.13L91.41,132.53L91.35,132.95L91.38,133.37L92.69,139.37L93.79,142.94L96.02,151.67L97.06,161.10L97.93,172.65L100.62,197.56L102.18,216.31L103.65,236.59L106.41,253.87L108.49,264.86L110.52,287.38L110.92,295.84L116.87,335.97L116.67,337.95L115.49,339.57L115.16,340.09L114.92,340.66L114.81,341.26L114.82,341.88L114.94,342.48L115.18,343.05L115.53,343.56L115.97,343.99L116.49,344.33L117.06,344.56L117.66,344.67L118.28,344.67L118.88,344.54L119.45,344.30L119.96,343.95L120.39,343.51L122.42,341.36L122.91,340.54L123.15,339.62L123.42,336.27L117.09,295.38L116.68,287.01L114.26,264.16L112.07,252.91L109.36,236.04L107.79,215.88L106.08,197.04L102.89,172.17L101.69,160.62L100.04,150.99L97.67,141.83L96.27,138.61z" fill="currentColor" stroke="none" fill-opacity="1.00" fill-rule="nonzero" />
      <path d="M122.70,339.37L122.21,339.20L121.69,339.12L121.18,339.15L120.67,339.28L120.21,339.51L119.79,339.82L119.45,340.21L119.18,340.65L119.01,341.14L118.94,341.66L118.97,342.17L119.10,342.68L119.32,343.14L119.63,343.56L120.02,343.90L120.47,344.17L122.45,345.07L127.62,348.91L133.33,352.53L144.22,357.56L151.96,359.34L165.50,361.25L181.09,363.09L190.54,363.77L201.35,365.25L230.70,362.48L251.46,357.93L264.90,353.42L267.86,351.90L272.64,349.35L276.53,346.15L277.28,346.07L277.98,345.71L278.57,345.19L279.03,344.55L279.33,343.82L279.45,343.04L279.38,342.25L279.10,343.48L277.61,343.85L277.97,343.57L278.26,343.21L278.48,342.81L278.62,342.37L278.67,341.91L278.62,341.46L278.49,341.02L278.28,340.61L277.99,340.25L277.64,339.96L277.23,339.74L276.80,339.60L276.34,339.56L275.88,339.60L275.44,339.73L275.04,339.94L274.04,339.29L273.42,339.82L272.94,340.48L272.62,341.23L272.50,342.03L272.56,342.85L273.14,341.30L273.73,340.37L269.32,344.13L264.98,346.75L262.80,348.04L250.07,352.39L229.98,356.95L201.75,359.82L191.15,358.48L181.65,357.85L166.18,356.00L152.98,354.34L146.14,352.74L135.98,348.02L130.67,344.65L125.38,340.68z" fill="currentColor" stroke="none" fill-opacity="1.00" fill-rule="nonzero" />
      <path d="M103.53,131.38L103.05,131.12L102.53,130.96L101.99,130.90L101.45,130.95L100.92,131.10L100.44,131.35L100.01,131.70L99.66,132.11L99.40,132.59L99.24,133.11L99.18,133.66L99.23,134.20L99.38,134.72L99.63,135.21L99.97,135.63L100.39,135.98L106.79,140.24L116.35,145.00L128.16,148.89L136.83,151.31L158.11,155.00L166.44,156.25L186.99,157.95L201.72,157.51L206.72,156.83L231.85,153.95L259.28,149.42L266.61,148.44L273.03,147.34L283.40,142.73L290.35,138.21L297.61,134.39L298.39,133.78L298.98,132.99L299.33,132.07L299.43,131.08L298.97,129.42L298.88,128.78L298.67,128.17L298.35,127.62L297.93,127.14L297.41,126.75L296.84,126.47L296.22,126.30L295.58,126.27L294.94,126.35L294.33,126.56L293.78,126.88L293.30,127.31L292.91,127.82L292.63,128.40L292.46,129.02L292.42,129.66L292.55,129.45L286.93,132.53L280.44,136.89L271.47,141.02L265.65,142.14L258.36,143.24L231.07,147.92L205.99,150.87L201.36,151.56L187.30,152.06L167.20,150.42L159.06,149.26L138.20,145.74L129.83,143.52L118.60,139.90L109.67,135.68z" fill="currentColor" stroke="none" fill-opacity="1.00" fill-rule="nonzero" />
      <path d="M299.89,134.58L299.59,134.16L299.21,133.81L298.77,133.54L298.29,133.36L297.78,133.28L297.26,133.30L296.76,133.42L296.29,133.64L295.87,133.94L295.52,134.32L295.25,134.76L295.08,135.24L294.99,135.75L295.01,136.27L295.13,136.77L295.35,137.24L296.63,139.00L297.07,140.51L293.75,156.37L290.21,188.63L289.45,195.92L290.28,202.29L289.57,206.66L287.54,218.28L284.27,236.11L284.20,242.50L278.58,286.37L277.96,293.54L273.85,319.61L273.99,332.15L274.12,336.89L273.80,337.83L273.66,338.56L273.67,339.30L273.83,340.03L274.12,340.71L274.54,341.32L275.07,341.84L275.70,342.24L276.38,342.51L277.11,342.65L277.85,342.63L278.58,342.48L279.26,342.19L279.87,341.77L280.39,341.23L280.79,340.61L281.06,339.92L281.50,338.41L281.49,331.98L281.14,320.41L285.07,294.52L285.69,287.18L290.96,243.13L290.94,236.99L293.90,219.39L295.83,207.63L296.19,202.55L295.20,196.11L295.80,189.21L299.05,157.27L301.94,140.87L301.90,139.75L301.23,137.40z" fill="currentColor" stroke="none" fill-opacity="1.00" fill-rule="nonzero" />
      <path d="M109.77,156.27L109.34,156.14L108.90,156.09L108.46,156.13L108.03,156.26L107.64,156.46L107.29,156.74L107.01,157.08L106.79,157.47L106.66,157.89L106.61,158.34L106.65,158.78L106.78,159.20L106.98,159.60L107.26,159.94L107.60,160.23L107.99,160.44L116.46,164.39L128.68,167.80L134.33,169.46L144.27,171.94L150.92,173.55L172.83,176.19L178.73,176.10L186.77,177.34L202.77,177.79L207.59,176.48L213.66,175.56L219.25,175.67L226.68,176.25L241.48,174.34L245.14,173.41L262.99,167.84L270.53,164.16L276.46,161.13L282.52,159.93L286.49,159.55L287.31,159.35L288.05,158.92L288.65,158.31L288.45,158.46L288.51,158.61L289.21,158.19L289.77,157.60L290.17,156.90L290.32,156.61L290.65,156.30L291.05,155.73L291.31,155.10L291.45,154.43L291.43,153.74L291.28,153.07L290.99,152.45L290.58,151.90L290.06,151.45L289.46,151.12L288.80,150.92L288.12,150.86L287.44,150.94L286.79,151.17L286.20,151.52L285.70,151.99L285.05,152.73L284.90,153.46L285.19,153.13L283.95,154.13L284.60,153.75L281.70,153.86L274.84,155.42L267.86,158.84L261.00,162.34L243.63,167.93L240.54,168.74L226.80,170.68L219.57,170.17L213.50,170.14L206.58,171.21L202.48,172.43L187.41,172.03L179.31,170.80L173.27,170.91L152.02,168.42L145.53,166.80L135.74,164.41L130.10,162.81L118.32,159.58z" fill="currentColor" stroke="none" fill-opacity="1.00" fill-rule="nonzero" />
      <path d="M93.67,133.38L93.75,133.95L93.93,134.48L94.22,134.98L94.59,135.40L95.04,135.75L95.55,136.00L96.10,136.14L96.67,136.18L97.23,136.10L97.77,135.92L98.26,135.63L98.69,135.26L99.03,134.81L99.28,134.30L99.43,133.75L99.46,133.18L99.72,126.89L99.28,127.99L96.96,129.92L96.36,129.18L98.24,129.55L107.25,133.75L110.96,135.00L129.45,139.22L135.45,140.11L152.96,143.09L172.17,144.71L186.58,145.92L189.79,146.86L195.55,146.67L203.92,146.04L216.85,145.87L224.26,146.19L236.26,145.36L242.24,145.15L252.69,143.61L280.44,135.23L283.50,133.61L290.73,128.92L297.29,125.05L296.05,124.72L295.16,123.62L294.97,123.83L294.96,127.31L295.02,130.01L295.11,130.70L295.32,131.36L295.67,131.96L296.12,132.49L296.67,132.92L297.29,133.23L297.96,133.41L298.66,133.46L299.35,133.38L300.00,133.16L300.61,132.81L301.13,132.36L301.56,131.81L301.87,131.19L302.06,130.52L302.11,129.83L302.02,127.13L301.90,124.57L302.08,123.58L302.07,122.48L301.73,121.44L301.07,119.96L300.62,119.29L300.04,118.74L299.34,118.33L298.57,118.09L297.77,118.02L296.15,118.14L294.38,118.68L287.28,123.53L280.32,128.41L278.37,129.68L251.64,138.02L241.84,139.48L235.96,139.80L224.32,140.73L216.99,140.47L203.76,140.70L195.21,141.33L190.84,141.59L187.82,140.71L172.58,139.55L153.69,138.13L136.26,135.20L130.46,134.32L112.43,130.26L109.25,129.17L100.27,124.91L98.01,123.84L97.30,122.88L96.14,122.82L95.03,123.14L94.79,123.47L94.14,123.87L93.60,124.41L93.19,125.05L92.94,125.78L92.85,126.54L92.94,127.30L93.00,127.45z" fill="currentColor" stroke="none" fill-opacity="1.00" fill-rule="nonzero" />
      <path d="M127.59,201.27L128.95,211.06L130.50,221.74L130.84,234.29L130.96,251.13L132.31,269.30L134.48,285.62L136.79,300.29L138.87,312.97L141.26,323.27L144.20,331.14L144.62,331.83L147.45,335.00L147.92,335.39L148.47,335.64L149.07,335.72L151.96,335.74L152.84,335.56L155.05,334.63L156.28,334.14L157.02,333.63L158.07,332.58L158.55,331.85L159.85,328.69L161.33,323.66L162.23,316.62L162.31,306.23L161.83,293.63L159.96,278.13L158.01,262.10L154.68,244.63L150.91,227.66L147.93,212.55L145.61,201.14L143.64,192.37L142.24,186.66L140.39,182.11L140.04,181.48L139.54,180.97L138.93,180.60L138.24,180.40L137.53,180.38L135.14,180.66L134.47,180.81L133.85,181.13L133.34,181.59L132.70,182.49L132.14,182.85L130.37,184.48L129.76,185.31L129.18,186.80L128.97,187.76L129.01,189.99L128.99,194.46zM133.49,195.20L133.72,190.08L133.78,188.34L134.10,187.84L134.96,187.23L135.73,186.90L136.68,185.84L136.36,185.56L136.80,188.20L138.12,193.64L140.10,202.31L142.47,213.65L145.55,228.77L149.42,245.70L152.83,262.84L154.91,278.76L156.87,293.95L157.47,306.28L157.51,316.21L156.82,322.57L155.56,327.10L154.56,329.77L154.16,330.22L153.33,330.53L151.52,331.33L150.06,331.34L148.12,329.22L145.44,322.15L143.09,312.20L140.98,299.62L138.65,285.04L136.48,268.93L135.14,251.03L135.04,234.24L134.74,221.51L133.22,210.45L132.00,201.81z" fill="currentColor" stroke="none" fill-opacity="1.00" fill-rule="nonzero" />
      <path d="M190.75,329.85L188.38,323.86L186.40,315.49L185.43,306.24L185.29,294.33L185.73,282.34L186.81,270.43L187.27,256.92L186.12,243.48L185.29,232.09L187.42,221.29L189.93,212.85L190.68,204.36L191.15,197.85L191.75,194.07L192.69,191.46L193.93,190.18L195.63,189.75L197.44,189.82L199.28,189.55L200.04,189.84L200.45,191.79L200.50,198.46L202.85,207.85L205.85,219.83L207.27,234.43L207.23,249.65L206.77,265.49L205.36,282.12L204.11,295.95L204.86,309.09L205.11,319.28L203.79,327.13L202.13,333.69L200.47,337.71L199.47,338.90L198.76,339.05L197.60,338.32L195.91,336.60L192.90,334.07zM189.11,336.49L189.68,337.20L192.75,339.77L194.54,341.71L197.21,343.39L197.93,343.65L198.70,343.66L200.91,343.34L201.63,343.11L202.23,342.67L204.18,340.72L204.68,339.95L206.59,335.35L208.42,328.20L209.86,319.85L209.58,308.92L208.78,296.19L209.97,282.52L211.32,265.80L211.73,249.75L211.70,234.32L210.19,219.24L207.07,206.79L204.86,198.17L204.86,191.59L204.30,187.84L204.13,187.31L203.84,186.83L203.44,186.43L202.96,186.15L200.63,185.03L199.52,184.84L197.71,184.86L195.78,184.55L192.20,184.97L191.46,185.22L190.82,185.66L188.39,187.79L187.68,188.84L186.29,192.28L185.42,197.03L184.91,203.91L184.32,211.51L181.90,219.81L179.67,231.39L180.56,243.92L181.82,256.93L181.53,270.06L180.61,281.98L180.33,294.25L180.72,306.45L181.90,316.15L184.10,325.06L186.66,331.58z" fill="currentColor" stroke="none" fill-opacity="1.00" fill-rule="nonzero" />
      <path d="M242.39,333.36L241.42,333.48L240.28,334.00L239.06,333.82L237.75,332.46L236.54,329.85L235.61,325.76L234.91,320.58L235.12,314.51L236.93,307.17L238.79,299.09L238.24,288.98L237.70,279.45L240.00,270.21L242.84,260.55L244.55,250.69L245.56,240.80L246.29,230.92L246.47,221.97L246.83,213.91L247.91,206.56L249.23,200.10L250.94,194.83L252.60,191.48L254.86,189.72L257.61,188.74L260.16,187.73L261.81,187.10L262.99,186.94L264.46,187.30L265.84,188.68L265.90,191.75L265.36,197.04L265.37,206.36L265.00,217.30L263.33,229.20L260.52,244.77L258.67,261.09L258.15,277.95L257.29,293.12L254.56,305.11L251.69,315.66L248.72,324.16L245.90,327.88L243.94,331.88L243.36,333.83zM244.04,337.63L244.53,337.63L245.00,337.52L245.44,337.29L245.81,336.97L246.09,336.56L247.59,333.76L249.35,330.28L252.30,326.50L255.86,317.05L258.70,306.17L261.38,293.86L262.33,278.17L262.91,261.50L264.82,245.49L267.75,229.98L269.59,217.85L270.12,206.51L270.22,197.44L270.82,192.13L270.83,187.65L270.75,187.03L270.52,186.46L270.15,185.96L267.66,183.25L267.10,182.80L266.43,182.53L263.84,181.82L261.06,181.85L258.38,182.63L255.77,183.60L252.62,184.69L248.73,187.54L247.96,188.49L245.94,192.59L244.01,198.59L242.62,205.58L241.53,213.29L241.20,221.79L241.10,230.63L240.49,240.35L239.62,249.97L238.15,259.35L235.47,268.96L233.21,278.72L233.84,289.26L234.53,298.46L232.84,306.19L231.05,313.74L230.78,320.62L231.54,326.41L232.59,330.98L234.21,334.54L234.66,335.16L236.86,337.09L237.36,337.44L237.96,337.61L240.28,337.92L241.23,337.80L242.37,337.32z" fill="currentColor" stroke="none" fill-opacity="1.00" fill-rule="nonzero" />
      <path d="M194.80,23.49L176.34,25.74L157.55,29.05L139.18,31.38L125.55,33.38L113.14,36.39L103.99,39.61L97.87,42.68L94.27,46.03L92.30,49.61L92.10,50.27L92.09,50.95L92.32,53.95L92.75,64.92L92.94,67.51L93.35,68.78L94.96,71.61L99.45,76.14L109.92,82.18L123.33,86.85L138.48,89.63L152.98,91.82L165.37,95.00L173.78,96.84L181.77,97.43L188.56,97.83L195.16,97.21L201.03,96.26L206.78,96.32L213.50,96.99L221.97,96.36L231.93,93.42L243.01,90.30L258.67,88.22L275.45,84.82L287.70,80.13L295.42,75.83L299.23,71.43L299.77,70.30L300.47,66.86L300.27,55.91L300.33,52.41L300.14,51.42L298.34,47.32L297.87,46.62L292.92,41.66L285.90,36.53L277.13,32.59L263.92,29.48L249.79,26.76L235.08,24.92L215.19,24.32zM215.05,27.97L234.70,28.61L249.13,30.48L263.06,33.27L275.64,36.35L283.57,40.04L289.90,44.85L294.28,49.51L295.60,52.78L295.44,55.81L295.44,66.11L294.92,68.66L292.45,71.51L285.67,75.31L274.18,79.58L257.86,82.73L242.08,84.73L230.37,87.96L221.18,90.79L213.68,91.57L207.06,91.23L200.79,91.42L194.64,92.46L188.73,92.95L182.21,92.34L174.83,91.50L166.77,89.51L154.30,86.16L139.50,83.83L125.05,81.17L112.60,76.86L103.30,71.66L99.80,68.24L98.50,66.43L98.44,64.55L97.51,53.55L97.06,51.04L97.86,48.99L100.22,46.41L105.54,43.47L114.20,40.20L126.20,37.14L139.68,35.07L158.06,32.69L176.83,29.36L194.80,27.13z" fill="currentColor" stroke="none" fill-opacity="1.00" fill-rule="nonzero" />
      <path d="M195.69,80.89L188.99,80.77L182.28,80.55L174.68,80.14L166.38,79.72L153.83,77.64L139.62,74.08L125.44,69.77L112.49,65.77L102.46,61.85L98.79,58.51L97.50,55.63L96.64,53.18L96.34,50.99L97.35,48.97L100.15,46.71L105.72,44.05L114.44,40.89L126.39,37.47L139.63,34.34L157.94,31.48L176.73,28.92L194.72,27.47L214.89,29.04L234.37,31.54L248.66,33.74L262.40,36.30L274.43,39.49L281.82,43.26L288.32,47.51L293.53,50.98L295.76,53.53L296.35,55.95L295.69,58.30L292.75,60.79L285.42,63.86L273.72,68.08L257.81,73.12L242.42,77.00L231.01,79.40L221.67,81.21L213.88,81.61L207.13,81.63L201.19,82.18zM200.42,86.98L207.15,86.73L213.84,87.03L222.09,86.81L232.10,84.97L243.65,82.51L259.26,78.48L275.43,73.19L287.29,68.73L295.13,65.29L299.53,61.52L300.01,60.95L300.30,60.27L301.19,56.52L301.18,55.30L300.17,51.75L299.63,50.78L296.72,47.67L290.69,43.81L283.98,39.66L276.04,35.78L263.30,32.52L249.31,30.02L234.90,27.87L215.31,25.42L194.86,23.84L176.39,25.29L157.43,27.85L138.99,30.67L125.49,33.76L113.31,37.10L104.26,40.16L98.12,42.81L94.19,45.54L93.57,46.24L91.71,49.18L91.44,49.86L91.38,50.58L91.46,53.82L92.29,57.31L93.74,61.23L94.42,62.24L98.82,66.52L99.77,67.12L110.41,71.34L123.70,75.44L137.99,79.73L152.56,83.30L165.66,85.35L174.49,85.58L182.13,85.66L188.93,85.64L194.84,85.60z" fill="currentColor" stroke="none" fill-opacity="1.00" fill-rule="nonzero" />
      <path d="M180.75,47.43L181.96,41.38L183.65,37.01L185.68,36.59L191.71,37.21L201.95,37.32L211.64,36.94L216.57,37.00L216.74,37.34L217.21,38.58L219.82,42.62L222.03,46.78L223.49,50.05L223.83,49.77L225.12,48.68L225.48,48.49L224.50,48.29L223.18,48.27L222.21,48.49L220.87,49.07L220.19,49.37L218.30,47.80L216.19,46.11L215.79,43.35L215.53,42.59L215.05,41.95L212.64,39.51L212.05,39.08L211.35,38.82L210.61,38.77L204.26,39.16L196.80,40.54L191.78,40.74L189.42,40.24L188.82,40.16L188.22,40.22L187.64,40.41L187.13,40.72L186.69,41.15L184.61,43.92L182.87,48.24L182.24,50.37L181.32,49.96L179.88,49.45L179.22,50.41zM175.22,51.03L175.13,51.51L175.15,52.00L175.28,52.48L175.51,52.92L175.83,53.29L176.22,53.59L176.67,53.79L177.16,53.89L178.43,54.27L179.94,54.95L183.60,55.04L184.17,54.98L184.71,54.79L185.19,54.48L185.59,54.08L185.89,53.59L187.39,50.28L188.80,46.82L189.62,45.38L190.83,46.21L197.23,46.05L204.82,44.58L209.81,44.13L210.87,45.06L211.47,47.91L211.78,48.75L212.37,49.43L215.31,51.71L218.30,53.76L218.88,54.05L219.51,54.18L220.16,54.14L222.09,53.75L223.72,52.96L224.05,52.92L224.41,53.13L224.99,53.30L225.60,53.32L226.19,53.18L226.73,52.89L227.42,52.39L227.85,51.99L228.16,51.50L228.34,50.94L228.38,50.36L228.27,49.79L227.83,48.51L226.08,44.82L223.58,40.44L221.06,36.71L220.43,35.27L219.91,34.54L218.75,33.55L218.12,33.15L217.40,33.00L211.66,32.95L201.93,33.46L192.03,33.37L185.81,32.65L181.79,33.30L181.31,33.46L180.88,33.74L180.53,34.11L180.30,34.57L178.29,40.17L176.81,46.35z" fill="currentColor" stroke="none" fill-opacity="1.00" fill-rule="nonzero" />
      <path d="M96.08,124.33L96.39,124.61L96.93,124.39L99.71,122.54L105.93,119.72L107.02,118.89L106.58,118.14L104.65,117.11L102.36,115.26L100.36,112.76L99.70,111.35L99.32,109.90L99.40,108.57L100.10,106.56L101.11,104.82L101.25,103.54L100.68,101.53L98.70,97.24L98.21,95.16L98.59,93.09L99.58,91.94L101.65,91.09L107.25,90.39L107.84,90.13L108.19,89.01L106.98,84.13L106.48,80.67L107.14,79.39L108.48,78.75L109.81,78.80L112.63,79.42L115.49,80.36L120.07,82.35L131.31,85.06L142.53,88.43L151.06,90.44L164.41,92.56L170.84,93.23L199.67,94.40L208.82,95.05L213.03,94.95L216.62,94.49L237.06,90.45L254.78,87.36L262.44,84.74L271.61,81.93L279.39,80.26L281.46,80.30L282.97,80.60L284.29,81.28L285.51,82.22L286.50,83.43L287.43,85.46L287.70,89.69L286.46,93.27L286.90,93.68L287.27,93.69L290.45,92.94L295.24,92.60L297.35,92.90L300.10,94.41L301.61,96.09L302.14,97.50L302.29,99.52L301.60,102.33L298.62,106.35L295.44,108.76L289.88,112.00L289.69,112.53L289.93,112.92L291.81,114.05L293.19,115.43L294.07,117.59L294.27,119.03L294.16,120.31L293.64,121.72L292.80,123.05L291.20,124.66L287.56,127.35L282.92,130.05L279.57,131.58L275.36,132.86L271.13,133.80L259.14,137.77L255.60,138.43L250.70,138.89L242.81,140.12L239.36,140.91L226.68,142.97L194.28,143.02L190.67,143.35L181.59,143.42L174.49,144.06L168.18,144.04L158.24,143.13L153.33,141.94L147.00,141.05L138.52,139.19L130.06,136.58L121.30,134.81L120.42,134.90M167.42,127.68L164.35,129.21L161.07,130.22L157.64,130.56L154.31,130.12L151.22,128.98L148.48,127.13L146.23,124.62L144.52,121.61L143.47,118.39L143.17,115.05L143.64,111.71L144.84,108.54L146.73,105.67L149.14,103.26L151.98,101.38L155.16,100.10L158.55,99.43L162.01,99.40L165.29,100.11L168.21,101.59L170.61,103.79L172.40,106.61L173.60,109.86L174.28,113.30L174.31,116.72L173.60,119.96L172.22,122.97L170.13,125.61zM237.34,128.67L233.15,129.00L229.08,128.59L225.29,127.26L221.98,124.95L219.37,121.85L217.65,118.17L216.96,114.18L217.41,110.25L219.02,106.68L221.61,103.66L224.98,101.31L228.86,99.67L232.95,98.84L237.03,98.90L240.93,99.91L244.48,101.87L247.40,104.71L249.49,108.17L250.68,112.03L250.86,116.07L249.89,119.92L247.87,123.17L244.97,125.73L241.38,127.60z" fill-rule="evenodd" fill="currentColor" stroke="none" fill-opacity="1.00" />
      <path d="M223.09,116.14L223.21,116.16L223.38,116.24L222.29,115.53L222.15,115.42L222.13,115.41L222.16,115.45L222.16,115.45L222.14,115.17L222.15,114.13L222.15,114.11L222.23,113.84L222.47,113.10L222.92,112.07L223.11,111.72L223.25,111.60L223.37,111.52L223.38,111.52L223.48,111.47L223.55,111.46L223.89,111.42L224.38,111.39L225.15,111.42L225.48,111.49L225.90,111.59L226.29,111.73L226.64,111.88L227.14,112.13L227.30,112.23L227.53,112.41L227.55,112.44L227.62,112.53L227.81,112.89L227.98,113.41L228.07,113.82L228.09,113.95L228.09,114.39L228.08,114.59L227.98,115.05L227.86,115.45L227.87,115.43L227.77,115.54L227.52,115.81L227.32,115.99L227.09,116.13L226.83,116.25L226.09,116.53L225.85,116.57L225.58,116.58L224.91,116.58L224.48,116.55L224.42,116.53L224.53,116.60L224.57,116.60L224.38,116.47L223.87,116.22L223.30,116.13zM222.73,119.85L222.30,119.65L222.45,119.77L223.15,120.12L223.72,120.28L224.70,120.38L225.63,120.38L226.15,120.36L226.94,120.23L228.23,119.79L228.86,119.49L229.45,119.13L230.08,118.62L230.59,118.09L230.94,117.67L231.27,117.12L231.63,116.11L231.82,115.26L231.89,114.63L231.89,113.78L231.82,113.22L231.68,112.51L231.36,111.53L230.92,110.65L230.61,110.18L230.28,109.78L229.56,109.17L229.07,108.86L228.31,108.46L227.74,108.21L227.08,107.98L226.36,107.79L225.69,107.66L224.44,107.59L223.63,107.63L222.97,107.70L222.39,107.83L221.81,108.06L221.57,108.17L220.97,108.56L220.33,109.14L219.60,110.21L218.95,111.67L218.61,112.68L218.45,113.22L218.37,113.73L218.34,115.22L218.39,115.95L218.56,116.68L218.83,117.29L219.35,117.99L219.98,118.55L221.45,119.51L221.87,119.72L222.49,119.89z" fill="currentColor" stroke="none" fill-opacity="1.00" fill-rule="nonzero" />
      <path d="M149.76,117.25L149.84,117.27L150.00,117.33L148.78,116.55L148.61,116.41L148.56,116.36L148.57,116.37L148.56,116.33L148.54,116.00L148.54,114.84L148.55,114.80L148.64,114.48L148.91,113.67L149.40,112.52L149.64,112.11L149.82,111.95L149.98,111.84L150.01,111.83L150.13,111.77L150.24,111.75L150.63,111.70L151.18,111.67L152.04,111.70L152.42,111.78L152.89,111.90L153.34,112.05L153.73,112.23L154.29,112.50L154.48,112.62L154.76,112.83L154.80,112.89L154.88,113.00L155.11,113.43L155.31,114.02L155.40,114.48L155.43,114.64L155.43,115.15L155.41,115.38L155.30,115.91L155.16,116.37L155.15,116.39L155.03,116.53L154.74,116.83L154.50,117.05L154.23,117.21L153.94,117.36L153.10,117.67L152.80,117.72L152.49,117.73L151.75,117.73L151.26,117.70L151.16,117.67L151.24,117.72L151.27,117.72L151.07,117.58L150.56,117.33L150.00,117.24zM149.45,120.89L149.04,120.71L149.20,120.83L149.92,121.19L150.51,121.35L151.54,121.46L152.54,121.46L153.10,121.44L153.93,121.30L155.30,120.83L155.97,120.51L156.59,120.13L157.25,119.59L157.80,119.03L158.16,118.58L158.50,118.01L158.88,116.96L159.08,116.04L159.15,115.39L159.15,114.48L159.08,113.89L158.93,113.14L158.58,112.09L158.12,111.17L157.79,110.67L157.45,110.26L156.69,109.62L156.18,109.29L155.37,108.87L154.75,108.61L154.05,108.35L153.29,108.15L152.58,108.02L151.24,107.94L150.38,107.98L149.67,108.06L149.06,108.20L148.46,108.44L148.21,108.56L147.59,108.97L146.91,109.58L146.15,110.70L145.46,112.26L145.09,113.35L144.93,113.92L144.84,114.45L144.81,116.05L144.86,116.82L145.04,117.57L145.32,118.20L145.86,118.93L146.52,119.51L148.11,120.55L148.53,120.76L149.17,120.93z" fill="currentColor" stroke="none" fill-opacity="1.00" fill-rule="nonzero" />
    </g>
  </symbol>
</svg>