<?xml version='1.0' encoding='utf-8'?>
<svg xmlns="http://www.w3.org/2000/svg" version="1.1" x="0.00px" y="0.00px" width="400.00px" height="400.00px" viewBox="0.00 0.00 400.00 400.00">
  <symbol id="frame" viewBox="0.00 0.00 400.00 400.00">
    <g class="layers.drawing-primary">
      <path d="M90.77,135.77L90.87,136.03L91.02,136.25L91.21,136.44L91.44,136.60L91.69,136.70L91.96,136.75L92.23,136.75L92.49,136.70L92.74,136.60L92.97,136.44L93.16,136.25L93.31,136.03L93.42,135.78L93.47,135.51L93.47,135.24L93.42,134.97L88.72,113.44L88.17,112.40L74.15,94.02L55.23,82.23L53.66,81.71L40.36,80.17L19.25,84.74L7.21,91.66L-7.98,107.11L-23.18,127.62L-23.78,128.88L-30.64,157.75L-30.16,180.56L-24.76,202.13L-15.23,220.20L-3.43,232.87L3.50,237.16L17.70,240.73L18.91,240.78L39.55,237.07L53.04,230.49L56.39,225.25L56.43,225.20L56.46,225.14L56.48,225.07L56.49,225.00L56.49,224.94L56.47,224.87L56.44,224.81L56.40,224.75L56.34,224.71L56.28,224.68L56.22,224.66L56.15,224.65L56.08,224.65L56.02,224.67L55.96,224.70L55.90,224.74L51.17,227.08L38.39,231.92L18.57,234.69L6.34,231.54L0.87,228.22L-9.80,216.83L-18.61,200.17L-23.64,180.04L-24.07,158.90L-17.19,131.22L-2.59,112.09L11.53,98.06L21.58,92.31L40.14,88.18L51.96,89.44L68.89,99.07L82.91,115.82z" fill="currentColor" stroke="none" fill-opacity="1.00" fill-rule="nonzero" />
      <path d="M77.23,159.97L77.59,160.39L78.03,160.73L78.53,160.98L79.06,161.13L79.61,161.17L80.16,161.10L80.69,160.92L81.17,160.65L81.59,160.29L81.93,159.85L82.18,159.36L82.33,158.82L82.37,158.27L82.30,157.72L82.13,157.19L81.86,156.71L71.74,141.49L71.09,140.81L70.28,140.33L58.06,134.79L56.38,134.51L39.40,135.21L37.34,135.90L21.19,146.76L20.53,147.31L20.00,147.99L19.63,148.76L19.42,149.59L19.38,150.45L19.53,151.29L19.85,152.09L20.34,152.80L20.95,153.40L21.68,153.85L22.49,154.14L23.34,154.26L31.64,153.85L22.84,163.15L22.01,164.65L17.23,183.12L17.12,183.81L17.15,184.51L17.33,185.20L17.65,185.83L18.08,186.38L18.62,186.83L19.24,187.16L19.92,187.36L20.62,187.41L21.32,187.32L21.98,187.09L22.59,186.73L30.34,180.68L26.06,193.33L25.91,194.73L27.57,211.91L28.15,213.52L33.44,221.67L33.89,222.23L34.45,222.69L35.09,223.04L35.78,223.25L36.50,223.32L37.22,223.25L37.91,223.04L38.55,222.70L39.11,222.25L39.57,221.69L39.91,221.05L40.12,220.36L40.20,219.64L40.13,218.92L39.92,218.23L39.58,217.59L34.60,210.30L32.88,194.74L39.52,173.06L39.66,172.40L39.66,171.72L39.51,171.06L39.23,170.45L38.83,169.91L38.32,169.46L37.73,169.13L37.09,168.92L36.42,168.86L35.75,168.94L35.11,169.16L34.53,169.50L26.36,175.36L28.59,167.30L41.79,152.99L42.22,152.42L42.52,151.78L42.68,151.09L42.70,150.38L42.57,149.68L42.29,149.02L41.89,148.44L41.37,147.95L40.77,147.57L40.10,147.33L39.39,147.24L36.36,146.47L41.02,143.44L55.97,142.23L66.87,146.12z" fill="currentColor" stroke="none" fill-opacity="1.00" fill-rule="nonzero" />
      <path d="M72.69,152.92L72.88,153.16L73.10,153.37L73.36,153.52L73.65,153.62L73.95,153.67L74.25,153.65L74.55,153.57L74.82,153.44L75.07,153.26L75.27,153.03L75.42,152.77L75.52,152.48L75.57,152.18L75.55,151.88L75.47,151.58L75.34,151.31L69.53,138.84L58.69,129.47L57.06,128.76L40.41,125.54L30.27,126.60L17.90,131.83L16.63,132.70L10.56,139.17L4.56,152.33L-2.20,170.56L-2.42,171.87L-1.82,189.68L0.72,199.47L9.24,213.38L10.35,214.48L22.74,221.92L24.12,222.38L36.34,223.56L50.17,220.53L51.28,220.04L58.44,214.45L58.87,214.08L59.22,213.62L59.47,213.11L59.60,212.55L59.61,211.98L59.51,211.42L59.29,210.90L58.97,210.43L58.55,210.04L58.07,209.74L57.53,209.55L56.96,209.48L56.39,209.52L55.85,209.68L55.35,209.96L48.08,214.31L36.46,217.07L25.52,215.90L14.54,209.14L7.14,197.20L4.88,189.10L4.61,172.37L11.09,155.17L16.43,144.09L21.89,139.08L31.91,134.80L39.67,133.76L54.97,135.79L64.58,142.51z" fill="currentColor" stroke="none" fill-opacity="1.00" fill-rule="nonzero" />
      <path d="M220.56,104.00L220.61,104.46L220.75,104.91L220.97,105.31L221.26,105.67L221.62,105.96L222.03,106.17L222.48,106.30L222.94,106.34L223.40,106.30L223.84,106.16L224.25,105.94L224.60,105.64L224.89,105.28L225.11,104.87L225.24,104.43L225.28,103.97L225.63,86.18L229.05,75.14L235.64,64.32L244.95,57.45L256.46,53.99L268.82,54.34L280.19,57.84L289.44,63.71L306.31,85.64L313.11,100.61L316.84,116.34L317.16,131.81L312.60,150.77L305.65,159.59L298.13,162.97L297.47,163.34L296.90,163.84L296.44,164.43L296.10,165.11L295.90,165.84L295.85,166.59L295.95,167.34L296.19,168.05L296.56,168.71L297.05,169.28L297.65,169.74L298.33,170.07L299.05,170.27L299.80,170.32L300.55,170.23L301.27,169.99L309.69,166.23L311.16,165.07L319.04,154.71L319.73,153.26L324.26,132.98L323.75,115.77L319.51,98.70L312.00,82.60L293.96,59.52L283.08,52.50L270.19,48.46L256.14,47.97L242.72,51.83L231.60,59.86L230.82,60.72L223.80,72.39L220.03,84.95z" fill="currentColor" stroke="none" fill-opacity="1.00" fill-rule="nonzero" />
      <path d="M251.09,109.46L250.88,110.04L250.78,110.64L250.81,111.26L250.95,111.85L251.21,112.41L251.57,112.91L252.03,113.33L252.55,113.65L253.13,113.86L253.73,113.95L254.35,113.93L254.94,113.78L255.50,113.52L256.00,113.16L256.42,112.71L256.74,112.19L260.43,103.30L267.55,98.60L277.85,97.98L286.61,102.45L291.34,110.34L294.21,127.84L292.11,135.53L284.22,144.00L283.72,144.57L283.35,145.23L283.10,145.95L283.01,146.70L283.06,147.45L283.25,148.19L283.59,148.87L284.05,149.47L284.62,149.97L285.28,150.34L286.00,150.59L286.75,150.68L287.51,150.63L288.24,150.44L288.92,150.10L289.52,149.64L299.52,141.29L300.38,140.18L300.87,138.87L302.56,128.75L302.58,127.10L298.48,108.23L297.94,106.90L291.73,98.01L290.40,96.83L279.86,91.85L278.18,91.54L266.25,92.84L264.80,93.38L256.86,99.46L256.03,100.44z" fill="currentColor" stroke="none" fill-opacity="1.00" fill-rule="nonzero" />
      <path d="M271.97,97.76L271.65,97.45L271.28,97.21L270.87,97.04L270.44,96.96L270.00,96.97L269.57,97.06L269.16,97.23L268.80,97.48L268.49,97.79L268.25,98.16L268.08,98.57L268.00,99.00L268.01,99.45L268.10,99.88L268.27,100.28L268.52,100.65L276.38,109.31L279.84,121.74L280.40,121.36L276.79,118.36L276.21,118.13L275.60,118.03L274.98,118.08L274.38,118.25L273.84,118.56L273.38,118.97L273.02,119.47L272.78,120.05L272.67,120.66L272.70,121.28L274.31,130.53L275.50,129.28L274.67,128.22L274.10,128.01L273.51,127.91L272.90,127.93L272.31,128.07L271.76,128.31L271.27,128.67L270.86,129.11L270.54,129.62L270.32,130.19L270.23,130.78L270.24,131.39L270.38,131.98L270.63,132.53L270.98,133.02L271.42,133.43L271.94,133.75L274.78,135.30L275.46,135.55L276.18,135.63L276.90,135.56L277.59,135.32L278.20,134.93L278.71,134.42L279.39,133.08L279.79,132.39L280.00,131.62L279.98,130.82L279.12,125.94L280.13,126.49L280.69,126.72L281.30,126.81L281.90,126.78L282.49,126.62L283.03,126.33L283.50,125.94L283.87,125.45L284.13,124.90L284.44,122.53L284.57,121.79L284.45,121.05L279.68,107.90L279.35,107.29z" fill="currentColor" stroke="none" fill-opacity="1.00" fill-rule="nonzero" />
      <path d="M94.01,237.13L93.45,237.62L93.00,238.22L92.67,238.88L92.48,239.60L92.44,240.34L92.53,241.08L92.77,241.79L93.15,242.43L93.64,242.99L94.23,243.44L94.90,243.76L95.62,243.96L96.36,244.00L97.10,243.90L97.80,243.66L98.44,243.29L114.35,231.43L130.64,224.85L147.12,220.11L159.80,217.81L160.33,217.70L160.83,217.50L161.28,217.20L161.66,216.81L161.96,216.36L162.17,215.87L162.27,215.33L162.27,214.79L162.17,214.26L161.96,213.76L161.66,213.32L161.28,212.93L160.83,212.63L160.33,212.43L159.80,212.32L159.26,212.32L146.01,212.58L128.40,217.98L111.33,225.18z" fill="currentColor" stroke="none" fill-opacity="1.00" fill-rule="nonzero" />
      <path d="M155.44,216.76L155.52,216.41L155.53,216.05L155.47,215.70L155.34,215.36L155.15,215.06L154.91,214.80L154.61,214.59L154.29,214.44L153.94,214.36L153.58,214.35L153.23,214.41L152.89,214.54L152.59,214.73L152.32,214.97L152.12,215.27L151.97,215.59L151.13,217.41L143.44,219.10L142.65,219.52L142.01,220.16L141.59,220.95L139.87,226.67L139.71,227.45L139.78,228.24L140.07,228.98L144.00,234.68L144.34,235.13L144.79,235.48L145.31,235.70L145.87,235.78L151.30,235.75L151.96,235.65L152.56,235.35L153.82,234.64L155.81,243.01L153.24,262.05L149.96,266.39L146.00,268.38L135.37,268.31L123.40,260.50L114.29,244.44L113.64,231.64L113.58,231.09L113.40,230.57L113.13,230.10L112.77,229.68L112.34,229.34L111.85,229.10L111.32,228.95L110.77,228.91L110.23,228.98L109.71,229.16L109.23,229.43L108.82,229.79L108.48,230.22L108.23,230.71L108.09,231.24L108.05,231.79L108.10,245.36L108.48,246.78L117.98,264.43L119.08,265.61L132.60,274.38L133.47,274.78L134.42,274.92L146.82,274.67L148.28,274.31L153.46,271.42L154.52,270.49L158.35,264.76L158.85,263.44L160.85,243.12L160.78,242.18L157.35,230.27L157.18,229.81L156.91,229.41L156.56,229.07L156.14,228.81L155.68,228.65L155.19,228.59L154.71,228.63L154.24,228.78L153.82,229.02L150.65,231.55L147.17,231.42L145.50,227.34L146.90,224.40L153.45,220.93L153.99,220.64L154.41,220.20L154.69,219.66z" fill="currentColor" stroke="none" fill-opacity="1.00" fill-rule="nonzero" />
      <path d="M219.27,200.17L218.58,200.52L217.97,200.99L217.47,201.57L217.09,202.24L216.85,202.97L216.75,203.73L216.81,204.50L217.01,205.24L217.36,205.93L217.83,206.54L218.41,207.04L219.08,207.42L219.81,207.66L220.57,207.76L221.34,207.70L222.08,207.50L247.24,198.23L258.75,197.66L270.17,201.60L271.18,201.79L272.21,201.77L273.22,201.55L274.17,201.14L275.02,200.55L275.73,199.80L276.29,198.94L276.67,197.97L276.85,196.96L276.83,195.93L276.61,194.92L276.20,193.97L275.61,193.12L274.87,192.40L274.00,191.85L273.04,191.47L260.47,188.61L245.97,189.71z" fill="currentColor" stroke="none" fill-opacity="1.00" fill-rule="nonzero" />
      <path d="M263.98,199.61L264.22,199.26L264.39,198.87L264.48,198.46L264.48,198.03L264.40,197.62L264.24,197.22L264.01,196.87L263.72,196.56L263.37,196.33L262.98,196.16L262.56,196.07L262.14,196.07L261.72,196.15L261.33,196.31L260.97,196.54L260.67,196.83L259.14,198.26L253.21,196.62L252.42,196.58L251.65,196.75L250.95,197.12L250.38,197.67L246.23,202.83L245.78,203.62L245.59,204.49L245.68,205.39L248.04,213.12L248.28,213.71L248.65,214.23L249.14,214.64L249.71,214.91L250.34,215.03L257.98,215.48L258.86,224.02L256.40,242.09L254.31,245.97L249.61,248.34L240.08,247.38L230.81,239.86L225.95,226.76L223.62,205.66L223.54,205.23L223.38,204.82L223.14,204.45L222.84,204.14L222.48,203.89L222.08,203.72L221.65,203.63L221.21,203.62L220.78,203.70L220.38,203.87L220.01,204.10L219.70,204.41L219.45,204.77L219.28,205.17L219.19,205.60L219.18,206.03L220.49,227.60L225.86,242.50L226.71,243.69L237.15,252.31L237.85,252.73L238.65,252.94L249.83,254.14L251.37,253.87L257.76,250.93L258.52,250.40L259.09,249.67L261.95,244.46L262.29,243.40L264.53,224.35L262.56,212.79L262.42,212.26L262.16,211.77L261.80,211.34L261.35,211.02L260.84,210.80L260.29,210.70L252.52,210.09L251.77,205.36L253.84,202.65L259.62,203.27L260.26,203.31L260.89,203.18L261.46,202.88L261.93,202.45z" fill="currentColor" stroke="none" fill-opacity="1.00" fill-rule="nonzero" />
      <path d="M215.53,178.15L215.00,178.36L214.52,178.67L214.11,179.06L213.79,179.53L213.57,180.05L213.45,180.61L213.44,181.18L213.54,181.73L213.75,182.26L214.06,182.74L214.45,183.15L214.92,183.47L215.44,183.69L216.00,183.81L216.56,183.82L217.12,183.72L230.95,179.74L246.51,180.56L259.09,181.90L259.30,181.94L259.51,181.93L259.71,181.88L259.90,181.79L260.07,181.66L260.21,181.51L260.32,181.33L260.39,181.13L260.42,180.93L260.41,180.72L260.36,180.52L260.27,180.33L260.15,180.16L260.00,180.02L259.82,179.91L259.62,179.84L247.66,174.92L230.77,173.96z" fill="currentColor" stroke="none" fill-opacity="1.00" fill-rule="nonzero" />
      <path d="M140.66,197.64L141.10,197.61L141.53,197.49L141.92,197.29L142.27,197.01L142.56,196.67L142.78,196.28L142.92,195.86L142.97,195.42L142.93,194.97L142.81,194.55L142.61,194.15L142.34,193.80L142.00,193.51L141.61,193.29L141.19,193.16L140.74,193.10L125.29,192.09L124.09,192.31L112.38,197.12L103.77,203.80L95.89,214.93L95.67,215.28L95.52,215.67L95.44,216.08L95.45,216.50L95.54,216.91L95.71,217.30L95.95,217.64L96.25,217.93L96.60,218.15L96.99,218.31L97.40,218.38L97.82,218.37L98.23,218.28L98.61,218.12L98.96,217.88L99.25,217.57L107.65,208.20L115.06,202.54L125.80,198.07z" fill="currentColor" stroke="none" fill-opacity="1.00" fill-rule="nonzero" />
      <path d="M206.46,296.81L197.82,295.74L194.50,292.65L193.97,287.13L196.69,279.06L201.99,279.36L202.90,279.32L211.44,277.43L213.19,285.86zM218.73,287.83L219.04,287.13L219.16,286.38L219.07,285.62L215.67,273.71L215.47,273.17L215.15,272.70L214.73,272.31L214.24,272.02L213.70,271.86L213.13,271.82L212.57,271.91L202.25,275.25L195.44,273.37L194.82,273.33L194.20,273.43L193.63,273.68L193.13,274.04L192.72,274.52L192.44,275.07L188.15,285.65L187.97,286.90L188.34,294.29L188.63,295.40L189.30,296.34L194.22,301.12L195.11,301.72L196.14,302.00L207.73,302.75L208.37,302.73L209.00,302.58L209.57,302.29L210.07,301.88L210.46,301.37z" fill="currentColor" stroke="none" fill-opacity="1.00" fill-rule="nonzero" />
      <path d="M27.44,236.89L27.34,236.50L27.15,236.14L26.91,235.81L26.60,235.55L26.25,235.34L25.86,235.21L25.46,235.16L25.05,235.19L24.66,235.30L24.29,235.48L23.97,235.73L23.70,236.03L23.50,236.39L23.37,236.77L23.32,237.17L23.35,237.58L24.95,251.02L20.42,268.09L2.03,295.90L1.68,296.59L1.47,297.33L1.41,298.10L1.50,298.86L1.73,299.59L2.11,300.27L2.61,300.85L3.21,301.33L3.90,301.68L4.64,301.89L5.40,301.95L6.17,301.87L6.90,301.63L7.57,301.25L8.16,300.76L8.64,300.15L26.65,271.35L30.37,251.67L30.40,250.64z" fill="currentColor" stroke="none" fill-opacity="1.00" fill-rule="nonzero" />
      <path d="M3.13,300.30L2.75,300.30L2.37,300.38L2.02,300.52L1.71,300.73L1.44,301.00L1.23,301.32L1.08,301.67L1.01,302.05L1.01,302.43L1.09,302.80L1.23,303.15L1.45,303.47L1.72,303.74L2.03,303.95L2.38,304.09L2.76,304.17L17.20,306.37L18.25,306.26L28.53,303.54L42.22,294.37L49.50,284.91L49.83,284.37L50.04,283.77L50.14,283.14L50.11,282.51L49.96,281.89L49.69,281.32L49.31,280.81L48.84,280.38L48.30,280.05L47.70,279.83L47.07,279.74L46.44,279.77L45.82,279.92L45.25,280.19L44.74,280.56L44.31,281.03L38.09,289.35L26.28,297.74L17.18,300.83z" fill="currentColor" stroke="none" fill-opacity="1.00" fill-rule="nonzero" />
      <path d="M49.82,287.76L49.82,287.64L49.80,287.51L49.75,287.40L49.67,287.29L49.58,287.20L49.48,287.14L49.36,287.09L49.24,287.07L49.11,287.07L48.99,287.09L48.87,287.14L48.76,287.21L48.68,287.31L48.61,287.41L48.56,287.53L48.54,287.65L45.52,303.33L50.13,325.88L58.18,338.04L69.58,346.97L70.16,347.33L70.80,347.57L71.48,347.68L72.17,347.66L72.84,347.50L73.46,347.22L74.02,346.82L74.49,346.32L74.85,345.73L75.09,345.09L75.20,344.41L75.18,343.73L75.02,343.06L74.73,342.43L74.33,341.88L73.83,341.41L63.62,333.60L56.52,323.60L50.18,303.33z" fill="currentColor" stroke="none" fill-opacity="1.00" fill-rule="nonzero" />
      <path d="M72.19,339.84L72.35,340.22L72.59,340.56L72.88,340.85L73.23,341.08L73.62,341.23L74.02,341.30L74.44,341.30L74.84,341.21L75.22,341.04L75.56,340.81L75.85,340.51L76.07,340.16L76.23,339.78L76.30,339.37L76.29,338.96L76.21,338.55L74.50,331.31L75.76,323.43L84.08,304.71L84.27,304.13L84.34,303.51L84.29,302.90L84.12,302.30L83.84,301.75L83.45,301.27L82.98,300.87L82.44,300.57L81.86,300.38L81.24,300.31L80.63,300.36L80.03,300.53L79.48,300.81L79.00,301.19L78.60,301.67L78.30,302.21L70.14,321.45L69.07,331.24L69.18,332.39z" fill="currentColor" stroke="none" fill-opacity="1.00" fill-rule="nonzero" />
      <path d="M88.65,301.29L88.45,300.86L88.17,300.48L87.83,300.16L87.42,299.91L86.98,299.75L86.52,299.68L86.05,299.69L85.59,299.80L85.16,300.00L84.78,300.28L84.46,300.62L84.21,301.02L84.05,301.46L83.97,301.93L83.99,302.40L84.10,302.86L86.64,312.77L91.16,320.25L98.83,326.73L111.02,331.60L111.81,331.82L112.62,331.87L113.43,331.77L114.21,331.50L114.91,331.10L115.53,330.56L116.03,329.91L116.39,329.18L116.60,328.39L116.66,327.58L116.55,326.77L116.29,326.00L115.88,325.29L115.35,324.67L114.70,324.18L113.97,323.81L103.30,319.85L96.92,315.46L92.60,310.23z" fill="currentColor" stroke="none" fill-opacity="1.00" fill-rule="nonzero" />
      <path d="M91.06,140.63L91.08,140.55L91.09,140.47L91.09,140.39L91.07,140.31L91.03,140.23L90.99,140.17L90.92,140.11L90.85,140.07L90.78,140.04L90.69,140.03L90.61,140.03L90.53,140.05L90.46,140.09L90.39,140.14L90.34,140.20L90.29,140.27L68.84,178.86L59.52,206.06L55.46,232.54L58.23,256.40L58.39,257.15L58.70,257.85L59.14,258.47L59.70,259.00L60.34,259.41L61.05,259.68L61.81,259.82L62.57,259.80L63.32,259.63L64.02,259.32L64.64,258.88L65.17,258.33L65.58,257.68L65.86,256.97L65.99,256.22L65.97,255.45L63.23,233.17L66.94,208.15L75.24,181.63z" fill="currentColor" stroke="none" fill-opacity="1.00" fill-rule="nonzero" />
      <path d="M67.07,264.68L67.02,264.62L66.95,264.57L66.88,264.54L66.80,264.52L66.72,264.51L66.64,264.52L66.56,264.55L66.49,264.59L66.43,264.64L66.38,264.71L66.35,264.78L66.32,264.86L66.32,264.94L66.33,265.02L66.36,265.10L66.40,265.17L74.00,279.04L74.74,279.70L87.91,288.13L104.08,292.09L126.10,291.51L126.87,291.40L127.60,291.13L128.26,290.73L128.84,290.21L129.30,289.59L129.63,288.89L129.81,288.13L129.85,287.36L129.74,286.59L129.47,285.86L129.07,285.20L128.55,284.62L127.93,284.16L127.22,283.83L126.47,283.65L125.70,283.61L105.10,285.11L90.62,282.34L77.43,275.96z" fill="currentColor" stroke="none" fill-opacity="1.00" fill-rule="nonzero" />
      <path d="M122.85,151.21L123.03,150.74L123.12,150.24L123.11,149.74L123.00,149.25L122.79,148.79L122.51,148.38L122.14,148.03L121.72,147.76L121.25,147.58L120.76,147.49L120.25,147.51L119.76,147.62L119.30,147.82L118.89,148.11L118.55,148.47L118.28,148.89L101.96,178.86L96.66,203.17L93.34,236.32L93.49,237.75L102.02,265.56L102.69,266.81L115.72,282.80L126.68,289.54L127.26,289.84L127.89,290.02L128.54,290.07L129.18,289.99L129.80,289.79L130.37,289.47L130.86,289.05L131.27,288.53L131.56,287.95L131.74,287.33L131.79,286.68L131.71,286.03L131.51,285.41L131.19,284.84L130.77,284.35L130.26,283.95L121.14,277.64L109.07,262.59L100.61,236.28L103.60,204.46L108.59,181.69z" fill="currentColor" stroke="none" fill-opacity="1.00" fill-rule="nonzero" />
      <path d="M126.93,132.78L126.94,132.71L126.92,132.64L126.90,132.57L126.86,132.51L126.82,132.46L126.76,132.42L126.70,132.39L126.63,132.37L126.56,132.37L126.49,132.38L126.42,132.41L126.36,132.44L126.31,132.49L126.27,132.55L126.24,132.61L126.22,132.68L121.53,153.04L124.17,179.43L133.60,198.94L134.35,199.90L148.76,212.71L149.30,213.09L149.89,213.36L150.53,213.51L151.19,213.53L151.83,213.42L152.44,213.19L153.00,212.84L153.48,212.39L153.86,211.86L154.13,211.26L154.28,210.63L154.30,209.97L154.19,209.33L153.96,208.71L153.61,208.16L153.16,207.68L139.03,195.49L130.03,178.15L126.06,153.35z" fill="currentColor" stroke="none" fill-opacity="1.00" fill-rule="nonzero" />
      <path d="M149.29,175.95L149.29,175.87L149.28,175.80L149.26,175.73L149.22,175.66L149.17,175.61L149.11,175.56L149.04,175.53L148.97,175.51L148.90,175.51L148.82,175.52L148.75,175.54L148.69,175.58L148.63,175.63L148.59,175.69L148.55,175.75L148.53,175.83L144.07,193.02L144.14,193.94L148.04,209.31L148.25,209.81L148.55,210.26L148.94,210.65L149.40,210.95L149.90,211.16L150.44,211.27L150.98,211.27L151.52,211.16L152.02,210.95L152.47,210.65L152.86,210.26L153.16,209.81L153.37,209.30L153.48,208.77L153.48,208.22L153.37,207.68L148.19,193.20z" fill="currentColor" stroke="none" fill-opacity="1.00" fill-rule="nonzero" />
      <path d="M148.95,174.73L148.93,174.67L148.89,174.61L148.85,174.56L148.79,174.52L148.73,174.49L148.66,174.48L148.59,174.48L148.53,174.49L148.46,174.51L148.41,174.55L148.36,174.60L148.32,174.65L148.29,174.71L148.28,174.78L148.28,174.85L148.29,174.91L151.48,192.15L165.28,215.18L178.32,227.66L192.05,233.71L192.63,233.89L193.24,233.96L193.85,233.90L194.44,233.72L194.98,233.44L195.46,233.05L195.85,232.58L196.14,232.04L196.32,231.46L196.38,230.85L196.32,230.24L196.15,229.65L195.86,229.11L195.48,228.63L195.01,228.24L194.47,227.95L182.08,222.84L169.97,211.68L155.06,190.84z" fill="currentColor" stroke="none" fill-opacity="1.00" fill-rule="nonzero" />
      <path d="M204.78,154.82L204.77,154.76L204.75,154.70L204.72,154.65L204.68,154.61L204.64,154.57L204.58,154.55L204.52,154.53L204.47,154.53L204.41,154.54L204.35,154.56L204.30,154.59L204.26,154.63L204.22,154.68L204.20,154.73L204.18,154.79L204.18,154.85L203.64,174.24L202.58,193.33L198.71,209.95L191.46,227.97L191.29,228.58L191.24,229.21L191.31,229.84L191.50,230.45L191.81,231.00L192.22,231.49L192.72,231.88L193.29,232.18L193.90,232.35L194.53,232.40L195.16,232.33L195.77,232.14L196.32,231.83L196.81,231.42L197.21,230.92L197.50,230.35L204.63,212.01L208.18,194.23L207.41,174.21z" fill="currentColor" stroke="none" fill-opacity="1.00" fill-rule="nonzero" />
      <path d="M201.22,128.57L201.18,128.51L201.13,128.46L201.07,128.42L201.00,128.39L200.93,128.38L200.86,128.38L200.79,128.40L200.72,128.43L200.66,128.47L200.61,128.52L200.57,128.58L200.55,128.65L200.53,128.72L200.53,128.79L200.55,128.86L200.58,128.93L208.27,146.27L211.81,170.10L210.06,195.80L203.86,213.97L203.72,214.61L203.70,215.26L203.82,215.91L204.05,216.52L204.40,217.08L204.86,217.55L205.39,217.93L205.99,218.19L206.64,218.34L207.29,218.35L207.94,218.24L208.55,218.00L209.11,217.65L209.58,217.20L209.96,216.66L210.22,216.06L216.18,197.39L217.77,170.10L212.36,145.16z" fill="currentColor" stroke="none" fill-opacity="1.00" fill-rule="nonzero" />
      <path d="M212.92,149.81L212.44,149.58L211.93,149.45L211.40,149.41L210.87,149.48L210.37,149.66L209.91,149.93L209.51,150.28L209.19,150.70L208.95,151.18L208.82,151.69L208.79,152.22L208.86,152.75L209.03,153.25L209.30,153.71L209.65,154.11L210.07,154.43L234.32,170.38L249.41,192.04L249.84,192.55L250.37,192.97L250.96,193.28L251.61,193.46L252.28,193.52L252.95,193.45L253.59,193.24L254.18,192.92L254.69,192.48L255.11,191.96L255.42,191.36L255.60,190.71L255.66,190.04L255.58,189.38L255.38,188.73L255.05,188.15L239.77,165.71L238.71,164.70z" fill="currentColor" stroke="none" fill-opacity="1.00" fill-rule="nonzero" />
      <path d="M245.98,145.90L245.68,145.67L245.35,145.51L244.99,145.41L244.62,145.38L244.25,145.42L243.89,145.54L243.57,145.72L243.28,145.97L243.05,146.26L242.88,146.60L242.78,146.96L242.76,147.33L242.80,147.70L242.92,148.06L243.10,148.38L243.35,148.66L251.98,158.40L255.00,169.81L254.48,180.73L248.03,194.82L247.82,195.41L247.73,196.03L247.76,196.66L247.92,197.27L248.18,197.83L248.56,198.34L249.02,198.76L249.56,199.08L250.15,199.29L250.77,199.38L251.40,199.35L252.01,199.19L252.57,198.92L253.08,198.55L253.50,198.08L253.82,197.54L260.86,182.95L261.18,181.60L261.23,169.50L257.53,156.01L256.71,154.64z" fill="currentColor" stroke="none" fill-opacity="1.00" fill-rule="nonzero" />
      <path d="M98.61,128.34L98.54,128.42L98.50,128.51L98.47,128.60L98.47,128.70L98.48,128.80L98.51,128.90L98.56,128.98L98.62,129.06L98.70,129.12L98.79,129.16L98.88,129.19L98.98,129.20L99.08,129.19L99.17,129.15L99.26,129.11L99.34,129.04L126.84,105.20L152.49,91.28L153.19,90.80L153.78,90.18L154.23,89.47L154.54,88.68L154.69,87.85L154.67,87.00L154.49,86.17L154.15,85.39L153.67,84.70L153.06,84.11L152.34,83.65L151.55,83.34L150.72,83.20L149.87,83.21L149.04,83.39L148.27,83.73L122.49,98.63z" fill="currentColor" stroke="none" fill-opacity="1.00" fill-rule="nonzero" />
      <path d="M141.29,113.70L141.25,113.81L141.24,113.91L141.25,114.02L141.28,114.12L141.33,114.22L141.40,114.30L141.48,114.37L141.58,114.42L141.68,114.46L141.79,114.47L141.89,114.46L142.00,114.43L142.09,114.38L142.18,114.31L142.24,114.23L142.30,114.13L156.26,89.71L156.48,88.99L156.56,88.24L156.50,87.48L156.29,86.76L155.94,86.09L155.46,85.50L154.88,85.02L154.22,84.66L153.50,84.43L152.75,84.35L152.00,84.42L151.28,84.63L150.61,84.98L150.02,85.46L149.54,86.03L149.17,86.70z" fill="currentColor" stroke="none" fill-opacity="1.00" fill-rule="nonzero" />
      <path d="M136.23,111.72L135.83,111.98L135.48,112.30L135.20,112.69L135.00,113.12L134.89,113.59L134.88,114.06L134.95,114.53L135.12,114.98L135.37,115.39L135.70,115.74L136.08,116.02L136.52,116.21L136.98,116.32L137.46,116.34L137.93,116.26L138.38,116.10L167.15,102.99L189.89,99.47L214.48,102.03L239.97,111.50L259.92,125.88L276.81,148.04L285.16,173.16L286.71,196.54L286.83,197.25L287.08,197.92L287.47,198.53L287.96,199.05L288.55,199.46L289.21,199.76L289.91,199.92L290.63,199.94L291.34,199.82L292.01,199.56L292.62,199.17L293.14,198.68L293.56,198.09L293.85,197.44L294.01,196.73L294.03,196.01L292.21,172.21L283.20,145.30L265.33,121.12L243.65,105.55L216.44,95.46L190.14,92.68L165.62,96.49z" fill="currentColor" stroke="none" fill-opacity="1.00" fill-rule="nonzero" />
      <path d="M262.13,179.55L262.11,179.51L262.07,179.47L262.03,179.44L261.98,179.41L261.93,179.40L261.88,179.40L261.83,179.41L261.78,179.42L261.74,179.45L261.70,179.48L261.67,179.53L261.64,179.57L261.63,179.62L261.63,179.67L261.63,179.73L261.65,179.77L266.97,196.04L271.25,232.45L271.83,233.87L282.07,247.77L284.62,256.59L277.92,268.40L261.51,283.09L241.83,293.42L221.78,301.57L171.76,308.33L149.91,308.20L134.32,305.58L121.10,299.83L114.76,292.48L114.31,292.05L113.78,291.71L113.20,291.47L112.59,291.36L111.96,291.37L111.35,291.50L110.77,291.75L110.26,292.10L109.82,292.55L109.48,293.08L109.25,293.66L109.14,294.28L109.14,294.90L109.28,295.52L109.52,296.09L109.88,296.61L116.55,304.66L117.71,305.54L131.86,312.12L149.01,315.21L171.97,315.29L223.14,308.34L244.58,299.78L265.17,289.15L282.95,273.12L291.14,258.59L291.47,257.76L291.56,256.87L291.41,255.99L288.00,245.37L277.25,230.81L271.41,195.08z" fill="currentColor" stroke="none" fill-opacity="1.00" fill-rule="nonzero" />
      <path d="M292.32,162.80L291.83,162.66L291.31,162.62L290.81,162.69L290.32,162.87L289.89,163.14L289.52,163.49L289.23,163.92L289.04,164.39L288.95,164.90L288.97,165.41L289.09,165.91L289.32,166.37L289.63,166.78L290.02,167.11L290.48,167.35L301.31,173.23L308.30,181.38L314.37,197.88L316.40,209.17L315.30,215.48L315.27,216.27L315.40,217.05L315.67,217.79L316.09,218.47L316.62,219.05L317.26,219.51L317.98,219.84L318.75,220.03L319.54,220.06L320.32,219.93L321.06,219.66L321.74,219.24L322.32,218.71L322.78,218.07L323.11,217.35L323.30,216.58L324.03,209.57L321.33,196.21L314.88,178.32L306.63,167.60L305.10,166.48z" fill="currentColor" stroke="none" fill-opacity="1.00" fill-rule="nonzero" />
      <path d="M315.34,217.91L315.71,218.27L316.15,218.55L316.63,218.75L317.14,218.84L317.66,218.84L318.17,218.73L318.64,218.53L319.07,218.23L319.43,217.86L319.72,217.43L319.91,216.94L320.00,216.43L320.00,215.92L319.89,215.41L319.69,214.93L319.39,214.50L313.02,205.34L311.92,204.45L304.78,200.54L303.99,200.23L303.16,200.10L302.31,200.16L301.50,200.41L300.76,200.83L300.14,201.40L299.66,202.10L299.34,202.89L299.20,203.72L298.16,217.36L289.03,231.20L288.65,231.95L288.41,232.75L288.34,233.59L288.43,234.43L288.69,235.23L289.10,235.97L289.64,236.61L290.30,237.14L291.04,237.52L291.85,237.76L292.69,237.83L293.53,237.74L294.33,237.48L295.07,237.07L295.71,236.53L296.23,235.87L305.77,220.96L306.44,218.90L306.52,210.06L307.88,210.60z" fill="currentColor" stroke="none" fill-opacity="1.00" fill-rule="nonzero" />
      <path d="M293.56,232.06L293.30,231.85L293.01,231.69L292.70,231.59L292.37,231.56L292.04,231.59L291.72,231.68L291.42,231.83L291.17,232.04L290.95,232.30L290.80,232.59L290.70,232.90L290.66,233.23L290.69,233.56L290.79,233.88L290.94,234.17L291.15,234.43L300.30,245.49L304.51,259.96L301.69,277.86L298.87,284.02L293.15,289.96L292.66,290.60L292.31,291.32L292.11,292.10L292.06,292.90L292.17,293.70L292.44,294.46L292.84,295.15L293.38,295.75L294.02,296.24L294.74,296.59L295.52,296.79L296.33,296.84L297.12,296.73L297.88,296.46L298.57,296.05L299.18,295.52L305.09,288.85L308.79,280.36L311.41,260.12L311.28,258.58L305.64,243.02L304.95,241.88z" fill="currentColor" stroke="none" fill-opacity="1.00" fill-rule="nonzero" />
      <path d="M295.86,270.84L295.81,270.44L295.70,270.07L295.51,269.72L295.25,269.42L294.95,269.17L294.60,268.99L294.22,268.87L293.83,268.84L293.43,268.88L293.06,269.00L292.71,269.19L292.41,269.44L292.16,269.75L291.98,270.10L291.87,270.47L291.83,270.87L291.12,280.04L288.36,291.43L288.31,292.10L288.38,292.77L288.58,293.41L288.91,294.00L289.34,294.52L289.87,294.94L290.47,295.24L291.11,295.43L291.78,295.49L292.45,295.41L293.09,295.21L293.68,294.88L294.20,294.45L294.62,293.92L294.93,293.33L295.11,292.68L296.66,280.79z" fill="currentColor" stroke="none" fill-opacity="1.00" fill-rule="nonzero" />
      <path d="M293.19,271.66L293.20,271.64L293.21,271.62L293.21,271.59L293.20,271.57L293.19,271.55L293.18,271.53L293.17,271.52L293.15,271.50L293.13,271.49L293.10,271.49L293.08,271.49L293.06,271.49L293.04,271.50L293.02,271.52L293.00,271.53L292.99,271.55L286.93,279.71L276.00,292.23L264.47,302.79L257.21,306.45L256.58,306.87L256.05,307.41L255.63,308.04L255.34,308.74L255.19,309.48L255.19,310.24L255.34,310.98L255.63,311.68L256.05,312.31L256.59,312.85L257.22,313.27L257.92,313.56L258.66,313.70L259.42,313.70L260.16,313.56L260.86,313.26L268.39,309.00L280.51,296.43L289.54,281.48z" fill="currentColor" stroke="none" fill-opacity="1.00" fill-rule="nonzero" />
      <path d="M151.34,314.81L151.18,314.65L151.00,314.53L150.80,314.44L150.58,314.40L150.37,314.40L150.15,314.44L149.95,314.52L149.76,314.64L149.61,314.79L149.48,314.98L149.40,315.18L149.35,315.39L149.35,315.61L149.39,315.83L149.48,316.03L149.60,316.21L154.02,324.21L154.54,324.70L155.16,325.04L155.86,325.20L173.96,326.93L177.53,342.23L176.96,350.88L173.53,355.47L167.30,354.59L161.84,349.61L161.34,349.23L160.78,348.96L160.18,348.81L159.56,348.77L158.94,348.86L158.35,349.07L157.82,349.38L157.35,349.80L156.98,350.29L156.71,350.86L156.56,351.46L156.52,352.08L156.61,352.69L156.81,353.28L157.13,353.82L157.54,354.28L163.72,360.00L164.55,360.55L165.51,360.82L174.48,361.77L175.26,361.77L176.01,361.57L176.69,361.18L177.25,360.64L182.68,354.15L183.18,353.30L183.39,352.33L184.07,342.11L178.59,323.77L178.35,323.18L177.98,322.66L177.49,322.25L176.92,321.97L176.30,321.83L157.51,319.94z" fill="currentColor" stroke="none" fill-opacity="1.00" fill-rule="nonzero" />
      <path d="M157.67,353.42L157.66,353.12L157.58,352.83L157.45,352.55L157.27,352.31L157.04,352.10L156.78,351.95L156.49,351.85L156.19,351.80L155.89,351.82L155.59,351.90L155.32,352.03L155.08,352.21L154.87,352.44L154.72,352.70L154.62,352.98L154.57,353.28L153.22,363.38L153.28,364.05L153.53,364.68L153.93,365.22L162.01,374.06L162.89,374.67L163.94,374.93L176.06,375.73L177.00,375.64L177.87,375.26L187.43,369.16L188.37,368.23L193.49,360.19L193.91,359.14L195.58,348.83L195.19,337.67L188.26,313.76L188.05,313.24L187.73,312.77L187.34,312.37L186.87,312.06L186.35,311.84L185.80,311.73L185.23,311.72L184.68,311.83L184.16,312.04L183.69,312.36L183.29,312.75L182.97,313.22L182.76,313.74L182.64,314.29L182.64,314.86L182.75,315.41L189.72,338.25L190.19,348.11L188.05,357.42L183.64,364.44L175.44,369.59L165.41,369.08L158.16,362.53z" fill="currentColor" stroke="none" fill-opacity="1.00" fill-rule="nonzero" />
      <path d="M233.83,304.46L233.84,304.26L233.80,304.05L233.73,303.86L233.62,303.69L233.47,303.54L233.30,303.42L233.11,303.33L232.91,303.29L232.71,303.28L232.50,303.32L232.31,303.39L232.13,303.51L231.98,303.65L231.87,303.82L231.78,304.01L231.74,304.21L230.00,307.66L227.57,308.75L197.92,315.84L197.26,316.09L196.68,316.49L196.21,317.01L195.87,317.63L195.69,318.31L195.67,319.01L197.31,337.68L197.79,339.08L205.53,351.12L206.03,351.72L206.66,352.18L207.39,352.47L208.16,352.56L211.79,352.44L212.66,352.30L213.46,351.92L218.26,348.62L219.22,347.55L225.60,335.10L225.81,334.59L225.91,334.05L225.91,333.50L225.79,332.96L225.58,332.45L225.27,331.99L224.88,331.61L224.42,331.30L223.91,331.10L223.37,330.99L222.82,331.00L222.28,331.11L221.77,331.32L221.31,331.63L220.92,332.02L220.62,332.48L214.32,344.14L210.86,346.45L209.87,346.33L203.54,336.31L201.83,320.99L229.37,314.07L233.52,310.99L234.03,310.54L234.39,309.96L234.56,309.31z" fill="currentColor" stroke="none" fill-opacity="1.00" fill-rule="nonzero" />
      <path d="M224.26,333.85L224.25,333.79L224.23,333.74L224.19,333.69L224.15,333.64L224.10,333.61L224.04,333.58L223.98,333.57L223.92,333.57L223.86,333.58L223.80,333.60L223.75,333.64L223.71,333.68L223.67,333.73L223.65,333.79L223.64,333.85L223.64,333.91L223.06,350.43L215.67,361.87L211.33,364.15L204.49,363.84L197.67,360.20L194.39,354.28L194.09,353.85L193.72,353.49L193.28,353.21L192.80,353.02L192.29,352.93L191.77,352.94L191.27,353.05L190.79,353.26L190.37,353.56L190.01,353.93L189.73,354.37L189.54,354.85L189.45,355.36L189.46,355.88L189.57,356.39L189.77,356.86L193.47,363.40L194.48,364.41L202.37,368.98L203.59,369.32L211.70,369.72L212.92,369.50L219.14,367.27L220.01,366.71L220.66,365.91L227.49,352.10L227.74,351.44L227.78,350.74z" fill="currentColor" stroke="none" fill-opacity="1.00" fill-rule="nonzero" />
      <path d="M153.46,320.37L153.48,320.36L153.49,320.34L153.50,320.33L153.51,320.31L153.52,320.29L153.52,320.28L153.52,320.26L153.51,320.24L153.50,320.22L153.49,320.21L153.47,320.20L153.46,320.19L153.44,320.19L153.42,320.18L153.40,320.19L153.38,320.19L138.67,323.96L114.95,332.04L114.35,332.33L113.82,332.74L113.40,333.26L113.10,333.86L112.94,334.50L112.93,335.17L113.64,339.74L113.85,340.58L114.33,341.32L138.38,368.27L159.01,381.84L181.40,389.10L199.78,389.87L212.81,388.39L214.12,387.87L237.51,371.10L238.28,370.27L254.62,344.14L260.90,325.41L262.33,306.08L262.31,305.46L262.15,304.85L261.87,304.30L261.46,303.82L260.97,303.44L260.40,303.18L259.79,303.06L232.78,300.38L232.19,300.39L231.61,300.51L231.06,300.74L230.57,301.07L230.15,301.50L229.82,301.99L229.60,302.55L229.49,303.13L229.49,303.72L229.61,304.31L229.84,304.86L230.18,305.35L230.60,305.77L231.10,306.09L231.65,306.32L232.24,306.43L256.51,308.40L255.07,323.90L249.59,341.39L233.52,366.59L211.38,382.84L199.77,384.37L182.74,383.61L161.76,376.98L142.50,364.05L118.99,338.34L119.17,336.98L140.70,329.36z" fill="currentColor" stroke="none" fill-opacity="1.00" fill-rule="nonzero" />
      <path d="M116.18,336.65L116.19,336.63L116.19,336.61L116.19,336.59L116.18,336.58L116.17,336.56L116.16,336.55L116.15,336.53L116.13,336.52L116.11,336.52L116.10,336.52L116.08,336.52L116.06,336.52L116.04,336.53L116.03,336.54L116.02,336.56L116.01,336.57L87.74,395.61L86.57,427.02L73.40,468.15L73.28,468.76L73.27,469.39L73.39,470.01L73.63,470.59L73.98,471.12L74.42,471.56L74.94,471.91L75.52,472.16L76.13,472.28L76.76,472.29L77.38,472.17L77.96,471.93L78.48,471.59L78.93,471.15L79.28,470.62L79.53,470.05L92.04,428.32L93.43,397.43z" fill="currentColor" stroke="none" fill-opacity="1.00" fill-rule="nonzero" />
      <path d="M138.25,375.98L138.24,375.84L138.21,375.71L138.15,375.58L138.07,375.47L137.96,375.37L137.84,375.30L137.71,375.26L137.57,375.23L137.44,375.24L137.30,375.27L137.17,375.33L137.06,375.42L136.97,375.52L136.89,375.64L136.85,375.77L136.83,375.91L133.38,404.38L133.54,405.45L138.51,420.32L140.42,432.58L137.04,479.60L137.06,480.20L137.19,480.79L137.44,481.34L137.79,481.83L138.23,482.24L138.74,482.56L139.31,482.78L139.90,482.88L140.50,482.86L141.09,482.72L141.64,482.47L142.13,482.12L142.54,481.68L142.86,481.17L143.08,480.61L143.17,480.01L146.11,432.69L144.74,419.16L138.78,404.11z" fill="currentColor" stroke="none" fill-opacity="1.00" fill-rule="nonzero" />
      <path d="M259.52,311.99L259.39,311.91L259.24,311.85L259.08,311.82L258.92,311.82L258.76,311.85L258.61,311.91L258.48,312.01L258.36,312.12L258.28,312.26L258.21,312.41L258.19,312.56L258.19,312.73L258.22,312.88L258.28,313.03L258.37,313.17L258.49,313.28L271.60,326.68L279.31,338.87L279.69,339.35L280.16,339.75L280.70,340.05L281.29,340.24L281.90,340.32L282.52,340.27L283.11,340.10L283.66,339.82L284.14,339.44L284.54,338.97L284.85,338.43L285.04,337.84L285.11,337.23L285.06,336.61L284.89,336.02L284.61,335.47L276.49,322.95z" fill="currentColor" stroke="none" fill-opacity="1.00" fill-rule="nonzero" />
      <path d="M249.96,359.00L249.86,358.81L249.72,358.64L249.56,358.50L249.37,358.39L249.16,358.32L248.95,358.30L248.73,358.31L248.52,358.37L248.32,358.47L248.15,358.60L248.01,358.77L247.90,358.96L247.84,359.17L247.81,359.38L247.83,359.60L247.89,359.81L253.67,380.69L254.26,381.66L255.14,382.37L264.83,387.29L291.02,395.82L300.69,397.11L301.91,396.99L313.13,393.91L314.40,393.17L320.26,387.00L340.77,376.50L364.17,357.70L378.71,340.55L379.34,339.32L382.71,326.03L382.80,325.42L382.78,324.81L382.64,324.21L382.38,323.65L382.02,323.15L381.57,322.73L381.04,322.41L380.46,322.19L379.85,322.10L379.24,322.12L378.64,322.26L378.08,322.52L377.58,322.88L377.16,323.34L376.84,323.86L376.62,324.44L373.24,336.99L360.28,353.38L337.95,371.62L317.33,382.12L310.37,387.73L300.75,391.27L292.49,390.40L267.37,382.17L259.39,377.19z" fill="currentColor" stroke="none" fill-opacity="1.00" fill-rule="nonzero" />
      <path d="M280.19,344.00L280.05,344.24L279.95,344.49L279.91,344.76L279.92,345.03L279.98,345.30L280.10,345.54L280.25,345.76L280.45,345.95L280.69,346.09L280.94,346.19L281.21,346.23L281.48,346.22L281.75,346.16L281.99,346.04L282.21,345.88L282.40,345.68L315.63,304.30L334.99,297.13L346.20,313.31L346.90,314.05L347.80,314.54L375.55,324.23L376.16,324.38L376.78,324.41L377.40,324.31L377.99,324.10L378.52,323.78L378.99,323.35L379.36,322.85L379.62,322.28L379.77,321.67L379.80,321.05L379.71,320.43L379.49,319.84L379.17,319.30L378.75,318.84L378.24,318.47L377.67,318.21L350.99,308.69L338.88,291.27L338.40,290.72L337.81,290.29L337.14,290.00L336.42,289.87L335.69,289.90L334.99,290.10L312.88,299.47L311.71,300.36z" fill="currentColor" stroke="none" fill-opacity="1.00" fill-rule="nonzero" />
      <path d="M326.82,302.66L326.64,302.52L326.44,302.43L326.23,302.37L326.01,302.36L325.79,302.39L325.58,302.46L325.39,302.57L325.22,302.72L325.09,302.89L324.99,303.09L324.93,303.31L324.92,303.53L324.95,303.75L325.02,303.96L325.13,304.15L325.28,304.31L346.38,326.59L347.13,327.10L348.00,327.38L367.23,330.70L367.88,330.75L368.53,330.66L369.15,330.44L369.72,330.11L370.21,329.68L370.60,329.16L370.89,328.57L371.06,327.94L371.10,327.29L371.01,326.64L370.80,326.02L370.47,325.45L370.03,324.96L369.51,324.57L368.93,324.28L368.29,324.11L349.92,321.38z" fill="currentColor" stroke="none" fill-opacity="1.00" fill-rule="nonzero" />
      <path d="M338.77,298.69L338.75,299.07L338.80,299.45L338.92,299.82L339.11,300.15L339.37,300.44L339.67,300.68L340.02,300.85L340.39,300.95L340.77,300.98L341.16,300.93L341.52,300.80L341.86,300.61L342.15,300.36L342.38,300.05L342.55,299.70L342.65,299.33L345.38,286.29L348.30,282.00L351.09,281.68L353.83,286.53L354.14,287.01L354.55,287.41L355.04,287.72L355.58,287.91L356.15,287.98L356.72,287.92L357.27,287.75L357.77,287.46L358.19,287.07L358.52,286.59L358.73,286.06L361.82,275.80L366.09,272.83L367.77,272.65L370.16,276.66L367.66,284.74L367.57,285.38L367.60,286.02L367.77,286.65L368.05,287.23L368.45,287.74L368.94,288.16L369.50,288.47L370.12,288.66L370.76,288.73L371.40,288.67L372.02,288.48L372.58,288.17L376.85,284.61L381.59,285.99L382.04,287.89L377.73,292.85L377.33,293.42L377.06,294.07L376.94,294.76L376.98,295.45L377.16,296.13L377.49,296.75L377.94,297.28L378.49,297.70L379.13,298.00L379.81,298.15L386.09,298.77L388.07,301.76L387.71,304.84L382.41,309.57L381.95,310.06L381.62,310.63L381.42,311.27L381.36,311.93L381.45,312.59L381.67,313.22L382.03,313.78L382.51,314.25L383.07,314.60L383.70,314.83L385.59,314.17L384.36,314.72L371.31,316.80L370.67,317.00L370.08,317.31L369.56,317.73L369.14,318.25L368.83,318.84L368.63,319.48L368.57,320.14L368.63,320.81L368.83,321.44L369.14,322.03L369.56,322.55L370.08,322.97L370.67,323.29L371.31,323.48L371.97,323.55L372.63,323.48L387.05,320.11L387.74,319.88L388.35,319.49L388.85,318.96L389.19,318.32L391.02,313.87L391.19,313.26L391.23,312.62L391.12,311.99L390.89,311.40L390.54,310.87L390.08,310.42L389.54,310.09L388.93,309.87L387.36,311.14L392.74,308.79L393.45,307.90L393.80,306.80L394.49,301.38L394.43,300.27L394.00,299.25L390.56,294.04L389.94,293.34L389.15,292.86L388.25,292.63L386.62,292.41L388.13,290.68L388.60,289.97L388.87,289.16L388.91,288.31L388.73,287.47L386.65,282.42L386.31,281.76L385.82,281.20L385.21,280.78L384.51,280.52L376.90,279.09L376.16,279.03L375.43,279.17L374.77,279.50L372.60,282.90L375.81,276.93L375.90,276.22L375.80,275.51L375.52,274.85L371.87,268.53L371.45,267.99L370.92,267.56L370.30,267.28L369.63,267.15L365.30,266.56L364.18,266.70L363.17,267.23L357.67,272.01L357.09,272.63L356.73,273.41L355.50,278.13L355.32,277.22L354.92,276.62L354.39,276.14L353.75,275.81L353.05,275.65L352.34,275.66L346.18,276.58L345.38,276.82L344.68,277.28L344.15,277.93L340.81,284.11L340.49,284.99z" fill="currentColor" stroke="none" fill-opacity="1.00" fill-rule="nonzero" />
      <path d="M268.98,387.03L268.93,386.91L268.87,386.80L268.78,386.70L268.67,386.63L268.55,386.57L268.43,386.54L268.30,386.53L268.17,386.56L268.04,386.60L267.93,386.67L267.84,386.76L267.76,386.86L267.70,386.98L267.67,387.11L267.67,387.24L267.69,387.37L268.83,398.23L269.81,419.22L273.42,437.11L279.81,447.45L291.96,459.54L292.49,459.96L293.09,460.27L293.74,460.45L294.42,460.50L295.09,460.42L295.73,460.21L296.33,459.88L296.84,459.44L297.26,458.91L297.57,458.31L297.75,457.66L297.80,456.98L297.72,456.31L297.51,455.67L297.18,455.08L296.74,454.56L285.06,443.64L279.57,435.10L275.10,418.66L273.42,397.72z" fill="currentColor" stroke="none" fill-opacity="1.00" fill-rule="nonzero" />
      <path d="M182.29,372.53L182.23,372.39L182.16,372.27L182.06,372.17L181.94,372.09L181.81,372.03L181.67,372.00L181.53,372.00L181.39,372.03L181.25,372.08L181.13,372.16L181.03,372.26L180.95,372.37L180.89,372.50L180.86,372.64L180.86,372.79L180.89,372.93L185.91,399.48L191.38,407.07L191.80,407.53L192.30,407.90L192.87,408.16L193.48,408.31L194.11,408.34L194.72,408.25L195.31,408.03L195.85,407.71L196.31,407.28L196.68,406.78L196.94,406.21L197.09,405.60L197.12,404.98L197.02,404.36L196.81,403.77L196.49,403.23L191.94,397.13z" fill="currentColor" stroke="none" fill-opacity="1.00" fill-rule="nonzero" />
      <path d="M203.93,365.29L203.91,365.06L203.86,364.85L203.76,364.64L203.62,364.46L203.45,364.31L203.26,364.20L203.05,364.13L202.82,364.10L202.60,364.11L202.38,364.17L202.18,364.27L202.00,364.40L201.85,364.57L201.74,364.77L201.67,364.98L201.63,365.20L199.20,383.22L195.66,402.77L193.92,405.25L193.63,405.80L193.45,406.40L193.39,407.02L193.45,407.64L193.63,408.23L193.93,408.78L194.33,409.26L194.81,409.66L195.36,409.95L195.96,410.13L196.58,410.19L197.20,410.12L197.79,409.94L198.34,409.65L198.82,409.25L199.22,408.77L201.19,405.66L201.67,404.46L204.94,384.01z" fill="currentColor" stroke="none" fill-opacity="1.00" fill-rule="nonzero" />
      <path d="M197.12,402.45L197.22,402.13L197.27,401.80L197.25,401.47L197.16,401.15L197.01,400.85L196.81,400.59L196.56,400.37L196.28,400.21L195.96,400.10L195.63,400.06L195.30,400.08L194.98,400.16L194.68,400.31L194.42,400.51L194.20,400.76L194.04,401.05L183.48,420.69L183.24,421.47L183.20,422.28L183.37,423.08L183.74,423.80L184.28,424.42L202.48,440.28L203.04,440.67L203.66,440.93L204.33,441.06L205.01,441.03L205.67,440.87L206.27,440.56L206.80,440.14L207.23,439.61L207.53,439.00L213.29,422.86L213.46,422.13L213.44,421.38L213.24,420.66L212.86,420.01L200.30,403.92L199.91,403.51L199.45,403.19L198.93,402.95L198.38,402.83L197.82,402.81L197.26,402.91L196.73,403.11L196.26,403.41L195.85,403.79L195.52,404.25L195.29,404.77L195.16,405.32L195.15,405.88L195.24,406.44L195.44,406.97L195.74,407.45L207.14,422.34L203.19,432.50L190.28,421.17z" fill="currentColor" stroke="none" fill-opacity="1.00" fill-rule="nonzero" />
      <path d="M194.91,398.78L194.44,401.99L191.50,410.22L180.71,421.55L189.06,431.85L204.71,441.99L214.53,422.51L210.01,413.36zM139.58,363.76L135.15,378.21L136.81,403.23L141.55,418.34L142.29,455.26L140.14,478.32L142.61,487.87L151.61,491.42L175.85,489.83L279.01,464.68L293.14,459.09L275.37,434.17L269.23,410.67L268.71,394.08L256.15,380.07L246.16,354.31L242.57,352.82L224.19,374.58L210.04,385.36L177.38,387.25L164.14,382.94z" fill-rule="evenodd" fill="currentColor" stroke="none" fill-opacity="1.00" />
      <path d="M76.50,157.34L73.94,144.47L64.37,132.31L47.85,124.66L33.48,127.92L19.63,134.60L11.30,141.56L4.72,155.20L-1.02,171.59L0.92,193.94L6.78,207.86L20.27,219.38L30.38,222.29L43.40,220.99L55.32,214.37L56.23,222.37L44.75,230.92L28.92,234.94L14.01,236.10L0.20,231.76L-10.99,219.54L-20.24,203.58L-27.23,178.80L-26.02,145.52L-18.20,122.94L-13.20,114.82L3.74,99.21L24.19,86.36L34.32,82.96L48.43,81.70L66.58,88.98L74.01,93.79L88.94,117.52L93.28,130.42L93.59,138.55z" fill-rule="evenodd" fill="currentColor" stroke="none" fill-opacity="1.00" />
      <path d="M249.33,112.86L256.63,103.08L267.47,95.20L275.25,92.79L282.99,94.25L294.87,104.68L300.34,122.45L297.24,139.02L288.51,146.55L282.33,149.70L284.87,160.13L299.10,165.87L311.14,157.00L316.89,148.92L321.11,129.67L316.41,104.58L309.61,87.17L298.05,68.60L287.28,58.36L277.76,52.98L266.16,50.39L250.17,52.12L236.38,60.39L223.74,78.15L221.40,93.39L223.06,102.86z" fill-rule="evenodd" fill="currentColor" stroke="none" fill-opacity="1.00" />
      <path d="M76.09,158.21L76.03,146.32L61.51,137.90L38.59,138.66L30.95,141.64L23.55,147.88L36.96,149.49L26.49,168.58L20.62,181.38L33.39,172.35L29.61,205.11L31.78,211.20L36.37,215.73L48.91,216.46L57.95,210.89L73.41,171.65z" fill-rule="evenodd" fill="currentColor" stroke="none" fill-opacity="1.00" />
      <path d="M266.23,93.33L276.28,98.14L281.24,107.26L283.77,123.13L275.46,120.45L276.91,125.47L275.83,131.58L261.80,127.06L256.95,122.17L253.64,113.52L257.16,101.96z" fill-rule="evenodd" fill="currentColor" stroke="none" fill-opacity="1.00" />
      <path d="M106.27,31.43L106.51,31.75L106.81,32.01L107.16,32.21L107.54,32.33L107.93,32.38L108.33,32.35L108.71,32.25L109.07,32.07L109.38,31.83L109.64,31.53L109.84,31.18L109.96,30.81L110.01,30.41L109.99,30.01L109.88,29.63L109.70,29.28L106.59,21.17L105.90,20.36L105.01,19.78L103.99,19.47L92.38,17.66L91.21,17.67L90.10,18.03L79.68,21.68L78.18,22.81L77.18,24.40L72.75,35.78L72.38,37.53L72.65,39.30L75.23,46.23L76.41,48.12L81.14,52.72L83.00,53.87L107.96,62.01L109.14,64.51L107.85,66.11L93.06,72.57L81.12,67.95L80.18,67.70L79.20,67.63L78.23,67.75L77.30,68.06L76.44,68.54L75.70,69.18L75.10,69.96L74.66,70.84L74.40,71.78L74.33,72.76L74.46,73.73L74.77,74.66L75.25,75.51L75.89,76.25L76.67,76.86L77.54,77.30L91.37,82.55L92.59,82.85L93.85,82.83L95.06,82.49L113.74,74.93L114.85,74.30L115.78,73.40L116.45,72.31L118.60,66.47L118.99,65.16L118.98,63.79L118.59,62.49L115.61,56.16L114.91,55.10L113.96,54.26L112.82,53.70L87.06,45.15L84.03,42.06L82.87,37.85L86.17,30.17L92.46,25.39L101.22,26.57z" fill="currentColor" stroke="none" fill-opacity="1.00" fill-rule="nonzero" />
      <path d="M382.92,54.88L383.01,55.22L383.18,55.53L383.39,55.81L383.66,56.04L383.97,56.21L384.31,56.31L384.66,56.36L385.01,56.33L385.35,56.23L385.66,56.07L385.94,55.85L386.17,55.58L386.34,55.27L386.45,54.94L386.49,54.59L386.46,54.24L386.73,47.33L386.35,46.29L385.66,45.44L378.82,39.31L377.96,38.76L376.97,38.49L368.61,36.25L366.94,36.36L365.42,37.05L357.57,42.69L356.57,43.64L355.90,44.86L355.64,46.21L355.47,57.22L355.68,58.73L356.42,60.07L371.02,77.79L370.57,79.54L368.76,79.51L354.82,77.97L347.92,69.57L347.31,68.95L346.58,68.47L345.78,68.14L344.92,67.98L344.05,67.98L343.20,68.15L342.40,68.49L341.68,68.97L341.06,69.59L340.58,70.32L340.25,71.12L340.09,71.97L340.09,72.84L340.26,73.70L340.60,74.50L341.08,75.22L349.15,84.92L349.95,85.67L350.92,86.21L351.99,86.48L368.43,88.78L374.93,87.08L375.98,86.67L376.89,86.00L377.58,85.11L378.01,84.07L379.63,77.84L379.77,76.87L379.67,75.90L379.35,74.97L378.82,74.15L363.99,55.95L364.54,48.81L369.29,45.70L375.15,45.10L380.45,49.63z" fill="currentColor" stroke="none" fill-opacity="1.00" fill-rule="nonzero" />
      <path d="M89.20,5.30L89.04,4.66L88.75,4.06L88.35,3.53L87.86,3.09L87.28,2.75L86.66,2.54L86.00,2.44L85.34,2.48L84.70,2.65L84.10,2.94L83.58,3.33L83.13,3.83L82.80,4.40L82.58,5.02L82.49,5.68L82.53,6.34L88.02,48.13L101.68,91.56L102.04,92.39L102.55,93.13L103.20,93.76L103.96,94.25L104.80,94.58L105.69,94.74L106.59,94.73L107.47,94.54L108.30,94.18L109.04,93.66L109.67,93.02L110.16,92.26L110.49,91.42L110.65,90.53L110.64,89.63L110.45,88.75L96.65,46.44z" fill="currentColor" stroke="none" fill-opacity="1.00" fill-rule="nonzero" />
      <path d="M387.95,27.54L388.15,27.36L388.31,27.15L388.42,26.90L388.48,26.65L388.49,26.38L388.45,26.12L388.36,25.87L388.22,25.64L388.04,25.45L387.82,25.29L387.58,25.18L387.32,25.12L387.06,25.11L386.79,25.15L386.54,25.24L386.32,25.38L379.79,28.37L378.92,29.43L363.82,58.38L343.16,90.40L342.83,91.04L342.63,91.73L342.56,92.45L342.64,93.17L342.86,93.86L343.20,94.49L343.67,95.05L344.23,95.50L344.87,95.83L345.56,96.04L346.28,96.10L347.00,96.02L347.69,95.81L348.32,95.46L348.88,95.00L349.33,94.44L370.56,62.49L383.87,32.59z" fill="currentColor" stroke="none" fill-opacity="1.00" fill-rule="nonzero" />
    </g>
  </symbol>
</svg>