<?xml version='1.0' encoding='utf-8'?>
<svg xmlns="http://www.w3.org/2000/svg" version="1.1" x="0.00px" y="0.00px" width="400.00px" height="400.00px" viewBox="0.00 0.00 400.00 400.00">
  <symbol id="frame" viewBox="0.00 0.00 400.00 400.00">
    <g class="layers.drawing-primary">
      <path d="M103.97,131.46L104.07,131.72L104.21,131.95L104.40,132.15L104.62,132.31L104.87,132.42L105.13,132.48L105.40,132.49L105.67,132.44L105.93,132.35L106.16,132.20L106.35,132.02L106.51,131.80L106.62,131.55L106.69,131.28L106.69,131.01L106.65,130.74L102.62,109.07L88.99,88.98L70.60,76.26L69.07,75.66L55.77,73.44L34.37,77.00L21.92,83.34L5.92,98.11L-8.07,119.44L-16.82,148.20L-17.70,170.55L-13.70,192.08L-5.45,210.45L5.36,223.70L11.72,228.47L25.65,233.04L26.92,233.17L47.72,230.45L61.36,224.17L61.99,223.75L64.62,218.86L64.67,218.81L64.70,218.75L64.72,218.68L64.72,218.61L64.72,218.55L64.70,218.48L64.67,218.42L64.62,218.37L64.57,218.33L64.51,218.29L64.44,218.27L64.38,218.27L64.31,218.27L64.24,218.29L64.18,218.33L64.13,218.37L59.52,220.74L46.77,225.25L26.90,227.06L15.03,223.10L9.98,219.38L0.19,207.44L-7.44,190.51L-11.16,170.43L-10.32,149.73L-1.98,122.85L11.21,103.21L25.92,89.95L36.33,84.67L55.16,81.44L66.98,83.29L83.50,93.78L96.74,111.25z" fill="currentColor" stroke="none" fill-opacity="1.00" fill-rule="nonzero" />
      <path d="M88.34,155.55L88.71,156.01L89.17,156.38L89.70,156.65L90.27,156.80L90.86,156.82L91.45,156.73L92.00,156.51L92.49,156.19L92.91,155.77L93.23,155.27L93.44,154.72L93.53,154.14L93.49,153.54L93.34,152.97L93.07,152.45L83.61,137.13L83.00,136.44L82.23,135.94L70.73,130.01L69.06,129.65L52.51,129.51L50.52,130.04L34.50,139.09L33.79,139.59L33.20,140.23L32.76,140.99L32.49,141.81L32.40,142.68L32.50,143.55L32.78,144.37L33.23,145.12L33.82,145.76L34.54,146.25L35.34,146.59L36.20,146.74L44.58,146.67L35.04,156.25L34.23,157.57L28.38,174.80L28.22,175.48L28.20,176.18L28.32,176.86L28.58,177.51L28.97,178.09L29.47,178.58L30.05,178.96L30.70,179.22L31.39,179.33L32.09,179.31L32.76,179.14L33.39,178.84L39.41,174.94L34.62,185.68L34.35,187.31L35.71,205.20L36.28,206.88L41.70,215.31L42.15,215.87L42.71,216.33L43.34,216.68L44.03,216.89L44.75,216.97L45.47,216.90L46.17,216.70L46.81,216.36L47.37,215.91L47.83,215.35L48.18,214.72L48.39,214.03L48.47,213.31L48.40,212.59L48.20,211.89L47.86,211.25L42.77,203.70L41.33,187.59L49.22,168.26L49.42,167.62L49.48,166.94L49.39,166.27L49.17,165.64L48.82,165.06L48.36,164.57L47.81,164.19L47.18,163.92L46.52,163.80L45.85,163.81L45.19,163.97L44.58,164.26L37.95,168.06L40.62,160.61L54.65,146.18L55.09,145.63L55.40,145.00L55.59,144.32L55.62,143.61L55.51,142.91L55.26,142.25L54.88,141.66L54.39,141.15L53.80,140.76L53.15,140.50L52.45,140.37L50.42,139.55L53.66,137.81L68.27,137.34L78.57,141.56z" fill="currentColor" stroke="none" fill-opacity="1.00" fill-rule="nonzero" />
      <path d="M85.30,147.51L85.48,147.76L85.70,147.97L85.95,148.14L86.24,148.25L86.54,148.30L86.84,148.29L87.14,148.23L87.41,148.10L87.66,147.93L87.87,147.71L88.04,147.46L88.15,147.17L88.20,146.87L88.19,146.57L88.13,146.27L88.01,145.99L82.60,133.27L72.06,123.29L70.46,122.50L53.77,118.43L43.42,119.01L30.61,123.72L29.30,124.52L22.75,130.85L16.03,143.87L9.32,162.25L8.77,181.12L10.72,190.98L18.49,205.34L19.54,206.49L31.53,214.62L32.88,215.15L45.10,217.02L59.19,214.75L67.85,209.14L68.31,208.79L68.68,208.36L68.95,207.86L69.12,207.32L69.17,206.75L69.10,206.18L68.91,205.64L68.62,205.16L68.23,204.74L67.76,204.41L67.23,204.19L66.67,204.08L66.10,204.10L65.55,204.22L65.03,204.47L57.45,208.41L45.57,210.55L34.64,208.76L24.00,201.39L17.27,189.08L15.49,180.90L16.10,164.13L22.46,146.94L28.37,136.05L34.25,131.15L44.66,127.28L52.63,126.61L68.04,129.42L77.51,136.75z" fill="currentColor" stroke="none" fill-opacity="1.00" fill-rule="nonzero" />
      <path d="M234.89,105.86L234.92,106.33L235.04,106.77L235.25,107.19L235.53,107.55L235.88,107.86L236.28,108.09L236.72,108.24L237.17,108.30L237.64,108.27L238.08,108.15L238.50,107.95L238.87,107.67L239.17,107.32L239.40,106.92L239.55,106.48L239.61,106.02L240.70,88.28L244.63,77.46L251.68,67.01L261.25,60.62L272.85,57.73L285.12,58.65L296.28,62.67L305.28,68.84L321.08,91.49L327.17,106.74L330.16,122.61L329.76,138.05L324.34,156.73L317.03,165.18L309.38,168.19L308.71,168.53L308.12,169.00L307.63,169.57L307.26,170.23L307.03,170.95L306.94,171.70L307.00,172.45L307.21,173.17L307.55,173.84L308.02,174.44L308.59,174.93L309.25,175.29L309.97,175.53L310.72,175.61L311.47,175.55L312.19,175.35L320.75,172.01L322.28,170.91L330.60,160.97L331.35,159.56L336.81,139.55L337.10,122.36L333.65,105.13L326.91,88.72L309.97,64.85L299.37,57.45L286.77,52.84L272.82,51.69L259.29,54.90L247.86,62.36L247.04,63.18L239.50,74.47L235.16,86.80z" fill="currentColor" stroke="none" fill-opacity="1.00" fill-rule="nonzero" />
      <path d="M263.96,111.65L263.65,112.18L263.44,112.76L263.36,113.37L263.39,113.98L263.54,114.58L263.81,115.13L264.18,115.62L264.63,116.03L265.16,116.35L265.74,116.55L266.35,116.64L266.96,116.60L267.56,116.45L268.11,116.18L268.61,115.82L269.02,115.36L274.42,107.08L281.86,102.43L292.32,102.10L301.18,106.95L305.86,115.21L308.15,133.15L305.77,140.98L296.42,147.65L295.82,148.11L295.32,148.68L294.94,149.34L294.69,150.06L294.59,150.81L294.64,151.56L294.83,152.30L295.17,152.98L295.63,153.58L296.19,154.08L296.85,154.46L297.57,154.71L298.32,154.81L299.08,154.76L299.81,154.57L300.49,154.23L312.25,147.86L313.17,147.11L313.87,146.14L314.31,145.03L316.47,134.33L316.55,132.70L313.06,113.34L312.56,111.97L306.42,102.64L305.12,101.43L294.51,96.03L292.83,95.67L280.72,96.63L279.25,97.13L271.13,103.02z" fill="currentColor" stroke="none" fill-opacity="1.00" fill-rule="nonzero" />
      <path d="M287.58,101.34L287.31,100.99L286.98,100.70L286.60,100.49L286.18,100.35L285.74,100.29L285.30,100.33L284.88,100.44L284.48,100.64L284.13,100.91L283.85,101.24L283.63,101.63L283.49,102.05L283.43,102.48L283.47,102.92L283.58,103.35L283.78,103.74L290.49,113.50L293.44,126.30L293.90,126.55L290.65,123.47L290.13,123.22L289.56,123.09L288.98,123.08L288.41,123.18L287.88,123.40L287.40,123.73L286.99,124.14L286.69,124.63L286.48,125.18L286.40,125.75L286.43,126.33L288.06,135.17L288.43,134.78L286.72,133.55L286.14,133.38L285.54,133.32L284.94,133.38L284.36,133.56L283.83,133.84L283.36,134.23L282.98,134.69L282.69,135.23L282.52,135.81L282.46,136.41L282.52,137.01L282.69,137.59L282.98,138.12L283.36,138.59L283.83,138.97L284.36,139.25L287.96,140.88L288.73,141.09L289.54,141.10L290.32,140.91L291.03,140.54L291.63,140.00L293.06,137.84L293.51,137.13L293.73,136.32L293.72,135.48L290.78,128.20L293.34,131.66L293.89,131.92L294.48,132.05L295.09,132.05L295.69,131.92L296.24,131.67L296.73,131.30L297.13,130.84L297.42,130.30L298.12,127.33L298.29,126.58L298.21,125.81L293.86,112.29z" fill="currentColor" stroke="none" fill-opacity="1.00" fill-rule="nonzero" />
      <path d="M101.58,231.34L100.96,231.75L100.43,232.27L100.01,232.89L99.72,233.57L99.56,234.30L99.56,235.04L99.70,235.77L99.97,236.46L100.38,237.08L100.90,237.62L101.52,238.03L102.20,238.33L102.93,238.48L103.67,238.48L104.40,238.35L105.09,238.07L122.67,228.51L139.32,222.36L155.97,218.11L168.74,216.10L169.27,216.01L169.78,215.81L170.23,215.52L170.62,215.15L170.93,214.70L171.15,214.21L171.27,213.68L171.28,213.14L171.19,212.61L170.99,212.10L170.70,211.65L170.33,211.26L169.89,210.95L169.39,210.73L168.87,210.61L168.33,210.60L155.05,210.55L137.28,215.43L120.02,222.11z" fill="currentColor" stroke="none" fill-opacity="1.00" fill-rule="nonzero" />
      <path d="M163.78,214.54L163.69,214.19L163.54,213.87L163.33,213.58L163.06,213.33L162.75,213.15L162.42,213.03L162.06,212.97L161.70,212.99L161.35,213.08L161.03,213.23L160.74,213.44L160.50,213.71L160.31,214.01L160.19,214.35L160.14,214.71L160.15,215.06L160.18,216.74L152.87,217.81L152.08,218.17L151.42,218.74L150.94,219.47L148.95,224.53L148.72,225.30L148.72,226.09L148.95,226.86L152.25,232.57L152.55,233.04L152.97,233.43L153.46,233.69L154.01,233.82L159.31,234.27L160.00,234.23L160.63,233.97L161.73,233.50L163.02,241.76L160.82,261.02L157.19,265.49L152.77,267.53L141.64,266.99L129.54,258.37L120.89,241.45L120.74,228.36L120.69,227.81L120.54,227.29L120.29,226.80L119.95,226.37L119.53,226.02L119.05,225.75L118.52,225.59L117.98,225.53L117.43,225.57L116.90,225.73L116.42,225.98L115.99,226.32L115.64,226.74L115.37,227.22L115.21,227.75L115.14,228.29L114.66,242.13L114.99,243.55L123.97,262.08L125.02,263.30L138.62,272.95L139.48,273.39L140.42,273.56L153.34,273.85L154.83,273.54L160.51,270.64L161.60,269.75L165.88,263.84L166.26,263.15L166.45,262.37L168.04,241.89L165.59,229.40L165.45,228.93L165.22,228.51L164.89,228.14L164.50,227.85L164.05,227.65L163.57,227.55L163.08,227.56L162.61,227.67L162.16,227.88L159.03,230.03L155.69,229.60L154.51,225.69L155.95,223.33L163.04,220.17L163.48,219.97L163.87,219.68L164.18,219.31L164.40,218.87L164.50,218.39L164.49,217.91z" fill="currentColor" stroke="none" fill-opacity="1.00" fill-rule="nonzero" />
      <path d="M229.28,203.58L228.60,203.94L228.00,204.42L227.51,205.01L227.14,205.68L226.91,206.42L226.83,207.18L226.89,207.95L227.11,208.69L227.47,209.37L227.95,209.97L228.54,210.46L229.21,210.83L229.95,211.06L230.71,211.14L231.48,211.08L232.22,210.86L257.08,201.24L268.36,201.44L279.43,206.11L280.43,206.36L281.46,206.42L282.48,206.26L283.46,205.91L284.34,205.38L285.11,204.69L285.72,203.86L286.16,202.93L286.41,201.92L286.46,200.89L286.31,199.87L285.96,198.90L285.43,198.01L284.74,197.25L283.91,196.64L282.98,196.19L270.68,192.52L256.19,192.66L254.62,192.97z" fill="currentColor" stroke="none" fill-opacity="1.00" fill-rule="nonzero" />
      <path d="M273.40,204.05L273.76,203.83L274.08,203.54L274.32,203.19L274.50,202.81L274.60,202.40L274.62,201.97L274.55,201.55L274.40,201.16L274.18,200.79L273.89,200.48L273.55,200.23L273.16,200.06L272.75,199.96L272.33,199.94L271.91,200.01L271.51,200.16L269.02,201.09L262.76,199.19L261.97,199.12L261.19,199.27L260.48,199.62L259.90,200.16L255.24,205.66L254.78,206.43L254.57,207.31L254.63,208.21L256.91,216.35L257.13,216.95L257.49,217.47L257.96,217.89L258.53,218.18L259.14,218.32L266.89,219.00L267.53,227.53L264.47,245.21L261.52,248.27L256.88,250.33L247.98,249.01L239.52,241.44L235.43,228.51L234.11,207.47L234.05,207.03L233.91,206.62L233.69,206.24L233.40,205.92L233.05,205.65L232.66,205.46L232.24,205.35L231.80,205.32L231.37,205.38L230.96,205.53L230.58,205.75L230.25,206.04L229.99,206.38L229.80,206.78L229.69,207.20L229.66,207.64L229.94,229.09L234.44,243.83L235.23,245.06L244.82,253.79L245.50,254.25L246.29,254.49L256.81,256.13L258.36,255.94L264.39,253.53L265.37,252.86L269.43,248.73L269.96,247.99L270.25,247.12L273.19,228.05L271.55,216.45L271.43,215.90L271.18,215.41L270.83,214.98L270.39,214.63L269.89,214.40L269.34,214.28L261.46,213.44L260.72,208.32L263.22,205.24L268.78,205.98L269.59,206.03L270.37,205.80z" fill="currentColor" stroke="none" fill-opacity="1.00" fill-rule="nonzero" />
      <path d="M226.29,179.72L225.75,179.90L225.25,180.17L224.82,180.54L224.46,180.98L224.20,181.49L224.05,182.03L224.00,182.60L224.07,183.16L224.24,183.70L224.51,184.20L224.88,184.63L225.33,184.99L225.83,185.25L226.38,185.40L226.94,185.45L227.51,185.38L241.54,182.35L257.01,183.83L269.48,185.71L269.69,185.75L269.90,185.75L270.10,185.70L270.30,185.62L270.47,185.51L270.62,185.36L270.73,185.19L270.81,184.99L270.85,184.79L270.85,184.58L270.81,184.37L270.73,184.18L270.61,184.01L270.47,183.86L270.29,183.74L270.10,183.66L258.39,178.25L241.65,176.57z" fill="currentColor" stroke="none" fill-opacity="1.00" fill-rule="nonzero" />
      <path d="M150.52,195.14L150.97,195.12L151.40,195.02L151.81,194.84L152.17,194.58L152.47,194.25L152.70,193.87L152.86,193.45L152.93,193.01L152.91,192.57L152.81,192.14L152.62,191.73L152.36,191.37L152.04,191.07L151.66,190.84L151.24,190.68L150.80,190.61L135.34,188.94L134.14,189.11L122.08,193.41L113.06,199.74L104.63,210.54L104.39,210.88L104.22,211.27L104.13,211.67L104.11,212.09L104.18,212.50L104.33,212.89L104.56,213.25L104.84,213.55L105.18,213.80L105.57,213.97L105.97,214.06L106.39,214.07L106.81,214.00L107.20,213.85L107.55,213.63L107.85,213.34L116.73,204.33L124.51,198.95L135.58,194.94z" fill="currentColor" stroke="none" fill-opacity="1.00" fill-rule="nonzero" />
      <path d="M210.72,296.59L202.80,296.51L199.86,293.24L199.81,287.67L202.86,280.17L207.89,280.94L208.91,280.97L216.78,279.63L217.52,286.75zM222.92,289.08L223.25,288.43L223.41,287.72L223.39,287.00L221.32,276.19L221.17,275.62L220.88,275.11L220.48,274.68L220.00,274.35L219.45,274.14L218.86,274.07L218.28,274.13L208.51,276.87L202.11,274.35L201.48,274.25L200.84,274.30L200.23,274.50L199.69,274.83L199.24,275.29L198.91,275.84L194.12,285.78L193.85,286.95L193.57,294.34L193.77,295.48L194.35,296.47L198.99,301.84L199.70,302.44L200.55,302.82L201.48,302.93L212.35,302.35L213.02,302.25L213.66,302.00L214.21,301.61L214.66,301.10z" fill="currentColor" stroke="none" fill-opacity="1.00" fill-rule="nonzero" />
      <path d="M35.35,229.78L35.28,229.38L35.13,229.00L34.91,228.66L34.63,228.37L34.29,228.13L33.92,227.97L33.52,227.88L33.12,227.87L32.72,227.94L32.34,228.09L31.99,228.31L31.70,228.59L31.47,228.93L31.30,229.30L31.22,229.70L31.21,230.10L31.60,243.54L26.44,260.18L6.93,287.04L6.55,287.71L6.31,288.44L6.21,289.20L6.27,289.97L6.47,290.71L6.82,291.40L7.29,292.01L7.87,292.51L8.54,292.89L9.27,293.14L10.03,293.23L10.80,293.18L11.54,292.97L12.23,292.63L12.84,292.15L13.34,291.57L32.51,263.70L36.98,244.48z" fill="currentColor" stroke="none" fill-opacity="1.00" fill-rule="nonzero" />
      <path d="M8.14,291.72L7.76,291.75L7.40,291.86L7.06,292.04L6.77,292.28L6.53,292.58L6.35,292.91L6.24,293.28L6.20,293.66L6.24,294.04L6.35,294.40L6.52,294.74L6.77,295.03L7.06,295.27L7.40,295.45L7.76,295.56L8.14,295.60L22.38,296.42L32.82,294.56L46.65,286.59L54.42,277.90L54.78,277.38L55.04,276.80L55.18,276.18L55.20,275.55L55.09,274.92L54.87,274.33L54.53,273.79L54.09,273.33L53.58,272.96L53.00,272.70L52.38,272.56L51.74,272.54L51.12,272.65L50.52,272.87L49.98,273.21L49.52,273.65L42.87,281.31L31.00,288.61L22.08,290.91z" fill="currentColor" stroke="none" fill-opacity="1.00" fill-rule="nonzero" />
      <path d="M56.40,281.63L56.41,281.50L56.39,281.37L56.34,281.26L56.28,281.15L56.19,281.06L56.09,280.98L55.97,280.93L55.85,280.90L55.72,280.90L55.60,280.92L55.48,280.96L55.37,281.03L55.28,281.12L55.21,281.22L55.15,281.33L55.12,281.46L51.39,296.84L54.90,319.31L62.25,331.62L73.13,340.98L73.70,341.37L74.33,341.64L75.00,341.78L75.69,341.78L76.36,341.66L77.00,341.40L77.57,341.03L78.06,340.55L78.45,339.98L78.72,339.35L78.86,338.68L78.87,337.99L78.74,337.32L78.49,336.68L78.11,336.11L77.63,335.61L67.88,327.43L61.38,317.33L56.04,297.06z" fill="currentColor" stroke="none" fill-opacity="1.00" fill-rule="nonzero" />
      <path d="M76.92,334.60L77.14,334.95L77.42,335.25L77.76,335.49L78.14,335.66L78.55,335.75L78.96,335.76L79.37,335.68L79.75,335.53L80.10,335.31L80.40,335.03L80.64,334.69L80.81,334.31L80.90,333.90L80.90,333.49L80.83,333.08L80.68,332.70L77.91,325.93L79.71,318.34L89.12,300.10L89.35,299.52L89.45,298.92L89.44,298.30L89.31,297.70L89.06,297.13L88.70,296.63L88.26,296.20L87.73,295.87L87.16,295.64L86.55,295.54L85.93,295.55L85.33,295.69L84.76,295.94L84.26,296.29L83.83,296.74L83.50,297.26L74.22,316.02L72.44,325.79L72.41,326.68L72.68,327.53z" fill="currentColor" stroke="none" fill-opacity="1.00" fill-rule="nonzero" />
      <path d="M94.59,297.25L94.52,296.79L94.37,296.34L94.13,295.93L93.82,295.58L93.44,295.30L93.02,295.09L92.56,294.97L92.09,294.94L91.62,295.01L91.18,295.16L90.77,295.40L90.42,295.71L90.13,296.09L89.93,296.51L89.81,296.97L89.78,297.44L89.38,308.15L89.55,309.06L89.97,309.88L94.40,317.03L102.35,323.76L114.59,328.83L115.37,329.06L116.19,329.12L117.00,329.03L117.77,328.78L118.49,328.38L119.11,327.86L119.62,327.22L119.99,326.49L120.21,325.71L120.28,324.89L120.19,324.08L119.94,323.30L119.54,322.59L119.01,321.97L118.37,321.46L117.65,321.09L106.87,316.91L100.17,312.25L95.79,306.94z" fill="currentColor" stroke="none" fill-opacity="1.00" fill-rule="nonzero" />
      <path d="M102.76,135.98L102.79,135.90L102.81,135.82L102.80,135.74L102.79,135.66L102.75,135.59L102.71,135.52L102.65,135.46L102.58,135.42L102.50,135.39L102.42,135.37L102.34,135.37L102.26,135.39L102.18,135.43L102.11,135.47L102.06,135.53L102.01,135.60L79.38,173.54L68.73,200.23L63.33,226.57L64.88,250.60L65.01,251.35L65.29,252.07L65.69,252.71L66.22,253.27L66.84,253.71L67.54,254.02L68.29,254.19L69.05,254.21L69.80,254.09L70.52,253.81L71.17,253.41L71.72,252.88L72.16,252.26L72.47,251.56L72.64,250.81L72.67,250.05L71.06,227.58L76.03,202.68L85.68,176.53z" fill="currentColor" stroke="none" fill-opacity="1.00" fill-rule="nonzero" />
      <path d="M73.68,259.48L73.63,259.41L73.57,259.35L73.51,259.31L73.43,259.28L73.35,259.27L73.27,259.27L73.19,259.29L73.12,259.32L73.05,259.37L72.99,259.43L72.95,259.50L72.92,259.57L72.91,259.65L72.91,259.73L72.93,259.81L72.96,259.89L79.28,274.73L80.07,275.54L93.23,284.67L109.52,289.31L131.68,289.61L132.45,289.52L133.19,289.29L133.87,288.92L134.46,288.42L134.95,287.81L135.30,287.13L135.52,286.38L135.59,285.61L135.50,284.84L135.27,284.10L134.90,283.42L134.40,282.82L133.79,282.34L133.10,281.98L132.36,281.77L131.59,281.70L110.81,282.37L96.15,278.98L82.96,271.95z" fill="currentColor" stroke="none" fill-opacity="1.00" fill-rule="nonzero" />
      <path d="M135.04,148.45L135.23,147.98L135.32,147.48L135.31,146.98L135.20,146.49L135.01,146.03L134.72,145.62L134.36,145.27L133.94,144.99L133.47,144.81L132.98,144.72L132.48,144.72L131.98,144.83L131.52,145.03L131.11,145.31L130.76,145.67L130.49,146.09L114.01,175.76L107.53,199.40L102.51,232.06L102.59,233.49L109.55,261.37L110.15,262.65L122.12,279.12L132.54,286.46L133.10,286.79L133.72,287.00L134.36,287.09L135.01,287.06L135.64,286.89L136.23,286.61L136.75,286.22L137.18,285.73L137.51,285.17L137.73,284.56L137.82,283.91L137.78,283.26L137.62,282.63L137.34,282.05L136.95,281.53L136.46,281.09L127.83,274.28L116.74,258.78L109.77,232.41L114.39,201.06L120.57,178.72z" fill="currentColor" stroke="none" fill-opacity="1.00" fill-rule="nonzero" />
      <path d="M138.23,129.88L138.23,129.81L138.22,129.74L138.20,129.68L138.16,129.62L138.11,129.56L138.06,129.52L137.99,129.49L137.93,129.48L137.86,129.47L137.79,129.48L137.72,129.51L137.66,129.54L137.61,129.59L137.57,129.65L137.54,129.71L137.52,129.78L132.64,150.27L133.98,176.96L142.54,197.25L143.24,198.25L157.09,211.95L157.60,212.36L158.19,212.66L158.82,212.84L159.47,212.90L160.12,212.83L160.74,212.63L161.32,212.31L161.82,211.89L162.23,211.38L162.53,210.80L162.71,210.17L162.76,209.52L162.69,208.86L162.49,208.24L162.18,207.67L161.76,207.17L148.15,194.10L139.90,175.98L137.16,150.67z" fill="currentColor" stroke="none" fill-opacity="1.00" fill-rule="nonzero" />
      <path d="M159.13,174.29L159.13,174.21L159.11,174.14L159.08,174.07L159.04,174.01L158.99,173.96L158.92,173.91L158.85,173.89L158.78,173.87L158.71,173.87L158.63,173.89L158.56,173.92L158.50,173.96L158.45,174.01L158.41,174.08L158.38,174.15L158.37,174.22L155.19,191.38L158.09,207.45L158.27,207.97L158.54,208.44L158.90,208.85L159.33,209.18L159.82,209.42L160.35,209.56L160.90,209.60L161.44,209.53L161.96,209.35L162.43,209.08L162.84,208.72L163.17,208.29L163.41,207.80L163.55,207.27L163.59,206.72L163.52,206.18L159.30,191.41z" fill="currentColor" stroke="none" fill-opacity="1.00" fill-rule="nonzero" />
      <path d="M159.46,173.31L159.44,173.24L159.42,173.18L159.37,173.13L159.32,173.08L159.27,173.05L159.20,173.03L159.13,173.02L159.07,173.02L159.00,173.04L158.94,173.07L158.89,173.11L158.84,173.16L158.81,173.22L158.79,173.28L158.78,173.35L158.78,173.42L160.01,191.22L160.26,191.90L173.13,215.27L186.02,228.49L199.75,235.11L200.33,235.31L200.93,235.39L201.54,235.35L202.14,235.20L202.69,234.93L203.17,234.56L203.58,234.10L203.89,233.58L204.09,233.00L204.17,232.39L204.14,231.78L203.98,231.19L203.72,230.64L203.35,230.15L202.89,229.74L202.36,229.43L189.95,223.80L177.95,211.95L163.70,190.26z" fill="currentColor" stroke="none" fill-opacity="1.00" fill-rule="nonzero" />
      <path d="M213.98,156.05L213.96,155.99L213.94,155.94L213.90,155.89L213.85,155.86L213.80,155.83L213.75,155.81L213.69,155.80L213.63,155.81L213.57,155.82L213.52,155.85L213.47,155.89L213.43,155.93L213.41,155.98L213.39,156.04L213.38,156.10L213.39,156.16L215.28,175.34L212.85,194.20L207.74,210.49L199.23,227.92L199.01,228.52L198.91,229.15L198.94,229.78L199.09,230.40L199.35,230.98L199.73,231.49L200.20,231.92L200.74,232.25L201.34,232.47L201.97,232.57L202.60,232.54L203.22,232.39L203.80,232.12L204.31,231.75L204.74,231.28L205.07,230.74L213.50,212.98L218.37,195.51L219.06,175.39z" fill="currentColor" stroke="none" fill-opacity="1.00" fill-rule="nonzero" />
      <path d="M213.99,129.58L213.95,129.52L213.90,129.47L213.84,129.43L213.77,129.40L213.70,129.39L213.63,129.38L213.56,129.40L213.49,129.42L213.43,129.46L213.38,129.51L213.34,129.57L213.31,129.64L213.29,129.71L213.29,129.78L213.31,129.85L213.33,129.92L220.30,147.53L222.71,171.45L219.76,197.01L212.73,214.83L212.56,215.47L212.51,216.12L212.59,216.77L212.80,217.40L213.12,217.97L213.55,218.46L214.07,218.86L214.66,219.16L215.29,219.33L215.95,219.38L216.60,219.30L217.22,219.09L217.79,218.76L218.29,218.33L218.69,217.81L218.99,217.23L225.80,198.88L228.66,171.73L224.43,146.61z" fill="currentColor" stroke="none" fill-opacity="1.00" fill-rule="nonzero" />
      <path d="M225.11,151.20L224.65,150.92L224.15,150.74L223.63,150.66L223.10,150.68L222.58,150.81L222.10,151.03L221.67,151.35L221.31,151.74L221.03,152.19L220.85,152.69L220.77,153.22L220.79,153.75L220.92,154.27L221.14,154.75L221.46,155.18L221.85,155.54L244.41,173.54L258.57,195.67L258.99,196.20L259.49,196.64L260.08,196.97L260.72,197.18L261.38,197.26L262.05,197.21L262.70,197.04L263.30,196.73L263.83,196.32L264.27,195.81L264.60,195.23L264.82,194.59L264.90,193.92L264.85,193.25L264.67,192.60L264.37,192.00L250.09,169.17z" fill="currentColor" stroke="none" fill-opacity="1.00" fill-rule="nonzero" />
      <path d="M260.34,147.62L260.10,147.33L259.81,147.10L259.48,146.92L259.12,146.81L258.75,146.78L258.38,146.82L258.02,146.92L257.69,147.10L257.40,147.34L257.16,147.63L256.99,147.96L256.88,148.32L256.84,148.69L256.88,149.06L256.99,149.42L257.17,149.75L263.63,161.34L266.53,173.19L265.81,184.34L258.96,198.44L258.74,199.02L258.63,199.64L258.65,200.27L258.79,200.88L259.05,201.45L259.41,201.96L259.86,202.39L260.39,202.72L260.98,202.95L261.60,203.05L262.23,203.03L262.84,202.90L263.41,202.64L263.92,202.28L264.35,201.82L264.68,201.29L272.14,186.70L272.48,185.34L272.76,173.00L269.30,159.36z" fill="currentColor" stroke="none" fill-opacity="1.00" fill-rule="nonzero" />
      <path d="M111.59,124.39L111.53,124.47L111.48,124.55L111.45,124.65L111.44,124.74L111.45,124.84L111.47,124.94L111.52,125.03L111.58,125.10L111.66,125.17L111.74,125.22L111.84,125.25L111.94,125.26L112.04,125.25L112.13,125.22L112.22,125.18L112.30,125.12L140.74,102.31L167.07,89.61L167.78,89.16L168.40,88.57L168.89,87.88L169.24,87.11L169.42,86.28L169.45,85.43L169.31,84.60L169.00,83.81L168.55,83.09L167.97,82.47L167.28,81.98L166.50,81.64L165.68,81.45L164.83,81.42L163.99,81.57L163.20,81.87L136.68,95.56z" fill="currentColor" stroke="none" fill-opacity="1.00" fill-rule="nonzero" />
      <path d="M155.45,112.12L155.42,112.22L155.41,112.33L155.43,112.44L155.46,112.54L155.51,112.63L155.58,112.71L155.66,112.78L155.76,112.83L155.86,112.86L155.97,112.87L156.08,112.86L156.18,112.83L156.27,112.77L156.36,112.70L156.42,112.62L156.47,112.53L169.93,87.71L170.14,86.98L170.21,86.23L170.12,85.48L169.90,84.76L169.53,84.10L169.05,83.53L168.46,83.06L167.79,82.71L167.06,82.50L166.31,82.43L165.56,82.52L164.84,82.75L164.18,83.11L163.60,83.60L163.13,84.19L162.79,84.86z" fill="currentColor" stroke="none" fill-opacity="1.00" fill-rule="nonzero" />
      <path d="M150.28,110.07L149.86,110.30L149.50,110.60L149.20,110.98L148.98,111.40L148.85,111.86L148.80,112.33L148.85,112.81L149.00,113.26L149.23,113.68L149.53,114.05L149.91,114.34L150.33,114.57L150.79,114.70L151.26,114.74L151.74,114.69L152.19,114.55L181.53,103.02L204.22,100.54L228.52,104.18L253.41,114.72L272.58,129.89L288.36,152.64L295.49,177.84L294.23,201.08L294.27,201.80L294.44,202.49L294.75,203.15L295.18,203.72L295.71,204.21L296.33,204.58L297.01,204.82L297.72,204.92L298.44,204.89L299.14,204.71L299.79,204.41L300.37,203.98L300.85,203.44L301.22,202.83L301.46,202.15L301.57,201.44L302.61,177.60L294.86,150.19L278.19,125.36L257.35,108.94L230.78,97.70L204.78,93.77L180.31,96.45z" fill="currentColor" stroke="none" fill-opacity="1.00" fill-rule="nonzero" />
      <path d="M274.22,182.70L274.20,182.65L274.18,182.60L274.14,182.57L274.10,182.53L274.05,182.51L274.00,182.50L273.95,182.50L273.90,182.51L273.85,182.52L273.81,182.55L273.77,182.59L273.74,182.63L273.71,182.68L273.70,182.73L273.70,182.78L273.71,182.83L276.07,199.93L279.03,236.63L279.58,238.09L289.50,252.36L291.94,261.35L284.86,273.21L267.82,287.53L247.88,297.22L226.64,301.12L176.42,305.70L154.87,304.72L139.74,301.61L127.23,295.64L121.36,288.34L120.92,287.89L120.41,287.53L119.83,287.28L119.22,287.14L118.60,287.13L117.98,287.24L117.40,287.47L116.87,287.81L116.42,288.24L116.06,288.75L115.81,289.33L115.67,289.94L115.66,290.56L115.77,291.18L116.00,291.76L116.33,292.29L122.50,300.31L123.63,301.23L137.05,308.06L153.71,311.69L176.36,312.66L227.42,307.96L249.59,303.95L271.29,293.69L289.75,278.07L298.41,263.50L298.76,262.67L298.87,261.77L298.74,260.88L295.48,250.07L285.09,235.20L280.56,199.29z" fill="currentColor" stroke="none" fill-opacity="1.00" fill-rule="nonzero" />
      <path d="M305.44,166.70L305.06,166.41L304.63,166.19L304.17,166.06L303.69,166.02L303.21,166.08L302.76,166.23L302.34,166.47L301.97,166.78L301.68,167.16L301.46,167.59L301.33,168.05L301.29,168.53L301.35,169.01L301.50,169.47L301.74,169.89L302.05,170.25L310.21,179.97L317.33,188.13L323.08,204.35L325.19,215.60L324.39,221.97L324.40,222.76L324.56,223.54L324.87,224.26L325.31,224.92L325.88,225.47L326.54,225.91L327.27,226.20L328.05,226.35L328.84,226.34L329.61,226.18L330.34,225.87L331.00,225.43L331.55,224.86L331.98,224.20L332.28,223.47L332.43,222.69L332.83,215.72L330.04,202.66L323.93,185.11L315.97,174.88z" fill="currentColor" stroke="none" fill-opacity="1.00" fill-rule="nonzero" />
      <path d="M323.98,224.11L324.36,224.51L324.82,224.82L325.34,225.02L325.88,225.11L326.44,225.09L326.97,224.95L327.47,224.71L327.90,224.37L328.26,223.94L328.51,223.45L328.66,222.92L328.70,222.36L328.62,221.82L328.43,221.30L328.13,220.83L322.07,211.53L314.57,206.47L313.87,206.14L313.12,205.95L312.34,205.92L311.58,206.04L310.86,206.31L310.20,206.73L309.65,207.27L309.21,207.91L308.92,208.63L308.77,209.39L307.22,222.76L297.41,236.20L296.99,236.93L296.72,237.73L296.61,238.56L296.66,239.40L296.88,240.21L297.25,240.97L297.76,241.64L298.40,242.19L299.12,242.61L299.92,242.89L300.76,243.00L301.60,242.94L302.41,242.73L303.16,242.35L303.83,241.84L304.39,241.21L314.66,226.70L315.43,224.64L315.82,216.20L316.73,216.58z" fill="currentColor" stroke="none" fill-opacity="1.00" fill-rule="nonzero" />
      <path d="M299.99,238.71L299.71,238.51L299.41,238.38L299.09,238.31L298.76,238.30L298.43,238.36L298.12,238.48L297.84,238.65L297.60,238.88L297.41,239.15L297.28,239.46L297.20,239.78L297.19,240.11L297.25,240.44L297.37,240.75L297.55,241.03L297.78,241.27L307.46,251.24L310.62,265.46L306.78,282.82L303.64,288.38L297.62,293.69L297.09,294.29L296.68,294.98L296.42,295.74L296.31,296.53L296.35,297.34L296.55,298.12L296.90,298.84L297.39,299.48L297.99,300.02L298.68,300.42L299.44,300.69L300.24,300.80L301.04,300.75L301.82,300.55L302.54,300.20L303.18,299.72L309.45,293.69L313.67,285.86L317.50,266.05L317.46,264.51L312.89,248.89L312.55,248.08L311.97,247.41z" fill="currentColor" stroke="none" fill-opacity="1.00" fill-rule="nonzero" />
      <path d="M301.99,275.48L301.87,275.10L301.67,274.76L301.42,274.46L301.11,274.21L300.76,274.03L300.38,273.93L299.98,273.90L299.59,273.94L299.22,274.06L298.87,274.26L298.57,274.51L298.33,274.82L298.15,275.17L298.04,275.55L298.01,275.95L298.06,276.34L299.23,285.34L295.63,296.58L295.52,297.24L295.55,297.92L295.71,298.57L295.99,299.18L296.38,299.73L296.88,300.18L297.45,300.54L298.08,300.77L298.75,300.87L299.42,300.85L300.07,300.69L300.69,300.41L301.23,300.01L301.69,299.52L302.04,298.95L302.27,298.31L304.80,286.11L304.82,284.81z" fill="currentColor" stroke="none" fill-opacity="1.00" fill-rule="nonzero" />
      <path d="M298.13,276.01L298.14,275.99L298.14,275.96L298.14,275.94L298.13,275.92L298.12,275.90L298.10,275.88L298.08,275.87L298.06,275.86L298.04,275.85L298.02,275.85L298.00,275.86L297.97,275.86L297.95,275.87L297.94,275.89L297.92,275.91L297.91,275.93L293.06,284.70L281.45,296.42L269.31,306.20L261.85,309.25L261.18,309.62L260.61,310.11L260.14,310.71L259.80,311.38L259.59,312.11L259.53,312.87L259.62,313.62L259.86,314.34L260.23,315.00L260.72,315.58L261.32,316.05L261.99,316.39L262.72,316.60L263.48,316.66L264.23,316.57L264.95,316.33L272.76,312.68L285.68,300.90L295.66,286.50z" fill="currentColor" stroke="none" fill-opacity="1.00" fill-rule="nonzero" />
      <path d="M156.85,312.59L156.72,312.42L156.56,312.27L156.37,312.16L156.16,312.09L155.95,312.06L155.73,312.07L155.52,312.12L155.32,312.22L155.14,312.35L155.00,312.51L154.89,312.70L154.81,312.91L154.78,313.12L154.79,313.34L154.85,313.55L154.94,313.75L158.16,322.12L158.66,322.73L159.32,323.17L160.08,323.39L178.26,325.93L181.40,341.81L180.46,350.79L176.36,355.77L169.36,354.60L163.81,349.25L163.32,348.86L162.77,348.58L162.17,348.41L161.55,348.36L160.93,348.43L160.34,348.61L159.79,348.92L159.32,349.32L158.93,349.81L158.65,350.36L158.48,350.96L158.42,351.58L158.49,352.19L158.68,352.79L158.99,353.33L159.39,353.80L165.64,359.91L166.45,360.49L167.40,360.78L177.12,362.09L177.88,362.11L178.63,361.94L179.31,361.58L179.88,361.07L186.05,354.29L186.58,353.45L186.83,352.49L187.94,341.94L183.00,322.95L182.78,322.36L182.43,321.84L181.96,321.41L181.41,321.11L180.79,320.94L162.11,318.23z" fill="currentColor" stroke="none" fill-opacity="1.00" fill-rule="nonzero" />
      <path d="M162.35,352.49L162.41,352.19L162.41,351.89L162.35,351.59L162.23,351.31L162.06,351.06L161.84,350.84L161.59,350.68L161.30,350.56L161.01,350.51L160.70,350.51L160.40,350.57L160.12,350.69L159.87,350.86L159.66,351.08L159.49,351.33L159.38,351.61L155.58,361.34L155.49,361.97L155.55,362.60L155.78,363.20L156.16,363.72L163.94,372.62L164.81,373.25L165.84,373.53L177.61,374.56L178.56,374.48L179.44,374.12L188.75,368.40L189.71,367.47L194.69,359.87L195.12,358.84L196.85,348.96L196.64,338.17L194.98,313.93L194.89,313.37L194.68,312.85L194.38,312.37L193.99,311.96L193.53,311.64L193.02,311.41L192.47,311.29L191.90,311.27L191.35,311.37L190.82,311.57L190.35,311.88L189.94,312.26L189.61,312.73L189.39,313.24L189.26,313.79L189.25,314.35L191.16,338.39L191.47,348.16L189.28,357.04L185.04,363.62L177.12,368.40L167.45,367.71L160.68,361.36z" fill="currentColor" stroke="none" fill-opacity="1.00" fill-rule="nonzero" />
      <path d="M237.40,306.25L237.33,306.06L237.22,305.88L237.08,305.73L236.92,305.61L236.73,305.52L236.53,305.47L236.32,305.46L236.12,305.49L235.92,305.57L235.75,305.67L235.59,305.81L235.47,305.98L235.38,306.17L235.34,306.37L235.33,306.58L235.36,306.78L234.97,310.48L232.53,311.28L202.57,316.59L201.89,316.80L201.29,317.16L200.79,317.65L200.41,318.25L200.19,318.92L200.14,319.62L200.64,338.15L201.02,339.55L208.02,352.24L208.44,352.83L208.99,353.31L209.63,353.65L210.33,353.83L214.32,354.26L215.26,354.24L216.15,353.93L221.69,350.89L222.77,349.89L230.39,337.79L230.64,337.30L230.79,336.77L230.84,336.22L230.77,335.68L230.60,335.15L230.34,334.67L229.98,334.25L229.55,333.91L229.06,333.66L228.53,333.50L227.98,333.46L227.43,333.52L226.91,333.69L226.42,333.96L226.00,334.32L225.66,334.75L218.21,346.05L214.16,348.20L212.74,347.88L206.94,337.17L206.16,321.97L233.97,316.71L238.84,313.76L239.27,313.47L239.62,313.08L239.89,312.63L240.04,312.13L240.08,311.61L240.01,311.09z" fill="currentColor" stroke="none" fill-opacity="1.00" fill-rule="nonzero" />
      <path d="M228.35,335.58L228.34,335.52L228.32,335.46L228.30,335.41L228.26,335.36L228.21,335.32L228.16,335.29L228.10,335.27L228.04,335.26L227.98,335.27L227.92,335.28L227.86,335.31L227.81,335.35L227.77,335.40L227.74,335.45L227.73,335.51L227.72,335.57L225.44,351.97L217.69,363.04L213.37,365.18L206.56,364.69L199.79,360.80L196.63,354.74L196.34,354.30L195.98,353.94L195.55,353.64L195.07,353.44L194.57,353.34L194.05,353.34L193.54,353.43L193.06,353.63L192.62,353.91L192.26,354.28L191.96,354.71L191.76,355.19L191.66,355.69L191.66,356.21L191.75,356.72L191.95,357.20L195.51,363.89L196.48,364.91L204.29,369.76L205.50,370.14L213.59,370.76L214.83,370.57L221.01,368.53L221.88,368.01L222.54,367.25L229.77,353.87L230.11,352.68z" fill="currentColor" stroke="none" fill-opacity="1.00" fill-rule="nonzero" />
      <path d="M156.97,317.71L156.98,317.70L156.99,317.69L157.00,317.67L157.01,317.65L157.01,317.63L157.01,317.62L157.00,317.60L156.99,317.58L156.98,317.57L156.96,317.56L156.95,317.55L156.93,317.54L156.91,317.54L156.89,317.54L156.87,317.55L156.86,317.56L143.22,323.59L119.85,329.60L119.24,329.83L118.70,330.19L118.24,330.66L117.90,331.22L117.68,331.83L117.60,332.48L117.85,335.92L118.00,336.85L118.45,337.67L140.66,365.68L160.28,380.56L182.20,389.33L200.74,391.47L213.77,388.35L238.31,372.41L239.11,371.62L256.23,346.54L263.08,328.40L265.55,310.82L265.57,310.18L265.45,309.55L265.18,308.96L264.79,308.45L264.29,308.04L263.71,307.76L263.08,307.62L237.48,304.59L236.88,304.59L236.30,304.70L235.75,304.92L235.25,305.24L234.82,305.66L234.49,306.15L234.25,306.70L234.13,307.28L234.13,307.87L234.24,308.46L234.46,309.01L234.78,309.51L235.20,309.93L235.69,310.27L236.24,310.50L236.82,310.63L259.57,312.88L257.33,326.63L251.31,343.60L234.51,367.74L211.87,382.98L200.85,385.96L183.92,383.96L163.35,375.89L145.02,361.72L123.32,335.01L123.01,334.39L145.17,329.04z" fill="currentColor" stroke="none" fill-opacity="1.00" fill-rule="nonzero" />
      <path d="M119.56,333.36L119.56,333.34L119.57,333.32L119.57,333.31L119.56,333.29L119.55,333.27L119.54,333.25L119.53,333.24L119.51,333.23L119.50,333.23L119.48,333.22L119.46,333.22L119.44,333.23L119.42,333.23L119.41,333.25L119.40,333.26L119.39,333.27L87.62,390.70L87.32,391.79L85.09,422.15L70.19,462.57L70.04,463.18L70.01,463.80L70.10,464.43L70.31,465.02L70.63,465.56L71.05,466.02L71.56,466.40L72.13,466.66L72.74,466.82L73.36,466.85L73.98,466.76L74.58,466.55L75.11,466.22L75.58,465.80L75.95,465.30L76.22,464.73L90.50,423.69L93.20,392.83z" fill="currentColor" stroke="none" fill-opacity="1.00" fill-rule="nonzero" />
      <path d="M138.42,373.60L138.41,373.46L138.37,373.33L138.31,373.21L138.22,373.10L138.11,373.00L137.99,372.94L137.86,372.89L137.72,372.88L137.58,372.89L137.45,372.93L137.32,372.99L137.21,373.08L137.12,373.18L137.05,373.30L137.01,373.44L136.99,373.58L134.46,401.98L138.51,417.88L139.53,430.32L133.64,477.12L133.63,477.72L133.74,478.32L133.95,478.88L134.28,479.39L134.69,479.82L135.19,480.17L135.74,480.41L136.33,480.54L136.93,480.56L137.53,480.45L138.09,480.23L138.60,479.91L139.03,479.49L139.38,479.00L139.62,478.45L139.75,477.86L145.21,430.75L144.80,417.16L139.84,401.67z" fill="currentColor" stroke="none" fill-opacity="1.00" fill-rule="nonzero" />
      <path d="M263.22,316.18L263.08,316.10L262.92,316.05L262.76,316.04L262.60,316.05L262.45,316.10L262.30,316.17L262.18,316.27L262.07,316.40L262.00,316.54L261.95,316.69L261.93,316.85L261.95,317.01L261.99,317.17L262.07,317.31L262.17,317.44L262.29,317.54L276.46,329.92L283.32,342.62L283.67,343.12L284.11,343.56L284.63,343.89L285.20,344.12L285.81,344.24L286.42,344.23L287.03,344.11L287.60,343.86L288.11,343.52L288.54,343.07L288.87,342.56L289.10,341.99L289.22,341.38L289.21,340.76L289.09,340.16L288.84,339.59L281.48,326.33L280.52,325.27z" fill="currentColor" stroke="none" fill-opacity="1.00" fill-rule="nonzero" />
      <path d="M251.71,362.09L251.62,361.89L251.49,361.71L251.33,361.56L251.15,361.45L250.94,361.37L250.73,361.33L250.51,361.34L250.30,361.39L250.10,361.48L249.92,361.60L249.77,361.76L249.66,361.95L249.58,362.15L249.54,362.37L249.55,362.58L249.60,362.80L254.49,384.12L255.03,385.12L255.87,385.87L265.55,391.39L291.43,401.16L301.23,402.92L302.44,402.85L314.03,400.22L315.34,399.54L321.52,393.62L342.46,384.09L367.65,367.53L383.38,350.31L384.05,349.10L387.99,335.56L388.11,334.95L388.11,334.34L387.99,333.73L387.75,333.16L387.40,332.65L386.97,332.22L386.45,331.88L385.88,331.65L385.28,331.53L384.66,331.53L384.06,331.65L383.49,331.89L382.98,332.24L382.54,332.67L382.20,333.19L381.97,333.76L378.03,346.56L364.12,362.90L339.93,379.06L318.81,388.61L311.57,393.93L301.54,397.09L293.14,395.83L268.33,386.40L260.37,380.90z" fill="currentColor" stroke="none" fill-opacity="1.00" fill-rule="nonzero" />
      <path d="M283.84,348.93L283.69,349.15L283.59,349.41L283.53,349.67L283.53,349.94L283.58,350.21L283.69,350.46L283.84,350.69L284.03,350.88L284.25,351.03L284.51,351.14L284.77,351.19L285.04,351.19L285.31,351.14L285.56,351.04L285.79,350.89L285.98,350.70L320.73,310.78L339.84,304.65L350.06,321.22L350.73,322.00L351.61,322.54L379.04,333.66L379.64,333.84L380.27,333.89L380.89,333.83L381.49,333.65L382.04,333.35L382.52,332.95L382.92,332.46L383.21,331.91L383.39,331.31L383.45,330.69L383.38,330.06L383.20,329.46L382.90,328.91L382.50,328.43L382.01,328.04L381.46,327.74L355.09,316.86L344.02,298.98L343.57,298.40L343.00,297.94L342.34,297.62L341.62,297.45L340.88,297.45L340.17,297.61L318.19,305.84L316.98,306.68z" fill="currentColor" stroke="none" fill-opacity="1.00" fill-rule="nonzero" />
      <path d="M330.97,309.88L330.80,309.74L330.60,309.64L330.39,309.58L330.17,309.56L329.95,309.58L329.74,309.65L329.54,309.75L329.37,309.90L329.23,310.07L329.13,310.26L329.07,310.48L329.05,310.70L329.07,310.92L329.14,311.13L329.25,311.32L329.39,311.49L349.92,334.41L350.63,334.92L351.45,335.23L370.59,339.56L371.24,339.63L371.89,339.57L372.52,339.39L373.10,339.09L373.62,338.69L374.04,338.19L374.36,337.61L374.55,336.99L374.63,336.34L374.57,335.69L374.39,335.06L374.09,334.48L373.68,333.96L373.18,333.54L372.61,333.22L371.99,333.03L353.64,329.33z" fill="currentColor" stroke="none" fill-opacity="1.00" fill-rule="nonzero" />
      <path d="M345.31,306.03L345.27,306.41L345.30,306.79L345.41,307.16L345.59,307.51L345.83,307.81L346.12,308.06L346.46,308.24L346.83,308.36L347.21,308.40L347.60,308.37L347.97,308.26L348.31,308.08L348.61,307.84L348.86,307.54L349.04,307.21L349.16,306.84L352.38,294.22L354.90,290.82L356.29,290.72L359.53,296.06L359.84,296.50L360.23,296.87L360.68,297.15L361.19,297.34L361.72,297.42L362.26,297.39L362.78,297.25L363.26,297.01L363.68,296.68L364.03,296.27L364.29,295.80L368.98,284.97L372.63,282.48L373.37,282.14L375.17,285.52L372.59,294.16L372.49,294.82L372.54,295.48L372.72,296.12L373.03,296.71L373.45,297.22L373.97,297.63L374.56,297.93L375.20,298.10L375.86,298.13L376.51,298.03L377.13,297.79L382.45,294.55L386.26,295.93L386.28,296.79L381.55,302.31L381.17,302.85L380.92,303.45L380.79,304.09L380.79,304.75L380.93,305.39L381.20,305.99L381.58,306.53L382.06,306.97L382.63,307.31L383.25,307.52L390.11,309.09L391.66,311.82L392.22,314.75L387.20,318.52L386.71,318.98L386.32,319.53L386.07,320.15L385.95,320.81L385.99,321.48L386.17,322.13L386.49,322.72L386.93,323.22L387.47,323.62L388.08,323.89L389.83,323.29L388.55,323.71L375.43,324.99L374.78,325.14L374.18,325.42L373.64,325.81L373.18,326.30L372.83,326.87L372.60,327.49L372.49,328.15L372.52,328.82L372.67,329.47L372.95,330.08L373.34,330.62L373.83,331.07L374.39,331.42L375.02,331.65L375.68,331.76L376.35,331.74L390.87,329.27L391.56,329.09L392.18,328.75L392.70,328.26L393.09,327.67L395.26,323.43L395.48,322.82L395.57,322.18L395.51,321.54L395.32,320.93L395.01,320.37L394.58,319.89L394.06,319.51L393.47,319.26L392.00,320.49L397.51,318.67L398.03,318.19L398.43,317.61L398.69,316.96L398.80,316.27L398.75,315.57L397.79,310.16L394.94,304.76L394.41,304.07L393.71,303.55L392.90,303.24L389.86,302.48L392.29,299.67L392.73,299.00L393.00,298.25L393.07,297.45L392.94,296.67L391.54,292.66L391.24,291.97L390.77,291.37L390.17,290.91L389.48,290.62L382.90,289.08L382.24,288.98L381.58,289.04L380.96,289.27L377.69,292.43L380.84,285.71L380.92,284.97L380.80,284.24L380.50,283.57L377.20,278.25L376.80,277.74L376.28,277.34L375.69,277.07L375.05,276.95L372.04,276.40L370.95,276.51L369.96,276.99L365.09,280.95L364.17,282.11L361.52,288.72L360.42,286.21L360.02,285.66L359.50,285.21L358.89,284.90L358.23,284.74L357.54,284.74L352.90,285.36L352.10,285.58L351.39,286.02L350.85,286.65L347.88,291.91z" fill="currentColor" stroke="none" fill-opacity="1.00" fill-rule="nonzero" />
      <path d="M267.10,391.50L267.03,391.39L266.94,391.29L266.83,391.22L266.71,391.17L266.59,391.14L266.45,391.13L266.33,391.16L266.20,391.20L266.09,391.27L266.00,391.36L265.92,391.47L265.87,391.59L265.84,391.72L265.84,391.85L265.86,391.98L265.91,392.10L269.18,402.28L268.78,422.98L271.17,441.28L276.81,452.37L288.17,465.47L288.71,465.95L289.33,466.31L290.02,466.54L290.74,466.61L291.46,466.54L292.14,466.31L292.77,465.95L293.31,465.47L293.73,464.89L294.02,464.23L294.17,463.52L294.17,462.80L294.02,462.09L293.73,461.43L293.31,460.85L282.35,448.99L277.44,439.72L274.09,422.78L273.80,401.74L273.55,400.70z" fill="currentColor" stroke="none" fill-opacity="1.00" fill-rule="nonzero" />
      <path d="M185.18,372.01L185.13,371.87L185.07,371.74L184.98,371.63L184.87,371.54L184.74,371.48L184.60,371.44L184.46,371.42L184.32,371.44L184.18,371.48L184.06,371.55L183.95,371.64L183.86,371.75L183.79,371.88L183.75,372.01L183.74,372.15L183.75,372.30L186.68,399.17L187.20,400.38L191.93,407.03L192.37,407.53L192.90,407.93L193.51,408.21L194.16,408.36L194.83,408.37L195.48,408.24L196.09,407.98L196.64,407.59L197.09,407.10L197.44,406.53L197.65,405.90L197.73,405.23L197.67,404.57L197.47,403.93L197.15,403.35L192.86,397.22z" fill="currentColor" stroke="none" fill-opacity="1.00" fill-rule="nonzero" />
      <path d="M207.00,366.16L207.00,365.94L206.96,365.72L206.88,365.51L206.76,365.32L206.60,365.15L206.42,365.03L206.21,364.93L205.99,364.89L205.77,364.88L205.55,364.92L205.34,365.00L205.15,365.12L204.98,365.28L204.86,365.46L204.77,365.67L204.72,365.89L200.82,383.77L196.41,403.38L194.55,405.94L194.25,406.49L194.06,407.08L193.99,407.70L194.04,408.32L194.21,408.92L194.50,409.47L194.88,409.96L195.36,410.36L195.90,410.67L196.50,410.86L197.12,410.93L197.74,410.88L198.34,410.71L198.89,410.42L199.38,410.03L199.78,409.56L201.87,406.40L202.36,405.28L206.52,384.85z" fill="currentColor" stroke="none" fill-opacity="1.00" fill-rule="nonzero" />
      <path d="M197.63,402.94L197.75,402.60L197.80,402.25L197.78,401.90L197.68,401.56L197.51,401.25L197.29,400.98L197.01,400.76L196.69,400.60L196.35,400.52L196.00,400.50L195.65,400.56L195.32,400.69L195.02,400.89L194.78,401.15L194.59,401.44L183.59,420.43L183.33,421.19L183.26,421.98L183.40,422.77L183.73,423.50L184.23,424.13L200.95,440.37L201.49,440.79L202.11,441.09L202.77,441.24L203.46,441.25L204.13,441.12L204.75,440.84L205.30,440.43L205.75,439.92L206.08,439.32L212.23,424.05L212.42,423.33L212.44,422.59L212.26,421.86L211.92,421.20L200.25,404.74L199.88,404.31L199.44,403.96L198.94,403.71L198.39,403.55L197.83,403.51L197.27,403.58L196.73,403.75L196.24,404.03L195.81,404.40L195.47,404.84L195.21,405.35L195.06,405.89L195.02,406.45L195.08,407.01L195.26,407.55L195.54,408.04L206.10,423.28L202.03,432.59L190.35,421.17z" fill="currentColor" stroke="none" fill-opacity="1.00" fill-rule="nonzero" />
      <path d="M195.47,399.10L195.75,402.28L192.14,410.84L180.85,421.27L188.44,431.50L203.16,442.35L213.70,423.70L209.75,414.41zM143.48,362.34L136.56,375.77L137.36,400.85L141.70,416.13L141.03,453.16L138.13,475.99L140.14,484.81L148.28,488.02L172.22,489.52L276.51,469.17L291.13,464.01L274.54,438.03L269.53,414.38L269.76,397.68L257.85,383.04L248.96,356.71L245.08,355.16L225.63,376.08L211.10,386.14L178.51,386.51L165.54,381.59z" fill-rule="evenodd" fill="currentColor" stroke="none" fill-opacity="1.00" />
      <path d="M90.41,151.75L84.50,140.40L76.39,127.94L61.06,119.23L46.71,121.19L32.27,126.64L23.00,132.89L14.98,146.30L9.68,163.05L11.03,185.56L16.63,199.51L29.69,211.14L39.40,213.96L51.88,212.85L65.57,206.56L67.36,217.73L52.63,222.93L36.99,226.27L22.44,226.88L9.34,222.25L-1.06,209.94L-9.57,193.84L-15.48,169.05L-14.32,135.73L-5.08,113.53L0.60,105.80L18.45,91.26L39.55,79.71L49.74,77.17L63.49,76.90L80.67,85.13L88.49,89.09L102.41,113.32L106.31,126.34L106.41,134.48z" fill-rule="evenodd" fill="currentColor" stroke="none" fill-opacity="1.00" />
      <path d="M264.08,116.75L272.01,107.87L282.62,100.81L289.80,98.82L296.69,100.35L307.56,110.69L312.07,127.94L308.47,143.67L301.03,152.13L294.64,154.53L296.36,164.83L310.29,171.58L323.18,163.46L329.79,155.62L335.37,136.20L332.17,110.45L324.87,92.93L313.93,73.87L303.47,63.26L294.10,57.64L282.66,54.74L266.80,55.92L253.00,63.60L238.18,79.76L235.09,95.23L236.34,104.91z" fill-rule="evenodd" fill="currentColor" stroke="none" fill-opacity="1.00" />
      <path d="M88.34,153.30L88.06,141.59L74.16,132.54L51.30,132.12L43.50,134.64L35.67,140.61L48.89,142.91L37.45,161.18L29.89,175.62L43.49,167.04L37.75,198.12L40.16,204.78L45.18,209.62L58.09,210.62L67.30,205.10L84.20,166.46z" fill-rule="evenodd" fill="currentColor" stroke="none" fill-opacity="1.00" />
      <path d="M282.04,95.69L289.18,103.71L293.94,112.26L296.50,127.34L288.69,124.74L290.47,129.86L289.15,136.88L273.93,132.20L268.72,126.54L266.14,116.82L270.80,105.28z" fill-rule="evenodd" fill="currentColor" stroke="none" fill-opacity="1.00" />
      <path d="M103.35,30.10L103.70,30.29L104.08,30.39L104.48,30.43L104.87,30.38L105.25,30.26L105.60,30.06L105.90,29.81L106.15,29.50L106.33,29.14L106.44,28.76L106.47,28.36L106.43,27.97L106.30,27.59L106.11,27.24L105.85,26.94L105.54,26.69L100.05,21.16L99.09,20.72L98.05,20.57L87.72,20.42L86.59,20.59L85.55,21.09L76.73,25.42L75.39,26.75L74.61,28.48L72.11,39.32L71.99,41.07L72.47,42.76L75.61,48.67L76.98,50.35L81.89,54.13L84.07,55.08L110.03,59.22L111.90,61.86L110.90,64.11L97.06,73.52L84.03,71.27L83.05,71.20L82.08,71.32L81.15,71.63L80.30,72.12L79.55,72.76L78.95,73.54L78.52,74.41L78.26,75.36L78.19,76.34L78.31,77.31L78.62,78.24L79.11,79.09L79.75,79.83L80.53,80.43L81.41,80.87L82.35,81.13L97.32,83.63L98.56,83.68L99.77,83.43L100.88,82.88L118.40,71.64L119.42,70.76L120.18,69.66L120.63,68.39L121.54,61.82L121.64,60.53L121.38,59.26L120.78,58.10L116.56,52.17L115.72,51.26L114.67,50.61L113.48,50.25L86.81,45.86L83.82,43.43L82.41,39.97L84.32,32.94L88.89,28.07L96.94,27.99z" fill="currentColor" stroke="none" fill-opacity="1.00" fill-rule="nonzero" />
      <path d="M381.90,51.82L381.98,52.17L382.13,52.49L382.34,52.77L382.60,53.01L382.90,53.20L383.23,53.32L383.58,53.37L383.93,53.36L384.27,53.27L384.59,53.13L384.88,52.92L385.12,52.66L385.30,52.36L385.42,52.03L385.48,51.68L385.46,51.33L385.90,43.63L385.62,42.69L385.08,41.88L384.33,41.26L375.48,35.85L374.52,35.46L373.49,35.37L363.79,34.81L362.17,35.23L360.81,36.19L353.37,43.97L352.57,45.08L352.14,46.37L352.11,47.74L353.99,59.52L354.46,60.97L355.41,62.15L372.86,77.19L372.71,79.53L371.24,80.45L357.29,80.73L349.11,72.95L348.42,72.42L347.64,72.03L346.80,71.81L345.94,71.74L345.07,71.85L344.25,72.13L343.49,72.56L342.84,73.13L342.31,73.82L341.92,74.60L341.69,75.44L341.63,76.30L341.74,77.17L342.01,77.99L342.45,78.75L343.02,79.40L352.53,88.34L353.43,89.00L354.46,89.40L355.57,89.54L373.27,89.68L374.51,89.51L375.65,89.01L376.62,88.22L379.83,84.14L380.61,82.94L380.95,81.55L381.32,75.65L381.20,74.38L380.71,73.21L379.89,72.23L362.16,56.80L361.33,48.71L366.22,43.97L372.92,42.21L379.60,46.10z" fill="currentColor" stroke="none" fill-opacity="1.00" fill-rule="nonzero" />
      <path d="M83.85,6.49L83.62,5.86L83.29,5.29L82.84,4.80L82.31,4.40L81.72,4.12L81.07,3.95L80.41,3.92L79.76,4.01L79.13,4.23L78.56,4.57L78.07,5.01L77.67,5.54L77.39,6.14L77.22,6.78L77.19,7.45L77.28,8.10L86.41,49.39L107.88,90.17L108.39,90.92L109.03,91.55L109.78,92.06L110.61,92.40L111.50,92.57L112.40,92.57L113.29,92.40L114.12,92.05L114.87,91.55L115.51,90.91L116.01,90.16L116.35,89.32L116.53,88.44L116.52,87.53L116.35,86.65L116.00,85.81L94.81,46.75z" fill="currentColor" stroke="none" fill-opacity="1.00" fill-rule="nonzero" />
      <path d="M382.81,24.97L382.98,24.74L383.10,24.49L383.17,24.21L383.18,23.93L383.13,23.65L383.03,23.39L382.87,23.15L382.67,22.96L382.43,22.80L382.16,22.71L381.88,22.67L381.60,22.69L381.32,22.77L381.07,22.90L380.86,23.08L374.95,26.94L374.25,28.14L363.99,59.05L348.68,94.00L348.45,94.68L348.36,95.40L348.41,96.12L348.61,96.82L348.93,97.46L349.37,98.03L349.92,98.51L350.54,98.86L351.23,99.09L351.95,99.18L352.67,99.13L353.36,98.94L354.01,98.62L354.58,98.17L355.05,97.63L355.41,97.00L371.30,62.03L379.63,30.48z" fill="currentColor" stroke="none" fill-opacity="1.00" fill-rule="nonzero" />
    </g>
  </symbol>
</svg>