<?xml version='1.0' encoding='utf-8'?>
<svg xmlns="http://www.w3.org/2000/svg" version="1.1" x="0.00px" y="0.00px" width="400.00px" height="400.00px" viewBox="0.00 0.00 400.00 400.00">
  <symbol id="frame" viewBox="0.00 0.00 400.00 400.00">
    <g class="layers.drawing-primary">
      <path d="M104.85,131.22L104.95,131.47L105.10,131.70L105.29,131.89L105.51,132.04L105.76,132.15L106.03,132.21L106.30,132.21L106.56,132.16L106.82,132.06L107.04,131.91L107.24,131.72L107.39,131.50L107.50,131.25L107.55,130.98L107.56,130.71L107.51,130.44L103.03,108.80L89.38,88.60L70.84,75.70L69.32,75.10L55.80,72.77L34.16,76.29L21.48,82.67L5.27,97.54L-7.95,119.66L-16.68,148.21L-17.66,170.54L-13.75,192.08L-5.56,210.51L5.20,223.85L11.55,228.73L25.59,233.43L26.82,233.57L47.86,231.20L61.71,224.68L62.36,224.23L64.95,219.19L64.99,219.14L65.02,219.08L65.04,219.01L65.04,218.94L65.03,218.87L65.01,218.81L64.98,218.75L64.93,218.70L64.88,218.66L64.82,218.63L64.75,218.61L64.69,218.60L64.62,218.61L64.55,218.63L64.49,218.67L64.44,218.71L59.82,221.27L46.96,225.99L26.89,227.46L14.92,223.39L9.85,219.56L0.09,207.52L-7.48,190.54L-11.12,170.44L-10.19,149.76L-1.76,122.87L10.60,102.59L25.45,89.30L36.08,83.97L55.14,80.76L67.20,82.72L83.87,93.38L97.18,111.06z" fill="currentColor" stroke="none" fill-opacity="1.00" fill-rule="nonzero" />
      <path d="M87.66,155.90L87.99,156.34L88.41,156.71L88.88,156.99L89.41,157.17L89.96,157.25L90.51,157.22L91.05,157.08L91.55,156.84L91.99,156.51L92.36,156.09L92.64,155.62L92.82,155.09L92.90,154.54L92.87,153.99L92.73,153.45L92.49,152.95L83.55,137.35L82.92,136.60L82.10,136.06L70.65,130.25L68.99,129.91L52.58,129.85L50.66,130.35L34.97,138.97L34.25,139.46L33.65,140.11L33.20,140.86L32.92,141.69L32.83,142.57L32.92,143.44L33.20,144.27L33.65,145.02L34.25,145.66L34.98,146.16L35.79,146.49L36.65,146.64L45.20,146.54L35.52,156.62L34.78,157.82L28.83,174.17L28.66,174.85L28.63,175.55L28.74,176.24L28.98,176.89L29.36,177.48L29.84,177.98L30.42,178.37L31.07,178.64L31.75,178.77L32.45,178.76L33.13,178.60L33.77,178.31L39.41,174.78L34.52,185.66L34.26,187.30L35.64,205.23L36.22,206.90L41.67,215.34L42.13,215.90L42.68,216.36L43.32,216.70L44.01,216.92L44.73,216.99L45.45,216.92L46.14,216.72L46.78,216.38L47.34,215.92L47.80,215.37L48.15,214.73L48.36,214.04L48.44,213.32L48.37,212.60L48.16,211.91L47.82,211.27L42.70,203.72L41.24,187.58L49.14,168.37L49.34,167.73L49.40,167.06L49.32,166.39L49.10,165.76L48.76,165.18L48.31,164.69L47.76,164.30L47.14,164.03L46.49,163.90L45.82,163.91L45.16,164.05L44.55,164.33L38.57,167.59L41.13,160.93L55.18,145.96L55.61,145.40L55.92,144.77L56.09,144.09L56.11,143.38L56.00,142.69L55.74,142.04L55.36,141.45L54.86,140.95L54.27,140.57L53.62,140.31L52.93,140.19L51.28,139.41L53.73,138.15L68.24,137.60L78.41,141.68z" fill="currentColor" stroke="none" fill-opacity="1.00" fill-rule="nonzero" />
      <path d="M85.17,147.56L85.34,147.81L85.56,148.03L85.81,148.20L86.09,148.31L86.39,148.37L86.69,148.37L86.99,148.31L87.27,148.19L87.52,148.03L87.74,147.81L87.90,147.56L88.02,147.28L88.08,146.98L88.08,146.67L88.02,146.38L87.90,146.10L82.72,133.24L82.00,132.35L72.09,123.21L70.49,122.43L53.76,118.39L43.40,119.01L30.62,123.76L29.31,124.56L22.80,130.91L16.13,143.93L10.95,162.80L10.23,180.94L11.84,190.47L19.16,204.66L20.19,205.83L31.74,213.96L33.07,214.52L45.03,216.60L59.07,214.62L67.84,209.28L68.28,208.97L68.65,208.58L68.94,208.13L69.13,207.63L69.22,207.10L69.21,206.57L69.09,206.05L68.87,205.56L68.57,205.12L68.18,204.75L67.73,204.47L67.23,204.27L66.70,204.18L66.17,204.20L65.65,204.31L65.16,204.53L57.47,208.25L45.64,210.14L34.96,208.16L24.74,200.81L18.43,188.75L16.96,180.86L17.81,164.27L22.64,146.85L28.44,136.09L34.28,131.18L44.67,127.27L52.64,126.57L68.08,129.35L77.59,136.65z" fill="currentColor" stroke="none" fill-opacity="1.00" fill-rule="nonzero" />
      <path d="M234.48,105.72L234.49,106.19L234.59,106.64L234.77,107.06L235.04,107.44L235.37,107.76L235.76,108.01L236.19,108.18L236.65,108.26L237.11,108.25L237.56,108.15L237.99,107.96L238.37,107.69L238.69,107.36L238.93,106.97L239.10,106.54L239.18,106.08L241.04,88.40L244.86,77.54L251.79,67.07L261.28,60.61L272.87,57.61L285.19,58.42L296.64,62.43L306.81,67.57L322.53,90.66L328.42,106.31L331.13,122.46L330.40,138.08L324.62,156.79L317.09,165.04L309.38,167.74L308.69,168.06L308.08,168.50L307.57,169.06L307.18,169.70L306.92,170.41L306.80,171.15L306.83,171.91L307.01,172.64L307.33,173.32L307.77,173.93L308.32,174.44L308.97,174.84L309.68,175.10L310.42,175.21L311.17,175.18L311.91,175.01L320.57,172.00L322.17,170.93L330.78,161.18L331.58,159.75L337.41,139.70L338.07,122.36L334.94,104.83L328.41,87.98L311.41,63.43L310.26,62.43L299.18,56.92L286.79,52.60L272.78,51.57L259.26,54.91L247.92,62.47L247.11,63.29L239.71,74.60L235.51,86.90z" fill="currentColor" stroke="none" fill-opacity="1.00" fill-rule="nonzero" />
      <path d="M264.90,112.83L264.68,113.41L264.59,114.01L264.61,114.63L264.75,115.23L265.00,115.79L265.36,116.28L265.81,116.70L266.34,117.02L266.91,117.24L267.52,117.34L268.13,117.32L268.73,117.17L269.29,116.92L269.79,116.56L270.21,116.11L270.53,115.59L274.29,106.68L281.74,102.31L292.21,102.21L300.83,107.18L305.19,115.37L307.19,133.02L304.70,140.58L296.35,148.53L295.81,149.07L295.40,149.70L295.11,150.40L294.97,151.15L294.98,151.90L295.13,152.65L295.42,153.35L295.85,153.97L296.39,154.50L297.02,154.92L297.73,155.21L298.47,155.35L299.23,155.34L299.97,155.19L300.67,154.90L301.30,154.47L311.76,146.75L312.69,145.69L313.27,144.39L315.49,134.36L315.59,132.70L312.42,113.62L311.96,112.28L306.18,103.01L304.90,101.76L294.54,96.19L292.88,95.79L280.74,96.49L279.27,96.95L270.87,102.69L269.94,103.74z" fill="currentColor" stroke="none" fill-opacity="1.00" fill-rule="nonzero" />
      <path d="M285.96,102.12L285.65,101.81L285.28,101.56L284.88,101.39L284.44,101.30L284.00,101.30L283.57,101.38L283.16,101.55L282.79,101.79L282.48,102.10L282.23,102.46L282.06,102.87L281.97,103.30L281.97,103.74L282.05,104.17L282.22,104.58L282.46,104.95L290.17,113.74L292.99,126.27L293.60,125.81L290.07,122.61L289.51,122.36L288.90,122.23L288.29,122.25L287.69,122.39L287.13,122.66L286.65,123.05L286.27,123.53L286.00,124.09L285.86,124.69L285.85,125.30L286.92,134.70L288.41,133.32L287.86,132.28L287.31,132.01L286.72,131.86L286.12,131.83L285.52,131.92L284.95,132.12L284.43,132.42L283.98,132.83L283.62,133.31L283.36,133.86L283.21,134.44L283.17,135.05L283.26,135.64L283.46,136.21L283.77,136.74L284.17,137.19L284.65,137.55L287.21,139.25L287.88,139.56L288.60,139.71L289.34,139.68L290.05,139.49L290.70,139.14L291.26,138.66L291.83,137.56L292.28,136.89L292.53,136.13L292.57,135.33L291.98,130.25L293.09,130.92L293.64,131.17L294.24,131.30L294.84,131.29L295.44,131.16L295.99,130.90L296.47,130.53L296.86,130.07L297.15,129.53L297.54,127.29L297.70,126.56L297.63,125.82L293.52,112.47L293.19,111.80z" fill="currentColor" stroke="none" fill-opacity="1.00" fill-rule="nonzero" />
      <path d="M101.56,231.23L100.94,231.63L100.40,232.14L99.97,232.75L99.67,233.43L99.51,234.16L99.50,234.90L99.63,235.63L99.90,236.33L100.30,236.95L100.81,237.49L101.42,237.92L102.10,238.22L102.83,238.38L103.57,238.39L104.30,238.26L105.00,237.99L122.71,228.64L139.35,222.45L155.99,218.16L168.75,216.12L169.28,216.02L169.78,215.83L170.24,215.54L170.63,215.16L170.94,214.72L171.16,214.22L171.27,213.69L171.28,213.15L171.19,212.62L170.99,212.12L170.70,211.66L170.33,211.27L169.88,210.96L169.39,210.75L168.86,210.63L168.32,210.62L155.05,210.60L137.30,215.52L120.07,222.23z" fill="currentColor" stroke="none" fill-opacity="1.00" fill-rule="nonzero" />
      <path d="M164.51,215.05L164.52,214.69L164.47,214.34L164.34,214.00L164.15,213.69L163.91,213.43L163.62,213.22L163.29,213.07L162.94,212.99L162.59,212.97L162.23,213.03L161.89,213.15L161.59,213.34L161.33,213.58L161.11,213.88L160.96,214.20L160.88,214.55L160.40,216.47L152.76,217.74L151.96,218.11L151.30,218.70L150.84,219.46L148.96,224.59L148.75,225.36L148.77,226.15L149.01,226.91L152.38,232.45L152.69,232.93L153.12,233.30L153.63,233.56L154.18,233.67L159.29,233.95L159.93,233.90L160.53,233.65L162.00,232.96L163.64,241.71L160.36,260.74L156.85,265.08L152.66,267.03L141.79,266.52L129.90,258.06L121.33,241.35L121.18,228.36L121.13,227.82L120.98,227.29L120.72,226.80L120.38,226.38L119.96,226.02L119.48,225.76L118.96,225.59L118.41,225.53L117.87,225.58L117.34,225.73L116.85,225.99L116.42,226.33L116.07,226.75L115.81,227.23L115.64,227.75L115.58,228.30L115.11,242.03L115.43,243.45L124.33,261.77L125.38,263.00L138.78,272.49L139.64,272.92L140.58,273.09L153.24,273.35L154.73,273.03L160.18,270.23L161.26,269.34L165.37,263.62L165.92,262.32L168.67,242.01L165.77,228.89L165.62,228.43L165.38,228.02L165.05,227.66L164.66,227.38L164.22,227.19L163.75,227.10L163.27,227.11L162.80,227.22L162.37,227.42L158.93,229.72L155.75,229.40L154.54,225.62L155.93,223.21L162.85,220.00L163.28,219.82L163.65,219.54L163.95,219.19L164.16,218.77L164.28,218.32z" fill="currentColor" stroke="none" fill-opacity="1.00" fill-rule="nonzero" />
      <path d="M229.04,201.91L228.34,202.21L227.70,202.64L227.16,203.19L226.74,203.83L226.45,204.54L226.30,205.30L226.30,206.07L226.46,206.82L226.76,207.53L227.19,208.16L227.74,208.71L228.38,209.13L229.09,209.42L229.85,209.56L230.62,209.56L231.37,209.40L257.06,201.82L268.44,201.72L279.59,206.09L280.60,206.31L281.63,206.33L282.64,206.15L283.61,205.78L284.48,205.23L285.22,204.51L285.82,203.67L286.23,202.72L286.46,201.71L286.48,200.68L286.30,199.66L285.93,198.70L285.37,197.83L284.66,197.08L283.81,196.49L282.87,196.08L270.52,192.74L256.18,193.27z" fill="currentColor" stroke="none" fill-opacity="1.00" fill-rule="nonzero" />
      <path d="M273.50,202.37L273.62,201.96L273.65,201.54L273.60,201.12L273.47,200.71L273.26,200.34L272.98,200.02L272.65,199.76L272.27,199.57L271.86,199.45L271.44,199.42L271.02,199.47L270.62,199.60L270.25,199.81L269.92,200.09L269.66,200.42L269.47,200.80L268.57,202.41L263.25,200.52L262.48,200.43L261.70,200.54L260.99,200.86L260.39,201.36L256.23,205.80L255.73,206.55L255.48,207.41L255.49,208.30L257.22,215.87L257.40,216.48L257.74,217.03L258.20,217.48L258.76,217.79L259.38,217.96L266.84,218.88L267.14,227.43L263.64,245.32L261.65,249.21L256.98,251.44L247.41,250.17L238.26,242.23L233.79,228.79L232.26,207.54L232.20,207.10L232.05,206.69L231.83,206.32L231.54,205.99L231.19,205.73L230.79,205.54L230.37,205.44L229.93,205.41L229.50,205.48L229.09,205.62L228.71,205.85L228.39,206.14L228.13,206.49L227.94,206.89L227.83,207.31L227.81,207.75L228.30,229.42L233.22,244.69L234.03,245.91L244.31,255.00L245.00,255.45L245.80,255.68L257.03,257.24L257.83,257.24L258.60,257.02L265.05,254.22L265.88,253.67L266.47,252.87L269.18,247.68L272.78,228.09L271.59,216.51L271.49,215.97L271.26,215.46L270.93,215.01L270.50,214.65L270.00,214.40L269.47,214.26L261.91,213.17L261.57,208.73L263.48,206.57L269.43,207.62L270.01,207.70L270.59,207.64L271.14,207.44L271.62,207.11L272.01,206.68L272.29,206.16z" fill="currentColor" stroke="none" fill-opacity="1.00" fill-rule="nonzero" />
      <path d="M226.27,180.71L225.75,180.93L225.27,181.23L224.86,181.63L224.54,182.10L224.32,182.62L224.20,183.18L224.19,183.74L224.30,184.30L224.51,184.83L224.82,185.30L225.21,185.71L225.68,186.03L226.20,186.26L226.76,186.37L227.33,186.38L227.89,186.28L241.62,182.28L256.96,183.90L269.40,185.93L269.61,185.97L269.82,185.97L270.02,185.93L270.22,185.85L270.39,185.74L270.54,185.59L270.66,185.42L270.74,185.23L270.78,185.03L270.79,184.82L270.75,184.61L270.67,184.42L270.56,184.24L270.41,184.09L270.24,183.97L270.04,183.89L258.41,178.34L241.67,176.49L240.56,176.59z" fill="currentColor" stroke="none" fill-opacity="1.00" fill-rule="nonzero" />
      <path d="M151.01,193.53L151.44,193.41L151.84,193.21L152.19,192.94L152.48,192.60L152.70,192.21L152.84,191.79L152.90,191.35L152.87,190.91L152.75,190.48L152.55,190.08L152.27,189.73L151.94,189.44L151.55,189.22L151.13,189.08L150.69,189.02L150.24,189.05L135.00,190.95L122.85,194.67L113.79,200.34L104.96,210.72L104.71,211.05L104.52,211.43L104.41,211.83L104.38,212.25L104.43,212.66L104.57,213.06L104.78,213.42L105.05,213.74L105.38,213.99L105.76,214.18L106.16,214.29L106.58,214.32L106.99,214.27L107.39,214.13L107.75,213.92L108.07,213.65L117.23,205.11L125.02,200.31L136.20,196.80z" fill="currentColor" stroke="none" fill-opacity="1.00" fill-rule="nonzero" />
      <path d="M210.92,297.07L202.38,297.35L199.02,293.57L199.00,287.52L202.51,279.45L207.93,280.27L208.89,280.30L217.13,279.07L218.03,286.87zM223.42,289.20L223.76,288.55L223.93,287.83L223.90,287.09L221.66,275.68L221.50,275.12L221.22,274.62L220.83,274.19L220.36,273.86L219.82,273.66L219.25,273.57L218.67,273.63L208.54,276.20L201.77,273.66L201.15,273.57L200.53,273.62L199.93,273.81L199.40,274.14L198.95,274.57L198.62,275.10L193.34,285.54L193.05,286.75L192.73,294.64L192.92,295.77L193.50,296.76L198.60,302.73L199.34,303.36L200.25,303.73L201.22,303.82L212.70,302.77L213.54,302.58L214.29,302.16L214.89,301.53z" fill="currentColor" stroke="none" fill-opacity="1.00" fill-rule="nonzero" />
      <path d="M35.18,229.57L35.07,229.18L34.88,228.82L34.62,228.50L34.31,228.24L33.95,228.04L33.57,227.92L33.16,227.88L32.76,227.92L32.36,228.03L32.00,228.22L31.69,228.48L31.43,228.79L31.23,229.15L31.11,229.54L31.07,229.94L31.11,230.35L33.02,243.79L27.56,260.67L7.75,287.59L7.36,288.25L7.11,288.98L7.01,289.75L7.06,290.51L7.26,291.26L7.60,291.95L8.07,292.56L8.65,293.07L9.32,293.45L10.05,293.70L10.81,293.80L11.58,293.75L12.32,293.55L13.01,293.21L13.62,292.74L14.13,292.16L33.61,264.24L38.43,244.63L38.48,243.40z" fill="currentColor" stroke="none" fill-opacity="1.00" fill-rule="nonzero" />
      <path d="M8.22,291.80L7.83,291.82L7.47,291.92L7.12,292.08L6.82,292.31L6.57,292.60L6.37,292.92L6.25,293.28L6.20,293.66L6.22,294.04L6.31,294.41L6.48,294.75L6.71,295.06L6.99,295.31L7.32,295.50L7.68,295.63L8.06,295.68L22.32,297.07L33.07,295.08L46.98,286.95L54.73,278.13L55.10,277.61L55.35,277.03L55.49,276.41L55.50,275.78L55.39,275.15L55.16,274.56L54.82,274.02L54.38,273.57L53.85,273.20L53.27,272.95L52.65,272.81L52.02,272.80L51.39,272.91L50.80,273.14L50.27,273.48L49.81,273.92L43.17,281.69L31.20,289.15L22.18,291.55z" fill="currentColor" stroke="none" fill-opacity="1.00" fill-rule="nonzero" />
      <path d="M55.43,281.48L55.44,281.36L55.42,281.23L55.37,281.11L55.30,281.01L55.22,280.91L55.11,280.84L55.00,280.79L54.87,280.76L54.75,280.76L54.62,280.78L54.50,280.83L54.40,280.89L54.31,280.98L54.23,281.08L54.18,281.20L54.15,281.32L50.53,296.89L54.09,319.64L61.57,332.20L72.54,341.67L73.11,342.06L73.74,342.33L74.41,342.47L75.09,342.48L75.77,342.36L76.41,342.10L76.98,341.73L77.47,341.25L77.86,340.69L78.13,340.05L78.28,339.38L78.29,338.70L78.16,338.02L77.91,337.38L77.53,336.81L77.05,336.32L67.21,328.02L60.58,317.66L55.19,297.08z" fill="currentColor" stroke="none" fill-opacity="1.00" fill-rule="nonzero" />
      <path d="M75.81,334.37L75.93,334.77L76.13,335.13L76.40,335.45L76.72,335.71L77.09,335.90L77.48,336.01L77.90,336.05L78.31,336.00L78.70,335.88L79.07,335.68L79.38,335.41L79.64,335.09L79.83,334.72L79.95,334.33L79.98,333.91L79.94,333.50L78.99,326.18L80.53,318.53L89.61,300.29L89.82,299.71L89.92,299.10L89.90,298.48L89.75,297.88L89.50,297.32L89.13,296.82L88.68,296.40L88.15,296.07L87.58,295.86L86.97,295.76L86.35,295.79L85.75,295.93L85.19,296.19L84.69,296.55L84.27,297.00L83.94,297.53L75.00,316.32L73.59,325.80L73.61,326.80z" fill="currentColor" stroke="none" fill-opacity="1.00" fill-rule="nonzero" />
      <path d="M94.50,296.81L94.35,296.36L94.12,295.95L93.81,295.60L93.43,295.31L93.01,295.10L92.56,294.98L92.08,294.95L91.62,295.01L91.17,295.16L90.76,295.40L90.41,295.71L90.12,296.08L89.91,296.50L89.79,296.96L89.76,297.43L89.82,297.90L91.32,307.97L95.60,315.77L102.97,322.48L114.92,327.79L115.69,328.04L116.51,328.12L117.32,328.05L118.10,327.82L118.83,327.44L119.46,326.93L119.98,326.30L120.37,325.58L120.62,324.80L120.70,323.99L120.63,323.18L120.40,322.39L120.02,321.67L119.51,321.04L118.88,320.51L118.16,320.12L107.69,315.77L101.53,311.19L97.48,305.95z" fill="currentColor" stroke="none" fill-opacity="1.00" fill-rule="nonzero" />
      <path d="M103.84,136.58L103.88,136.50L103.89,136.42L103.90,136.34L103.88,136.26L103.85,136.18L103.81,136.11L103.75,136.05L103.69,136.01L103.61,135.97L103.53,135.95L103.45,135.95L103.37,135.97L103.29,135.99L103.22,136.04L103.16,136.10L103.11,136.16L78.55,172.97L68.07,200.09L62.99,226.60L64.90,250.66L65.04,251.41L65.33,252.12L65.74,252.76L66.28,253.31L66.91,253.74L67.61,254.04L68.36,254.20L69.12,254.21L69.87,254.07L70.58,253.79L71.23,253.37L71.77,252.84L72.21,252.21L72.51,251.50L72.67,250.75L72.68,249.99L70.74,227.51L75.41,202.45L84.74,176.18z" fill="currentColor" stroke="none" fill-opacity="1.00" fill-rule="nonzero" />
      <path d="M73.73,259.42L73.68,259.36L73.62,259.30L73.55,259.26L73.48,259.23L73.40,259.22L73.32,259.23L73.24,259.25L73.16,259.28L73.10,259.33L73.05,259.39L73.00,259.46L72.98,259.54L72.97,259.62L72.97,259.70L72.99,259.78L73.03,259.85L79.66,274.40L80.41,275.16L93.40,284.26L109.56,288.93L131.67,289.30L132.44,289.21L133.18,288.98L133.86,288.61L134.45,288.11L134.94,287.51L135.30,286.82L135.52,286.08L135.59,285.31L135.51,284.54L135.27,283.80L134.90,283.11L134.41,282.52L133.80,282.03L133.12,281.67L132.37,281.45L131.60,281.38L110.88,281.99L96.35,278.58L83.28,271.56z" fill="currentColor" stroke="none" fill-opacity="1.00" fill-rule="nonzero" />
      <path d="M134.09,147.86L134.26,147.38L134.33,146.88L134.30,146.38L134.17,145.90L133.96,145.44L133.65,145.04L133.28,144.71L132.85,144.45L132.37,144.29L131.87,144.22L131.37,144.24L130.89,144.37L130.43,144.59L130.03,144.89L129.70,145.27L129.44,145.70L114.24,176.01L107.63,199.39L102.40,232.04L102.46,233.47L109.24,261.48L109.82,262.76L121.71,279.48L132.03,287.04L132.59,287.38L133.20,287.60L133.84,287.71L134.49,287.68L135.12,287.53L135.72,287.26L136.24,286.88L136.69,286.40L137.03,285.85L137.25,285.24L137.36,284.59L137.33,283.94L137.18,283.31L136.91,282.72L136.53,282.19L136.05,281.75L127.47,274.71L116.45,258.95L109.65,232.44L114.48,201.11L120.88,178.78z" fill="currentColor" stroke="none" fill-opacity="1.00" fill-rule="nonzero" />
      <path d="M140.69,130.50L140.70,130.44L140.71,130.37L140.69,130.30L140.67,130.23L140.63,130.17L140.59,130.12L140.53,130.08L140.46,130.05L140.40,130.03L140.33,130.03L140.26,130.04L140.19,130.07L140.13,130.10L140.08,130.15L140.04,130.21L140.01,130.27L131.31,149.76L131.20,150.73L133.18,177.24L142.40,197.47L143.12,198.45L157.43,211.75L157.95,212.14L158.54,212.42L159.18,212.59L159.83,212.62L160.48,212.53L161.10,212.31L161.66,211.98L162.15,211.54L162.54,211.02L162.82,210.43L162.99,209.79L163.02,209.14L162.93,208.49L162.71,207.87L162.38,207.31L161.94,206.82L147.91,194.15L139.08,176.12L135.76,150.76z" fill="currentColor" stroke="none" fill-opacity="1.00" fill-rule="nonzero" />
      <path d="M160.36,174.39L160.36,174.31L160.34,174.24L160.31,174.17L160.27,174.11L160.22,174.05L160.16,174.01L160.09,173.98L160.02,173.97L159.94,173.97L159.87,173.98L159.80,174.01L159.74,174.05L159.68,174.10L159.64,174.16L159.61,174.23L159.59,174.31L156.06,191.27L158.99,207.25L159.17,207.77L159.44,208.24L159.80,208.65L160.24,208.98L160.73,209.22L161.26,209.36L161.80,209.39L162.34,209.32L162.86,209.14L163.33,208.86L163.74,208.50L164.07,208.07L164.31,207.58L164.45,207.05L164.48,206.50L164.41,205.96L160.17,191.36z" fill="currentColor" stroke="none" fill-opacity="1.00" fill-rule="nonzero" />
      <path d="M157.21,173.83L157.18,173.77L157.14,173.72L157.09,173.67L157.04,173.64L156.97,173.62L156.90,173.61L156.84,173.61L156.77,173.63L156.71,173.66L156.66,173.70L156.61,173.75L156.58,173.81L156.56,173.87L156.55,173.94L156.55,174.01L156.57,174.07L161.19,191.12L173.62,214.82L186.03,228.33L199.46,235.42L200.04,235.65L200.64,235.75L201.25,235.74L201.85,235.61L202.41,235.36L202.91,235.01L203.33,234.56L203.66,234.05L203.88,233.48L203.99,232.87L203.98,232.26L203.84,231.66L203.60,231.10L203.25,230.60L202.80,230.18L202.29,229.85L190.10,223.77L178.51,211.61L164.70,189.66z" fill="currentColor" stroke="none" fill-opacity="1.00" fill-rule="nonzero" />
      <path d="M215.06,155.97L215.05,155.91L215.03,155.86L214.99,155.81L214.95,155.77L214.90,155.74L214.85,155.71L214.79,155.70L214.73,155.70L214.67,155.71L214.62,155.74L214.57,155.77L214.53,155.81L214.49,155.86L214.47,155.92L214.46,155.98L214.46,156.03L214.86,175.28L212.65,194.20L207.76,210.54L199.45,228.07L199.24,228.67L199.15,229.30L199.18,229.93L199.34,230.55L199.61,231.12L199.99,231.63L200.47,232.06L201.01,232.38L201.61,232.59L202.24,232.68L202.88,232.65L203.50,232.49L204.07,232.22L204.58,231.83L205.00,231.36L205.33,230.81L213.55,212.96L218.19,195.45L218.64,175.38z" fill="currentColor" stroke="none" fill-opacity="1.00" fill-rule="nonzero" />
      <path d="M213.48,129.80L213.43,129.74L213.38,129.70L213.32,129.66L213.25,129.64L213.18,129.62L213.11,129.63L213.04,129.65L212.97,129.68L212.91,129.72L212.87,129.78L212.83,129.84L212.81,129.91L212.80,129.98L212.80,130.05L212.82,130.12L212.85,130.18L221.24,147.32L223.46,171.41L220.27,197.09L213.01,214.90L212.83,215.53L212.77,216.18L212.85,216.83L213.05,217.46L213.37,218.03L213.79,218.54L214.30,218.94L214.89,219.24L215.52,219.42L216.17,219.48L216.83,219.40L217.45,219.20L218.02,218.89L218.53,218.46L218.93,217.95L219.24,217.36L226.29,199.03L229.41,171.74L225.37,146.34L225.08,145.51z" fill="currentColor" stroke="none" fill-opacity="1.00" fill-rule="nonzero" />
      <path d="M224.75,151.47L224.26,151.20L223.71,151.04L223.15,150.99L222.59,151.07L222.05,151.26L221.57,151.55L221.16,151.94L220.84,152.41L220.62,152.93L220.52,153.49L220.53,154.06L220.66,154.61L220.91,155.12L221.25,155.57L221.68,155.94L245.04,173.04L259.09,195.31L259.50,195.85L260.01,196.29L260.59,196.62L261.23,196.84L261.89,196.93L262.56,196.88L263.21,196.71L263.81,196.41L264.35,196.00L264.79,195.49L265.13,194.91L265.34,194.27L265.43,193.61L265.38,192.94L265.21,192.29L264.91,191.68L250.71,168.64L249.70,167.58z" fill="currentColor" stroke="none" fill-opacity="1.00" fill-rule="nonzero" />
      <path d="M258.92,148.51L258.66,148.24L258.36,148.02L258.01,147.87L257.65,147.79L257.28,147.78L256.91,147.84L256.56,147.98L256.24,148.18L255.97,148.43L255.76,148.74L255.60,149.08L255.52,149.45L255.51,149.82L255.58,150.19L255.71,150.54L255.91,150.85L263.01,161.73L265.68,173.24L264.86,184.05L257.96,197.89L257.73,198.47L257.62,199.09L257.63,199.72L257.76,200.33L258.01,200.90L258.37,201.42L258.82,201.85L259.35,202.19L259.93,202.42L260.55,202.53L261.17,202.52L261.79,202.39L262.36,202.14L262.88,201.78L263.31,201.33L263.65,200.80L271.16,186.47L271.52,185.12L271.91,173.12L268.67,159.69L268.12,158.56z" fill="currentColor" stroke="none" fill-opacity="1.00" fill-rule="nonzero" />
      <path d="M112.00,124.82L111.93,124.89L111.88,124.98L111.85,125.07L111.84,125.17L111.85,125.27L111.88,125.36L111.92,125.45L111.98,125.53L112.06,125.59L112.14,125.64L112.24,125.67L112.34,125.68L112.44,125.68L112.53,125.65L112.62,125.60L112.70,125.54L141.14,102.90L167.38,90.22L168.09,89.77L168.71,89.19L169.20,88.50L169.55,87.72L169.73,86.90L169.76,86.05L169.61,85.21L169.31,84.42L168.86,83.70L168.28,83.09L167.58,82.60L166.81,82.25L165.98,82.06L165.14,82.04L164.30,82.18L163.51,82.49L137.09,96.14z" fill="currentColor" stroke="none" fill-opacity="1.00" fill-rule="nonzero" />
      <path d="M153.18,110.91L153.14,111.01L153.12,111.12L153.12,111.23L153.14,111.33L153.18,111.43L153.24,111.52L153.32,111.60L153.41,111.66L153.51,111.70L153.61,111.72L153.72,111.72L153.83,111.70L153.93,111.66L154.02,111.60L154.09,111.52L154.15,111.43L170.18,88.30L170.46,87.60L170.61,86.86L170.61,86.10L170.46,85.36L170.17,84.67L169.75,84.04L169.21,83.51L168.58,83.09L167.88,82.81L167.14,82.66L166.39,82.66L165.65,82.81L164.95,83.10L164.33,83.52L163.80,84.06L163.38,84.69z" fill="currentColor" stroke="none" fill-opacity="1.00" fill-rule="nonzero" />
      <path d="M150.61,111.05L150.20,111.29L149.85,111.62L149.57,112.00L149.37,112.43L149.25,112.90L149.23,113.37L149.31,113.85L149.47,114.29L149.72,114.70L150.04,115.05L150.43,115.33L150.86,115.54L151.32,115.65L151.80,115.67L152.27,115.60L152.72,115.43L181.48,102.58L204.20,100.32L228.49,104.17L253.28,114.90L272.23,130.17L287.74,152.90L294.67,178.16L296.15,201.48L296.27,202.19L296.52,202.87L296.90,203.47L297.40,204.00L297.98,204.42L298.64,204.71L299.34,204.87L300.06,204.89L300.77,204.77L301.44,204.52L302.05,204.14L302.58,203.64L302.99,203.06L303.29,202.40L303.45,201.70L303.47,200.98L301.72,177.31L294.26,150.50L277.88,125.69L257.26,109.15L230.80,97.71L204.82,93.55L180.22,96.02z" fill="currentColor" stroke="none" fill-opacity="1.00" fill-rule="nonzero" />
      <path d="M271.68,183.57L271.66,183.52L271.62,183.49L271.58,183.46L271.53,183.44L271.48,183.43L271.43,183.43L271.37,183.44L271.33,183.46L271.28,183.49L271.25,183.52L271.22,183.57L271.20,183.61L271.19,183.67L271.19,183.72L271.20,183.77L271.22,183.82L277.47,199.86L279.78,236.31L280.27,237.74L289.59,252.16L291.53,261.12L284.13,272.42L266.99,286.05L246.89,295.14L226.54,301.90L176.43,306.65L154.69,305.83L139.27,302.83L126.25,296.76L120.01,289.31L119.56,288.87L119.04,288.52L118.47,288.28L117.85,288.16L117.23,288.16L116.61,288.28L116.03,288.52L115.51,288.87L115.07,289.31L114.72,289.83L114.48,290.41L114.36,291.02L114.36,291.65L114.48,292.26L114.72,292.84L115.07,293.36L121.61,301.51L122.72,302.39L136.65,309.30L153.60,312.81L176.41,313.61L227.58,308.72L249.24,301.67L270.30,292.30L288.87,277.43L297.90,263.55L298.27,262.75L298.43,261.87L298.34,260.99L295.68,250.16L285.86,235.01L281.94,199.02L281.69,198.15z" fill="currentColor" stroke="none" fill-opacity="1.00" fill-rule="nonzero" />
      <path d="M305.36,166.47L304.95,166.21L304.51,166.03L304.03,165.94L303.55,165.94L303.08,166.04L302.64,166.22L302.24,166.50L301.90,166.84L301.64,167.24L301.46,167.69L301.37,168.16L301.37,168.64L301.47,169.11L301.66,169.55L301.93,169.95L302.27,170.29L311.11,179.21L318.22,187.60L323.91,204.09L325.89,215.52L324.94,221.95L324.93,222.80L325.10,223.62L325.44,224.39L325.93,225.08L326.55,225.65L327.28,226.08L328.08,226.34L328.92,226.44L329.76,226.35L330.56,226.10L331.29,225.68L331.93,225.12L332.43,224.44L332.77,223.68L332.96,222.85L333.52,215.79L330.89,202.49L324.85,184.65L316.82,174.05z" fill="currentColor" stroke="none" fill-opacity="1.00" fill-rule="nonzero" />
      <path d="M324.70,223.83L325.08,224.18L325.52,224.45L326.01,224.63L326.52,224.71L327.04,224.69L327.55,224.57L328.02,224.35L328.44,224.05L328.79,223.66L329.06,223.22L329.24,222.73L329.32,222.22L329.30,221.70L329.18,221.20L328.96,220.73L328.65,220.31L321.99,211.31L314.49,206.32L313.71,205.95L312.88,205.77L312.02,205.78L311.19,205.97L310.42,206.35L309.76,206.89L309.23,207.57L308.87,208.34L308.69,209.18L306.97,222.63L297.12,235.96L296.69,236.68L296.41,237.48L296.30,238.31L296.35,239.15L296.56,239.97L296.92,240.72L297.43,241.40L298.06,241.96L298.79,242.38L299.58,242.66L300.42,242.77L301.26,242.73L302.07,242.51L302.83,242.15L303.50,241.64L304.06,241.01L314.38,226.63L315.16,224.59L315.67,216.01L316.88,216.58z" fill="currentColor" stroke="none" fill-opacity="1.00" fill-rule="nonzero" />
      <path d="M301.23,237.66L300.99,237.43L300.71,237.26L300.40,237.14L300.07,237.08L299.74,237.09L299.42,237.17L299.12,237.30L298.85,237.50L298.62,237.74L298.44,238.02L298.32,238.33L298.27,238.65L298.28,238.99L298.35,239.31L298.49,239.61L298.68,239.88L306.99,251.31L310.43,265.53L306.88,282.98L303.91,288.79L298.05,294.37L297.54,294.99L297.15,295.70L296.92,296.46L296.84,297.26L296.91,298.06L297.15,298.83L297.52,299.54L298.03,300.17L298.65,300.68L299.36,301.06L300.13,301.30L300.93,301.38L301.73,301.30L302.50,301.07L303.21,300.69L303.83,300.18L309.93,293.87L313.86,285.76L317.32,266.00L317.25,264.45L312.44,249.11L311.83,247.98z" fill="currentColor" stroke="none" fill-opacity="1.00" fill-rule="nonzero" />
      <path d="M302.13,275.78L302.07,275.39L301.94,275.02L301.73,274.68L301.46,274.39L301.15,274.16L300.79,273.99L300.40,273.90L300.01,273.88L299.62,273.94L299.25,274.08L298.91,274.28L298.62,274.55L298.39,274.87L298.22,275.23L298.13,275.61L298.11,276.00L297.85,285.09L294.44,296.33L294.35,297.00L294.39,297.67L294.56,298.32L294.85,298.93L295.25,299.47L295.75,299.92L296.33,300.26L296.97,300.48L297.63,300.58L298.31,300.54L298.96,300.37L299.56,300.08L300.10,299.67L300.55,299.17L300.89,298.59L301.11,297.96L303.37,286.00z" fill="currentColor" stroke="none" fill-opacity="1.00" fill-rule="nonzero" />
      <path d="M298.06,275.99L298.07,275.96L298.07,275.94L298.07,275.92L298.07,275.90L298.05,275.88L298.04,275.86L298.02,275.84L298.00,275.83L297.98,275.82L297.96,275.82L297.94,275.82L297.92,275.83L297.89,275.84L297.88,275.85L297.86,275.87L297.85,275.89L292.51,284.31L281.01,296.02L269.01,305.80L261.64,308.89L260.98,309.27L260.41,309.77L259.95,310.37L259.61,311.05L259.42,311.78L259.36,312.54L259.46,313.29L259.70,314.01L260.08,314.67L260.58,315.24L261.18,315.70L261.86,316.04L262.59,316.23L263.35,316.28L264.10,316.19L264.82,315.95L272.52,312.25L285.27,300.48L295.08,286.13z" fill="currentColor" stroke="none" fill-opacity="1.00" fill-rule="nonzero" />
      <path d="M156.98,312.36L156.83,312.20L156.65,312.07L156.45,311.98L156.24,311.93L156.02,311.92L155.80,311.96L155.60,312.03L155.41,312.15L155.25,312.30L155.13,312.48L155.04,312.68L154.99,312.89L154.98,313.11L155.01,313.33L155.09,313.53L155.21,313.72L159.01,321.26L159.49,321.75L160.08,322.09L160.73,322.28L179.03,325.07L182.37,341.73L181.23,351.06L176.64,356.38L169.18,355.06L163.61,349.52L163.13,349.13L162.58,348.83L161.98,348.65L161.36,348.59L160.74,348.65L160.15,348.83L159.60,349.13L159.12,349.52L158.72,350.00L158.43,350.55L158.25,351.14L158.19,351.76L158.25,352.38L158.43,352.98L158.72,353.53L159.12,354.01L165.38,360.32L166.19,360.91L167.14,361.22L177.31,362.70L178.06,362.73L178.80,362.57L179.48,362.23L180.06,361.74L186.74,354.68L187.30,353.84L187.57,352.88L188.91,341.93L183.77,322.12L183.55,321.53L183.20,321.01L182.75,320.58L182.20,320.28L181.60,320.11L162.63,317.12z" fill="currentColor" stroke="none" fill-opacity="1.00" fill-rule="nonzero" />
      <path d="M161.73,352.22L161.74,351.92L161.69,351.62L161.58,351.33L161.42,351.07L161.21,350.85L160.97,350.67L160.69,350.55L160.39,350.48L160.09,350.47L159.79,350.52L159.51,350.62L159.25,350.78L159.02,350.99L158.85,351.24L158.72,351.51L158.65,351.81L156.47,361.36L156.48,362.07L156.69,362.75L157.09,363.34L164.25,371.90L165.11,372.54L166.14,372.84L177.45,374.06L178.40,374.00L179.28,373.66L188.53,368.25L189.50,367.36L194.65,359.95L195.11,358.92L197.10,349.06L197.17,338.19L193.03,314.01L192.88,313.47L192.62,312.97L192.27,312.53L191.85,312.16L191.35,311.88L190.82,311.71L190.26,311.64L189.70,311.69L189.15,311.84L188.65,312.10L188.21,312.44L187.84,312.87L187.57,313.37L187.39,313.90L187.33,314.46L187.37,315.02L191.69,338.45L191.75,348.12L189.33,356.96L184.93,363.38L177.08,367.89L167.85,367.06L161.48,360.87z" fill="currentColor" stroke="none" fill-opacity="1.00" fill-rule="nonzero" />
      <path d="M237.52,306.39L237.48,306.19L237.39,306.00L237.28,305.83L237.13,305.69L236.95,305.58L236.76,305.50L236.56,305.46L236.35,305.47L236.15,305.51L235.96,305.59L235.79,305.71L235.64,305.86L235.53,306.04L235.46,306.23L235.42,306.43L235.42,306.64L234.49,309.96L232.28,310.66L202.12,316.27L201.45,316.48L200.85,316.84L200.36,317.33L199.99,317.93L199.77,318.60L199.72,319.29L200.25,338.26L200.66,339.69L207.90,352.49L208.33,353.09L208.90,353.57L209.56,353.90L210.28,354.07L214.43,354.39L215.36,354.35L216.23,354.02L221.74,350.86L222.79,349.84L230.19,337.63L230.43,337.13L230.57,336.60L230.61,336.05L230.54,335.50L230.36,334.98L230.08,334.51L229.72,334.09L229.28,333.76L228.79,333.51L228.25,333.37L227.70,333.34L227.16,333.41L226.63,333.59L226.16,333.86L225.74,334.23L225.41,334.67L218.16,346.09L214.12,348.34L212.55,348.05L206.55,337.26L205.74,321.61L233.76,316.08L238.15,313.35L238.61,313.02L238.98,312.60L239.24,312.10L239.37,311.56L239.37,311.00z" fill="currentColor" stroke="none" fill-opacity="1.00" fill-rule="nonzero" />
      <path d="M225.91,335.69L225.90,335.63L225.87,335.58L225.83,335.53L225.78,335.50L225.72,335.47L225.66,335.45L225.60,335.45L225.54,335.45L225.48,335.47L225.43,335.50L225.38,335.54L225.34,335.59L225.32,335.64L225.30,335.70L225.29,335.76L225.30,335.83L226.85,352.56L218.46,363.68L213.64,365.55L206.82,364.54L200.56,360.39L198.04,354.31L197.79,353.85L197.46,353.45L197.06,353.13L196.60,352.89L196.10,352.74L195.59,352.69L195.07,352.74L194.58,352.90L194.12,353.14L193.72,353.47L193.39,353.88L193.15,354.33L193.00,354.83L192.95,355.35L193.01,355.86L193.16,356.36L196.04,363.12L196.42,363.76L196.96,364.26L204.21,369.45L205.37,369.91L213.44,371.13L214.65,371.04L221.38,369.41L222.35,368.92L223.10,368.13L231.29,354.33L231.57,353.77L231.68,353.16L231.63,352.54z" fill="currentColor" stroke="none" fill-opacity="1.00" fill-rule="nonzero" />
      <path d="M156.66,317.21L156.68,317.20L156.69,317.18L156.69,317.17L156.70,317.15L156.70,317.13L156.70,317.11L156.69,317.09L156.68,317.08L156.67,317.06L156.65,317.05L156.64,317.05L156.62,317.04L156.60,317.04L156.58,317.04L156.56,317.05L156.55,317.06L143.20,323.71L119.88,329.60L119.16,329.89L118.54,330.35L118.06,330.94L117.74,331.65L117.61,332.40L117.76,335.87L117.89,336.84L118.35,337.69L140.51,365.82L160.12,380.82L182.09,389.73L200.78,391.99L214.07,389.19L238.84,372.93L239.64,372.14L256.76,346.81L263.50,328.48L265.77,310.62L265.79,309.98L265.65,309.35L265.38,308.77L264.99,308.27L264.49,307.87L263.91,307.59L263.29,307.45L237.48,304.48L236.89,304.47L236.31,304.58L235.75,304.81L235.26,305.13L234.83,305.55L234.50,306.04L234.27,306.59L234.15,307.17L234.14,307.77L234.25,308.35L234.48,308.91L234.80,309.40L235.22,309.83L235.71,310.16L236.26,310.39L236.84,310.51L259.82,312.73L257.73,326.77L251.82,343.89L235.02,368.29L212.28,383.77L200.95,386.48L183.83,384.37L163.21,376.17L144.88,361.88L123.26,335.08L122.99,334.43L145.21,329.15L146.23,328.65z" fill="currentColor" stroke="none" fill-opacity="1.00" fill-rule="nonzero" />
      <path d="M119.22,333.18L119.22,333.17L119.22,333.15L119.22,333.13L119.22,333.11L119.21,333.09L119.20,333.08L119.19,333.07L119.17,333.06L119.15,333.05L119.13,333.05L119.12,333.05L119.10,333.05L119.08,333.06L119.07,333.07L119.05,333.09L119.04,333.10L88.13,390.89L85.50,422.23L70.45,462.65L70.29,463.26L70.26,463.88L70.35,464.51L70.56,465.10L70.88,465.64L71.30,466.11L71.80,466.48L72.37,466.75L72.98,466.91L73.61,466.94L74.23,466.85L74.82,466.64L75.36,466.32L75.83,465.90L76.20,465.40L76.47,464.83L90.90,423.79L93.73,392.96z" fill="currentColor" stroke="none" fill-opacity="1.00" fill-rule="nonzero" />
      <path d="M138.81,373.66L138.80,373.52L138.77,373.38L138.71,373.25L138.63,373.14L138.53,373.04L138.41,372.97L138.28,372.92L138.14,372.90L138.00,372.90L137.87,372.93L137.74,372.99L137.63,373.07L137.53,373.17L137.46,373.29L137.41,373.42L137.38,373.56L133.42,401.98L137.70,418.07L138.91,430.33L133.25,477.09L133.24,477.69L133.34,478.29L133.56,478.85L133.89,479.35L134.31,479.79L134.81,480.13L135.36,480.37L135.95,480.50L136.55,480.51L137.14,480.40L137.70,480.18L138.21,479.85L138.65,479.44L138.99,478.94L139.23,478.39L139.36,477.80L144.59,430.72L143.98,417.25L138.82,401.85z" fill="currentColor" stroke="none" fill-opacity="1.00" fill-rule="nonzero" />
      <path d="M264.43,314.85L264.29,314.75L264.15,314.69L263.99,314.65L263.83,314.65L263.67,314.68L263.52,314.73L263.38,314.82L263.27,314.93L263.17,315.06L263.11,315.21L263.07,315.37L263.06,315.53L263.09,315.69L263.15,315.84L263.24,315.97L263.35,316.09L276.02,330.09L283.23,342.75L283.59,343.25L284.04,343.67L284.57,344.00L285.14,344.21L285.75,344.31L286.37,344.29L286.97,344.15L287.53,343.90L288.03,343.54L288.46,343.09L288.78,342.57L289.00,341.99L289.10,341.38L289.08,340.76L288.94,340.16L288.68,339.60L281.07,326.58z" fill="currentColor" stroke="none" fill-opacity="1.00" fill-rule="nonzero" />
      <path d="M253.33,361.66L253.25,361.46L253.13,361.27L252.98,361.11L252.81,360.99L252.61,360.90L252.40,360.85L252.18,360.84L251.96,360.88L251.76,360.96L251.57,361.07L251.42,361.22L251.29,361.40L251.20,361.60L251.15,361.81L251.15,362.03L251.18,362.25L254.75,383.69L255.07,384.47L255.58,385.14L256.24,385.66L265.85,390.89L291.65,400.41L301.22,401.95L302.43,401.86L313.53,399.17L314.84,398.46L320.82,392.45L341.72,382.72L366.40,366.03L381.86,349.50L382.55,348.31L386.58,335.17L386.71,334.53L386.70,333.87L386.56,333.23L386.29,332.63L385.89,332.10L385.40,331.67L384.83,331.34L384.20,331.15L383.55,331.08L382.90,331.16L382.27,331.37L381.71,331.70L381.22,332.14L380.84,332.68L380.58,333.28L376.56,345.68L362.84,361.43L339.14,377.72L318.05,387.47L310.95,392.92L301.43,396.11L293.31,395.05L268.56,385.86L260.77,380.67z" fill="currentColor" stroke="none" fill-opacity="1.00" fill-rule="nonzero" />
      <path d="M283.67,348.80L283.52,349.03L283.42,349.28L283.37,349.55L283.37,349.82L283.43,350.09L283.53,350.34L283.69,350.56L283.88,350.75L284.11,350.90L284.36,351.01L284.63,351.06L284.90,351.05L285.17,351.00L285.42,350.89L285.64,350.74L285.83,350.55L320.25,310.07L340.09,303.90L350.49,320.71L351.16,321.49L352.03,322.02L379.25,333.12L379.85,333.30L380.47,333.36L381.09,333.30L381.69,333.12L382.24,332.82L382.73,332.42L383.12,331.94L383.42,331.39L383.60,330.79L383.66,330.16L383.60,329.54L383.41,328.94L383.12,328.39L382.72,327.91L382.23,327.51L381.68,327.22L355.52,316.35L344.27,298.25L343.82,297.67L343.26,297.21L342.60,296.89L341.89,296.72L341.16,296.72L340.45,296.87L317.72,305.11L317.03,305.46L316.46,305.99z" fill="currentColor" stroke="none" fill-opacity="1.00" fill-rule="nonzero" />
      <path d="M329.98,310.87L329.80,310.74L329.60,310.65L329.38,310.60L329.16,310.59L328.94,310.63L328.73,310.71L328.55,310.83L328.38,310.98L328.25,311.16L328.16,311.36L328.11,311.57L328.11,311.80L328.14,312.01L328.22,312.22L328.34,312.41L328.49,312.57L350.19,334.25L351.56,334.94L370.56,339.50L371.21,339.58L371.86,339.53L372.49,339.36L373.08,339.07L373.60,338.67L374.03,338.17L374.35,337.60L374.56,336.98L374.64,336.33L374.59,335.68L374.42,335.05L374.13,334.46L373.73,333.94L373.23,333.52L372.66,333.19L372.04,332.98L353.71,329.05z" fill="currentColor" stroke="none" fill-opacity="1.00" fill-rule="nonzero" />
      <path d="M346.28,306.42L346.29,306.81L346.36,307.18L346.51,307.54L346.73,307.86L347.00,308.13L347.32,308.34L347.68,308.49L348.06,308.56L348.45,308.56L348.82,308.48L349.18,308.33L349.50,308.11L349.77,307.84L349.98,307.52L350.13,307.16L350.20,306.78L351.95,293.95L354.63,290.62L356.25,290.58L359.52,296.18L359.81,296.63L360.20,297.00L360.65,297.30L361.14,297.49L361.67,297.58L362.21,297.56L362.73,297.44L363.21,297.21L363.64,296.89L364.00,296.49L364.27,296.03L369.25,285.29L372.64,283.14L373.09,282.98L375.90,285.78L373.17,293.29L373.04,293.98L373.07,294.67L373.24,295.35L373.55,295.97L373.99,296.51L374.54,296.94L375.17,297.24L375.85,297.40L376.54,297.41L377.22,297.27L377.86,296.98L382.43,293.71L386.85,295.29L387.08,296.89L382.41,301.94L382.00,302.49L381.72,303.11L381.57,303.77L381.57,304.45L381.71,305.12L381.99,305.74L382.39,306.29L382.91,306.74L383.50,307.07L384.15,307.27L390.61,308.48L392.32,311.48L392.42,314.54L387.24,318.53L386.79,318.95L386.43,319.45L386.17,320.01L386.04,320.61L386.03,321.22L386.14,321.83L386.37,322.39L386.71,322.91L387.15,323.34L387.66,323.68L388.23,323.90L390.07,323.29L388.69,324.04L375.46,325.50L374.81,325.66L374.21,325.95L373.67,326.35L373.23,326.84L372.88,327.41L372.66,328.04L372.56,328.70L372.59,329.37L372.75,330.02L373.04,330.62L373.44,331.16L373.93,331.60L374.50,331.95L375.13,332.17L375.79,332.27L376.46,332.24L391.12,329.56L391.82,329.37L392.45,329.00L392.97,328.50L393.34,327.88L395.51,323.25L395.70,322.64L395.77,322.01L395.70,321.37L395.49,320.76L395.16,320.22L394.72,319.75L394.19,319.39L393.60,319.15L392.06,320.42L397.48,318.60L398.02,318.09L398.42,317.46L398.66,316.75L398.73,316.01L398.63,310.53L398.21,309.04L395.39,304.08L394.83,303.37L394.09,302.84L393.24,302.54L391.04,302.07L393.04,299.92L393.52,299.25L393.81,298.47L393.90,297.65L393.77,296.83L392.12,292.03L391.83,291.34L391.36,290.75L390.77,290.29L390.08,289.99L382.81,288.21L382.09,288.11L381.37,288.20L380.70,288.48L378.22,291.71L381.71,285.74L381.83,284.99L381.73,284.23L381.44,283.52L380.96,282.92L376.24,278.42L375.53,277.93L374.72,277.68L372.39,277.05L371.63,277.03L370.89,277.20L370.21,277.55L365.49,281.14L364.52,282.30L361.66,288.93L360.48,286.19L360.10,285.64L359.61,285.19L359.02,284.87L358.38,284.69L357.71,284.66L352.87,285.08L352.06,285.26L351.33,285.68L350.75,286.29L347.42,291.61L346.99,292.82z" fill="currentColor" stroke="none" fill-opacity="1.00" fill-rule="nonzero" />
      <path d="M268.84,391.15L268.80,391.02L268.74,390.91L268.66,390.81L268.56,390.72L268.44,390.66L268.32,390.63L268.19,390.61L268.06,390.63L267.93,390.66L267.82,390.73L267.72,390.81L267.63,390.91L267.57,391.03L267.53,391.15L267.52,391.28L267.53,391.41L268.02,402.16L268.04,423.11L270.91,441.46L277.00,452.39L288.68,465.12L289.19,465.57L289.78,465.90L290.42,466.11L291.09,466.20L291.77,466.15L292.42,465.97L293.03,465.67L293.56,465.25L294.00,464.74L294.34,464.15L294.55,463.51L294.64,462.83L294.59,462.16L294.41,461.51L294.10,460.90L293.69,460.37L282.41,448.81L277.14,439.72L273.35,422.79L272.63,401.87z" fill="currentColor" stroke="none" fill-opacity="1.00" fill-rule="nonzero" />
      <path d="M184.18,372.21L184.13,372.08L184.05,371.96L183.95,371.86L183.83,371.78L183.70,371.73L183.56,371.70L183.42,371.70L183.28,371.73L183.14,371.78L183.03,371.86L182.92,371.96L182.85,372.08L182.79,372.21L182.76,372.35L182.76,372.50L182.79,372.64L188.16,398.83L192.81,406.28L193.23,406.80L193.74,407.22L194.33,407.53L194.98,407.71L195.64,407.75L196.30,407.65L196.93,407.41L197.49,407.06L197.97,406.59L198.34,406.03L198.58,405.41L198.69,404.75L198.66,404.08L198.49,403.44L198.19,402.84L194.19,396.53z" fill="currentColor" stroke="none" fill-opacity="1.00" fill-rule="nonzero" />
      <path d="M207.91,366.25L207.92,366.02L207.89,365.80L207.81,365.59L207.70,365.39L207.55,365.23L207.37,365.09L207.16,365.00L206.95,364.94L206.72,364.93L206.50,364.96L206.29,365.03L206.09,365.15L205.92,365.30L205.79,365.48L205.69,365.68L205.64,365.90L201.12,383.77L196.75,403.59L194.89,406.30L194.60,406.85L194.42,407.45L194.37,408.07L194.44,408.69L194.62,409.29L194.92,409.83L195.32,410.31L195.81,410.70L196.36,410.99L196.96,411.17L197.58,411.22L198.20,411.15L198.80,410.97L199.34,410.67L199.82,410.27L200.21,409.78L202.27,406.50L202.71,405.43L206.81,384.88z" fill="currentColor" stroke="none" fill-opacity="1.00" fill-rule="nonzero" />
      <path d="M199.83,404.64L200.01,404.34L200.12,404.00L200.16,403.65L200.13,403.30L200.02,402.96L199.84,402.65L199.61,402.39L199.32,402.18L199.00,402.03L198.65,401.96L198.30,401.96L197.95,402.03L197.63,402.17L197.34,402.38L197.11,402.64L182.41,420.14L182.03,420.82L181.82,421.57L181.81,422.35L181.97,423.10L182.32,423.80L182.82,424.39L201.20,441.25L201.74,441.65L202.36,441.93L203.03,442.07L203.71,442.06L204.37,441.91L204.99,441.62L205.52,441.21L205.96,440.69L206.28,440.08L212.44,423.98L212.62,423.25L212.62,422.49L212.42,421.76L212.05,421.10L199.83,404.93L199.45,404.52L199.00,404.18L198.48,403.94L197.94,403.81L197.37,403.78L196.81,403.87L196.28,404.06L195.80,404.35L195.38,404.73L195.05,405.19L194.81,405.70L194.68,406.25L194.65,406.81L194.74,407.37L194.93,407.90L195.22,408.38L206.29,423.34L202.09,433.48L189.26,421.62z" fill="currentColor" stroke="none" fill-opacity="1.00" fill-rule="nonzero" />
      <path d="M193.61,399.98L195.99,402.28L192.05,410.78L180.39,421.22L187.86,432.07L203.40,443.48L215.20,423.82L211.47,413.73zM141.10,361.27L137.01,375.86L137.35,400.85L141.23,416.19L140.10,453.09L136.73,476.06L138.70,486.01L147.76,490.29L172.23,489.66L276.51,469.16L290.98,463.96L274.25,438.15L269.07,414.42L269.19,397.88L257.20,383.41L248.39,357.41L245.12,355.27L225.68,376.14L211.10,386.16L178.52,386.48L165.57,381.53z" fill-rule="evenodd" fill="currentColor" stroke="none" fill-opacity="1.00" />
      <path d="M90.95,151.57L85.83,139.74L77.30,126.94L61.27,118.03L46.42,120.15L31.83,125.82L22.42,132.36L14.38,146.04L10.67,163.17L11.65,185.43L16.85,199.36L29.63,211.22L39.34,214.42L52.08,213.66L64.98,207.61L65.98,216.99L52.58,222.81L37.00,226.33L22.40,227.13L9.09,222.61L-1.58,210.29L-10.34,194.13L-16.49,169.12L-13.29,135.99L-4.25,113.98L1.22,106.37L18.87,91.88L39.80,80.30L49.82,77.70L63.41,77.32L80.50,85.41L87.03,90.34L100.75,114.04L104.65,126.60L104.85,134.50z" fill-rule="evenodd" fill="currentColor" stroke="none" fill-opacity="1.00" />
      <path d="M263.15,116.12L270.68,106.50L281.91,99.16L289.81,97.15L297.46,99.00L308.80,109.98L313.38,127.94L309.50,144.27L300.92,151.97L294.74,154.58L296.69,164.57L310.23,170.85L322.47,162.70L328.57,155.02L333.71,136.09L330.24,110.86L326.17,92.38L314.93,73.12L304.15,62.41L294.46,56.78L282.73,53.98L266.63,55.34L252.71,63.26L238.17,79.75L234.87,95.22L235.92,104.95z" fill-rule="evenodd" fill="currentColor" stroke="none" fill-opacity="1.00" />
      <path d="M88.22,153.31L89.73,140.66L74.63,131.01L51.11,130.84L43.02,133.78L35.01,140.79L48.55,143.06L37.40,161.15L31.62,173.59L44.59,165.39L39.05,198.03L40.69,204.46L45.16,209.67L58.24,211.34L68.34,206.06L86.12,167.32z" fill-rule="evenodd" fill="currentColor" stroke="none" fill-opacity="1.00" />
      <path d="M281.25,96.69L290.85,102.34L295.50,111.76L297.21,128.21L289.10,125.17L290.55,129.86L288.93,136.49L274.43,131.38L270.01,125.76L267.06,116.86L271.12,105.40z" fill-rule="evenodd" fill="currentColor" stroke="none" fill-opacity="1.00" />
      <path d="M102.87,30.40L103.21,30.61L103.58,30.76L103.97,30.83L104.37,30.82L104.76,30.73L105.12,30.57L105.45,30.34L105.72,30.06L105.94,29.72L106.08,29.35L106.15,28.96L106.14,28.56L106.05,28.17L105.89,27.81L105.66,27.48L105.38,27.21L100.39,21.16L99.30,20.57L98.08,20.37L87.66,20.33L86.52,20.51L85.49,21.03L76.70,25.46L75.37,26.81L74.61,28.54L72.22,39.35L72.12,41.12L72.63,42.82L75.83,48.59L77.22,50.26L82.09,53.86L84.22,54.77L108.90,58.64L109.39,61.27L109.03,63.14L96.54,71.43L84.26,69.48L83.29,69.43L82.31,69.56L81.39,69.89L80.54,70.39L79.81,71.04L79.22,71.82L78.80,72.71L78.55,73.66L78.50,74.64L78.64,75.61L78.96,76.53L79.46,77.38L80.11,78.11L80.90,78.70L81.78,79.12L82.73,79.37L96.95,81.53L98.19,81.57L99.41,81.29L100.51,80.73L116.39,70.18L117.46,69.21L118.22,67.98L118.62,66.59L118.76,61.84L117.63,53.76L117.30,52.64L116.70,51.63L115.87,50.80L114.86,50.21L113.73,49.88L86.90,45.53L83.95,43.22L82.53,39.89L84.36,32.90L88.90,27.96L96.83,27.81z" fill="currentColor" stroke="none" fill-opacity="1.00" fill-rule="nonzero" />
      <path d="M383.62,52.09L383.85,52.36L384.13,52.58L384.44,52.74L384.78,52.84L385.13,52.87L385.48,52.83L385.82,52.72L386.12,52.55L386.39,52.33L386.61,52.05L386.78,51.74L386.87,51.40L386.90,51.05L386.86,50.70L386.76,50.36L386.59,50.05L383.84,43.43L382.96,42.55L375.26,37.30L374.34,36.87L373.33,36.73L364.40,35.61L362.75,35.95L361.32,36.85L353.86,43.94L353.01,45.02L352.52,46.31L352.44,47.68L353.83,59.43L354.06,60.45L354.53,61.39L355.21,62.18L372.04,77.22L371.74,79.07L370.84,80.23L357.28,80.39L348.92,72.95L348.21,72.44L347.42,72.08L346.58,71.87L345.71,71.84L344.85,71.98L344.03,72.28L343.29,72.74L342.66,73.33L342.15,74.04L341.79,74.83L341.58,75.67L341.55,76.54L341.69,77.40L341.99,78.21L342.45,78.96L343.04,79.59L352.75,88.13L353.66,88.75L354.69,89.13L355.79,89.23L373.07,88.97L374.41,88.73L375.62,88.11L376.60,87.17L379.00,83.33L379.81,81.44L380.64,76.30L380.68,75.26L380.45,74.25L379.99,73.32L379.31,72.53L362.10,56.98L361.61,49.05L366.34,44.89L372.38,43.52L378.78,47.68z" fill="currentColor" stroke="none" fill-opacity="1.00" fill-rule="nonzero" />
      <path d="M83.12,6.49L82.86,5.88L82.49,5.33L82.02,4.87L81.47,4.50L80.85,4.25L80.20,4.12L79.54,4.13L78.89,4.26L78.28,4.52L77.73,4.89L77.27,5.36L76.90,5.91L76.65,6.52L76.52,7.17L76.53,7.83L76.66,8.48L88.07,48.99L109.06,89.50L109.56,90.26L110.19,90.90L110.94,91.41L111.77,91.76L112.65,91.94L113.56,91.94L114.44,91.77L115.28,91.43L116.03,90.94L116.68,90.30L117.18,89.56L117.53,88.72L117.72,87.84L117.72,86.94L117.55,86.05L117.21,85.22L96.34,46.01z" fill="currentColor" stroke="none" fill-opacity="1.00" fill-rule="nonzero" />
      <path d="M382.39,24.06L382.48,23.81L382.51,23.54L382.49,23.28L382.42,23.02L382.30,22.78L382.14,22.57L381.94,22.40L381.71,22.26L381.46,22.18L381.20,22.15L380.93,22.16L380.67,22.23L380.44,22.35L380.23,22.51L380.05,22.71L379.92,22.94L375.73,28.46L365.08,59.42L349.42,94.29L349.18,94.97L349.08,95.69L349.13,96.41L349.31,97.11L349.63,97.76L350.07,98.33L350.61,98.81L351.23,99.17L351.92,99.41L352.63,99.50L353.35,99.46L354.05,99.28L354.70,98.96L355.27,98.52L355.75,97.98L356.12,97.36L372.36,62.47L381.11,30.69z" fill="currentColor" stroke="none" fill-opacity="1.00" fill-rule="nonzero" />
    </g>
  </symbol>
</svg>