<?xml version='1.0' encoding='utf-8'?>
<svg xmlns="http://www.w3.org/2000/svg" version="1.1" x="0.00px" y="0.00px" width="400.00px" height="400.00px" viewBox="0.00 0.00 400.00 400.00">
  <symbol id="frame" viewBox="0.00 0.00 400.00 400.00">
    <g class="layers.drawing-primary">
      <path d="M117.55,127.42L117.63,127.68L117.76,127.91L117.94,128.12L118.15,128.29L118.40,128.41L118.66,128.48L118.93,128.50L119.20,128.47L119.46,128.39L119.69,128.25L119.90,128.08L120.07,127.86L120.19,127.62L120.26,127.36L120.28,127.09L120.25,126.82L117.22,105.10L104.75,84.55L87.22,71.06L85.72,70.39L72.79,67.56L51.43,70.01L38.83,75.65L22.22,89.50L5.19,108.47L4.48,109.67L-5.03,137.71L-6.66,160.39L-3.30,182.29L4.47,201.07L14.98,214.67L21.41,219.48L35.01,224.25L56.98,224.11L71.41,218.62L75.23,213.53L75.28,213.48L75.32,213.42L75.35,213.36L75.36,213.29L75.36,213.23L75.34,213.16L75.32,213.10L75.28,213.04L75.23,212.99L75.17,212.95L75.11,212.93L75.04,212.92L74.97,212.92L74.91,212.93L74.85,212.96L74.79,212.99L69.82,215.06L56.56,218.84L36.53,218.35L24.73,214.13L19.69,210.43L10.19,198.22L3.00,180.91L-0.12,160.48L1.41,139.46L10.83,112.62L27.10,94.98L42.49,82.45L53.00,77.77L71.77,75.51L83.25,77.91L99.02,89.06L111.24,107.00z" fill="currentColor" stroke="none" fill-opacity="1.00" fill-rule="nonzero" />
      <path d="M101.06,150.56L101.37,151.02L101.77,151.41L102.23,151.72L102.74,151.93L103.28,152.04L103.84,152.03L104.38,151.92L104.89,151.71L105.35,151.40L105.74,151.01L106.05,150.55L106.26,150.03L106.37,149.49L106.37,148.94L106.26,148.39L106.04,147.88L97.88,131.66L97.28,130.86L96.48,130.28L85.03,123.77L83.39,123.34L66.69,122.49L64.66,122.94L48.09,131.50L47.36,131.98L46.75,132.59L46.29,133.33L45.99,134.14L45.86,135.00L45.93,135.86L46.17,136.70L46.58,137.46L47.14,138.12L47.83,138.65L48.62,139.01L49.47,139.21L57.96,139.56L48.03,148.64L47.16,149.91L40.53,166.72L40.34,167.40L40.29,168.10L40.38,168.80L40.62,169.47L40.99,170.07L41.47,170.58L42.05,170.99L42.70,171.26L43.39,171.40L44.10,171.39L44.79,171.24L45.43,170.95L53.15,166.20L47.62,178.44L47.34,179.85L47.44,197.14L47.87,198.82L52.44,207.40L52.85,208.00L53.36,208.50L53.97,208.90L54.64,209.17L55.35,209.30L56.07,209.30L56.78,209.15L57.45,208.87L58.04,208.46L58.55,207.94L58.95,207.34L59.22,206.67L59.35,205.96L59.34,205.24L59.20,204.53L58.91,203.86L54.59,196.16L54.28,180.50L62.94,159.75L63.14,159.11L63.20,158.44L63.12,157.78L62.91,157.14L62.56,156.56L62.11,156.07L61.56,155.68L60.95,155.41L60.29,155.28L59.62,155.28L58.96,155.42L58.35,155.70L50.59,160.00L53.40,153.26L68.02,139.55L68.49,139.02L68.84,138.40L69.05,137.73L69.12,137.03L69.04,136.32L68.83,135.65L68.47,135.04L68.00,134.51L67.44,134.09L66.79,133.80L66.11,133.64L63.74,132.68L67.50,130.83L82.27,130.99L92.51,135.71z" fill="currentColor" stroke="none" fill-opacity="1.00" fill-rule="nonzero" />
      <path d="M98.72,142.39L98.89,142.64L99.10,142.86L99.36,143.03L99.64,143.14L99.94,143.20L100.24,143.20L100.54,143.14L100.82,143.02L101.07,142.85L101.28,142.64L101.45,142.38L101.57,142.10L101.63,141.80L101.62,141.50L101.56,141.20L101.45,140.92L96.30,128.16L86.47,117.82L84.92,116.94L68.57,112.02L58.28,112.02L45.28,116.01L43.93,116.73L37.05,122.66L29.63,135.29L21.85,153.27L20.44,172.17L22.00,182.14L29.12,196.80L30.12,198.00L41.71,206.60L43.04,207.20L55.09,209.56L69.16,207.90L70.31,207.52L77.99,202.66L78.43,202.35L78.81,201.97L79.10,201.52L79.30,201.03L79.39,200.50L79.39,199.97L79.27,199.44L79.06,198.95L78.76,198.51L78.38,198.14L77.93,197.85L77.43,197.65L76.91,197.55L76.37,197.56L75.85,197.67L75.36,197.88L67.69,201.50L55.84,203.11L45.07,200.88L34.80,193.09L28.62,180.51L27.17,172.25L28.52,155.52L35.88,138.72L42.38,128.16L48.50,123.63L59.06,120.34L66.99,120.13L82.13,123.72L91.13,131.50z" fill="currentColor" stroke="none" fill-opacity="1.00" fill-rule="nonzero" />
      <path d="M249.75,108.07L249.75,108.53L249.84,108.99L250.01,109.42L250.27,109.80L250.60,110.13L250.98,110.39L251.41,110.57L251.86,110.66L252.32,110.66L252.78,110.57L253.20,110.40L253.59,110.14L253.92,109.81L254.18,109.43L254.35,109.00L254.45,108.55L256.75,90.91L261.18,80.23L268.72,70.08L278.62,64.11L290.41,61.73L302.70,63.22L313.90,67.84L323.68,73.59L338.31,97.37L343.50,113.25L345.49,129.52L344.07,145.11L337.42,163.62L329.44,171.65L321.54,174.08L320.84,174.37L320.22,174.79L319.68,175.33L319.27,175.95L318.98,176.65L318.84,177.39L318.84,178.15L318.99,178.88L319.28,179.58L319.70,180.21L320.23,180.74L320.86,181.16L321.56,181.44L322.30,181.59L323.05,181.59L323.79,181.44L332.64,178.74L334.27,177.74L343.38,168.27L344.24,166.89L351.00,147.05L352.42,129.72L350.07,112.07L344.30,94.96L328.49,69.70L327.43,68.67L316.77,62.50L304.61,57.49L290.65,55.70L276.92,58.31L265.12,65.27L264.26,66.05L256.20,77.01L251.30,89.14z" fill="currentColor" stroke="none" fill-opacity="1.00" fill-rule="nonzero" />
      <path d="M280.00,116.90L279.78,117.48L279.67,118.08L279.68,118.70L279.82,119.30L280.06,119.86L280.41,120.36L280.86,120.79L281.37,121.12L281.95,121.34L282.55,121.45L283.17,121.44L283.77,121.31L284.33,121.06L284.83,120.71L285.26,120.27L285.59,119.75L289.48,110.93L297.09,107.01L307.50,107.47L315.76,112.86L319.62,121.19L320.69,138.82L317.95,145.78L308.83,151.99L308.17,152.47L307.64,153.08L307.24,153.78L306.99,154.55L306.91,155.35L307.00,156.16L307.25,156.92L307.66,157.62L308.20,158.22L308.86,158.69L309.60,159.02L310.39,159.18L311.20,159.18L311.99,159.01L312.73,158.67L324.14,152.89L325.41,151.80L326.21,150.33L328.91,140.60L329.10,138.94L326.94,119.83L326.55,118.47L321.33,108.98L320.12,107.66L310.14,101.59L308.50,101.10L296.40,101.14L294.91,101.52L286.24,106.79L285.64,107.25L285.20,107.87z" fill="currentColor" stroke="none" fill-opacity="1.00" fill-rule="nonzero" />
      <path d="M303.04,106.38L302.81,106.00L302.51,105.68L302.16,105.42L301.76,105.23L301.33,105.13L300.89,105.11L300.45,105.18L300.04,105.33L299.66,105.56L299.34,105.86L299.08,106.21L298.89,106.61L298.79,107.04L298.77,107.48L298.84,107.92L298.99,108.33L304.53,118.78L307.04,131.56L307.69,131.28L304.66,128.11L304.15,127.85L303.60,127.70L303.03,127.67L302.46,127.76L301.93,127.95L301.44,128.25L301.03,128.65L300.70,129.11L300.48,129.64L300.36,130.20L300.36,130.77L301.46,140.03L302.01,139.55L300.47,138.30L299.90,138.11L299.30,138.04L298.70,138.08L298.11,138.24L297.57,138.51L297.10,138.88L296.70,139.34L296.40,139.87L296.21,140.44L296.14,141.04L296.18,141.64L296.34,142.23L296.61,142.77L296.99,143.24L297.44,143.64L297.97,143.94L301.42,145.62L302.21,145.85L303.04,145.88L303.84,145.69L304.57,145.31L305.18,144.75L306.45,142.76L306.87,142.11L307.10,141.36L307.12,140.59L306.55,135.96L307.11,136.34L307.68,136.62L308.31,136.77L308.94,136.77L309.57,136.62L310.14,136.35L310.64,135.95L311.03,135.44L311.31,134.87L311.64,132.44L311.76,131.79L311.70,131.14L307.96,117.77z" fill="currentColor" stroke="none" fill-opacity="1.00" fill-rule="nonzero" />
      <path d="M110.62,226.86L109.99,227.25L109.45,227.76L109.02,228.37L108.71,229.04L108.54,229.77L108.52,230.51L108.64,231.25L108.90,231.94L109.30,232.57L109.80,233.12L110.41,233.55L111.09,233.85L111.81,234.02L112.56,234.05L113.29,233.92L113.98,233.66L131.76,224.51L148.74,219.26L165.67,215.89L178.57,214.60L179.11,214.53L179.62,214.37L180.09,214.10L180.50,213.75L180.84,213.33L181.08,212.85L181.23,212.33L181.27,211.79L181.21,211.25L181.04,210.74L180.78,210.26L180.43,209.85L180.00,209.52L179.52,209.27L179.00,209.13L178.46,209.08L165.16,208.29L147.08,212.22L129.40,217.98z" fill="currentColor" stroke="none" fill-opacity="1.00" fill-rule="nonzero" />
      <path d="M174.24,214.02L174.33,213.67L174.35,213.31L174.29,212.95L174.17,212.62L173.99,212.31L173.75,212.04L173.46,211.83L173.14,211.67L172.79,211.59L172.43,211.57L172.07,211.62L171.74,211.74L171.43,211.93L171.16,212.17L170.95,212.46L170.80,212.78L169.95,214.49L162.20,215.40L161.37,215.75L160.68,216.31L160.18,217.06L157.92,222.52L157.68,223.28L157.67,224.07L157.89,224.84L161.21,230.87L161.51,231.35L161.91,231.74L162.41,232.01L162.96,232.15L168.35,232.68L169.03,232.64L169.66,232.40L170.94,231.84L172.09,240.37L168.57,259.45L164.63,263.65L160.13,265.32L149.20,264.11L137.85,254.94L130.32,237.86L130.99,224.97L130.98,224.42L130.86,223.89L130.64,223.38L130.32,222.94L129.93,222.56L129.46,222.26L128.95,222.06L128.41,221.97L127.86,221.98L127.33,222.10L126.82,222.32L126.38,222.63L126.00,223.03L125.70,223.49L125.50,224.01L125.41,224.55L124.06,238.14L124.30,239.60L132.07,258.31L133.04,259.59L145.83,269.87L146.65,270.36L147.58,270.59L160.28,271.67L161.75,271.46L167.56,269.04L168.72,268.22L173.41,262.63L173.85,261.96L174.09,261.20L177.11,240.78L174.89,227.84L174.76,227.37L174.54,226.93L174.22,226.56L173.83,226.26L173.39,226.05L172.91,225.95L172.42,225.94L171.95,226.04L171.50,226.24L168.13,228.43L164.69,227.95L163.46,223.75L165.12,221.02L172.02,218.19L172.48,218.01L172.89,217.72L173.22,217.34L173.44,216.90z" fill="currentColor" stroke="none" fill-opacity="1.00" fill-rule="nonzero" />
      <path d="M239.49,204.47L238.78,204.77L238.15,205.21L237.61,205.76L237.19,206.40L236.91,207.12L236.77,207.87L236.78,208.64L236.94,209.40L237.24,210.10L237.68,210.74L238.23,211.27L238.87,211.69L239.59,211.98L240.34,212.12L241.11,212.11L241.86,211.95L267.48,204.21L278.93,204.88L289.88,210.03L290.94,210.33L292.04,210.41L293.13,210.25L294.16,209.88L295.09,209.29L295.89,208.53L296.50,207.61L296.91,206.59L297.10,205.51L297.07,204.41L296.80,203.34L296.32,202.35L295.64,201.48L294.79,200.78L293.82,200.26L281.61,196.06L267.02,195.61z" fill="currentColor" stroke="none" fill-opacity="1.00" fill-rule="nonzero" />
      <path d="M283.16,205.51L283.21,205.09L283.18,204.67L283.06,204.26L282.87,203.88L282.61,203.55L282.29,203.28L281.92,203.07L281.51,202.94L281.09,202.89L280.67,202.92L280.26,203.04L279.88,203.23L279.55,203.49L279.28,203.81L279.07,204.18L278.94,204.59L278.42,205.79L273.70,203.72L272.94,203.58L272.16,203.64L271.43,203.92L270.79,204.37L266.02,208.84L265.59,209.36L265.28,209.97L265.13,210.64L265.13,211.32L266.52,219.57L266.67,220.19L266.98,220.76L267.41,221.23L267.95,221.57L268.56,221.77L275.82,223.09L275.47,231.05L271.02,248.65L269.43,252.61L264.97,254.47L255.57,252.76L246.90,244.44L243.12,230.86L242.65,209.59L242.61,209.15L242.48,208.73L242.28,208.35L242.00,208.01L241.67,207.73L241.28,207.52L240.86,207.40L240.43,207.35L239.99,207.39L239.57,207.52L239.19,207.72L238.85,208.00L238.57,208.34L238.37,208.72L238.24,209.14L238.19,209.57L237.61,231.22L241.74,246.65L242.49,247.91L252.23,257.42L252.90,257.91L253.68,258.18L264.72,260.28L265.52,260.31L266.30,260.13L272.79,257.69L273.49,257.30L274.07,256.74L274.47,256.04L276.66,250.71L281.06,232.05L280.74,221.05L280.67,220.49L280.48,219.96L280.17,219.48L279.76,219.09L279.28,218.80L278.74,218.64L271.35,217.13L271.17,212.10L273.53,209.78L279.44,211.21L279.93,211.32L280.44,211.32L280.93,211.22L281.39,211.02L281.80,210.73L282.14,210.35L282.40,209.92L282.55,209.44z" fill="currentColor" stroke="none" fill-opacity="1.00" fill-rule="nonzero" />
      <path d="M238.21,180.32L237.64,180.36L237.10,180.52L236.59,180.78L236.15,181.14L235.78,181.57L235.51,182.07L235.34,182.61L235.28,183.17L235.32,183.74L235.48,184.28L235.74,184.79L236.10,185.23L236.53,185.60L237.03,185.87L237.57,186.04L238.14,186.11L252.75,186.28L268.18,188.15L280.54,190.23L280.74,190.28L280.95,190.28L281.15,190.24L281.35,190.17L281.52,190.05L281.68,189.91L281.79,189.74L281.88,189.55L281.92,189.34L281.92,189.13L281.89,188.93L281.81,188.73L281.70,188.56L281.55,188.41L281.38,188.29L281.19,188.20L269.68,182.60L253.30,180.53z" fill="currentColor" stroke="none" fill-opacity="1.00" fill-rule="nonzero" />
      <path d="M161.59,192.76L162.03,192.74L162.46,192.63L162.87,192.44L163.22,192.17L163.52,191.84L163.75,191.46L163.90,191.04L163.96,190.60L163.94,190.16L163.83,189.73L163.64,189.33L163.38,188.97L163.05,188.67L162.66,188.44L162.25,188.29L161.81,188.23L146.46,186.78L133.32,190.41L124.00,196.10L114.94,206.35L114.68,206.68L114.49,207.05L114.37,207.45L114.33,207.86L114.38,208.28L114.50,208.68L114.70,209.05L114.97,209.37L115.30,209.63L115.67,209.82L116.07,209.94L116.49,209.98L116.90,209.93L117.30,209.81L117.67,209.61L117.99,209.34L127.37,200.91L135.39,196.09L146.67,192.77z" fill="currentColor" stroke="none" fill-opacity="1.00" fill-rule="nonzero" />
      <path d="M216.46,297.69L207.86,298.20L204.62,294.04L205.01,287.80L209.10,279.85L214.53,281.05L215.50,281.14L223.66,280.41L224.02,288.00zM229.27,290.64L229.64,290.01L229.85,289.31L229.87,288.59L228.40,277.30L228.28,276.74L228.03,276.21L227.67,275.76L227.21,275.40L226.69,275.16L226.12,275.04L225.54,275.06L215.40,277.02L208.73,274.03L208.12,273.89L207.49,273.90L206.89,274.06L206.33,274.34L205.86,274.75L205.49,275.26L199.49,285.46L199.12,286.65L198.27,294.71L198.38,295.85L198.90,296.88L203.85,303.47L204.42,304.05L205.11,304.46L205.88,304.69L206.69,304.72L218.25,303.35L219.02,303.17L219.71,302.79L220.27,302.24z" fill="currentColor" stroke="none" fill-opacity="1.00" fill-rule="nonzero" />
      <path d="M44.49,222.07L44.43,221.66L44.30,221.28L44.10,220.93L43.83,220.62L43.50,220.37L43.14,220.20L42.74,220.09L42.34,220.07L41.93,220.12L41.55,220.25L41.20,220.46L40.89,220.73L40.65,221.05L40.47,221.42L40.36,221.81L40.34,222.22L40.18,235.63L34.20,251.95L13.39,277.78L12.97,278.43L12.69,279.15L12.56,279.91L12.58,280.68L12.74,281.43L13.05,282.13L13.50,282.76L14.05,283.30L14.70,283.71L15.42,283.99L16.18,284.12L16.95,284.10L17.70,283.94L18.40,283.63L19.03,283.19L19.56,282.63L40.09,255.77L45.51,236.82z" fill="currentColor" stroke="none" fill-opacity="1.00" fill-rule="nonzero" />
      <path d="M14.49,282.87L14.11,282.88L13.73,282.96L13.38,283.11L13.07,283.32L12.81,283.60L12.60,283.92L12.46,284.27L12.39,284.65L12.40,285.03L12.48,285.40L12.63,285.75L12.85,286.06L13.12,286.33L13.44,286.53L13.80,286.67L14.17,286.74L28.38,288.72L39.21,287.27L53.55,279.84L61.75,271.42L62.14,270.92L62.43,270.35L62.60,269.74L62.64,269.11L62.56,268.48L62.36,267.87L62.05,267.32L61.63,266.84L61.13,266.45L60.56,266.17L59.95,266.00L59.32,265.95L58.69,266.03L58.08,266.23L57.53,266.55L57.05,266.96L50.01,274.39L37.65,281.25L28.48,283.20z" fill="currentColor" stroke="none" fill-opacity="1.00" fill-rule="nonzero" />
      <path d="M62.47,274.74L62.48,274.61L62.46,274.49L62.42,274.37L62.35,274.26L62.27,274.17L62.16,274.09L62.05,274.04L61.93,274.01L61.80,274.00L61.68,274.02L61.56,274.06L61.45,274.13L61.36,274.21L61.28,274.31L61.23,274.43L61.20,274.55L57.27,289.93L59.60,312.51L66.28,325.27L76.65,335.26L77.20,335.68L77.81,335.99L78.48,336.17L79.16,336.21L79.84,336.12L80.49,335.90L81.09,335.56L81.60,335.11L82.02,334.57L82.33,333.95L82.51,333.29L82.55,332.61L82.46,331.92L82.24,331.27L81.90,330.68L81.45,330.16L72.13,321.41L66.18,310.89L61.91,290.25z" fill="currentColor" stroke="none" fill-opacity="1.00" fill-rule="nonzero" />
      <path d="M80.64,328.52L80.77,328.91L80.98,329.27L81.25,329.58L81.58,329.83L81.95,330.01L82.35,330.11L82.77,330.14L83.18,330.08L83.57,329.95L83.93,329.74L84.24,329.47L84.49,329.14L84.67,328.77L84.77,328.36L84.80,327.95L84.74,327.54L83.65,320.42L85.62,313.04L95.65,295.33L95.89,294.76L96.02,294.16L96.03,293.54L95.92,292.93L95.69,292.36L95.36,291.84L94.93,291.39L94.42,291.04L93.85,290.80L93.25,290.67L92.63,290.66L92.03,290.77L91.45,291.00L90.93,291.33L90.49,291.76L90.14,292.27L80.21,310.53L78.26,319.84L78.26,321.06z" fill="currentColor" stroke="none" fill-opacity="1.00" fill-rule="nonzero" />
      <path d="M100.77,292.25L100.70,291.78L100.55,291.33L100.32,290.92L100.01,290.57L99.63,290.28L99.21,290.07L98.75,289.95L98.28,289.92L97.82,289.98L97.37,290.13L96.96,290.37L96.61,290.68L96.32,291.05L96.11,291.48L95.99,291.93L95.96,292.40L95.47,302.90L95.96,304.51L99.86,311.69L107.27,318.74L119.14,324.45L119.91,324.71L120.72,324.83L121.53,324.78L122.32,324.57L123.06,324.21L123.71,323.72L124.25,323.11L124.66,322.40L124.93,321.63L125.04,320.82L124.99,320.01L124.78,319.22L124.43,318.48L123.93,317.83L123.32,317.29L122.62,316.88L112.16,312.15L105.89,307.24L101.90,301.82z" fill="currentColor" stroke="none" fill-opacity="1.00" fill-rule="nonzero" />
      <path d="M117.49,132.25L117.53,132.17L117.55,132.09L117.56,132.01L117.55,131.93L117.52,131.85L117.48,131.78L117.43,131.72L117.37,131.66L117.29,131.63L117.22,131.60L117.13,131.60L117.05,131.60L116.97,131.63L116.90,131.67L116.84,131.72L116.79,131.79L90.01,167.10L78.21,193.83L71.87,220.20L72.66,244.41L72.77,245.16L73.02,245.89L73.40,246.55L73.91,247.12L74.52,247.58L75.21,247.91L75.95,248.11L76.71,248.15L77.47,248.05L78.19,247.80L78.85,247.41L79.42,246.90L79.88,246.29L80.22,245.61L80.41,244.87L80.46,244.10L79.57,221.48L85.43,196.54L96.01,170.66z" fill="currentColor" stroke="none" fill-opacity="1.00" fill-rule="nonzero" />
      <path d="M80.72,254.08L80.66,254.02L80.59,253.97L80.52,253.94L80.44,253.92L80.36,253.92L80.28,253.94L80.20,253.97L80.14,254.01L80.08,254.07L80.03,254.13L80.00,254.21L79.98,254.29L79.98,254.37L79.99,254.45L80.02,254.52L80.07,254.59L88.19,267.93L100.52,278.12L115.97,283.89L137.90,285.77L138.67,285.74L139.43,285.56L140.13,285.24L140.76,284.78L141.29,284.21L141.69,283.55L141.96,282.83L142.09,282.06L142.06,281.29L141.88,280.53L141.55,279.83L141.10,279.20L140.53,278.67L139.87,278.27L139.14,278.00L138.38,277.87L117.79,277.07L103.88,272.68L91.59,264.85z" fill="currentColor" stroke="none" fill-opacity="1.00" fill-rule="nonzero" />
      <path d="M148.04,145.78L148.27,145.33L148.41,144.85L148.45,144.35L148.40,143.85L148.24,143.37L148.00,142.93L147.68,142.54L147.29,142.23L146.84,142.00L146.36,141.86L145.86,141.82L145.36,141.87L144.88,142.02L144.44,142.27L144.05,142.59L143.74,142.98L124.24,171.07L116.65,194.90L110.24,227.70L110.26,229.13L116.18,257.75L116.73,259.07L128.28,276.27L138.62,284.00L139.18,284.35L139.78,284.58L140.43,284.69L141.08,284.67L141.71,284.53L142.31,284.26L142.84,283.89L143.28,283.41L143.63,282.86L143.86,282.25L143.97,281.61L143.95,280.96L143.81,280.32L143.54,279.73L143.16,279.20L142.69,278.75L134.15,271.63L123.47,255.45L117.47,228.34L123.44,196.83L130.54,174.58z" fill="currentColor" stroke="none" fill-opacity="1.00" fill-rule="nonzero" />
      <path d="M155.01,128.15L155.02,128.08L155.02,128.01L155.01,127.94L154.98,127.88L154.94,127.82L154.89,127.77L154.84,127.73L154.77,127.70L154.70,127.69L154.63,127.69L154.56,127.70L154.50,127.73L154.44,127.77L154.39,127.82L154.35,127.87L154.32,127.94L146.35,147.29L146.64,174.05L154.38,194.29L155.04,195.31L168.31,209.27L168.81,209.70L169.38,210.02L170.01,210.22L170.66,210.29L171.31,210.24L171.94,210.06L172.52,209.76L173.03,209.36L173.46,208.86L173.78,208.29L173.98,207.66L174.06,207.01L174.00,206.36L173.82,205.73L173.53,205.15L173.12,204.63L160.08,191.32L152.60,173.28L150.81,148.26z" fill="currentColor" stroke="none" fill-opacity="1.00" fill-rule="nonzero" />
      <path d="M169.57,172.53L169.57,172.46L169.55,172.39L169.51,172.32L169.47,172.26L169.41,172.21L169.35,172.17L169.28,172.15L169.20,172.14L169.13,172.15L169.05,172.17L168.99,172.20L168.93,172.24L168.88,172.30L168.84,172.37L168.82,172.44L168.81,172.51L166.62,189.85L168.44,205.77L168.59,206.30L168.83,206.79L169.16,207.23L169.57,207.59L170.04,207.86L170.56,208.04L171.10,208.11L171.64,208.07L172.17,207.93L172.66,207.69L173.09,207.36L173.46,206.95L173.73,206.48L173.90,205.96L173.98,205.42L173.94,204.87L170.72,189.77z" fill="currentColor" stroke="none" fill-opacity="1.00" fill-rule="nonzero" />
      <path d="M170.65,171.94L170.63,171.87L170.60,171.82L170.56,171.76L170.50,171.72L170.44,171.69L170.38,171.67L170.31,171.66L170.24,171.67L170.18,171.69L170.12,171.72L170.07,171.76L170.03,171.82L169.99,171.88L169.97,171.94L169.97,172.01L169.97,172.08L171.91,189.61L183.49,214.03L195.42,227.94L208.62,235.42L209.18,235.65L209.78,235.78L210.39,235.78L210.99,235.67L211.56,235.44L212.07,235.10L212.51,234.67L212.85,234.16L213.09,233.60L213.22,233.00L213.22,232.39L213.11,231.79L212.88,231.22L212.54,230.71L212.11,230.27L211.60,229.93L199.64,223.51L188.50,211.01L175.58,188.59z" fill="currentColor" stroke="none" fill-opacity="1.00" fill-rule="nonzero" />
      <path d="M227.03,157.25L227.01,157.19L226.99,157.13L226.95,157.09L226.91,157.05L226.86,157.01L226.80,156.99L226.74,156.99L226.69,156.99L226.63,157.00L226.57,157.03L226.53,157.06L226.49,157.10L226.45,157.16L226.43,157.21L226.43,157.27L226.43,157.33L227.50,176.61L224.11,195.39L218.17,211.47L208.77,228.47L208.51,229.10L208.38,229.77L208.40,230.45L208.56,231.11L208.85,231.72L209.26,232.26L209.78,232.70L210.37,233.02L211.02,233.22L211.70,233.27L212.37,233.18L213.01,232.96L213.59,232.61L214.08,232.14L214.47,231.58L223.80,214.24L229.56,196.98L231.27,176.85z" fill="currentColor" stroke="none" fill-opacity="1.00" fill-rule="nonzero" />
      <path d="M227.28,131.13L227.24,131.07L227.19,131.02L227.13,130.98L227.07,130.95L227.00,130.94L226.92,130.94L226.85,130.95L226.79,130.98L226.73,131.02L226.68,131.07L226.64,131.13L226.61,131.20L226.59,131.27L226.59,131.34L226.61,131.41L226.64,131.48L234.04,149.00L235.07,173.06L230.64,198.46L222.54,215.85L222.33,216.47L222.25,217.12L222.29,217.78L222.46,218.41L222.75,219.00L223.15,219.52L223.64,219.95L224.21,220.28L224.83,220.49L225.48,220.58L226.14,220.54L226.77,220.37L227.36,220.08L227.88,219.68L228.32,219.18L228.64,218.62L236.56,200.69L240.99,173.68L238.21,148.22L237.97,147.39z" fill="currentColor" stroke="none" fill-opacity="1.00" fill-rule="nonzero" />
      <path d="M238.38,152.66L237.91,152.35L237.38,152.13L236.82,152.03L236.26,152.05L235.71,152.19L235.20,152.44L234.75,152.79L234.38,153.22L234.12,153.72L233.96,154.27L233.92,154.83L234.00,155.39L234.19,155.93L234.49,156.41L234.89,156.81L256.46,176.07L269.56,198.90L269.95,199.45L270.44,199.92L271.00,200.28L271.63,200.52L272.29,200.63L272.97,200.62L273.62,200.47L274.24,200.20L274.79,199.81L275.25,199.32L275.61,198.75L275.85,198.13L275.96,197.46L275.95,196.79L275.80,196.14L275.53,195.52L262.35,171.99z" fill="currentColor" stroke="none" fill-opacity="1.00" fill-rule="nonzero" />
      <path d="M271.65,152.16L271.40,151.88L271.10,151.65L270.77,151.49L270.41,151.39L270.03,151.37L269.66,151.42L269.31,151.54L268.99,151.73L268.71,151.97L268.48,152.27L268.32,152.61L268.22,152.97L268.20,153.34L268.25,153.71L268.37,154.07L268.56,154.39L275.21,165.46L277.27,176.99L275.90,187.65L268.33,201.06L268.05,201.67L267.92,202.32L267.91,202.99L268.05,203.64L268.32,204.26L268.72,204.80L269.21,205.24L269.79,205.58L270.43,205.79L271.09,205.86L271.76,205.79L272.39,205.58L272.97,205.25L273.47,204.80L273.86,204.26L282.07,190.39L282.50,189.06L283.50,177.19L280.96,163.70L280.45,162.50z" fill="currentColor" stroke="none" fill-opacity="1.00" fill-rule="nonzero" />
      <path d="M125.10,119.43L125.03,119.50L124.97,119.58L124.93,119.68L124.91,119.77L124.91,119.87L124.93,119.97L124.97,120.06L125.03,120.14L125.10,120.21L125.18,120.27L125.27,120.31L125.37,120.33L125.47,120.33L125.56,120.31L125.66,120.27L125.74,120.21L156.07,99.79L183.02,88.18L183.76,87.76L184.40,87.20L184.92,86.53L185.30,85.77L185.52,84.95L185.58,84.11L185.48,83.27L185.21,82.46L184.79,81.73L184.23,81.09L183.56,80.57L182.80,80.19L181.99,79.96L181.14,79.90L180.30,80.01L179.50,80.28L152.38,92.83z" fill="currentColor" stroke="none" fill-opacity="1.00" fill-rule="nonzero" />
      <path d="M169.54,109.93L169.50,110.03L169.48,110.13L169.48,110.24L169.50,110.35L169.54,110.44L169.60,110.53L169.67,110.61L169.76,110.67L169.86,110.71L169.97,110.73L170.07,110.73L170.18,110.71L170.28,110.67L170.37,110.61L170.45,110.54L170.51,110.45L186.64,87.39L186.93,86.70L187.08,85.96L187.08,85.20L186.93,84.46L186.65,83.76L186.23,83.14L185.70,82.60L185.07,82.18L184.37,81.89L183.63,81.74L182.88,81.74L182.14,81.89L181.44,82.17L180.81,82.59L180.28,83.12L179.86,83.75z" fill="currentColor" stroke="none" fill-opacity="1.00" fill-rule="nonzero" />
      <path d="M165.96,110.23L165.55,110.49L165.20,110.81L164.92,111.20L164.72,111.63L164.61,112.09L164.60,112.57L164.67,113.04L164.84,113.49L165.09,113.90L165.41,114.25L165.80,114.52L166.23,114.72L166.70,114.83L167.17,114.85L167.65,114.78L168.09,114.61L196.85,101.57L219.73,100.67L243.82,105.99L267.94,118.17L285.89,134.50L299.96,157.97L305.32,183.37L305.20,206.58L305.27,207.30L305.48,207.98L305.82,208.62L306.27,209.17L306.83,209.63L307.46,209.97L308.15,210.18L308.87,210.25L309.59,210.18L310.27,209.97L310.91,209.63L311.46,209.17L311.92,208.62L312.26,207.98L312.47,207.29L312.54,206.58L312.42,182.99L306.61,155.97L291.79,130.37L272.26,112.67L246.51,99.68L220.75,93.96L195.88,94.94L194.55,95.27z" fill="currentColor" stroke="none" fill-opacity="1.00" fill-rule="nonzero" />
      <path d="M285.04,187.01L285.03,186.96L285.00,186.92L284.96,186.88L284.92,186.85L284.87,186.83L284.82,186.82L284.77,186.81L284.72,186.82L284.67,186.84L284.63,186.87L284.59,186.90L284.56,186.94L284.54,186.99L284.52,187.04L284.52,187.09L284.53,187.14L286.86,204.16L287.87,240.91L288.33,242.39L297.41,257.15L299.30,266.23L291.59,277.59L273.85,290.90L253.43,299.47L232.20,303.01L181.83,305.12L160.31,303.10L145.28,299.25L132.98,292.63L127.41,285.00L127.00,284.53L126.50,284.15L125.94,283.87L125.33,283.71L124.71,283.67L124.09,283.75L123.50,283.95L122.95,284.26L122.48,284.67L122.10,285.17L121.82,285.73L121.66,286.33L121.61,286.96L121.70,287.58L121.90,288.17L122.21,288.72L128.04,297.07L129.12,298.03L142.28,305.56L158.81,310.00L181.43,312.07L232.70,309.88L254.96,306.25L276.98,297.25L296.20,282.72L305.63,268.75L306.03,267.94L306.19,267.06L306.11,266.17L303.51,255.23L293.99,239.80L291.37,203.70z" fill="currentColor" stroke="none" fill-opacity="1.00" fill-rule="nonzero" />
      <path d="M317.96,171.84L317.59,171.53L317.17,171.30L316.71,171.15L316.23,171.10L315.76,171.15L315.29,171.28L314.87,171.51L314.49,171.81L314.19,172.18L313.95,172.60L313.81,173.06L313.76,173.54L313.80,174.02L313.94,174.48L314.16,174.91L314.47,175.28L322.36,185.28L329.19,194.01L334.17,210.71L335.70,222.24L334.54,228.68L334.51,229.47L334.63,230.25L334.90,231.00L335.31,231.67L335.84,232.26L336.48,232.73L337.19,233.06L337.96,233.25L338.75,233.29L339.53,233.17L340.28,232.90L340.95,232.49L341.54,231.95L342.00,231.32L342.34,230.60L342.53,229.83L343.32,222.77L341.20,209.39L335.93,191.34L328.36,180.47z" fill="currentColor" stroke="none" fill-opacity="1.00" fill-rule="nonzero" />
      <path d="M333.42,230.82L333.79,231.18L334.22,231.47L334.70,231.66L335.21,231.75L335.73,231.75L336.24,231.64L336.72,231.43L337.15,231.14L337.51,230.77L337.79,230.33L337.98,229.85L338.08,229.34L338.07,228.82L337.96,228.31L337.76,227.84L337.46,227.41L331.17,218.37L325.22,213.39L324.54,212.96L323.79,212.69L322.99,212.57L322.19,212.63L321.42,212.86L320.71,213.24L320.10,213.76L319.61,214.40L319.26,215.12L319.08,215.91L317.09,228.73L306.48,241.69L306.02,242.39L305.70,243.17L305.55,244.00L305.55,244.84L305.73,245.66L306.05,246.44L306.53,247.13L307.13,247.72L307.83,248.18L308.61,248.50L309.44,248.66L310.28,248.65L311.10,248.48L311.88,248.15L312.57,247.68L313.16,247.08L324.33,233.05L325.22,230.95L324.31,219.92L325.81,223.37z" fill="currentColor" stroke="none" fill-opacity="1.00" fill-rule="nonzero" />
      <path d="M309.76,243.04L309.52,242.82L309.24,242.64L308.92,242.53L308.60,242.47L308.27,242.49L307.94,242.56L307.64,242.70L307.37,242.90L307.15,243.14L306.98,243.42L306.86,243.73L306.81,244.06L306.82,244.39L306.90,244.72L307.04,245.02L307.23,245.29L315.69,256.68L318.38,271.36L313.80,288.80L310.39,294.51L304.12,299.76L303.57,300.34L303.14,301.02L302.86,301.77L302.72,302.57L302.75,303.37L302.93,304.16L303.26,304.89L303.73,305.54L304.31,306.09L304.99,306.52L305.75,306.80L306.54,306.94L307.34,306.91L308.13,306.73L308.86,306.40L309.51,305.93L316.06,299.98L320.60,292.03L325.24,272.22L325.25,270.67L321.24,254.68L320.57,253.37z" fill="currentColor" stroke="none" fill-opacity="1.00" fill-rule="nonzero" />
      <path d="M307.29,281.12L307.20,280.74L307.03,280.38L306.80,280.06L306.51,279.79L306.17,279.59L305.80,279.45L305.41,279.39L305.02,279.41L304.63,279.50L304.28,279.67L303.96,279.90L303.69,280.19L303.48,280.53L303.35,280.90L303.29,281.29L303.30,281.68L303.74,290.41L299.69,301.14L299.56,301.80L299.55,302.47L299.67,303.13L299.92,303.76L300.29,304.32L300.76,304.80L301.32,305.18L301.94,305.44L302.60,305.58L303.27,305.59L303.93,305.46L304.56,305.21L305.12,304.84L305.60,304.37L305.98,303.82L306.24,303.20L309.25,291.48L309.35,290.26z" fill="currentColor" stroke="none" fill-opacity="1.00" fill-rule="nonzero" />
      <path d="M306.10,281.89L306.11,281.87L306.11,281.84L306.11,281.82L306.11,281.80L306.10,281.78L306.08,281.76L306.07,281.74L306.05,281.73L306.03,281.73L306.00,281.72L305.98,281.72L305.96,281.73L305.94,281.74L305.92,281.75L305.91,281.77L305.89,281.79L300.29,290.27L287.97,301.63L275.17,311.00L267.41,313.79L266.73,314.14L266.14,314.60L265.64,315.18L265.27,315.84L265.04,316.56L264.95,317.31L265.00,318.07L265.21,318.80L265.55,319.48L266.02,320.07L266.59,320.57L267.25,320.94L267.97,321.17L268.73,321.26L269.48,321.21L270.21,321.00L278.33,317.63L291.99,306.31L302.78,292.21z" fill="currentColor" stroke="none" fill-opacity="1.00" fill-rule="nonzero" />
      <path d="M160.88,311.26L160.73,311.10L160.55,310.97L160.35,310.88L160.14,310.83L159.92,310.82L159.70,310.85L159.50,310.93L159.31,311.04L159.15,311.19L159.02,311.37L158.93,311.57L158.88,311.78L158.87,312.00L158.90,312.22L158.98,312.42L159.09,312.61L163.12,320.55L163.84,321.20L164.74,321.56L182.65,325.15L184.81,341.14L183.30,349.86L179.19,354.25L172.86,352.68L167.91,347.11L167.46,346.69L166.93,346.36L166.35,346.14L165.73,346.04L165.11,346.06L164.51,346.21L163.94,346.46L163.44,346.83L163.01,347.28L162.68,347.81L162.47,348.39L162.37,349.01L162.39,349.63L162.53,350.24L162.79,350.80L163.15,351.31L168.74,357.69L169.51,358.33L170.44,358.70L179.49,360.61L180.26,360.69L181.02,360.57L181.73,360.26L182.34,359.79L188.64,353.73L189.22,352.93L189.54,351.99L191.33,341.69L187.56,322.46L187.37,321.85L187.05,321.31L186.61,320.86L186.07,320.52L185.47,320.32L166.81,316.48z" fill="currentColor" stroke="none" fill-opacity="1.00" fill-rule="nonzero" />
      <path d="M163.73,350.28L163.71,349.97L163.64,349.68L163.51,349.40L163.32,349.16L163.10,348.96L162.84,348.80L162.55,348.70L162.25,348.66L161.94,348.68L161.65,348.75L161.38,348.88L161.13,349.07L160.93,349.29L160.77,349.55L160.67,349.84L160.63,350.14L159.32,359.76L159.44,360.62L159.85,361.39L166.37,370.35L167.18,371.05L168.19,371.42L179.47,373.39L180.42,373.40L181.32,373.12L191.05,368.29L192.07,367.48L197.88,360.30L198.41,359.30L201.15,349.40L201.99,338.36L199.37,313.84L199.25,313.29L199.02,312.77L198.70,312.30L198.30,311.91L197.82,311.61L197.30,311.40L196.75,311.30L196.18,311.31L195.63,311.42L195.11,311.65L194.65,311.97L194.26,312.37L193.95,312.85L193.74,313.37L193.64,313.93L193.65,314.49L196.50,338.24L195.88,348.09L192.78,356.94L187.80,363.19L179.51,367.22L170.29,365.76L164.25,359.05z" fill="currentColor" stroke="none" fill-opacity="1.00" fill-rule="nonzero" />
      <path d="M244.50,309.31L244.60,309.12L244.65,308.92L244.67,308.72L244.64,308.51L244.58,308.32L244.47,308.14L244.34,307.98L244.18,307.85L243.99,307.76L243.79,307.70L243.59,307.69L243.38,307.71L243.18,307.78L243.00,307.88L242.85,308.02L242.72,308.18L239.38,311.01L237.02,311.89L206.71,316.51L206.04,316.70L205.42,317.04L204.91,317.52L204.52,318.11L204.29,318.77L204.21,319.47L204.20,338.60L204.57,340.06L211.37,352.72L211.85,353.39L212.48,353.91L213.23,354.24L214.04,354.37L217.60,354.33L218.45,354.23L219.23,353.90L224.00,350.95L234.20,340.06L234.54,339.62L234.78,339.13L234.93,338.59L234.96,338.04L234.89,337.50L234.72,336.98L234.44,336.50L234.08,336.08L233.64,335.75L233.15,335.50L232.62,335.36L232.07,335.32L231.52,335.39L231.00,335.57L230.52,335.84L230.11,336.20L220.59,346.11L216.87,348.33L215.76,348.61L210.52,337.76L210.16,321.97L238.41,317.34L239.39,316.99L242.26,314.80L243.06,314.02z" fill="currentColor" stroke="none" fill-opacity="1.00" fill-rule="nonzero" />
      <path d="M231.72,337.29L231.72,337.23L231.70,337.17L231.68,337.12L231.64,337.07L231.60,337.02L231.54,336.99L231.49,336.97L231.43,336.96L231.36,336.96L231.30,336.98L231.25,337.00L231.20,337.04L231.16,337.08L231.13,337.14L231.10,337.19L231.09,337.26L228.11,353.39L219.97,363.83L215.77,365.67L209.19,364.86L202.82,360.77L200.04,354.67L199.78,354.22L199.44,353.83L199.02,353.52L198.56,353.29L198.06,353.16L197.54,353.13L197.02,353.20L196.53,353.37L196.09,353.63L195.70,353.98L195.39,354.39L195.16,354.86L195.03,355.36L195.00,355.88L195.07,356.39L195.24,356.88L198.38,363.63L199.30,364.71L206.67,369.80L207.86,370.25L215.72,371.25L216.95,371.13L223.01,369.49L223.90,369.01L224.60,368.28L232.34,355.50L232.75,354.31z" fill="currentColor" stroke="none" fill-opacity="1.00" fill-rule="nonzero" />
      <path d="M161.29,314.95L161.31,314.94L161.32,314.93L161.33,314.91L161.33,314.89L161.33,314.87L161.33,314.85L161.32,314.84L161.32,314.82L161.30,314.81L161.29,314.79L161.27,314.78L161.25,314.78L161.24,314.78L161.22,314.78L161.20,314.79L161.18,314.80L147.61,320.84L123.85,325.67L123.13,325.92L122.50,326.34L121.99,326.90L121.64,327.57L121.46,328.31L121.34,332.19L121.41,333.18L121.84,334.07L142.67,363.45L161.60,379.49L183.21,389.54L201.92,392.76L202.72,392.77L203.49,392.56L215.00,387.60L239.43,373.55L240.28,372.80L258.56,349.06L266.43,331.60L270.08,314.81L270.15,314.16L270.07,313.51L269.84,312.90L269.47,312.36L268.99,311.92L268.42,311.60L267.79,311.42L242.82,307.15L242.23,307.11L241.64,307.19L241.07,307.38L240.56,307.68L240.11,308.07L239.75,308.55L239.49,309.08L239.34,309.66L239.30,310.25L239.38,310.84L239.57,311.40L239.87,311.92L240.27,312.36L240.74,312.72L241.27,312.99L241.85,313.14L263.94,316.48L260.80,329.46L253.82,345.83L235.91,368.67L212.56,382.46L202.03,387.20L185.22,384.27L164.92,375.00L147.23,359.73L126.88,331.74L127.24,331.14L149.37,326.36L150.42,325.91z" fill="currentColor" stroke="none" fill-opacity="1.00" fill-rule="nonzero" />
      <path d="M124.29,330.04L124.29,330.02L124.30,330.00L124.30,329.98L124.30,329.96L124.29,329.95L124.28,329.93L124.27,329.92L124.25,329.91L124.23,329.90L124.21,329.90L124.20,329.90L124.18,329.90L124.16,329.91L124.14,329.92L124.13,329.93L124.12,329.94L89.74,385.65L89.39,386.72L85.66,416.88L68.73,456.60L68.54,457.20L68.48,457.83L68.54,458.45L68.72,459.05L69.02,459.61L69.42,460.09L69.90,460.49L70.46,460.79L71.06,460.97L71.68,461.04L72.31,460.97L72.91,460.79L73.46,460.50L73.95,460.10L74.35,459.61L74.65,459.06L90.98,418.68L95.21,388.05z" fill="currentColor" stroke="none" fill-opacity="1.00" fill-rule="nonzero" />
      <path d="M141.61,370.95L141.61,370.81L141.59,370.67L141.54,370.54L141.46,370.42L141.36,370.32L141.25,370.24L141.12,370.19L140.98,370.16L140.84,370.15L140.71,370.18L140.58,370.23L140.46,370.31L140.36,370.40L140.28,370.52L140.22,370.65L140.19,370.78L134.97,398.85L138.42,415.08L139.01,427.55L131.02,474.05L130.98,474.65L131.05,475.25L131.25,475.82L131.55,476.34L131.94,476.79L132.42,477.16L132.96,477.43L133.54,477.59L134.15,477.63L134.74,477.55L135.32,477.36L135.84,477.06L136.29,476.66L136.66,476.18L136.93,475.64L137.08,475.06L144.67,428.23L144.74,414.58L140.37,398.98z" fill="currentColor" stroke="none" fill-opacity="1.00" fill-rule="nonzero" />
      <path d="M268.51,319.13L268.38,319.04L268.23,318.98L268.07,318.94L267.91,318.94L267.75,318.97L267.60,319.03L267.47,319.12L267.35,319.23L267.26,319.37L267.20,319.52L267.16,319.67L267.16,319.83L267.19,319.99L267.25,320.14L267.34,320.28L267.45,320.39L280.31,334.11L286.68,347.11L287.03,347.67L287.49,348.14L288.04,348.50L288.65,348.74L289.30,348.85L289.96,348.82L290.59,348.66L291.18,348.37L291.70,347.96L292.12,347.45L292.42,346.87L292.60,346.23L292.64,345.58L292.54,344.93L292.31,344.31L285.51,330.81L284.74,329.83z" fill="currentColor" stroke="none" fill-opacity="1.00" fill-rule="nonzero" />
      <path d="M254.95,363.71L254.88,363.50L254.77,363.31L254.62,363.15L254.45,363.02L254.25,362.92L254.04,362.87L253.83,362.86L253.61,362.88L253.40,362.96L253.22,363.07L253.05,363.21L252.92,363.38L252.82,363.58L252.77,363.79L252.76,364.01L252.79,364.22L255.69,385.92L256.02,386.76L256.56,387.48L257.28,388.03L267.11,393.09L293.06,402.16L302.67,403.43L303.87,403.32L314.80,400.38L316.10,399.62L321.89,393.45L342.61,383.34L367.17,366.72L382.49,350.12L383.16,348.93L387.11,335.81L387.24,335.20L387.24,334.59L387.12,333.98L386.89,333.41L386.55,332.90L386.12,332.46L385.61,332.11L385.04,331.87L384.44,331.75L383.82,331.75L383.22,331.86L382.64,332.10L382.13,332.44L381.69,332.87L381.35,333.38L381.11,333.95L377.16,346.34L363.60,362.13L339.97,378.38L319.02,388.54L312.06,394.20L302.72,397.59L294.61,396.77L269.70,388.00L261.78,382.99z" fill="currentColor" stroke="none" fill-opacity="1.00" fill-rule="nonzero" />
      <path d="M283.73,351.08L283.58,351.31L283.48,351.56L283.43,351.83L283.43,352.10L283.49,352.37L283.59,352.62L283.74,352.84L283.94,353.03L284.17,353.18L284.42,353.29L284.69,353.34L284.96,353.33L285.22,353.28L285.47,353.17L285.70,353.02L285.89,352.82L320.68,311.82L336.65,304.96L340.62,304.46L343.19,310.25L351.58,321.23L352.98,322.26L380.36,332.62L380.97,332.78L381.59,332.83L382.21,332.75L382.81,332.55L383.35,332.24L383.82,331.83L384.21,331.34L384.49,330.78L384.65,330.17L384.70,329.55L384.62,328.93L384.42,328.33L384.11,327.79L383.70,327.31L383.20,326.93L382.64,326.65L356.16,316.44L348.81,307.46L345.73,299.49L345.37,298.84L344.87,298.28L344.27,297.85L343.58,297.57L342.85,297.45L342.10,297.49L335.18,298.88L317.81,307.08L316.80,307.86z" fill="currentColor" stroke="none" fill-opacity="1.00" fill-rule="nonzero" />
      <path d="M332.08,310.29L331.90,310.15L331.71,310.05L331.49,310.00L331.27,309.98L331.05,310.01L330.84,310.08L330.65,310.18L330.48,310.33L330.34,310.50L330.24,310.70L330.19,310.91L330.17,311.14L330.20,311.35L330.27,311.57L330.37,311.76L330.52,311.93L351.12,334.32L351.84,334.83L352.66,335.12L371.53,339.13L372.18,339.19L372.83,339.13L373.46,338.94L374.03,338.63L374.54,338.22L374.96,337.71L375.27,337.13L375.46,336.51L375.52,335.86L375.46,335.20L375.27,334.58L374.96,334.00L374.55,333.49L374.04,333.08L373.46,332.77L372.84,332.58L354.77,329.19z" fill="currentColor" stroke="none" fill-opacity="1.00" fill-rule="nonzero" />
      <path d="M345.39,307.36L345.40,307.75L345.48,308.12L345.64,308.48L345.86,308.79L346.14,309.06L346.46,309.27L346.82,309.41L347.20,309.47L347.59,309.46L347.97,309.38L348.32,309.22L348.63,309.00L348.90,308.72L349.11,308.40L349.25,308.04L349.31,307.66L350.87,294.54L354.01,290.57L356.79,290.45L359.52,295.74L359.82,296.22L360.20,296.63L360.67,296.95L361.19,297.17L361.75,297.27L362.31,297.25L362.86,297.10L363.36,296.85L363.80,296.50L364.15,296.06L364.41,295.55L368.36,285.35L372.35,283.00L372.83,282.78L373.95,286.19L372.12,295.97L372.10,296.67L372.23,297.36L372.51,298.00L372.92,298.57L373.44,299.04L374.05,299.38L374.72,299.58L375.42,299.62L376.12,299.52L376.77,299.27L382.73,295.60L386.69,296.68L386.86,297.70L382.75,302.65L382.37,303.23L382.12,303.87L382.01,304.55L382.05,305.24L382.24,305.90L382.57,306.51L383.01,307.04L383.56,307.46L384.19,307.75L384.86,307.90L391.52,308.60L393.05,310.80L391.24,313.09L384.64,320.01L384.23,320.54L383.94,321.14L383.79,321.79L383.79,322.46L383.94,323.11L384.22,323.72L384.63,324.25L385.14,324.68L385.73,324.98L387.87,324.47L388.15,322.61L375.63,323.66L374.98,323.82L374.38,324.10L373.84,324.50L373.39,324.99L373.04,325.56L372.81,326.19L372.71,326.85L372.74,327.51L372.90,328.16L373.18,328.77L373.57,329.31L374.07,329.76L374.64,330.10L375.26,330.33L375.92,330.44L376.59,330.41L390.05,327.99L390.79,327.79L391.45,327.40L391.98,326.85L393.14,325.41L393.49,324.82L393.68,324.16L393.73,323.47L393.61,322.79L393.34,322.16L392.94,321.60L392.42,321.16L391.81,320.84L389.80,321.48L395.85,317.37L399.47,312.92L399.89,312.23L400.13,311.45L400.15,310.64L399.98,309.85L399.60,309.13L395.90,303.80L395.29,303.15L394.52,302.69L393.65,302.46L391.50,302.18L393.05,300.33L393.51,299.59L393.75,298.76L393.77,297.89L393.55,297.05L391.60,292.92L391.24,292.28L390.74,291.75L390.12,291.35L389.42,291.12L382.85,290.13L381.94,290.11L381.08,290.38L379.34,290.72L379.53,286.35L379.43,285.11L377.63,279.41L377.38,278.84L377.01,278.34L376.53,277.94L375.98,277.65L375.38,277.49L372.06,276.69L371.29,276.67L370.53,276.85L369.84,277.20L364.50,281.28L363.89,281.86L363.48,282.59L361.67,287.77L361.21,286.20L360.85,285.61L360.35,285.12L359.75,284.77L359.08,284.57L358.39,284.53L352.28,285.02L351.46,285.20L350.73,285.61L350.15,286.22L346.33,292.22L345.89,293.47z" fill="currentColor" stroke="none" fill-opacity="1.00" fill-rule="nonzero" />
      <path d="M270.06,394.64L270.00,394.52L269.93,394.41L269.84,394.32L269.73,394.25L269.61,394.20L269.48,394.18L269.35,394.18L269.22,394.20L269.10,394.26L268.99,394.33L268.90,394.42L268.83,394.53L268.78,394.65L268.75,394.78L268.76,394.91L268.78,395.04L270.38,405.72L269.14,426.56L270.77,444.70L275.91,455.69L286.68,469.08L287.16,469.55L287.72,469.92L288.35,470.18L289.02,470.30L289.69,470.30L290.36,470.16L290.98,469.90L291.54,469.52L292.01,469.03L292.39,468.47L292.64,467.84L292.77,467.18L292.76,466.50L292.62,465.84L292.36,465.21L291.98,464.65L281.57,452.50L277.10,443.37L274.46,426.57L275.01,405.51z" fill="currentColor" stroke="none" fill-opacity="1.00" fill-rule="nonzero" />
      <path d="M184.42,372.08L184.36,371.95L184.28,371.83L184.18,371.73L184.07,371.65L183.93,371.59L183.79,371.57L183.65,371.57L183.51,371.59L183.38,371.65L183.26,371.73L183.16,371.83L183.08,371.95L183.02,372.08L183.00,372.22L183.00,372.36L183.02,372.50L188.38,398.85L192.46,406.50L192.81,407.02L193.25,407.46L193.77,407.81L194.35,408.04L194.97,408.16L195.59,408.16L196.21,408.04L196.78,407.79L197.30,407.45L197.74,407.00L198.09,406.48L198.33,405.90L198.45,405.28L198.44,404.66L198.32,404.04L198.08,403.47L194.45,396.68z" fill="currentColor" stroke="none" fill-opacity="1.00" fill-rule="nonzero" />
      <path d="M207.39,366.37L207.37,366.14L207.30,365.93L207.20,365.73L207.05,365.56L206.88,365.42L206.68,365.31L206.46,365.25L206.24,365.22L206.01,365.25L205.80,365.31L205.60,365.42L205.43,365.56L205.29,365.74L205.18,365.94L205.12,366.15L205.10,366.38L203.43,384.48L197.66,403.52L195.39,405.72L195.00,406.21L194.71,406.76L194.54,407.36L194.48,407.98L194.55,408.60L194.74,409.19L195.04,409.74L195.44,410.22L195.93,410.61L196.48,410.90L197.08,411.07L197.70,411.13L198.32,411.06L198.91,410.87L199.46,410.57L199.94,410.17L202.64,407.30L203.40,406.00L209.11,385.69z" fill="currentColor" stroke="none" fill-opacity="1.00" fill-rule="nonzero" />
      <path d="M198.79,403.53L198.94,403.21L199.03,402.86L199.04,402.51L198.97,402.16L198.84,401.84L198.64,401.54L198.38,401.30L198.08,401.11L197.75,401.00L197.40,400.95L197.05,400.98L196.71,401.08L196.39,401.24L196.13,401.47L195.91,401.75L183.08,419.71L182.78,420.34L182.63,421.02L182.62,421.72L182.77,422.40L183.06,423.03L183.48,423.58L199.72,440.76L200.24,441.20L200.85,441.52L201.50,441.71L202.19,441.75L202.86,441.64L203.49,441.39L204.06,441.01L204.53,440.51L204.89,439.93L211.75,424.83L211.98,424.12L212.03,423.38L211.88,422.64L211.56,421.97L200.59,405.04L200.24,404.59L199.81,404.23L199.32,403.95L198.78,403.78L198.22,403.71L197.66,403.76L197.12,403.91L196.61,404.17L196.17,404.52L195.80,404.95L195.53,405.44L195.35,405.98L195.29,406.54L195.33,407.10L195.49,407.64L195.74,408.14L205.66,423.80L201.13,433.04L189.81,420.98z" fill="currentColor" stroke="none" fill-opacity="1.00" fill-rule="nonzero" />
      <path d="M193.66,400.17L196.92,402.31L192.38,410.69L180.09,420.44L186.89,431.76L202.02,444.14L215.22,424.82L212.13,414.30zM146.31,359.90L138.47,372.86L138.07,397.98L141.69,413.45L139.24,450.41L135.26,473.06L136.85,481.89L144.77,485.41L168.57,488.87L273.85,473.61L289.02,468.83L273.68,441.75L269.80,418.00L270.79,401.27L259.54,386.05L251.87,359.29L248.52,359.49L228.44,378.82L212.78,388.05L179.75,386.44L167.05,380.50z" fill-rule="evenodd" fill="currentColor" stroke="none" fill-opacity="1.00" />
      <path d="M103.90,146.76L99.65,134.59L91.71,121.39L76.10,111.73L61.18,113.16L46.34,118.14L36.68,124.21L28.04,137.48L22.74,154.22L22.68,176.68L27.31,191.02L39.67,203.60L49.37,207.27L62.25,207.07L75.27,201.58L75.78,210.73L62.80,217.79L46.63,220.24L31.67,219.92L18.35,214.24L8.43,200.99L0.79,184.22L-3.74,158.92L-0.17,125.71L9.90,103.87L15.79,96.20L34.27,82.27L55.97,71.44L66.47,69.08L80.74,69.25L98.15,78.33L104.45,84.39L117.12,109.18L120.39,122.30L120.11,130.39z" fill-rule="evenodd" fill="currentColor" stroke="none" fill-opacity="1.00" />
      <path d="M278.13,120.03L286.87,111.77L297.89,105.11L305.33,103.39L312.39,105.28L322.97,116.32L326.75,134.06L322.33,149.95L313.99,157.82L307.56,159.83L308.77,169.98L322.16,177.31L335.29,169.88L342.22,162.44L348.72,143.40L346.79,117.60L340.27,99.82L330.35,80.31L320.50,69.25L311.50,63.19L300.31,59.74L284.51,60.10L270.42,67.02L254.59,82.21L250.79,97.55L251.64,107.28z" fill-rule="evenodd" fill="currentColor" stroke="none" fill-opacity="1.00" />
      <path d="M102.03,148.32L103.69,135.60L88.94,124.99L65.28,123.59L56.87,126.10L48.19,133.29L61.56,136.33L49.52,153.26L43.61,165.91L56.98,158.38L49.74,190.55L51.08,197.15L55.37,202.68L68.50,205.02L78.99,200.18L98.72,162.31z" fill-rule="evenodd" fill="currentColor" stroke="none" fill-opacity="1.00" />
      <path d="M296.45,101.77L304.38,108.75L308.43,117.57L310.21,132.16L302.33,128.99L303.25,134.87L302.10,140.53L288.77,134.96L282.03,130.95L279.93,120.57L285.32,109.05z" fill-rule="evenodd" fill="currentColor" stroke="none" fill-opacity="1.00" />
      <path d="M101.68,27.99L102.06,28.07L102.46,28.08L102.85,28.00L103.22,27.85L103.55,27.63L103.84,27.35L104.06,27.02L104.21,26.65L104.29,26.27L104.29,25.87L104.22,25.48L104.07,25.11L103.85,24.78L103.57,24.50L103.24,24.27L102.87,24.12L95.83,20.18L94.32,20.04L83.82,21.12L82.71,21.42L81.73,22.04L73.21,27.59L72.03,29.08L71.46,30.89L70.19,42.43L70.27,44.15L70.92,45.75L74.93,51.70L76.47,53.25L82.19,56.72L84.55,57.44L110.30,58.20L111.59,59.83L111.46,61.39L99.63,71.64L86.93,71.26L85.95,71.33L85.00,71.59L84.13,72.03L83.35,72.63L82.71,73.37L82.23,74.22L81.92,75.15L81.79,76.13L81.86,77.10L82.12,78.05L82.56,78.93L83.16,79.70L83.90,80.34L84.76,80.83L85.69,81.14L86.66,81.26L101.32,81.61L102.55,81.49L103.72,81.07L104.74,80.37L119.63,67.51L120.54,66.45L121.14,65.18L121.38,63.79L121.06,58.42L120.83,56.79L120.04,55.34L116.32,50.64L115.33,49.71L114.12,49.10L112.78,48.86L86.14,47.94L82.54,45.63L80.49,41.90L81.63,34.17L85.86,28.57L94.38,27.50z" fill="currentColor" stroke="none" fill-opacity="1.00" fill-rule="nonzero" />
      <path d="M380.52,49.94L380.75,50.21L381.02,50.43L381.33,50.59L381.67,50.69L382.02,50.72L382.37,50.68L382.71,50.57L383.02,50.40L383.29,50.18L383.51,49.90L383.67,49.59L383.77,49.25L383.80,48.90L383.76,48.55L383.66,48.21L383.49,47.90L380.92,41.51L380.30,40.84L379.53,40.36L371.26,36.61L370.27,36.34L369.25,36.38L360.62,36.75L359.06,37.36L357.81,38.48L351.99,46.27L351.45,47.16L351.13,48.15L351.05,49.18L351.21,50.21L354.41,60.88L355.08,62.27L356.20,63.33L375.45,75.63L375.57,78.60L374.22,80.50L360.02,83.19L350.15,76.70L349.37,76.30L348.54,76.06L347.67,75.98L346.81,76.08L345.98,76.34L345.22,76.76L344.55,77.32L344.01,77.99L343.61,78.77L343.36,79.60L343.29,80.47L343.38,81.33L343.64,82.16L344.06,82.92L344.62,83.59L345.30,84.13L356.66,91.50L357.64,91.98L358.72,92.20L359.81,92.15L378.20,89.18L379.27,88.86L380.23,88.29L381.03,87.50L381.61,86.55L383.58,81.16L383.95,79.25L383.70,73.12L383.54,72.14L383.15,71.22L382.55,70.42L381.79,69.79L362.14,57.09L360.49,50.00L364.10,45.56L369.49,43.24L376.02,46.01z" fill="currentColor" stroke="none" fill-opacity="1.00" fill-rule="nonzero" />
      <path d="M77.75,8.44L77.45,7.85L77.04,7.33L76.54,6.90L75.96,6.58L75.33,6.38L74.67,6.30L74.01,6.35L73.37,6.53L72.78,6.83L72.26,7.24L71.84,7.75L71.51,8.33L71.31,8.96L71.23,9.62L71.29,10.28L71.47,10.91L86.01,50.67L112.64,88.33L113.24,89.01L113.95,89.56L114.76,89.96L115.64,90.19L116.54,90.25L117.43,90.13L118.29,89.84L119.07,89.38L119.75,88.79L120.29,88.07L120.69,87.26L120.92,86.39L120.98,85.49L120.86,84.59L120.57,83.74L120.12,82.96L93.98,46.95z" fill="currentColor" stroke="none" fill-opacity="1.00" fill-rule="nonzero" />
      <path d="M375.83,21.71L375.87,21.45L375.86,21.18L375.80,20.92L375.69,20.68L375.53,20.46L375.34,20.28L375.11,20.14L374.86,20.05L374.60,20.01L374.33,20.02L374.07,20.08L373.83,20.19L373.62,20.35L373.44,20.54L373.30,20.77L373.20,21.02L369.95,27.26L364.24,59.52L354.20,96.37L354.07,97.08L354.09,97.81L354.24,98.51L354.53,99.17L354.95,99.76L355.47,100.26L356.08,100.65L356.75,100.91L357.46,101.04L358.18,101.02L358.89,100.87L359.55,100.58L360.14,100.16L360.64,99.64L361.03,99.03L361.29,98.36L371.90,61.40L375.63,28.58z" fill="currentColor" stroke="none" fill-opacity="1.00" fill-rule="nonzero" />
    </g>
  </symbol>
</svg>