<?xml version='1.0' encoding='utf-8'?>
<svg xmlns="http://www.w3.org/2000/svg" version="1.1" x="0.00px" y="0.00px" width="400.00px" height="400.00px" viewBox="0.00 0.00 400.00 400.00">
  <symbol id="frame" viewBox="0.00 0.00 400.00 400.00">
    <g class="layers.drawing-primary">
      <path d="M351.11,241.23L351.01,241.14L350.90,241.07L350.78,241.01L350.65,240.99L350.52,240.99L350.39,241.01L350.27,241.06L350.16,241.14L350.06,241.23L349.99,241.34L349.94,241.46L349.91,241.59L349.91,241.73L349.94,241.86L349.99,241.98L350.06,242.09L377.45,279.47L419.29,333.26L447.80,366.57L482.71,405.59L483.18,406.02L483.72,406.35L484.32,406.57L484.96,406.67L485.59,406.64L486.21,406.49L486.79,406.22L487.31,405.84L487.74,405.37L488.07,404.83L488.29,404.23L488.39,403.59L488.36,402.96L488.21,402.33L487.94,401.76L487.56,401.24L452.74,362.32L424.64,328.98L382.27,275.64z" fill="currentColor" stroke="none" fill-opacity="1.00" fill-rule="nonzero" />
      <path d="M302.04,274.49L301.93,274.46L301.81,274.45L301.70,274.47L301.59,274.51L301.49,274.57L301.40,274.65L301.33,274.75L301.28,274.86L301.26,274.97L301.25,275.09L301.27,275.20L301.31,275.31L301.37,275.41L301.45,275.50L301.55,275.56L301.65,275.61L314.83,281.57L338.49,314.61L356.17,346.33L380.76,388.83L384.34,393.39L384.80,393.87L385.35,394.25L385.97,394.51L386.62,394.65L387.29,394.66L387.94,394.54L388.56,394.29L389.12,393.93L389.60,393.46L389.98,392.91L390.24,392.30L390.38,391.64L390.38,390.98L390.26,390.32L390.02,389.70L389.65,389.14L386.48,385.21L361.75,343.12L343.24,311.69L317.57,278.78L317.16,278.37L316.65,278.11z" fill="currentColor" stroke="none" fill-opacity="1.00" fill-rule="nonzero" />
      <path d="M314.28,183.23L314.03,183.05L313.76,182.91L313.46,182.84L313.16,182.82L312.86,182.87L312.57,182.97L312.31,183.12L312.08,183.33L311.90,183.57L311.77,183.84L311.69,184.14L311.67,184.44L311.72,184.75L311.82,185.03L311.97,185.30L312.18,185.52L323.93,196.54L331.84,212.35L342.28,239.39L346.03,246.67L346.36,247.18L346.78,247.61L347.27,247.95L347.83,248.19L348.41,248.32L349.01,248.32L349.61,248.22L350.16,247.99L350.67,247.67L351.10,247.25L351.44,246.75L351.68,246.20L351.81,245.61L351.81,245.01L351.71,244.42L351.48,243.86L347.94,236.96L336.80,210.16L326.83,194.57z" fill="currentColor" stroke="none" fill-opacity="1.00" fill-rule="nonzero" />
      <path d="M262.00,136.40L261.98,136.48L261.97,136.55L261.98,136.63L262.01,136.70L262.05,136.77L262.10,136.82L262.16,136.87L262.23,136.90L262.30,136.92L262.38,136.93L262.45,136.92L262.53,136.89L262.59,136.85L262.65,136.80L262.70,136.74L262.73,136.67L265.72,131.91L271.97,135.74L286.10,150.55L310.14,183.02L314.63,188.82L315.03,189.24L315.50,189.58L316.03,189.82L316.59,189.95L317.17,189.97L317.74,189.88L318.28,189.68L318.77,189.37L319.20,188.98L319.53,188.51L319.77,187.98L319.91,187.42L319.93,186.84L319.83,186.27L319.63,185.73L319.33,185.23L314.94,179.40L290.38,147.12L275.42,131.66L274.53,131.05L265.42,128.45L265.08,128.35L264.73,128.33L264.38,128.40L264.05,128.54L263.77,128.75L263.54,129.02L263.38,129.34z" fill="currentColor" stroke="none" fill-opacity="1.00" fill-rule="nonzero" />
      <path d="M246.56,134.82L246.57,134.91L246.60,135.00L246.65,135.07L246.70,135.14L246.77,135.19L246.85,135.23L246.94,135.26L247.03,135.26L247.11,135.25L247.20,135.23L247.28,135.18L247.34,135.12L247.40,135.05L247.44,134.97L247.46,134.89L247.47,134.80L249.51,127.70L251.49,127.63L262.38,141.59L285.66,175.86L286.03,176.31L286.49,176.67L287.00,176.94L287.56,177.11L288.14,177.16L288.72,177.10L289.28,176.93L289.79,176.65L290.24,176.28L290.61,175.82L290.88,175.31L291.04,174.75L291.10,174.17L291.03,173.59L290.86,173.03L290.58,172.52L267.27,138.09L254.50,123.92L253.84,123.38L253.04,123.11L247.11,121.92L246.53,121.90L245.96,122.01L245.42,122.24L244.94,122.58L244.55,123.01L244.26,123.52L244.09,124.08L244.04,124.66z" fill="currentColor" stroke="none" fill-opacity="1.00" fill-rule="nonzero" />
      <path d="M236.63,144.95L236.64,145.00L236.65,145.05L236.68,145.09L236.71,145.12L236.75,145.15L236.79,145.17L236.84,145.18L236.89,145.18L236.94,145.17L236.98,145.16L237.02,145.13L237.06,145.10L237.09,145.06L237.11,145.01L237.12,144.97L237.12,144.92L237.86,126.60L237.78,125.19L239.97,128.25L256.29,155.38L272.57,178.48L272.85,179.02L273.14,179.48L273.52,179.87L273.97,180.18L274.47,180.39L275.00,180.50L275.54,180.51L276.08,180.41L276.58,180.21L277.03,179.91L277.42,179.53L277.73,179.09L277.94,178.59L278.06,178.06L278.06,177.51L277.96,176.98L277.76,176.48L277.40,175.77L261.30,152.25L244.62,124.72L243.79,123.84L238.55,120.58L238.05,120.31L237.50,120.16L236.93,120.13L236.37,120.22L235.84,120.43L235.37,120.76L234.99,121.18L234.71,121.67L233.45,125.29L233.27,126.37z" fill="currentColor" stroke="none" fill-opacity="1.00" fill-rule="nonzero" />
      <path d="M240.91,184.31L240.92,184.33L240.93,184.35L240.94,184.37L240.96,184.38L240.98,184.39L241.00,184.40L241.03,184.40L241.05,184.39L241.07,184.39L241.09,184.38L241.10,184.36L241.12,184.34L241.13,184.32L241.13,184.30L241.14,184.28L241.13,184.26L240.06,167.93L234.24,145.89L233.26,139.03L233.00,139.30L239.36,149.71L252.44,170.52L259.25,183.07L259.59,183.57L260.01,184.00L260.52,184.33L261.07,184.56L261.66,184.68L262.27,184.68L262.86,184.56L263.42,184.33L263.92,184.00L264.34,183.57L264.68,183.07L264.91,182.52L265.03,181.92L265.03,181.32L264.91,180.73L264.68,180.17L257.99,167.41L244.33,146.69L237.22,134.48L236.79,133.93L236.25,133.49L235.63,133.18L234.94,133.02L234.25,133.02L229.77,133.78L229.16,133.93L228.59,134.21L228.09,134.61L227.70,135.11L227.44,135.68L227.31,136.30L227.32,136.94L228.54,146.84L234.79,169.19z" fill="currentColor" stroke="none" fill-opacity="1.00" fill-rule="nonzero" />
      <path d="M247.30,240.02L247.31,240.19L247.35,240.36L247.43,240.51L247.53,240.65L247.65,240.76L247.80,240.85L247.96,240.91L248.13,240.93L248.30,240.92L248.46,240.88L248.62,240.81L248.75,240.71L248.87,240.58L248.96,240.43L249.01,240.27L249.04,240.10L252.23,210.41L249.39,188.61L252.05,183.04L253.33,183.18L256.93,191.39L262.64,214.92L267.23,235.05L267.41,235.61L267.70,236.13L268.08,236.57L268.54,236.94L269.06,237.21L269.63,237.37L270.21,237.41L270.80,237.34L271.36,237.16L271.87,236.88L272.32,236.50L272.68,236.04L272.95,235.51L273.11,234.95L273.16,234.36L273.09,233.78L268.87,213.52L262.94,189.63L258.28,178.98L257.85,178.28L257.25,177.71L256.51,177.32L255.70,177.14L250.44,176.72L249.69,176.75L248.98,176.96L248.33,177.33L247.79,177.84L247.39,178.48L243.48,186.85L243.22,187.72L243.22,188.62L247.02,210.42z" fill="currentColor" stroke="none" fill-opacity="1.00" fill-rule="nonzero" />
      <path d="M301.05,274.18L301.26,274.19L301.47,274.16L301.68,274.09L301.86,273.98L302.02,273.84L302.15,273.67L302.25,273.48L302.30,273.27L302.31,273.05L302.28,272.84L302.21,272.64L302.10,272.45L301.96,272.29L301.79,272.16L301.60,272.07L301.39,272.02L290.49,268.63L272.79,257.70L259.93,245.92L254.48,238.70L254.08,238.27L253.60,237.92L253.06,237.67L252.49,237.53L251.89,237.50L251.31,237.60L250.75,237.80L250.24,238.11L249.81,238.51L249.46,238.99L249.21,239.53L249.07,240.11L249.05,240.70L249.14,241.29L249.34,241.84L249.65,242.35L255.26,249.78L268.81,262.48L288.14,273.61L289.12,273.96z" fill="currentColor" stroke="none" fill-opacity="1.00" fill-rule="nonzero" />
      <path d="M89.48,377.73L89.48,377.64L89.47,377.55L89.44,377.47L89.39,377.40L89.33,377.33L89.26,377.28L89.18,377.24L89.10,377.22L89.01,377.21L88.92,377.23L88.84,377.26L88.76,377.30L88.70,377.36L88.64,377.43L88.61,377.51L88.58,377.60L80.49,416.68L69.20,540.68L69.36,548.94L69.45,549.64L69.68,550.30L70.03,550.91L70.50,551.44L71.05,551.86L71.68,552.18L72.36,552.36L73.06,552.40L73.76,552.31L74.43,552.08L75.03,551.73L75.56,551.27L75.99,550.71L76.30,550.08L76.48,549.40L76.53,548.70L76.18,541.06L85.76,417.38z" fill="currentColor" stroke="none" fill-opacity="1.00" fill-rule="nonzero" />
      <path d="M-25.08,348.08L-25.08,347.95L-25.10,347.82L-25.14,347.70L-25.21,347.59L-25.30,347.49L-25.40,347.42L-25.52,347.36L-25.65,347.33L-25.78,347.33L-25.91,347.35L-26.03,347.39L-26.14,347.46L-26.24,347.55L-26.32,347.65L-26.37,347.77L-26.40,347.90L-37.47,418.30L-35.77,472.77L-25.49,511.18L-25.33,511.59L-25.10,511.96L-24.80,512.27L-24.44,512.52L-24.04,512.70L-23.61,512.80L-23.17,512.81L-22.74,512.73L-22.33,512.58L-21.96,512.34L-21.64,512.04L-21.39,511.68L-21.22,511.28L-21.12,510.85L-21.11,510.42L-21.18,509.99L-31.87,472.41L-33.86,418.65z" fill="currentColor" stroke="none" fill-opacity="1.00" fill-rule="nonzero" />
      <path d="M340.27,403.99L340.31,403.94L340.34,403.88L340.36,403.82L340.37,403.76L340.37,403.69L340.35,403.63L340.32,403.57L340.28,403.52L340.23,403.47L340.18,403.44L340.11,403.42L340.05,403.41L339.98,403.42L339.92,403.43L339.86,403.46L339.81,403.50L313.51,425.64L257.40,451.01L221.43,460.32L220.86,460.53L220.34,460.85L219.90,461.26L219.54,461.75L219.29,462.31L219.15,462.90L219.13,463.50L219.22,464.10L219.43,464.67L219.75,465.19L220.16,465.63L220.65,465.99L221.20,466.24L221.79,466.38L222.40,466.40L223.00,466.31L259.17,456.70L315.76,429.60z" fill="currentColor" stroke="none" fill-opacity="1.00" fill-rule="nonzero" />
      <path d="M253.78,358.37L253.81,358.26L253.82,358.15L253.81,358.04L253.78,357.93L253.73,357.83L253.66,357.74L253.58,357.67L253.48,357.61L253.37,357.58L253.26,357.57L253.15,357.58L253.04,357.61L252.94,357.66L252.85,357.73L252.78,357.81L252.72,357.91L233.16,400.66L190.84,451.53L183.41,455.84L183.00,456.16L182.65,456.55L182.39,456.99L182.22,457.48L182.15,458.00L182.18,458.52L182.31,459.02L182.54,459.49L182.85,459.90L183.24,460.25L183.69,460.51L184.18,460.68L184.70,460.75L185.21,460.72L185.72,460.59L186.19,460.37L193.75,455.48L235.75,402.47z" fill="currentColor" stroke="none" fill-opacity="1.00" fill-rule="nonzero" />
      <path d="M482.87,397.01L482.85,396.99L482.83,396.98L482.81,396.97L482.79,396.97L482.77,396.97L482.75,396.97L482.72,396.98L482.71,396.99L482.69,397.01L482.68,397.03L482.67,397.05L482.66,397.07L482.66,397.09L482.67,397.11L482.68,397.13L482.69,397.15L520.63,446.71L533.25,481.80L505.06,519.21L484.50,522.12L483.88,522.27L483.30,522.54L482.79,522.91L482.36,523.38L482.03,523.92L481.81,524.52L481.71,525.15L481.74,525.78L481.89,526.40L482.15,526.98L482.53,527.49L483.00,527.92L483.54,528.26L484.14,528.47L484.77,528.57L485.40,528.55L507.32,525.47L508.14,525.24L508.88,524.80L509.47,524.19L539.04,484.06L539.41,483.41L539.60,482.68L539.61,481.93L539.44,481.20L524.81,444.72z" fill="currentColor" stroke="none" fill-opacity="1.00" fill-rule="nonzero" />
      <path d="M479.94,396.67L479.74,396.41L479.49,396.19L479.20,396.02L478.89,395.92L478.56,395.87L478.24,395.89L477.92,395.98L477.62,396.12L477.36,396.32L477.14,396.57L476.98,396.86L476.87,397.17L476.83,397.49L476.85,397.82L476.93,398.14L477.08,398.44L498.91,436.96L506.47,490.82L503.96,505.17L503.91,505.80L503.99,506.43L504.18,507.03L504.49,507.59L504.91,508.07L505.40,508.46L505.97,508.75L506.58,508.92L507.21,508.97L507.84,508.89L508.45,508.70L509.00,508.38L509.48,507.97L509.87,507.47L510.16,506.91L510.33,506.30L513.00,491.45L505.52,435.33L505.04,434.01z" fill="currentColor" stroke="none" fill-opacity="1.00" fill-rule="nonzero" />
      <path d="M378.20,393.26L377.89,393.19L377.57,393.19L377.26,393.24L376.97,393.36L376.70,393.53L376.48,393.75L376.30,394.01L376.17,394.30L376.10,394.61L376.10,394.92L376.15,395.23L376.27,395.53L376.44,395.79L376.66,396.02L376.92,396.20L377.21,396.33L405.77,406.43L433.44,439.56L458.53,478.00L501.32,517.05L501.88,517.46L502.51,517.76L503.18,517.92L503.88,517.95L504.56,517.85L505.22,517.61L505.81,517.25L506.32,516.78L506.73,516.22L507.03,515.59L507.19,514.92L507.22,514.22L507.12,513.54L506.88,512.88L506.52,512.29L506.05,511.78L463.56,474.20L438.23,436.18L409.05,402.73L407.94,401.99z" fill="currentColor" stroke="none" fill-opacity="1.00" fill-rule="nonzero" />
      <path d="M360.10,488.87L360.05,488.83L360.00,488.80L359.94,488.79L359.88,488.78L359.82,488.79L359.76,488.81L359.71,488.84L359.67,488.88L359.63,488.93L359.60,488.98L359.59,489.04L359.58,489.10L359.59,489.16L359.61,489.22L359.64,489.27L359.68,489.32L373.09,504.83L374.18,505.42L475.83,531.72L478.09,531.85L478.80,531.79L479.48,531.59L480.11,531.26L480.66,530.81L481.11,530.27L481.45,529.64L481.67,528.97L481.74,528.26L481.68,527.55L481.48,526.87L481.15,526.25L480.70,525.69L480.16,525.24L479.53,524.90L478.86,524.69L478.15,524.61L477.14,524.65L375.97,500.83z" fill="currentColor" stroke="none" fill-opacity="1.00" fill-rule="nonzero" />
      <path d="M369.37,432.00L369.45,431.73L369.48,431.46L369.45,431.18L369.37,430.91L369.24,430.67L369.07,430.45L368.85,430.28L368.61,430.14L368.34,430.06L368.07,430.03L367.79,430.06L367.52,430.14L367.28,430.27L367.06,430.44L366.88,430.66L366.75,430.90L340.59,489.37L329.73,575.69L328.40,582.06L328.32,582.78L328.39,583.50L328.60,584.20L328.93,584.84L329.39,585.41L329.95,585.87L330.59,586.22L331.28,586.44L332.00,586.51L332.73,586.45L333.42,586.24L334.07,585.90L334.63,585.44L335.10,584.89L335.44,584.25L335.66,583.55L336.99,577.02L346.22,491.28z" fill="currentColor" stroke="none" fill-opacity="1.00" fill-rule="nonzero" />
      <path d="M374.14,406.80L374.22,406.64L374.27,406.47L374.28,406.29L374.26,406.11L374.20,405.95L374.12,405.79L374.00,405.66L373.86,405.55L373.70,405.47L373.52,405.42L373.35,405.41L373.17,405.43L373.00,405.49L372.84,405.57L372.71,405.69L372.60,405.83L314.48,493.59L296.50,526.48L296.23,527.13L296.09,527.82L296.08,528.52L296.22,529.21L296.48,529.87L296.87,530.46L297.37,530.96L297.95,531.35L298.60,531.63L299.29,531.77L300.00,531.77L300.69,531.64L301.34,531.37L301.93,530.98L302.43,530.49L302.83,529.90L320.38,497.17z" fill="currentColor" stroke="none" fill-opacity="1.00" fill-rule="nonzero" />
      <path d="M211.55,306.76L211.40,306.74L211.25,306.74L211.10,306.77L210.96,306.83L210.84,306.92L210.73,307.03L210.65,307.16L210.59,307.31L210.57,307.46L210.57,307.61L210.61,307.76L210.67,307.90L210.76,308.02L210.87,308.13L211.00,308.21L211.14,308.27L273.59,328.08L304.62,338.53L333.27,353.74L354.48,363.57L355.09,363.80L355.73,363.90L356.37,363.87L357.00,363.72L357.58,363.44L358.10,363.06L358.54,362.59L358.87,362.04L359.10,361.43L359.20,360.80L359.17,360.15L359.02,359.53L358.74,358.94L358.36,358.42L357.89,357.98L357.34,357.65L336.56,347.25L307.39,332.62L275.54,321.99z" fill="currentColor" stroke="none" fill-opacity="1.00" fill-rule="nonzero" />
      <path d="M65.97,371.97L65.97,371.80L65.93,371.63L65.86,371.47L65.76,371.33L65.63,371.21L65.49,371.12L65.33,371.06L65.16,371.03L64.98,371.03L64.81,371.07L64.66,371.14L64.52,371.24L64.40,371.36L64.30,371.51L64.24,371.67L64.21,371.84L54.13,468.98L42.08,556.97L42.05,557.73L42.17,558.49L42.44,559.21L42.84,559.86L43.37,560.42L43.99,560.87L44.69,561.19L45.43,561.36L46.20,561.39L46.96,561.27L47.67,561.00L48.33,560.60L48.89,560.08L49.34,559.45L49.65,558.76L49.83,558.01L61.46,469.86z" fill="currentColor" stroke="none" fill-opacity="1.00" fill-rule="nonzero" />
      <path d="M26.12,307.58L26.32,307.38L26.47,307.14L26.58,306.87L26.63,306.59L26.62,306.31L26.56,306.03L26.45,305.77L26.29,305.54L26.09,305.34L25.85,305.18L25.58,305.08L25.30,305.03L25.02,305.03L24.74,305.09L24.48,305.20L24.25,305.37L12.82,313.64L-14.93,318.31L-41.23,334.00L-42.27,335.02L-80.60,394.52L-125.14,491.28L-138.31,541.17L-138.42,541.84L-138.39,542.51L-138.24,543.17L-137.96,543.78L-137.56,544.33L-137.07,544.78L-136.49,545.14L-135.86,545.37L-135.20,545.48L-134.52,545.45L-133.87,545.30L-133.26,545.02L-132.71,544.62L-132.25,544.13L-131.90,543.55L-131.66,542.92L-118.77,493.87L-75.15,397.77L-37.12,339.24L-13.26,324.17L14.40,318.48L15.57,317.92z" fill="currentColor" stroke="none" fill-opacity="1.00" fill-rule="nonzero" />
      <path d="M190.97,354.86L191.21,355.26L191.53,355.61L191.91,355.89L192.33,356.09L192.78,356.20L193.25,356.22L193.72,356.15L194.16,356.00L194.56,355.75L194.91,355.44L195.19,355.06L195.39,354.64L195.50,354.18L195.52,353.72L195.45,353.25L195.29,352.81L187.57,335.09L186.51,333.87L171.33,323.31L170.31,322.86L169.21,322.75L153.72,323.39L152.50,323.67L151.44,324.33L128.20,345.33L89.08,364.07L74.36,364.02L73.69,364.09L73.06,364.28L72.47,364.59L71.95,365.01L71.53,365.53L71.22,366.11L71.02,366.75L70.96,367.41L71.02,368.08L71.22,368.71L71.53,369.30L71.95,369.81L72.46,370.24L73.05,370.55L73.69,370.74L74.35,370.81L89.84,370.79L91.29,370.46L131.55,351.25L155.50,330.90L168.49,329.72L182.49,338.43z" fill="currentColor" stroke="none" fill-opacity="1.00" fill-rule="nonzero" />
      <path d="M180.01,268.14L179.90,268.01L179.76,267.91L179.61,267.84L179.45,267.79L179.28,267.78L179.11,267.80L178.95,267.86L178.80,267.94L178.67,268.05L178.57,268.19L178.49,268.34L178.45,268.51L178.44,268.68L178.46,268.85L178.51,269.01L178.60,269.15L195.84,296.46L202.91,319.47L198.06,344.39L192.68,354.26L192.45,354.78L192.33,355.34L192.32,355.91L192.42,356.47L192.62,357.00L192.93,357.49L193.33,357.90L193.80,358.22L194.32,358.45L194.88,358.58L195.45,358.59L196.01,358.49L196.54,358.28L197.02,357.97L197.44,357.58L197.76,357.11L203.60,346.96L209.62,319.94L209.52,318.21L200.93,294.32z" fill="currentColor" stroke="none" fill-opacity="1.00" fill-rule="nonzero" />
      <path d="M181.65,264.15L181.69,263.86L181.67,263.57L181.59,263.28L181.46,263.02L181.28,262.79L181.06,262.60L180.81,262.45L180.53,262.36L180.24,262.32L179.95,262.34L179.66,262.42L179.40,262.55L179.17,262.73L178.98,262.95L178.83,263.20L178.74,263.48L173.85,280.14L140.01,322.92L122.98,338.03L94.02,357.48L81.35,361.49L80.68,361.76L80.07,362.17L79.56,362.68L79.15,363.29L78.88,363.96L78.73,364.67L78.73,365.40L78.87,366.11L79.15,366.78L79.56,367.39L80.07,367.90L80.67,368.31L81.34,368.58L82.06,368.73L82.78,368.73L83.50,368.59L96.82,364.73L127.50,344.25L145.01,327.94L178.21,282.77L178.66,281.81z" fill="currentColor" stroke="none" fill-opacity="1.00" fill-rule="nonzero" />
      <path d="M176.97,238.99L177.00,238.56L176.94,238.13L176.80,237.73L176.59,237.35L176.31,237.03L175.96,236.77L175.58,236.58L175.16,236.47L174.73,236.44L174.31,236.49L173.90,236.63L173.53,236.85L173.20,237.13L172.94,237.47L172.75,237.86L172.64,238.27L167.38,261.25L167.35,262.27L167.61,263.26L168.14,264.14L176.78,274.65L177.26,275.15L177.84,275.53L178.47,275.80L179.15,275.94L179.84,275.95L180.52,275.82L181.16,275.56L181.73,275.18L182.23,274.70L182.62,274.13L182.89,273.49L183.03,272.82L183.03,272.13L182.90,271.45L182.64,270.81L182.26,270.23L174.84,260.83z" fill="currentColor" stroke="none" fill-opacity="1.00" fill-rule="nonzero" />
      <path d="M32.12,329.07L31.90,328.78L31.62,328.53L31.31,328.35L30.96,328.23L30.60,328.18L30.23,328.20L29.87,328.29L29.54,328.45L29.25,328.67L29.01,328.94L28.82,329.26L28.70,329.60L28.65,329.97L28.67,330.33L28.76,330.69L28.92,331.02L42.81,355.77L43.69,356.68L55.71,364.85L56.39,365.19L57.14,365.35L57.90,365.32L66.96,363.87L67.55,363.71L68.09,363.44L68.58,363.07L68.98,362.61L69.29,362.08L69.48,361.50L69.56,360.89L69.52,360.28L69.37,359.69L69.10,359.15L68.72,358.66L68.27,358.26L67.74,357.95L67.16,357.76L66.55,357.68L65.94,357.72L58.09,359.05L47.40,352.22z" fill="currentColor" stroke="none" fill-opacity="1.00" fill-rule="nonzero" />
      <path d="M49.38,280.48L49.39,280.46L49.40,280.43L49.40,280.41L49.39,280.39L49.39,280.37L49.38,280.35L49.36,280.33L49.35,280.32L49.33,280.31L49.30,280.30L49.28,280.30L49.26,280.30L49.24,280.31L49.22,280.32L49.20,280.33L49.19,280.35L33.81,299.57L13.57,320.36L-3.03,336.78L-3.40,337.24L-3.67,337.76L-3.83,338.33L-3.87,338.92L-3.79,339.50L-3.59,340.05L-3.29,340.56L-2.89,340.99L-2.41,341.33L-1.87,341.56L8.07,344.99L9.60,345.08L22.34,342.41L23.26,342.06L24.00,341.42L30.86,333.55L31.48,332.36L31.67,331.33L31.77,330.74L31.75,330.15L31.61,329.57L31.36,329.03L31.01,328.54L30.58,328.14L30.07,327.82L29.51,327.62L28.93,327.52L28.33,327.54L27.75,327.68L27.21,327.92L26.72,328.27L26.32,328.71L26.00,329.22L25.80,329.77L25.70,330.13L20.24,336.96L9.21,338.88L4.37,337.52L17.38,324.10L37.32,302.62z" fill="currentColor" stroke="none" fill-opacity="1.00" fill-rule="nonzero" />
      <path d="M56.48,283.02L56.49,283.00L56.49,282.98L56.48,282.95L56.47,282.93L56.46,282.92L56.45,282.90L56.43,282.89L56.41,282.88L56.38,282.87L56.36,282.87L56.34,282.88L56.32,282.89L56.30,282.90L56.29,282.92L56.27,282.93L56.26,282.96L46.30,306.50L46.25,308.00L51.54,333.73L71.27,370.53L72.35,371.75L74.49,373.20L75.10,373.55L75.76,373.77L76.46,373.86L77.15,373.81L77.83,373.63L78.46,373.32L79.01,372.89L79.47,372.37L79.82,371.76L80.04,371.10L80.13,370.40L80.09,369.71L79.91,369.03L79.60,368.40L79.17,367.85L78.64,367.39L77.18,366.37L58.07,331.78L52.25,307.46z" fill="currentColor" stroke="none" fill-opacity="1.00" fill-rule="nonzero" />
      <path d="M132.30,165.39L137.44,164.19L144.40,163.56L160.41,163.69L168.20,164.80L176.06,166.92L177.60,157.28L162.05,149.36L148.60,143.14L140.08,139.89z" fill-rule="evenodd" fill="currentColor" stroke="none" fill-opacity="1.00" />
      <path d="M59.11,134.97L57.87,141.77L59.09,148.49L66.14,146.20L74.58,144.42L83.16,145.28L87.93,146.16L88.61,137.94L86.45,134.19L73.97,135.68L60.88,135.35L57.03,134.78z" fill-rule="evenodd" fill="currentColor" stroke="none" fill-opacity="1.00" />
      <path d="M31.33,135.76L31.31,135.77L31.29,135.78L31.27,135.79L31.26,135.81L31.25,135.83L31.24,135.86L31.24,135.88L31.25,135.91L31.26,135.93L31.27,135.95L31.28,135.97L31.30,135.98L31.33,135.99L31.35,135.99L31.37,136.00L31.40,135.99L43.88,135.13L59.02,132.48L60.80,132.47L61.33,132.40L61.83,132.23L62.29,131.96L62.69,131.61L63.02,131.19L63.25,130.71L63.39,130.19L63.42,129.66L63.35,129.14L63.17,128.63L62.91,128.17L62.55,127.77L62.13,127.45L61.65,127.22L61.14,127.08L60.61,127.05L58.63,127.17L42.87,130.23z" fill="currentColor" stroke="none" fill-opacity="1.00" fill-rule="nonzero" />
      <path d="M96.21,124.93L95.95,124.86L95.69,124.85L95.43,124.89L95.18,124.98L94.95,125.11L94.75,125.29L94.59,125.50L94.48,125.74L94.41,126.00L94.40,126.27L94.44,126.53L94.53,126.78L94.66,127.01L94.84,127.21L95.05,127.36L95.29,127.48L102.68,131.60L119.32,134.67L128.37,138.87L128.97,139.08L129.59,139.17L130.21,139.13L130.82,138.97L131.38,138.70L131.89,138.33L132.30,137.86L132.62,137.32L132.83,136.73L132.92,136.10L132.88,135.48L132.72,134.87L132.45,134.31L132.07,133.81L131.61,133.39L131.06,133.07L121.60,128.68L104.28,126.37z" fill="currentColor" stroke="none" fill-opacity="1.00" fill-rule="nonzero" />
      <path d="M42.82,224.48L42.79,224.51L42.77,224.53L42.75,224.56L42.74,224.59L42.74,224.62L42.74,224.66L42.75,224.69L42.77,224.72L42.79,224.74L42.81,224.76L42.84,224.78L42.88,224.79L42.91,224.79L42.94,224.79L42.97,224.78L43.00,224.76L52.88,219.54L61.26,220.96L77.15,227.24L84.52,232.33L84.69,232.43L84.88,232.49L85.07,232.51L85.27,232.50L85.46,232.45L85.63,232.36L85.79,232.24L85.92,232.09L86.01,231.92L86.08,231.73L86.10,231.54L86.09,231.34L86.03,231.15L85.94,230.97L85.82,230.82L85.67,230.69L78.29,225.39L62.04,218.66L52.82,217.00L52.51,216.98L52.20,217.05L51.92,217.19z" fill="currentColor" stroke="none" fill-opacity="1.00" fill-rule="nonzero" />
      <path d="M42.13,229.60L42.10,229.56L42.07,229.53L42.04,229.51L42.00,229.50L41.96,229.49L41.91,229.49L41.87,229.50L41.84,229.52L41.80,229.55L41.77,229.58L41.75,229.61L41.74,229.65L41.73,229.69L41.73,229.73L41.74,229.78L41.76,229.81L49.02,243.31L49.17,243.49L49.36,243.63L56.13,247.32L56.41,247.42L56.71,247.43L72.03,246.24L72.42,246.14L72.76,245.93L82.67,237.65L84.51,234.48L84.61,234.26L84.67,234.02L84.68,233.78L84.65,233.53L84.56,233.30L84.43,233.09L84.27,232.91L84.07,232.77L83.85,232.66L83.61,232.60L83.36,232.59L83.12,232.63L82.89,232.71L82.68,232.84L82.50,233.01L82.35,233.21L80.74,235.71L71.35,243.61L56.81,245.31L50.35,242.23z" fill="currentColor" stroke="none" fill-opacity="1.00" fill-rule="nonzero" />
      <path d="M43.34,227.40L43.25,227.41L43.17,227.44L43.10,227.49L43.04,227.55L42.99,227.61L42.95,227.69L42.93,227.77L42.93,227.86L42.94,227.94L42.97,228.02L43.02,228.10L43.08,228.16L43.14,228.21L43.22,228.24L43.30,228.26L43.39,228.27L57.36,229.10L75.34,231.69L80.51,234.04L81.00,234.18L81.52,234.23L82.03,234.17L82.52,234.01L82.98,233.76L83.37,233.43L83.69,233.03L83.93,232.57L84.08,232.07L84.12,231.55L84.06,231.04L83.91,230.55L83.66,230.10L83.32,229.70L82.92,229.38L82.46,229.14L76.82,227.17L57.70,224.89z" fill="currentColor" stroke="none" fill-opacity="1.00" fill-rule="nonzero" />
      <path d="M42.88,227.89L42.75,227.81L42.62,227.75L42.47,227.72L42.32,227.72L42.17,227.74L42.04,227.80L41.91,227.88L41.80,227.98L41.72,228.11L41.66,228.24L41.63,228.39L41.63,228.54L41.65,228.69L41.71,228.83L41.79,228.95L41.89,229.06L48.19,236.02L58.73,240.76L59.67,240.93L71.23,240.81L82.43,236.90L82.88,236.68L83.29,236.37L83.63,235.99L83.89,235.55L84.05,235.07L84.12,234.57L84.10,234.06L83.97,233.57L83.75,233.11L83.44,232.71L83.06,232.37L82.62,232.11L82.14,231.94L81.64,231.87L81.13,231.90L80.64,232.03L70.67,235.73L60.02,236.29L50.55,232.73z" fill="currentColor" stroke="none" fill-opacity="1.00" fill-rule="nonzero" />
      <path d="M65.69,197.93L65.66,198.03L65.65,198.14L65.66,198.25L65.69,198.35L65.74,198.45L65.81,198.53L65.90,198.60L65.99,198.65L66.09,198.68L66.20,198.69L66.31,198.68L66.41,198.65L66.51,198.60L66.59,198.53L66.66,198.45L66.71,198.35L69.84,193.86L72.75,194.00L76.05,197.74L76.30,197.97L76.59,198.15L76.91,198.28L77.24,198.33L77.59,198.32L77.92,198.25L78.23,198.11L78.51,197.91L78.74,197.66L78.92,197.37L79.04,197.05L79.10,196.72L79.09,196.38L79.01,196.04L78.88,195.73L78.68,195.45L74.93,191.09L74.56,190.77L74.12,190.56L73.65,190.48L68.76,190.37L68.34,190.40L67.94,190.54L67.59,190.76L67.31,191.07L67.10,191.43z" fill="currentColor" stroke="none" fill-opacity="1.00" fill-rule="nonzero" />
      <path d="M48.87,196.70L48.86,196.72L48.85,196.74L48.84,196.76L48.84,196.79L48.85,196.81L48.85,196.83L48.87,196.85L48.88,196.87L48.90,196.89L48.92,196.90L48.94,196.90L48.97,196.90L48.99,196.90L49.01,196.89L49.04,196.88L49.05,196.87L54.59,192.85L58.38,196.20L58.99,196.56L59.33,196.70L59.70,196.77L60.07,196.76L60.43,196.68L60.77,196.52L61.07,196.29L61.31,196.01L61.49,195.69L61.60,195.33L61.63,194.96L61.58,194.59L61.46,194.23L61.26,193.92L61.01,193.64L60.70,193.43L60.46,193.30L55.32,189.72L55.06,189.56L54.77,189.45L54.46,189.41L54.15,189.44L53.86,189.53L53.59,189.68L53.36,189.88z" fill="currentColor" stroke="none" fill-opacity="1.00" fill-rule="nonzero" />
      <path d="M77.29,153.55L77.29,153.48L77.28,153.41L77.26,153.35L77.23,153.29L77.18,153.23L77.12,153.19L77.06,153.16L76.99,153.14L76.92,153.14L76.85,153.15L76.79,153.17L76.73,153.20L76.67,153.25L76.63,153.31L76.60,153.37L76.58,153.44L71.90,170.77L71.91,171.53L72.18,172.24L79.18,185.84L80.68,193.93L79.82,195.33L79.61,195.89L79.52,196.48L79.54,197.08L79.69,197.66L79.94,198.20L80.29,198.68L80.73,199.09L81.24,199.40L81.80,199.60L82.39,199.69L82.99,199.67L83.57,199.53L84.11,199.28L84.60,198.92L85.00,198.48L85.31,197.97L86.38,195.69L86.64,194.83L86.64,193.93L85.31,184.28L84.90,183.14L76.32,170.69z" fill="currentColor" stroke="none" fill-opacity="1.00" fill-rule="nonzero" />
      <path d="M60.33,92.61L83.74,84.62L118.96,80.33L148.78,88.65L166.32,103.05L168.47,114.33L171.02,126.70L178.33,140.72L177.99,161.81L190.35,165.08L200.65,159.77L205.37,114.96L197.13,94.42L182.79,73.10L158.25,57.66L133.40,52.69L106.21,52.61L75.62,65.24L60.25,79.18L53.54,91.44L56.99,93.80z" fill-rule="evenodd" fill="currentColor" stroke="none" fill-opacity="1.00" />
      <path d="M36.80,127.92L36.79,127.95L36.78,127.97L36.78,127.99L36.79,128.02L36.79,128.04L36.81,128.06L36.82,128.08L36.84,128.09L36.86,128.10L36.89,128.11L36.91,128.11L36.93,128.10L36.96,128.09L36.98,128.08L36.99,128.06L37.01,128.05L47.99,112.56L60.72,95.22L73.96,90.12L103.54,86.02L120.36,86.46L143.83,92.77L165.00,108.06L167.22,111.04L167.99,125.41L168.20,126.30L168.65,127.09L175.94,136.93L177.89,146.20L175.67,165.01L175.66,165.66L175.77,166.30L176.02,166.90L176.39,167.44L176.87,167.89L177.42,168.23L178.04,168.45L178.68,168.54L179.33,168.49L179.96,168.30L180.53,167.99L181.03,167.57L181.43,167.05L181.71,166.46L181.86,165.83L184.70,146.53L182.55,134.76L181.90,133.33L174.28,123.92L172.58,109.89L172.14,108.65L169.62,104.37L168.86,103.57L146.55,88.09L121.36,81.52L103.51,80.62L72.85,84.53L58.04,90.72L57.39,91.10L56.88,91.65L44.88,110.52z" fill="currentColor" stroke="none" fill-opacity="1.00" fill-rule="nonzero" />
      <path d="M177.27,184.24L177.08,184.31L176.91,184.41L176.77,184.55L176.65,184.71L176.57,184.90L176.53,185.09L176.52,185.29L176.56,185.49L176.63,185.68L176.73,185.84L176.87,185.99L177.03,186.11L177.22,186.19L177.41,186.23L177.61,186.24L177.81,186.20L188.55,184.17L189.20,186.92L183.52,201.62L176.38,208.29L176.04,208.67L175.77,209.11L175.60,209.59L175.53,210.10L175.55,210.62L175.68,211.11L175.90,211.58L176.21,211.99L176.59,212.33L177.03,212.60L177.52,212.77L178.03,212.84L178.54,212.82L179.04,212.69L179.50,212.47L179.91,212.16L187.69,205.21L188.41,204.15L194.43,187.66L194.59,186.97L194.54,186.25L194.31,185.58L191.23,181.06L190.99,180.71L190.68,180.41L190.31,180.19L189.90,180.06L189.47,180.03L189.04,180.10z" fill="currentColor" stroke="none" fill-opacity="1.00" fill-rule="nonzero" />
      <path d="M170.92,168.12L170.89,168.12L170.87,168.13L170.85,168.14L170.84,168.16L170.82,168.18L170.81,168.20L170.81,168.22L170.81,168.25L170.81,168.27L170.82,168.29L170.84,168.31L170.85,168.33L170.87,168.34L170.90,168.35L170.92,168.36L170.94,168.36L178.28,169.59L196.25,168.50L201.03,182.48L194.19,215.45L182.20,226.62L172.88,223.77L172.71,223.27L172.27,222.80L171.75,222.41L171.17,222.14L170.54,221.99L169.89,221.96L169.26,222.06L168.65,222.28L168.10,222.61L167.62,223.05L167.24,223.57L166.97,224.15L166.82,224.78L166.79,225.43L166.89,226.06L167.11,226.67L167.44,227.22L168.33,228.38L169.02,229.05L169.87,229.50L181.92,233.99L182.87,234.18L183.84,234.10L184.75,233.77L185.53,233.20L199.42,219.43L200.01,218.66L200.35,217.76L207.66,182.91L207.54,181.12L201.18,164.16L200.88,163.54L200.45,163.02L199.92,162.59L199.30,162.30L198.64,162.15L197.96,162.15L177.84,165.42z" fill="currentColor" stroke="none" fill-opacity="1.00" fill-rule="nonzero" />
      <path d="M132.12,257.88L132.13,257.86L132.14,257.84L132.15,257.82L132.15,257.79L132.15,257.77L132.14,257.75L132.13,257.73L132.11,257.71L132.09,257.70L132.07,257.68L132.05,257.68L132.03,257.68L132.00,257.68L131.98,257.69L131.96,257.70L131.94,257.71L112.19,274.65L101.01,279.89L86.57,283.18L65.52,283.06L50.89,279.00L40.20,269.53L38.80,246.76L32.87,219.56L30.39,197.86L30.05,183.65L29.97,183.02L29.77,182.40L29.45,181.84L29.03,181.36L28.52,180.96L27.94,180.67L27.32,180.50L26.68,180.46L26.04,180.54L25.43,180.74L24.87,181.06L24.38,181.48L23.99,181.99L23.70,182.57L23.53,183.19L23.48,183.83L23.92,198.17L26.42,220.46L32.12,247.43L33.68,271.31L33.84,272.16L34.22,272.94L34.79,273.59L47.10,284.43L48.40,285.13L64.19,289.49L86.92,289.64L102.83,286.10L115.23,279.57z" fill="currentColor" stroke="none" fill-opacity="1.00" fill-rule="nonzero" />
      <path d="M84.34,136.83L78.50,160.27L81.39,172.85L93.04,181.24L109.10,184.61L123.99,184.26L138.93,175.45L144.91,162.72L145.04,142.87L134.80,135.65L115.97,131.19L93.35,132.09L85.99,134.59zM114.73,142.46L113.92,149.59L119.38,153.10L127.56,154.59L134.38,154.08L136.35,146.87L133.64,142.23L126.77,141.04L120.25,141.65L116.75,141.90z" fill-rule="evenodd" fill="currentColor" stroke="none" fill-opacity="1.00" />
      <path d="M11.12,154.53L12.99,171.54L19.47,178.24L30.93,181.30L45.95,180.68L57.20,174.60L64.27,166.89L66.09,147.75L62.32,134.64L54.97,132.49L40.58,132.11L27.25,133.50L14.61,138.10L11.44,145.60L10.92,151.40zM39.15,141.63L37.93,147.20L43.48,149.75L50.54,149.85L56.10,148.25L56.57,141.97L53.60,138.67L47.87,138.72L42.58,139.97L39.74,140.57z" fill-rule="evenodd" fill="currentColor" stroke="none" fill-opacity="1.00" />
      <path d="M276.02,34.40L277.98,39.55L273.62,57.69L269.25,64.76L258.32,74.69L253.88,76.94L253.46,77.19L253.11,77.52L252.83,77.93L252.65,78.38L252.57,78.86L252.59,79.35L252.72,79.82L252.95,80.26L253.26,80.63L253.65,80.93L263.55,87.29L271.56,96.24L276.88,110.58L277.77,112.67L278.02,113.11L278.36,113.48L278.76,113.77L279.22,113.97L279.71,114.06L280.22,114.05L280.70,113.93L281.15,113.71L281.54,113.40L281.86,113.01L282.08,112.56L289.51,93.17L296.93,82.79L304.09,78.05L304.48,77.76L304.79,77.38L305.02,76.95L305.16,76.48L305.19,76.00L305.12,75.52L304.96,75.06L304.70,74.64L304.36,74.29L303.49,73.46L292.71,63.76L281.55,43.75L279.96,35.46L279.65,34.69L279.13,34.05L277.53,34.34zM275.10,35.80L275.44,36.27L275.07,37.42L277.02,45.12L288.27,66.71L300.35,77.11L300.55,75.92L293.77,78.69L293.02,79.39L285.23,90.54L279.85,109.43L281.23,108.97L276.35,94.00L275.80,93.08L266.98,83.67L259.62,79.27L260.72,78.94L272.63,67.91L277.38,59.42L277.64,58.70L279.01,39.55L279.01,39.40L278.96,39.25L276.11,34.14L276.09,34.11L276.06,34.08L276.02,34.06L275.99,34.04L275.95,34.04L275.91,34.04L275.87,34.05L275.83,34.06L275.80,34.09L275.77,34.12L275.75,34.15L275.74,34.19L275.74,34.23L275.75,34.27L275.76,34.31z" fill="currentColor" stroke="none" fill-opacity="1.00" fill-rule="nonzero" />
      <path d="M319.57,4.78L319.54,4.77L319.50,4.77L319.46,4.77L319.43,4.79L319.40,4.81L319.37,4.84L319.35,4.87L319.34,4.90L319.34,4.94L319.34,4.98L319.35,5.01L321.81,10.92L318.12,25.08L314.67,30.43L306.01,38.15L302.09,40.45L301.74,40.69L301.45,40.99L301.23,41.35L301.09,41.74L301.02,42.15L301.04,42.57L301.15,42.97L301.34,43.34L301.60,43.67L301.91,43.94L309.98,49.67L316.05,56.60L320.20,67.95L322.28,70.76L322.58,71.07L322.94,71.31L323.34,71.47L323.77,71.54L324.20,71.52L324.62,71.42L325.01,71.23L325.35,70.97L325.64,70.64L325.84,70.26L332.70,54.30L338.44,46.40L344.63,41.88L344.96,41.59L345.23,41.24L345.42,40.84L345.52,40.41L345.53,39.97L345.44,39.53L345.26,39.13L344.25,37.19L335.44,28.97L326.92,13.54L325.63,6.64L325.07,5.56L323.17,5.12L322.68,4.78zM321.47,7.07L321.16,8.27L322.83,14.76L331.43,31.60L340.68,39.62L341.40,39.69L335.49,42.81L328.88,51.87L323.62,67.38L324.04,66.26L320.39,54.62L319.90,53.79L313.13,46.47L306.99,42.44L308.34,41.87L317.69,33.29L321.49,26.68L321.73,26.02L322.73,10.93L322.73,10.79L322.70,10.66L319.85,5.26z" fill="currentColor" stroke="none" fill-opacity="1.00" fill-rule="nonzero" />
      <path d="M343.10,70.15L342.25,71.83L339.13,82.19L336.89,85.83L330.67,91.58L327.78,93.73L327.38,94.07L327.06,94.49L326.84,94.97L326.73,95.48L326.73,96.01L326.85,96.52L327.08,97.00L327.40,97.41L327.81,97.75L334.05,102.14L338.59,107.10L341.98,115.37L343.08,117.10L343.43,117.51L343.87,117.83L344.36,118.04L344.89,118.15L345.42,118.14L345.95,118.01L346.43,117.78L346.85,117.44L347.19,117.02L347.43,116.54L351.93,104.82L356.11,98.78L359.95,96.03L360.34,95.72L360.67,95.34L360.90,94.90L361.05,94.42L361.10,93.92L361.04,93.43L360.89,92.95L360.64,92.51L360.31,92.14L359.91,91.84L359.46,91.62L358.97,91.50L359.07,91.53L353.25,86.16L346.32,74.34L345.46,69.64L345.20,68.98L344.78,68.40L344.23,67.95L343.59,67.64L343.73,70.22zM341.83,68.71L341.52,68.82L341.25,69.00L341.02,69.23L340.85,69.50L340.74,69.81L340.70,70.13L340.72,70.45L340.81,70.77L340.97,71.05L341.19,71.29L341.45,71.49L341.74,71.62L340.64,72.27L341.54,75.90L348.57,89.36L356.39,95.82L356.99,96.20L357.68,96.40L356.21,94.47L352.70,94.46L351.90,95.24L347.34,102.11L344.79,113.24L346.48,113.38L343.64,104.62L343.04,103.65L337.66,98.26L331.55,95.72L333.74,95.75L340.55,89.09L343.18,83.92L343.30,72.10L343.60,69.92L343.61,69.88L343.61,69.83L343.60,69.79L343.58,69.75L343.55,69.72L343.52,69.69L343.48,69.67L343.44,69.66L343.40,69.66L343.35,69.66z" fill="currentColor" stroke="none" fill-opacity="1.00" fill-rule="nonzero" />
      <path d="M271.12,224.84L271.00,224.83L270.88,224.85L270.77,224.89L270.66,224.95L270.57,225.03L270.50,225.13L270.45,225.24L270.42,225.36L270.42,225.48L270.44,225.60L270.48,225.71L270.54,225.81L270.62,225.90L270.72,225.97L270.83,226.03L270.94,226.05L278.11,227.90L293.63,239.10L302.08,251.88L302.37,252.22L302.72,252.51L303.12,252.72L303.55,252.85L304.00,252.90L304.45,252.85L304.89,252.72L305.29,252.50L305.64,252.21L305.92,251.86L306.13,251.46L306.26,251.02L306.31,250.57L306.26,250.12L306.13,249.69L305.91,249.29L297.00,236.30L296.40,235.71L279.41,225.35L278.83,225.13z" fill="currentColor" stroke="none" fill-opacity="1.00" fill-rule="nonzero" />
      <path d="M58.36,227.43L53.55,227.36L53.01,233.09L53.50,234.32L50.96,232.96L45.01,228.74L44.52,227.95L48.57,225.90L50.08,225.64z" fill-rule="evenodd" fill="currentColor" stroke="none" fill-opacity="1.00" />
      <path d="M57.64,287.55L54.93,292.48L50.25,306.84L54.30,307.77L83.60,299.42L98.84,292.21L111.68,281.88L116.62,274.40L95.48,282.29L70.86,285.91L66.19,285.35z" fill-rule="evenodd" fill="currentColor" stroke="none" fill-opacity="1.00" />
    </g>
  </symbol>
</svg>