<?xml version='1.0' encoding='utf-8'?>
<svg xmlns="http://www.w3.org/2000/svg" version="1.1" x="0.00px" y="0.00px" width="400.00px" height="400.00px" viewBox="0.00 0.00 400.00 400.00">
  <symbol id="frame" viewBox="0.00 0.00 400.00 400.00">
    <g class="layers.drawing-primary">
      <path d="M351.01,241.33L350.92,241.23L350.81,241.16L350.69,241.10L350.56,241.07L350.43,241.07L350.30,241.10L350.17,241.15L350.06,241.22L349.97,241.31L349.89,241.42L349.84,241.54L349.81,241.67L349.81,241.80L349.83,241.93L349.88,242.06L349.95,242.17L376.92,279.88L418.80,333.66L447.34,366.97L482.28,405.97L482.75,406.40L483.30,406.73L483.90,406.95L484.53,407.05L485.17,407.02L485.79,406.87L486.37,406.60L486.88,406.22L487.31,405.75L487.64,405.21L487.86,404.61L487.96,403.98L487.93,403.34L487.78,402.72L487.51,402.14L487.13,401.62L452.28,362.72L424.14,329.38L381.75,276.06z" fill="currentColor" stroke="none" fill-opacity="1.00" fill-rule="nonzero" />
      <path d="M302.47,273.56L302.35,273.53L302.24,273.52L302.12,273.54L302.01,273.58L301.91,273.63L301.82,273.71L301.75,273.80L301.69,273.91L301.66,274.02L301.65,274.14L301.67,274.25L301.71,274.36L301.76,274.46L301.84,274.55L301.93,274.62L302.04,274.68L315.12,281.15L338.93,314.32L356.66,346.06L381.24,388.50L384.83,393.02L385.29,393.49L385.85,393.87L386.46,394.13L387.11,394.26L387.78,394.27L388.44,394.14L389.05,393.89L389.61,393.52L390.09,393.05L390.46,392.50L390.72,391.89L390.85,391.23L390.86,390.57L390.73,389.91L390.48,389.29L390.11,388.74L386.95,384.86L362.23,342.84L343.68,311.40L317.87,278.39L317.49,278.01L317.02,277.74z" fill="currentColor" stroke="none" fill-opacity="1.00" fill-rule="nonzero" />
      <path d="M313.64,183.80L313.39,183.62L313.11,183.51L312.81,183.44L312.51,183.44L312.21,183.50L311.92,183.61L311.67,183.78L311.45,183.99L311.28,184.24L311.16,184.52L311.10,184.82L311.10,185.13L311.15,185.42L311.27,185.71L311.43,185.96L311.65,186.18L323.85,196.65L331.68,212.42L342.09,239.47L345.80,246.78L346.15,247.31L346.60,247.77L347.14,248.12L347.74,248.35L348.37,248.45L349.01,248.42L349.63,248.25L350.20,247.96L350.70,247.56L351.10,247.06L351.39,246.49L351.56,245.87L351.59,245.23L351.49,244.59L351.27,244.00L347.75,237.06L336.65,210.24L326.73,194.65z" fill="currentColor" stroke="none" fill-opacity="1.00" fill-rule="nonzero" />
      <path d="M262.13,136.49L262.12,136.56L262.12,136.64L262.13,136.71L262.16,136.78L262.20,136.85L262.25,136.90L262.31,136.95L262.38,136.98L262.46,136.99L262.53,137.00L262.61,136.98L262.68,136.96L262.74,136.91L262.80,136.86L262.84,136.80L262.87,136.73L265.72,131.78L272.05,135.62L286.20,150.46L310.22,182.95L314.70,188.76L315.09,189.18L315.56,189.52L316.09,189.76L316.65,189.90L317.23,189.92L317.80,189.83L318.34,189.63L318.84,189.32L319.26,188.93L319.60,188.46L319.84,187.93L319.98,187.37L320.00,186.79L319.91,186.22L319.71,185.68L319.40,185.19L315.03,179.34L290.48,147.04L275.50,131.54L274.60,130.92L265.36,128.29L265.01,128.20L264.65,128.18L264.30,128.25L263.97,128.40L263.68,128.63L263.46,128.91L263.31,129.24z" fill="currentColor" stroke="none" fill-opacity="1.00" fill-rule="nonzero" />
      <path d="M246.09,134.75L246.09,134.84L246.12,134.92L246.15,135.00L246.21,135.07L246.27,135.13L246.35,135.18L246.43,135.21L246.52,135.22L246.61,135.22L246.69,135.20L246.77,135.16L246.84,135.10L246.90,135.04L246.95,134.96L246.98,134.88L246.99,134.79L249.57,128.08L251.28,127.99L262.09,141.81L285.40,176.04L285.77,176.49L286.23,176.85L286.74,177.12L287.30,177.29L287.89,177.34L288.46,177.28L289.02,177.10L289.53,176.83L289.98,176.45L290.35,176.00L290.62,175.48L290.78,174.92L290.84,174.34L290.77,173.76L290.60,173.20L290.32,172.69L266.97,138.31L254.29,124.29L253.65,123.76L252.86,123.49L247.45,122.30L246.88,122.27L246.33,122.36L245.80,122.57L245.33,122.88L244.94,123.27L244.63,123.75L244.43,124.27L244.35,124.83z" fill="currentColor" stroke="none" fill-opacity="1.00" fill-rule="nonzero" />
      <path d="M238.19,144.76L238.21,144.80L238.23,144.84L238.26,144.88L238.30,144.91L238.34,144.94L238.38,144.95L238.43,144.96L238.48,144.95L238.53,144.94L238.57,144.92L238.61,144.89L238.64,144.85L238.66,144.81L238.67,144.76L238.68,144.71L238.68,144.66L237.28,126.45L237.88,125.96L240.27,127.98L256.52,155.22L272.59,178.21L272.69,178.61L272.91,179.10L273.22,179.55L273.61,179.92L274.07,180.21L274.57,180.41L275.11,180.51L275.65,180.49L276.18,180.38L276.67,180.16L277.12,179.85L277.50,179.46L277.79,179.00L277.98,178.49L278.08,177.96L278.07,177.42L277.95,176.89L277.70,176.12L261.53,152.11L244.92,124.46L244.07,123.55L238.40,120.06L237.92,119.80L237.40,119.64L236.85,119.61L236.31,119.68L235.80,119.87L235.34,120.16L234.95,120.54L234.65,120.99L232.87,125.04L232.63,125.76L232.65,126.53z" fill="currentColor" stroke="none" fill-opacity="1.00" fill-rule="nonzero" />
      <path d="M242.83,183.83L242.84,183.85L242.86,183.86L242.87,183.88L242.89,183.89L242.91,183.90L242.94,183.90L242.96,183.90L242.98,183.90L243.00,183.89L243.02,183.87L243.03,183.86L243.05,183.84L243.05,183.82L243.06,183.80L243.06,183.77L243.05,183.75L240.28,167.67L234.61,145.82L232.67,138.63L232.67,139.74L238.77,150.03L251.76,170.89L258.47,183.46L258.81,183.96L259.23,184.39L259.73,184.73L260.28,184.97L260.87,185.09L261.48,185.09L262.07,184.98L262.63,184.75L263.13,184.42L263.56,184.00L263.90,183.50L264.13,182.95L264.26,182.35L264.26,181.75L264.15,181.16L263.92,180.60L257.34,167.82L243.77,147.07L236.98,135.03L236.57,134.48L236.05,134.03L235.44,133.72L234.78,133.54L234.09,133.52L230.25,134.06L229.61,134.19L229.02,134.46L228.51,134.86L228.10,135.37L227.82,135.96L227.68,136.59L227.69,137.24L228.91,146.78L235.07,169.17z" fill="currentColor" stroke="none" fill-opacity="1.00" fill-rule="nonzero" />
      <path d="M247.18,240.01L247.19,240.18L247.23,240.35L247.30,240.50L247.40,240.64L247.52,240.75L247.67,240.84L247.83,240.90L248.00,240.93L248.17,240.92L248.33,240.88L248.49,240.81L248.63,240.71L248.74,240.59L248.83,240.44L248.89,240.28L248.92,240.11L252.40,210.43L249.54,188.63L252.12,183.15L253.27,183.28L256.84,191.42L262.56,214.95L267.17,235.07L267.35,235.63L267.63,236.14L268.02,236.59L268.48,236.95L269.00,237.22L269.57,237.38L270.15,237.43L270.74,237.36L271.30,237.18L271.81,236.89L272.26,236.51L272.62,236.05L272.89,235.52L273.05,234.96L273.09,234.37L273.02,233.79L268.79,213.54L262.84,189.66L258.21,179.08L257.78,178.37L257.17,177.80L256.44,177.41L255.63,177.23L250.50,176.84L249.75,176.87L249.03,177.08L248.39,177.45L247.85,177.97L247.45,178.60L243.62,186.89L243.36,187.75L243.37,188.64L247.18,210.40z" fill="currentColor" stroke="none" fill-opacity="1.00" fill-rule="nonzero" />
      <path d="M300.76,274.95L300.97,274.98L301.19,274.98L301.40,274.93L301.59,274.84L301.77,274.71L301.91,274.56L302.02,274.37L302.10,274.17L302.13,273.96L302.13,273.74L302.08,273.54L301.99,273.34L301.86,273.17L301.70,273.02L301.52,272.91L301.32,272.83L290.75,268.34L272.97,257.43L260.11,245.74L254.61,238.58L254.21,238.14L253.72,237.80L253.18,237.55L252.61,237.42L252.01,237.40L251.43,237.49L250.87,237.70L250.37,238.01L249.94,238.42L249.59,238.90L249.35,239.44L249.21,240.02L249.19,240.61L249.29,241.20L249.50,241.75L249.81,242.26L255.46,249.63L269.01,262.23L288.30,273.25z" fill="currentColor" stroke="none" fill-opacity="1.00" fill-rule="nonzero" />
      <path d="M87.64,377.50L87.64,377.41L87.62,377.33L87.59,377.24L87.54,377.17L87.47,377.11L87.40,377.06L87.32,377.03L87.23,377.02L87.14,377.02L87.06,377.04L86.97,377.07L86.90,377.12L86.84,377.19L86.79,377.26L86.76,377.34L86.74,377.43L81.37,416.94L69.94,540.70L69.95,548.85L70.02,549.55L70.24,550.22L70.58,550.84L71.03,551.37L71.58,551.81L72.20,552.14L72.88,552.33L73.58,552.39L74.27,552.31L74.94,552.10L75.56,551.76L76.10,551.31L76.54,550.76L76.86,550.14L77.05,549.46L77.11,548.76L76.92,541.12L86.67,417.39z" fill="currentColor" stroke="none" fill-opacity="1.00" fill-rule="nonzero" />
      <path d="M-23.88,348.34L-23.87,348.21L-23.88,348.08L-23.92,347.95L-23.98,347.84L-24.07,347.74L-24.17,347.65L-24.28,347.59L-24.41,347.55L-24.54,347.54L-24.67,347.56L-24.79,347.60L-24.91,347.66L-25.01,347.74L-25.09,347.84L-25.15,347.96L-25.19,348.08L-39.76,418.05L-37.85,473.11L-27.31,511.70L-27.15,512.11L-26.92,512.48L-26.61,512.79L-26.25,513.04L-25.85,513.22L-25.43,513.31L-24.99,513.32L-24.56,513.24L-24.15,513.08L-23.78,512.85L-23.46,512.54L-23.21,512.19L-23.04,511.78L-22.94,511.36L-22.94,510.92L-23.01,510.49L-33.95,472.73L-36.15,418.53z" fill="currentColor" stroke="none" fill-opacity="1.00" fill-rule="nonzero" />
      <path d="M339.55,403.20L339.59,403.14L339.62,403.09L339.64,403.02L339.65,402.96L339.64,402.89L339.62,402.83L339.59,402.77L339.55,402.72L339.50,402.68L339.44,402.65L339.37,402.63L339.31,402.62L339.24,402.63L339.18,402.65L339.12,402.68L339.07,402.72L313.58,425.82L257.44,451.12L221.45,460.37L220.88,460.58L220.36,460.89L219.91,461.30L219.56,461.79L219.30,462.35L219.16,462.94L219.14,463.54L219.23,464.14L219.44,464.71L219.76,465.23L220.17,465.67L220.66,466.03L221.21,466.28L221.80,466.43L222.41,466.45L223.00,466.36L259.20,456.82L315.86,429.76z" fill="currentColor" stroke="none" fill-opacity="1.00" fill-rule="nonzero" />
      <path d="M255.35,359.17L255.40,359.07L255.42,358.96L255.42,358.85L255.40,358.73L255.36,358.63L255.30,358.54L255.22,358.46L255.12,358.39L255.02,358.35L254.91,358.32L254.80,358.32L254.69,358.34L254.58,358.39L254.49,358.45L254.41,358.53L254.34,358.62L231.02,399.23L189.27,449.82L182.26,454.12L181.85,454.44L181.51,454.84L181.26,455.29L181.10,455.79L181.05,456.31L181.09,456.82L181.23,457.32L181.47,457.78L181.80,458.19L182.19,458.53L182.65,458.78L183.15,458.94L183.66,458.99L184.18,458.95L184.68,458.81L185.14,458.57L192.26,453.70L233.56,401.09z" fill="currentColor" stroke="none" fill-opacity="1.00" fill-rule="nonzero" />
      <path d="M483.28,396.66L483.26,396.65L483.24,396.64L483.22,396.63L483.20,396.62L483.18,396.62L483.16,396.63L483.14,396.64L483.12,396.65L483.10,396.67L483.09,396.68L483.08,396.70L483.08,396.73L483.08,396.75L483.08,396.77L483.09,396.79L483.10,396.81L521.62,446.15L534.34,481.95L505.61,520.13L484.64,523.14L484.02,523.29L483.44,523.56L482.93,523.94L482.50,524.41L482.17,524.95L481.95,525.55L481.85,526.18L481.88,526.81L482.03,527.43L482.30,528.01L482.68,528.52L483.15,528.95L483.69,529.28L484.29,529.50L484.92,529.59L485.55,529.57L507.87,526.38L508.69,526.15L509.42,525.72L510.02,525.11L540.13,484.21L540.50,483.56L540.69,482.84L540.71,482.10L540.53,481.37L525.80,444.15z" fill="currentColor" stroke="none" fill-opacity="1.00" fill-rule="nonzero" />
      <path d="M479.77,396.69L479.56,396.44L479.30,396.23L479.01,396.07L478.70,395.98L478.37,395.95L478.04,395.99L477.73,396.08L477.44,396.24L477.18,396.45L476.98,396.71L476.82,397.00L476.73,397.32L476.70,397.64L476.73,397.97L476.83,398.29L476.99,398.58L500.61,436.42L508.15,490.84L505.51,505.42L505.46,506.06L505.53,506.69L505.72,507.29L506.03,507.85L506.44,508.33L506.93,508.73L507.50,509.02L508.11,509.19L508.74,509.24L509.37,509.17L509.97,508.98L510.53,508.67L511.01,508.26L511.41,507.77L511.70,507.20L511.88,506.59L514.68,491.51L507.21,434.72L506.65,433.28z" fill="currentColor" stroke="none" fill-opacity="1.00" fill-rule="nonzero" />
      <path d="M378.19,393.16L377.88,393.10L377.57,393.10L377.26,393.17L376.96,393.29L376.70,393.46L376.48,393.69L376.30,393.95L376.18,394.24L376.12,394.55L376.13,394.87L376.19,395.18L376.31,395.47L376.49,395.73L376.71,395.96L376.97,396.13L377.27,396.25L406.22,405.79L434.04,439.10L459.07,477.54L501.76,516.55L502.32,516.97L502.95,517.26L503.63,517.43L504.32,517.46L505.01,517.35L505.66,517.11L506.26,516.75L506.77,516.29L507.18,515.73L507.47,515.10L507.64,514.42L507.67,513.73L507.56,513.04L507.33,512.39L506.97,511.79L506.50,511.28L464.10,473.74L438.83,435.73L409.48,402.06L408.95,401.60L408.32,401.31z" fill="currentColor" stroke="none" fill-opacity="1.00" fill-rule="nonzero" />
      <path d="M359.35,489.66L359.30,489.62L359.24,489.59L359.18,489.58L359.12,489.58L359.06,489.58L359.01,489.60L358.96,489.63L358.91,489.67L358.87,489.72L358.85,489.78L358.83,489.84L358.83,489.90L358.84,489.96L358.86,490.01L358.89,490.06L358.93,490.11L372.66,505.66L373.73,506.24L475.71,532.66L478.05,532.81L478.76,532.75L479.44,532.56L480.07,532.23L480.63,531.79L481.09,531.25L481.43,530.63L481.65,529.96L481.73,529.25L481.68,528.55L481.48,527.86L481.16,527.23L480.72,526.68L480.18,526.22L479.56,525.87L478.89,525.65L478.18,525.57L477.04,525.59L375.51,501.65z" fill="currentColor" stroke="none" fill-opacity="1.00" fill-rule="nonzero" />
      <path d="M368.38,431.55L368.45,431.28L368.47,431.01L368.43,430.73L368.34,430.47L368.20,430.23L368.02,430.02L367.79,429.85L367.55,429.73L367.28,429.66L367.00,429.64L366.72,429.68L366.46,429.77L366.22,429.91L366.01,430.09L365.84,430.31L365.72,430.56L342.01,489.85L331.08,575.87L329.60,582.24L329.51,582.96L329.56,583.68L329.75,584.38L330.07,585.04L330.51,585.61L331.06,586.09L331.69,586.45L332.38,586.68L333.10,586.77L333.83,586.72L334.53,586.53L335.18,586.21L335.75,585.76L336.23,585.21L336.59,584.58L336.82,583.90L338.31,577.33L347.69,491.58z" fill="currentColor" stroke="none" fill-opacity="1.00" fill-rule="nonzero" />
      <path d="M374.13,406.77L374.21,406.61L374.25,406.44L374.26,406.26L374.23,406.08L374.17,405.91L374.08,405.76L373.96,405.63L373.82,405.52L373.66,405.45L373.48,405.40L373.30,405.39L373.13,405.42L372.96,405.48L372.81,405.57L372.67,405.69L372.57,405.84L316.57,494.88L298.53,527.57L298.26,528.22L298.11,528.91L298.11,529.61L298.24,530.31L298.50,530.96L298.89,531.55L299.38,532.05L299.97,532.45L300.61,532.73L301.31,532.87L302.01,532.88L302.70,532.75L303.36,532.48L303.95,532.10L304.45,531.60L304.85,531.02L322.52,498.35z" fill="currentColor" stroke="none" fill-opacity="1.00" fill-rule="nonzero" />
      <path d="M211.18,308.09L211.03,308.07L210.87,308.08L210.72,308.12L210.59,308.18L210.47,308.28L210.37,308.39L210.29,308.52L210.24,308.67L210.22,308.82L210.23,308.97L210.27,309.12L210.34,309.26L210.43,309.38L210.55,309.48L210.68,309.56L210.82,309.61L274.03,326.81L305.06,337.43L333.71,352.81L354.84,362.78L355.45,363.01L356.08,363.11L356.73,363.09L357.35,362.94L357.94,362.67L358.46,362.30L358.90,361.83L359.24,361.28L359.47,360.67L359.57,360.04L359.55,359.39L359.40,358.76L359.13,358.18L358.76,357.65L358.29,357.21L357.74,356.88L337.04,346.34L307.86,331.53L275.94,320.71z" fill="currentColor" stroke="none" fill-opacity="1.00" fill-rule="nonzero" />
      <path d="M65.89,371.97L65.88,371.80L65.85,371.63L65.78,371.47L65.68,371.33L65.56,371.21L65.41,371.11L65.25,371.05L65.08,371.02L64.91,371.02L64.74,371.06L64.58,371.13L64.44,371.23L64.32,371.35L64.22,371.50L64.16,371.66L64.13,371.83L53.52,468.90L41.50,556.89L41.47,557.66L41.59,558.41L41.86,559.13L42.26,559.78L42.79,560.35L43.41,560.79L44.11,561.11L44.85,561.29L45.62,561.31L46.38,561.19L47.09,560.92L47.75,560.52L48.31,560.00L48.75,559.38L49.07,558.68L49.25,557.93L60.85,469.79z" fill="currentColor" stroke="none" fill-opacity="1.00" fill-rule="nonzero" />
      <path d="M25.40,306.56L25.57,306.33L25.69,306.08L25.77,305.80L25.79,305.52L25.75,305.24L25.66,304.97L25.52,304.72L25.33,304.51L25.10,304.34L24.85,304.21L24.57,304.14L24.29,304.12L24.01,304.15L23.74,304.25L23.49,304.39L23.28,304.58L12.88,314.10L-14.79,318.67L-41.02,334.20L-42.07,335.22L-80.43,394.61L-125.05,491.31L-138.32,541.16L-138.43,541.83L-138.41,542.50L-138.25,543.16L-137.97,543.77L-137.58,544.32L-137.08,544.78L-136.51,545.13L-135.88,545.37L-135.22,545.48L-134.54,545.45L-133.89,545.30L-133.27,545.02L-132.73,544.62L-132.27,544.13L-131.91,543.56L-131.68,542.93L-118.69,493.90L-74.98,397.87L-36.92,339.45L-13.13,324.54L14.61,318.92L15.37,318.65L16.00,318.16z" fill="currentColor" stroke="none" fill-opacity="1.00" fill-rule="nonzero" />
      <path d="M188.12,355.26L188.26,355.71L188.49,356.12L188.79,356.48L189.15,356.78L189.57,356.99L190.02,357.13L190.48,357.17L190.95,357.12L191.40,356.98L191.81,356.76L192.17,356.46L192.46,356.09L192.68,355.68L192.82,355.23L192.86,354.76L192.81,354.29L189.36,334.54L189.10,333.79L188.65,333.13L188.04,332.62L171.72,321.63L170.69,321.19L169.58,321.10L153.10,322.07L151.91,322.37L150.87,323.03L127.55,344.39L88.85,363.24L74.30,363.43L73.63,363.51L73.00,363.71L72.42,364.04L71.91,364.47L71.50,364.99L71.19,365.58L71.01,366.22L70.96,366.88L71.03,367.54L71.23,368.18L71.56,368.76L71.99,369.27L72.51,369.68L73.10,369.98L73.74,370.17L74.40,370.22L89.70,369.95L91.11,369.61L130.93,350.28L154.99,329.56L168.97,328.09L183.72,337.00z" fill="currentColor" stroke="none" fill-opacity="1.00" fill-rule="nonzero" />
      <path d="M178.88,268.92L178.77,268.80L178.63,268.70L178.48,268.62L178.31,268.58L178.14,268.57L177.97,268.60L177.81,268.65L177.67,268.74L177.54,268.86L177.44,268.99L177.37,269.15L177.32,269.31L177.32,269.48L177.34,269.65L177.40,269.81L177.48,269.96L195.02,296.90L201.96,319.52L197.15,344.04L191.81,353.76L191.58,354.28L191.45,354.84L191.44,355.41L191.54,355.97L191.74,356.51L192.05,356.99L192.44,357.40L192.91,357.73L193.43,357.96L193.99,358.09L194.56,358.10L195.13,358.00L195.66,357.79L196.14,357.49L196.56,357.09L196.88,356.63L202.68,346.63L208.67,320.00L208.57,318.27L200.11,294.74z" fill="currentColor" stroke="none" fill-opacity="1.00" fill-rule="nonzero" />
      <path d="M183.95,265.36L184.05,265.09L184.10,264.80L184.10,264.51L184.03,264.22L183.91,263.96L183.74,263.72L183.53,263.51L183.28,263.36L183.01,263.25L182.72,263.20L182.43,263.21L182.14,263.28L181.87,263.40L181.64,263.57L181.43,263.78L181.28,264.03L172.58,279.10L138.94,321.99L122.22,337.13L93.57,356.67L81.09,360.86L80.42,361.15L79.82,361.56L79.32,362.08L78.92,362.70L78.66,363.37L78.53,364.09L78.54,364.81L78.69,365.52L78.98,366.19L79.39,366.79L79.92,367.29L80.53,367.69L81.20,367.96L81.92,368.09L82.65,368.07L83.36,367.92L96.48,363.88L126.80,343.32L143.99,326.96L176.75,281.97z" fill="currentColor" stroke="none" fill-opacity="1.00" fill-rule="nonzero" />
      <path d="M175.79,238.73L175.78,238.30L175.69,237.88L175.52,237.48L175.28,237.13L174.97,236.83L174.61,236.59L174.21,236.43L173.79,236.35L173.36,236.36L172.94,236.44L172.54,236.61L172.19,236.86L171.89,237.16L171.65,237.52L171.49,237.92L171.41,238.35L167.94,261.35L167.97,262.27L168.24,263.15L168.72,263.94L177.17,274.32L177.65,274.81L178.22,275.21L178.86,275.48L179.53,275.62L180.22,275.63L180.90,275.51L181.54,275.25L182.12,274.87L182.62,274.39L183.01,273.82L183.28,273.19L183.43,272.51L183.43,271.82L183.31,271.14L183.05,270.50L182.68,269.92L175.33,260.53z" fill="currentColor" stroke="none" fill-opacity="1.00" fill-rule="nonzero" />
      <path d="M32.70,328.85L32.50,328.54L32.24,328.28L31.94,328.07L31.60,327.93L31.24,327.86L30.87,327.85L30.51,327.92L30.17,328.06L29.86,328.26L29.60,328.52L29.40,328.82L29.25,329.16L29.18,329.52L29.18,329.89L29.24,330.25L29.38,330.59L41.83,356.48L42.82,357.56L55.49,365.98L56.17,366.31L56.92,366.47L57.67,366.43L67.13,364.88L67.72,364.72L68.27,364.45L68.75,364.08L69.15,363.62L69.46,363.09L69.65,362.51L69.73,361.90L69.69,361.29L69.53,360.70L69.26,360.16L68.88,359.67L68.42,359.27L67.89,358.97L67.31,358.77L66.71,358.69L66.10,358.74L57.83,360.16L46.58,353.13z" fill="currentColor" stroke="none" fill-opacity="1.00" fill-rule="nonzero" />
      <path d="M49.77,280.73L49.79,280.71L49.79,280.69L49.80,280.67L49.80,280.65L49.79,280.63L49.78,280.61L49.77,280.59L49.75,280.57L49.73,280.56L49.71,280.55L49.69,280.55L49.67,280.55L49.65,280.56L49.63,280.57L49.61,280.58L49.59,280.60L33.04,298.88L12.86,319.72L-3.91,337.02L-4.30,337.53L-4.56,338.11L-4.69,338.74L-4.68,339.37L-4.54,339.99L-4.26,340.57L-3.86,341.06L-3.36,341.46L-2.78,341.74L7.93,345.73L9.57,345.85L22.71,342.99L23.62,342.64L24.36,342.00L31.40,333.83L32.05,332.46L32.20,331.30L32.26,330.71L32.20,330.12L32.03,329.55L31.75,329.02L31.37,328.56L30.91,328.18L30.39,327.90L29.82,327.72L29.23,327.66L28.63,327.72L28.06,327.89L27.54,328.17L27.08,328.55L26.70,329.01L26.41,329.53L26.24,330.10L26.18,330.51L20.57,337.56L9.18,339.64L3.34,337.78L16.74,323.40L36.50,301.98z" fill="currentColor" stroke="none" fill-opacity="1.00" fill-rule="nonzero" />
      <path d="M58.25,283.61L58.25,283.59L58.25,283.57L58.25,283.55L58.24,283.52L58.23,283.51L58.21,283.49L58.20,283.48L58.18,283.47L58.15,283.46L58.13,283.46L58.11,283.46L58.09,283.47L58.07,283.48L58.05,283.50L58.04,283.52L58.03,283.54L47.03,306.40L46.87,307.21L46.94,308.04L52.25,333.47L71.88,369.98L73.06,371.26L75.10,372.53L75.72,372.86L76.39,373.06L77.08,373.12L77.78,373.05L78.45,372.84L79.06,372.51L79.60,372.06L80.04,371.52L80.37,370.90L80.57,370.23L80.64,369.54L80.56,368.84L80.36,368.17L80.02,367.56L79.58,367.02L79.04,366.58L77.74,365.77L58.78,331.51L52.96,307.56z" fill="currentColor" stroke="none" fill-opacity="1.00" fill-rule="nonzero" />
      <path d="M132.06,164.78L137.26,163.41L144.37,162.77L160.47,162.91L168.37,164.04L175.65,166.28L176.93,157.63L161.72,150.03L148.31,143.82L139.82,140.57z" fill-rule="evenodd" fill="currentColor" stroke="none" fill-opacity="1.00" />
      <path d="M56.34,135.66L58.68,141.63L59.41,147.98L66.03,145.82L74.57,144.24L83.16,145.31L88.07,146.36L89.07,137.85L86.77,133.59L73.94,134.78L61.00,134.25L57.28,133.48z" fill-rule="evenodd" fill="currentColor" stroke="none" fill-opacity="1.00" />
      <path d="M31.71,136.84L31.69,136.85L31.67,136.86L31.65,136.88L31.64,136.90L31.63,136.93L31.63,136.95L31.64,136.97L31.64,137.00L31.65,137.02L31.67,137.04L31.69,137.05L31.71,137.06L31.73,137.07L31.76,137.07L31.78,137.07L31.80,137.06L43.88,134.47L58.89,131.95L60.66,132.04L61.19,131.99L61.70,131.85L62.18,131.60L62.59,131.27L62.94,130.87L63.20,130.40L63.36,129.89L63.42,129.36L63.37,128.83L63.23,128.32L62.98,127.85L62.65,127.43L62.25,127.09L61.78,126.83L61.27,126.67L60.74,126.61L58.72,126.63L42.72,129.61z" fill="currentColor" stroke="none" fill-opacity="1.00" fill-rule="nonzero" />
      <path d="M95.15,127.87L94.90,127.96L94.67,128.10L94.48,128.27L94.32,128.49L94.21,128.73L94.14,128.99L94.13,129.25L94.17,129.51L94.26,129.76L94.40,129.99L94.58,130.19L94.79,130.35L95.03,130.46L95.29,130.52L95.56,130.53L95.82,130.49L103.96,129.84L119.76,133.03L128.91,137.56L129.49,137.79L130.11,137.89L130.74,137.87L131.35,137.73L131.92,137.47L132.43,137.11L132.86,136.65L133.19,136.12L133.42,135.53L133.52,134.91L133.50,134.29L133.36,133.68L133.10,133.10L132.74,132.59L132.28,132.16L131.75,131.83L122.18,127.09L104.31,124.36L103.17,124.41z" fill="currentColor" stroke="none" fill-opacity="1.00" fill-rule="nonzero" />
      <path d="M42.71,224.40L42.69,224.42L42.67,224.45L42.66,224.48L42.65,224.51L42.65,224.55L42.66,224.58L42.67,224.61L42.69,224.64L42.71,224.66L42.74,224.68L42.77,224.69L42.80,224.70L42.83,224.70L42.87,224.69L42.90,224.68L42.92,224.66L52.53,218.17L61.63,219.65L77.77,226.11L85.22,231.35L85.39,231.44L85.58,231.51L85.78,231.53L85.97,231.52L86.16,231.47L86.34,231.38L86.50,231.26L86.63,231.11L86.72,230.94L86.79,230.76L86.81,230.56L86.80,230.36L86.75,230.17L86.66,230.00L86.54,229.84L86.39,229.71L78.93,224.27L62.43,217.35L52.38,215.62L52.03,215.61L51.69,215.70L51.39,215.89z" fill="currentColor" stroke="none" fill-opacity="1.00" fill-rule="nonzero" />
      <path d="M41.38,229.95L41.35,229.92L41.32,229.89L41.28,229.87L41.24,229.86L41.20,229.85L41.16,229.86L41.12,229.87L41.08,229.89L41.05,229.91L41.02,229.95L41.00,229.98L40.99,230.02L40.98,230.07L40.99,230.11L41.00,230.15L41.02,230.18L49.02,243.36L49.34,243.65L56.11,247.39L56.40,247.49L56.70,247.50L72.07,246.35L72.46,246.26L72.81,246.05L82.79,237.76L84.69,234.61L84.79,234.38L84.85,234.15L84.87,233.90L84.84,233.66L84.76,233.43L84.63,233.21L84.47,233.03L84.27,232.88L84.05,232.77L83.81,232.71L83.57,232.70L83.33,232.73L83.09,232.81L82.88,232.94L82.70,233.10L82.55,233.29L80.88,235.81L71.41,243.72L56.81,245.39L50.31,242.24z" fill="currentColor" stroke="none" fill-opacity="1.00" fill-rule="nonzero" />
      <path d="M43.33,225.59L43.25,225.59L43.16,225.61L43.08,225.64L43.01,225.68L42.95,225.74L42.90,225.81L42.87,225.89L42.85,225.97L42.85,226.06L42.86,226.14L42.89,226.22L42.94,226.29L43.00,226.35L43.06,226.40L43.14,226.44L43.23,226.46L57.14,229.86L75.22,232.31L80.39,234.51L80.89,234.64L81.41,234.67L81.92,234.60L82.41,234.43L82.85,234.17L83.24,233.83L83.55,233.42L83.78,232.95L83.91,232.45L83.94,231.94L83.87,231.42L83.70,230.93L83.44,230.49L83.10,230.10L82.69,229.79L82.22,229.56L76.61,227.76L57.66,225.66z" fill="currentColor" stroke="none" fill-opacity="1.00" fill-rule="nonzero" />
      <path d="M42.68,227.90L42.54,227.84L42.40,227.81L42.25,227.81L42.10,227.84L41.96,227.89L41.84,227.97L41.73,228.08L41.65,228.20L41.59,228.34L41.56,228.49L41.56,228.64L41.59,228.78L41.64,228.92L41.72,229.05L41.83,229.15L41.95,229.24L49.40,234.72L59.00,239.12L59.95,239.30L70.92,239.29L81.91,235.56L82.37,235.34L82.78,235.04L83.12,234.66L83.39,234.22L83.56,233.75L83.63,233.24L83.61,232.73L83.48,232.24L83.27,231.78L82.96,231.37L82.59,231.03L82.15,230.77L81.67,230.60L81.17,230.52L80.66,230.55L80.17,230.67L70.40,234.21L60.35,234.66L51.24,231.13z" fill="currentColor" stroke="none" fill-opacity="1.00" fill-rule="nonzero" />
      <path d="M65.78,197.92L65.74,198.02L65.72,198.13L65.72,198.24L65.74,198.34L65.79,198.44L65.85,198.53L65.92,198.61L66.01,198.67L66.11,198.71L66.22,198.73L66.33,198.73L66.43,198.71L66.53,198.67L66.62,198.61L66.70,198.53L66.76,198.44L70.12,194.58L72.42,194.71L75.49,198.22L75.74,198.46L76.03,198.64L76.35,198.77L76.68,198.82L77.02,198.82L77.36,198.74L77.67,198.60L77.95,198.41L78.18,198.16L78.37,197.87L78.49,197.55L78.55,197.22L78.54,196.88L78.46,196.54L78.33,196.23L78.13,195.95L74.60,191.81L74.24,191.49L73.80,191.28L73.32,191.19L69.16,191.09L68.78,191.12L68.41,191.23L68.07,191.43L67.79,191.69L67.57,192.01z" fill="currentColor" stroke="none" fill-opacity="1.00" fill-rule="nonzero" />
      <path d="M48.66,196.54L48.64,196.56L48.64,196.59L48.63,196.61L48.63,196.63L48.64,196.66L48.65,196.68L48.66,196.70L48.68,196.71L48.70,196.73L48.72,196.73L48.75,196.74L48.77,196.74L48.79,196.73L48.82,196.72L48.84,196.71L48.85,196.69L54.55,191.34L59.26,195.02L59.51,195.22L59.80,195.41L60.12,195.55L60.46,195.61L60.81,195.61L61.16,195.55L61.48,195.41L61.77,195.22L62.02,194.97L62.21,194.68L62.35,194.36L62.41,194.01L62.41,193.66L62.35,193.32L62.21,193.00L62.02,192.71L61.77,192.46L61.48,192.21L55.07,188.14L54.79,187.98L54.48,187.89L54.16,187.87L53.85,187.92L53.55,188.04L53.29,188.22L53.07,188.46z" fill="currentColor" stroke="none" fill-opacity="1.00" fill-rule="nonzero" />
      <path d="M76.54,153.52L76.53,153.45L76.52,153.38L76.49,153.31L76.44,153.26L76.39,153.21L76.33,153.17L76.27,153.15L76.20,153.14L76.13,153.14L76.06,153.16L75.99,153.19L75.94,153.23L75.89,153.28L75.85,153.34L75.83,153.41L75.82,153.48L73.13,170.67L73.19,171.30L73.43,171.89L80.29,185.42L81.74,194.06L80.69,195.70L80.47,196.26L80.36,196.84L80.37,197.44L80.49,198.03L80.73,198.58L81.06,199.07L81.49,199.49L81.99,199.81L82.55,200.03L83.14,200.14L83.73,200.14L84.32,200.01L84.87,199.78L85.36,199.44L85.78,199.01L86.11,198.51L87.39,195.96L87.68,195.09L87.70,194.17L86.45,183.95L86.04,182.77L77.51,170.24z" fill="currentColor" stroke="none" fill-opacity="1.00" fill-rule="nonzero" />
      <path d="M60.31,92.51L83.93,85.59L118.90,81.26L148.39,89.42L165.63,103.46L167.75,114.48L170.39,126.93L177.74,140.87L177.55,162.14L190.40,165.56L201.00,160.01L205.72,114.91L197.39,94.28L182.95,72.93L158.31,57.51L133.41,52.59L106.20,52.58L75.63,65.26L60.32,79.23L53.83,91.36L57.04,93.58z" fill-rule="evenodd" fill="currentColor" stroke="none" fill-opacity="1.00" />
      <path d="M39.26,129.07L39.25,129.09L39.25,129.12L39.26,129.14L39.27,129.16L39.28,129.18L39.30,129.20L39.32,129.21L39.34,129.22L39.37,129.22L39.39,129.22L39.41,129.22L39.44,129.21L39.45,129.19L39.47,129.18L39.48,129.16L39.49,129.13L46.20,111.29L59.49,93.74L73.52,88.54L103.45,84.67L120.48,85.40L144.14,92.05L165.28,107.65L167.40,110.88L167.92,125.38L168.11,126.27L168.54,127.06L175.57,137.00L177.24,146.15L174.75,164.83L174.72,165.44L174.81,166.05L175.02,166.62L175.34,167.15L175.75,167.60L176.24,167.97L176.79,168.23L177.38,168.38L177.99,168.41L178.60,168.32L179.18,168.11L179.70,167.79L180.15,167.38L180.52,166.89L180.78,166.34L180.93,165.75L184.04,146.60L182.24,135.00L181.61,133.54L174.23,124.01L172.78,109.88L172.42,108.71L170.07,104.17L169.24,103.25L146.90,87.40L121.55,80.47L103.50,79.27L72.46,82.94L56.88,89.20L56.22,89.57L55.70,90.12L42.97,109.41z" fill="currentColor" stroke="none" fill-opacity="1.00" fill-rule="nonzero" />
      <path d="M177.13,183.60L176.94,183.66L176.76,183.75L176.61,183.88L176.48,184.04L176.39,184.21L176.33,184.40L176.31,184.60L176.33,184.80L176.39,184.99L176.49,185.17L176.61,185.32L176.77,185.45L176.95,185.54L177.14,185.60L177.34,185.62L177.54,185.60L188.44,184.27L189.05,186.93L183.43,201.57L176.33,208.25L175.97,208.67L175.70,209.14L175.54,209.67L175.49,210.21L175.55,210.76L175.73,211.28L176.01,211.75L176.38,212.15L176.83,212.47L177.33,212.69L177.87,212.79L178.41,212.79L178.95,212.67L179.45,212.44L179.89,212.11L187.62,205.14L188.33,204.09L194.28,187.67L194.43,186.97L194.39,186.26L194.16,185.58L191.16,181.25L190.93,180.91L190.64,180.62L190.29,180.41L189.90,180.27L189.50,180.22L189.09,180.26z" fill="currentColor" stroke="none" fill-opacity="1.00" fill-rule="nonzero" />
      <path d="M170.85,167.70L170.82,167.70L170.80,167.70L170.78,167.71L170.76,167.73L170.74,167.74L170.73,167.76L170.72,167.79L170.72,167.81L170.72,167.83L170.73,167.86L170.74,167.88L170.75,167.90L170.77,167.91L170.79,167.93L170.81,167.94L170.83,167.94L178.07,170.30L195.91,169.07L200.45,182.51L193.74,215.21L182.09,226.18L173.06,223.43L172.89,222.99L172.43,222.53L171.90,222.17L171.30,221.92L170.67,221.79L170.03,221.79L169.39,221.91L168.80,222.16L168.26,222.51L167.80,222.96L167.44,223.50L167.19,224.09L167.06,224.73L167.06,225.37L167.18,226.01L167.42,226.60L167.78,227.14L168.64,228.17L170.10,229.20L181.83,233.55L182.79,233.74L183.76,233.66L184.67,233.32L185.45,232.75L198.99,219.17L199.57,218.40L199.90,217.50L207.08,182.94L206.96,181.17L200.84,164.71L200.54,164.09L200.11,163.56L199.57,163.14L198.94,162.84L198.27,162.70L197.59,162.71L178.11,166.11z" fill="currentColor" stroke="none" fill-opacity="1.00" fill-rule="nonzero" />
      <path d="M132.42,258.19L132.43,258.17L132.44,258.15L132.45,258.13L132.46,258.11L132.45,258.08L132.45,258.06L132.44,258.04L132.42,258.02L132.41,258.01L132.38,257.99L132.36,257.99L132.34,257.98L132.31,257.98L132.29,257.99L132.27,258.00L132.25,258.01L111.49,273.55L100.57,278.75L86.43,282.07L65.63,282.06L51.30,278.19L40.92,269.15L39.50,246.65L33.47,219.45L30.90,197.80L30.46,183.62L30.37,182.98L30.16,182.37L29.84,181.81L29.42,181.33L28.90,180.94L28.33,180.65L27.70,180.49L27.06,180.45L26.42,180.53L25.81,180.74L25.25,181.06L24.77,181.49L24.38,182.00L24.10,182.58L23.93,183.20L23.89,183.84L24.42,198.16L27.02,220.37L32.82,247.34L34.40,270.96L34.57,271.82L34.96,272.60L35.54,273.25L47.56,283.65L48.86,284.34L64.35,288.49L86.81,288.54L102.43,284.95L114.48,278.50z" fill="currentColor" stroke="none" fill-opacity="1.00" fill-rule="nonzero" />
      <path d="M82.60,135.84L79.27,160.25L81.90,172.51L93.22,180.83L109.13,184.32L123.96,184.13L138.96,175.47L145.09,162.76L145.36,142.71L135.01,135.18L116.04,130.52L93.21,131.27L85.51,133.72zM116.17,143.65L114.21,149.46L119.52,152.72L127.58,154.09L134.00,153.63L135.67,146.97L133.20,142.87L126.74,141.90L120.34,142.60L117.00,142.91z" fill-rule="evenodd" fill="currentColor" stroke="none" fill-opacity="1.00" />
      <path d="M10.88,154.55L12.06,172.01L18.96,179.09L30.82,182.24L46.18,181.55L57.72,175.28L65.00,167.22L66.84,147.68L62.83,134.14L55.08,131.84L40.56,131.49L27.12,132.94L14.26,137.72L10.98,145.48L10.49,151.38zM37.82,140.80L38.37,146.92L43.56,149.37L50.51,149.58L55.99,148.15L56.54,141.98L53.64,138.59L47.85,138.51L42.52,139.65L39.60,140.15z" fill-rule="evenodd" fill="currentColor" stroke="none" fill-opacity="1.00" />
      <path d="M276.82,39.93L277.43,43.33L273.52,59.21L269.81,65.32L260.27,74.10L256.31,76.34L255.91,76.60L255.57,76.94L255.32,77.35L255.15,77.80L255.08,78.27L255.12,78.75L255.25,79.21L255.47,79.63L255.78,80.00L256.16,80.29L265.06,86.02L272.16,93.84L276.99,106.45L277.63,108.08L277.84,108.49L278.14,108.86L278.50,109.15L278.91,109.37L279.36,109.51L279.82,109.55L280.29,109.49L280.73,109.35L281.14,109.11L281.49,108.81L281.77,108.43L281.97,108.01L288.32,90.90L294.83,81.63L300.88,77.68L301.28,77.37L301.60,76.99L301.84,76.54L301.97,76.06L302.00,75.56L301.91,75.06L301.73,74.60L301.44,74.18L301.08,73.84L300.64,73.58L300.17,73.42L299.98,73.37L290.83,65.10L280.72,47.26L279.33,40.11L279.08,39.45L278.67,38.89L278.12,38.45L277.42,40.23zM275.18,39.10L274.94,39.30L274.75,39.56L274.63,39.85L274.57,40.16L274.58,40.47L274.66,40.78L274.80,41.06L275.00,41.30L275.25,41.49L274.58,42.29L276.20,48.66L286.41,68.07L297.35,77.35L298.41,77.88L297.39,76.07L291.70,77.51L290.92,78.25L284.02,88.31L279.75,104.90L281.35,104.86L276.94,91.56L276.38,90.65L268.47,82.38L261.96,78.52L262.81,78.26L273.22,68.43L277.30,60.89L278.45,43.38L278.44,43.17L277.12,39.57L277.10,39.53L277.08,39.50L277.05,39.47L277.02,39.45L276.98,39.43L276.94,39.43L276.90,39.43L276.86,39.44L276.82,39.46z" fill="currentColor" stroke="none" fill-opacity="1.00" fill-rule="nonzero" />
      <path d="M321.66,17.25L321.64,17.22L321.61,17.19L321.58,17.17L321.54,17.16L321.51,17.16L321.47,17.16L321.44,17.17L321.40,17.19L321.38,17.21L321.36,17.24L321.34,17.27L321.33,17.31L320.73,20.06L318.05,28.82L316.13,31.85L310.74,36.79L307.95,39.05L307.64,39.34L307.39,39.69L307.22,40.08L307.14,40.50L307.14,40.93L307.23,41.34L307.41,41.73L307.66,42.07L307.98,42.36L313.59,46.62L317.43,50.85L320.31,58.03L320.79,58.79L322.17,60.19L322.52,60.48L322.93,60.69L323.38,60.80L323.84,60.81L324.29,60.72L324.71,60.53L325.08,60.26L325.38,59.91L325.60,59.51L330.06,48.96L333.64,43.83L337.31,40.99L337.65,40.70L337.91,40.35L338.10,39.95L338.20,39.52L338.20,39.08L338.11,38.65L337.93,38.24L337.68,37.88L337.02,37.03L331.30,31.87L325.46,21.82L324.66,17.56L324.30,16.77L323.68,16.16L322.68,16.87zM320.61,18.37L321.01,18.80L320.37,19.53L321.41,23.13L327.33,34.56L333.89,40.03L334.04,39.03L330.64,40.27L326.20,46.61L323.25,56.67L324.05,56.21L321.72,48.77L321.21,47.94L316.70,43.38L312.64,40.66L313.46,40.23L319.22,34.64L321.47,30.32L321.63,20.18L321.54,17.50z" fill="currentColor" stroke="none" fill-opacity="1.00" fill-rule="nonzero" />
      <path d="M341.71,55.66L343.54,60.48L339.25,77.52L335.14,84.13L324.87,93.43L320.75,95.49L320.31,95.76L319.93,96.12L319.63,96.55L319.44,97.03L319.35,97.54L319.37,98.06L319.51,98.57L319.75,99.03L320.08,99.43L320.50,99.75L329.76,105.70L337.25,114.09L342.28,127.56L343.06,129.48L343.32,129.95L343.67,130.35L344.10,130.67L344.59,130.89L345.12,131.00L345.65,130.99L346.18,130.87L346.66,130.63L347.08,130.30L347.42,129.88L347.66,129.40L354.64,111.17L361.59,101.46L368.27,97.03L368.69,96.71L369.02,96.31L369.27,95.85L369.41,95.35L369.44,94.82L369.37,94.31L369.18,93.82L368.90,93.38L368.53,93.01L367.74,92.27L357.65,83.14L347.14,64.35L345.68,56.55L345.36,55.74L344.80,55.06L343.24,55.49zM340.62,56.98L341.01,57.52L340.49,58.63L342.32,65.80L352.94,86.27L364.43,96.16L364.51,94.78L358.25,97.10L357.45,97.85L350.09,108.39L345.31,126.07L346.92,125.87L342.34,111.71L341.76,110.74L333.42,101.85L324.17,97.84L327.39,97.95L338.73,87.47L343.25,79.36L343.52,78.60L344.63,60.47L344.63,60.31L344.58,60.15L341.80,55.38L341.78,55.34L341.75,55.31L341.72,55.29L341.68,55.27L341.64,55.26L341.59,55.27L341.55,55.28L341.51,55.29L341.48,55.32L341.45,55.35L341.43,55.39L341.42,55.43L341.41,55.47L341.42,55.51L341.43,55.55z" fill="currentColor" stroke="none" fill-opacity="1.00" fill-rule="nonzero" />
      <path d="M271.13,223.83L271.01,223.81L270.89,223.82L270.77,223.85L270.66,223.90L270.57,223.97L270.49,224.06L270.43,224.17L270.39,224.28L270.37,224.40L270.38,224.52L270.41,224.64L270.46,224.75L270.53,224.84L270.62,224.92L270.73,224.98L270.84,225.02L278.12,227.61L293.85,238.89L302.37,251.69L302.66,252.03L303.02,252.32L303.42,252.53L303.85,252.66L304.30,252.70L304.75,252.65L305.19,252.52L305.59,252.30L305.93,252.01L306.22,251.66L306.43,251.26L306.56,250.82L306.60,250.37L306.55,249.92L306.42,249.49L306.20,249.09L297.22,236.08L296.61,235.49L279.48,225.10z" fill="currentColor" stroke="none" fill-opacity="1.00" fill-rule="nonzero" />
      <path d="M56.69,224.83L55.32,228.44L54.77,233.25L54.26,235.58L50.37,233.98L44.29,229.24L43.99,227.72L48.50,225.64L50.08,225.67z" fill-rule="evenodd" fill="currentColor" stroke="none" fill-opacity="1.00" />
      <path d="M55.43,286.94L55.40,292.62L50.54,306.68L54.30,307.60L83.59,299.41L98.92,292.34L111.92,282.09L116.99,274.10L95.33,281.67L70.86,285.11L66.32,284.40z" fill-rule="evenodd" fill="currentColor" stroke="none" fill-opacity="1.00" />
    </g>
  </symbol>
</svg>