<?xml version='1.0' encoding='utf-8'?>
<svg xmlns="http://www.w3.org/2000/svg" version="1.1" x="0.00px" y="0.00px" width="400.00px" height="400.00px" viewBox="0.00 0.00 400.00 400.00">
  <symbol id="frame" viewBox="0.00 0.00 400.00 400.00">
    <g class="layers.drawing-primary">
      <path d="M349.86,242.29L349.76,242.20L349.65,242.13L349.53,242.08L349.40,242.05L349.26,242.05L349.13,242.08L349.01,242.13L348.90,242.21L348.81,242.30L348.74,242.41L348.69,242.53L348.66,242.66L348.66,242.80L348.69,242.93L348.74,243.05L348.81,243.16L376.48,280.28L418.30,334.07L446.81,367.43L481.72,406.47L482.19,406.90L482.73,407.23L483.33,407.45L483.96,407.55L484.60,407.52L485.22,407.37L485.80,407.10L486.32,406.73L486.75,406.26L487.08,405.71L487.30,405.11L487.40,404.48L487.37,403.84L487.22,403.22L486.95,402.64L486.57,402.13L451.76,363.18L423.64,329.79L381.30,276.44z" fill="currentColor" stroke="none" fill-opacity="1.00" fill-rule="nonzero" />
      <path d="M301.80,275.06L301.68,275.04L301.57,275.03L301.45,275.05L301.34,275.09L301.24,275.15L301.15,275.23L301.09,275.32L301.04,275.43L301.01,275.54L301.00,275.66L301.02,275.78L301.06,275.89L301.12,275.99L301.20,276.07L301.29,276.14L301.40,276.19L314.35,282.16L337.85,315.02L355.52,346.71L380.15,389.25L383.77,393.86L384.24,394.34L384.79,394.72L385.40,394.98L386.05,395.12L386.72,395.12L387.38,395.00L388.00,394.75L388.55,394.39L389.03,393.92L389.41,393.37L389.67,392.76L389.81,392.11L389.82,391.44L389.69,390.78L389.44,390.16L389.08,389.61L385.86,385.63L361.10,343.50L342.61,312.10L317.09,279.38L316.69,278.98L316.19,278.72z" fill="currentColor" stroke="none" fill-opacity="1.00" fill-rule="nonzero" />
      <path d="M314.07,183.33L313.81,183.16L313.53,183.05L313.23,182.99L312.93,182.98L312.63,183.04L312.35,183.16L312.09,183.33L311.88,183.54L311.71,183.80L311.59,184.08L311.53,184.38L311.53,184.68L311.59,184.98L311.70,185.26L311.87,185.52L312.09,185.73L324.45,196.18L332.36,212.09L342.77,239.16L346.46,246.43L346.78,246.94L347.20,247.37L347.69,247.72L348.24,247.96L348.83,248.09L349.43,248.10L350.02,248.00L350.58,247.78L351.09,247.45L351.52,247.04L351.87,246.55L352.11,246.00L352.24,245.41L352.25,244.81L352.14,244.22L351.93,243.66L348.43,236.75L337.33,209.91L327.33,194.18z" fill="currentColor" stroke="none" fill-opacity="1.00" fill-rule="nonzero" />
      <path d="M261.95,136.36L261.93,136.43L261.92,136.50L261.93,136.58L261.95,136.65L261.98,136.72L262.03,136.78L262.09,136.83L262.16,136.87L262.23,136.89L262.30,136.90L262.38,136.89L262.45,136.87L262.52,136.84L262.58,136.79L262.63,136.73L262.67,136.66L265.80,132.34L271.71,136.09L285.79,150.82L309.84,183.25L314.37,189.04L314.76,189.46L315.23,189.80L315.76,190.04L316.32,190.17L316.90,190.19L317.47,190.09L318.01,189.89L318.51,189.58L318.93,189.18L319.26,188.71L319.50,188.18L319.63,187.62L319.65,187.04L319.55,186.47L319.35,185.93L319.04,185.44L314.63,179.62L290.07,147.39L275.17,132.02L274.30,131.42L265.60,128.90L265.27,128.80L264.93,128.78L264.59,128.83L264.27,128.96L263.98,129.15L263.75,129.40L263.58,129.70z" fill="currentColor" stroke="none" fill-opacity="1.00" fill-rule="nonzero" />
      <path d="M246.15,134.77L246.16,134.86L246.18,134.94L246.22,135.02L246.28,135.09L246.34,135.15L246.42,135.19L246.51,135.22L246.59,135.23L246.68,135.22L246.77,135.19L246.85,135.15L246.92,135.10L246.97,135.03L247.02,134.95L247.04,134.87L247.05,134.78L249.39,127.67L251.50,127.62L262.42,141.56L285.71,175.82L286.09,176.27L286.54,176.64L287.06,176.91L287.62,177.07L288.20,177.13L288.78,177.06L289.33,176.89L289.85,176.61L290.29,176.24L290.66,175.79L290.93,175.27L291.10,174.71L291.15,174.13L291.09,173.55L290.92,172.99L290.64,172.48L267.30,138.06L254.51,123.90L253.85,123.36L253.04,123.09L247.11,121.92L246.54,121.91L245.98,122.01L245.45,122.23L244.99,122.55L244.60,122.96L244.30,123.45L244.12,123.99L244.05,124.55z" fill="currentColor" stroke="none" fill-opacity="1.00" fill-rule="nonzero" />
      <path d="M238.60,144.70L238.62,144.75L238.64,144.79L238.67,144.83L238.71,144.86L238.75,144.88L238.80,144.89L238.85,144.90L238.90,144.89L238.94,144.88L238.98,144.85L239.02,144.82L239.05,144.78L239.07,144.74L239.09,144.69L239.09,144.65L239.09,144.60L237.29,126.43L237.87,125.98L240.23,128.00L256.46,155.25L272.49,178.21L272.55,178.56L272.76,179.07L273.05,179.52L273.43,179.91L273.88,180.22L274.38,180.43L274.91,180.54L275.45,180.55L275.99,180.45L276.49,180.24L276.94,179.95L277.33,179.57L277.64,179.12L277.85,178.62L277.96,178.09L277.97,177.55L277.87,177.01L277.65,176.25L261.48,152.15L244.89,124.49L244.05,123.59L238.41,120.08L237.93,119.82L237.41,119.66L236.87,119.62L236.33,119.69L235.82,119.88L235.36,120.17L234.96,120.54L234.66,121.00L232.86,125.03L232.62,125.78L232.65,126.58z" fill="currentColor" stroke="none" fill-opacity="1.00" fill-rule="nonzero" />
      <path d="M240.90,184.31L240.91,184.33L240.92,184.35L240.93,184.36L240.95,184.38L240.97,184.39L240.99,184.40L241.01,184.40L241.03,184.40L241.05,184.39L241.07,184.38L241.09,184.37L241.10,184.35L241.12,184.33L241.12,184.31L241.13,184.29L241.12,184.27L241.01,167.84L235.11,145.66L232.99,138.80L232.87,139.45L238.74,150.08L251.86,170.87L258.72,183.37L259.05,183.87L259.48,184.29L259.98,184.63L260.54,184.85L261.13,184.97L261.74,184.97L262.33,184.85L262.88,184.62L263.38,184.28L263.81,183.85L264.14,183.35L264.37,182.79L264.49,182.20L264.49,181.60L264.37,181.01L264.13,180.45L257.41,167.73L243.71,147.08L236.87,135.19L236.45,134.64L235.92,134.20L235.30,133.88L234.63,133.72L233.94,133.71L230.48,134.29L229.84,134.43L229.25,134.72L228.74,135.13L228.35,135.65L228.08,136.25L227.96,136.89L227.99,137.55L229.42,146.75L235.68,168.88z" fill="currentColor" stroke="none" fill-opacity="1.00" fill-rule="nonzero" />
      <path d="M247.19,240.04L247.20,240.21L247.25,240.37L247.32,240.52L247.43,240.66L247.56,240.77L247.70,240.85L247.87,240.91L248.03,240.93L248.20,240.92L248.37,240.87L248.52,240.80L248.66,240.69L248.77,240.56L248.85,240.41L248.91,240.25L248.93,240.08L251.45,210.41L248.65,188.53L251.67,182.42L253.73,182.64L257.53,191.19L263.22,214.79L267.77,234.93L267.95,235.49L268.23,236.01L268.61,236.45L269.07,236.82L269.59,237.09L270.16,237.25L270.75,237.30L271.33,237.23L271.89,237.05L272.40,236.77L272.85,236.39L273.22,235.93L273.48,235.40L273.65,234.84L273.69,234.25L273.63,233.67L269.45,213.40L263.53,189.44L258.67,178.43L258.23,177.73L257.63,177.17L256.90,176.78L256.10,176.60L250.10,176.11L249.36,176.13L248.65,176.33L248.01,176.70L247.47,177.20L247.07,177.82L242.76,186.71L242.49,187.58L242.48,188.50L246.24,210.50z" fill="currentColor" stroke="none" fill-opacity="1.00" fill-rule="nonzero" />
      <path d="M300.72,274.82L300.93,274.87L301.15,274.87L301.36,274.84L301.56,274.76L301.74,274.64L301.90,274.49L302.02,274.32L302.11,274.12L302.15,273.91L302.16,273.70L302.12,273.48L302.04,273.28L301.93,273.10L301.78,272.95L301.60,272.83L301.40,272.74L291.11,267.65L273.41,256.83L260.62,245.26L255.13,238.16L254.73,237.73L254.24,237.39L253.70,237.14L253.12,237.01L252.53,236.99L251.95,237.09L251.39,237.30L250.89,237.62L250.46,238.03L250.11,238.51L249.87,239.05L249.74,239.63L249.72,240.22L249.82,240.81L250.03,241.36L250.35,241.86L255.99,249.17L269.46,261.64L288.59,272.52z" fill="currentColor" stroke="none" fill-opacity="1.00" fill-rule="nonzero" />
      <path d="M88.34,377.60L88.34,377.51L88.32,377.42L88.29,377.34L88.25,377.26L88.19,377.20L88.11,377.15L88.03,377.11L87.95,377.09L87.86,377.09L87.77,377.10L87.69,377.14L87.61,377.18L87.55,377.24L87.50,377.32L87.46,377.40L87.44,377.48L80.22,416.71L68.88,540.67L68.99,548.92L69.08,549.62L69.30,550.29L69.65,550.90L70.11,551.43L70.66,551.86L71.29,552.17L71.97,552.36L72.67,552.41L73.37,552.32L74.03,552.10L74.65,551.75L75.18,551.29L75.61,550.74L75.92,550.11L76.11,549.43L76.16,548.73L75.86,541.06L85.50,417.33z" fill="currentColor" stroke="none" fill-opacity="1.00" fill-rule="nonzero" />
      <path d="M-22.75,348.55L-22.74,348.42L-22.75,348.29L-22.79,348.16L-22.85,348.05L-22.93,347.94L-23.03,347.86L-23.15,347.80L-23.27,347.76L-23.40,347.75L-23.53,347.76L-23.66,347.80L-23.77,347.86L-23.87,347.94L-23.96,348.04L-24.02,348.16L-24.06,348.28L-39.48,418.05L-37.53,473.06L-26.96,511.60L-26.80,512.01L-26.56,512.38L-26.26,512.69L-25.90,512.94L-25.49,513.12L-25.07,513.21L-24.63,513.22L-24.20,513.14L-23.79,512.98L-23.42,512.75L-23.11,512.44L-22.86,512.08L-22.68,511.68L-22.59,511.25L-22.58,510.82L-22.66,510.38L-33.64,472.67L-35.89,418.56z" fill="currentColor" stroke="none" fill-opacity="1.00" fill-rule="nonzero" />
      <path d="M341.13,404.97L341.18,404.92L341.22,404.87L341.24,404.81L341.26,404.75L341.26,404.68L341.25,404.62L341.22,404.55L341.19,404.50L341.14,404.45L341.09,404.41L341.03,404.39L340.96,404.37L340.90,404.37L340.83,404.38L340.77,404.41L340.72,404.44L312.58,424.07L256.82,449.45L221.04,458.90L220.47,459.11L219.96,459.43L219.51,459.84L219.16,460.34L218.91,460.89L218.77,461.48L218.75,462.08L218.85,462.68L219.06,463.25L219.38,463.77L219.80,464.21L220.29,464.56L220.84,464.81L221.43,464.95L222.04,464.97L222.64,464.87L258.62,455.14L314.73,428.06z" fill="currentColor" stroke="none" fill-opacity="1.00" fill-rule="nonzero" />
      <path d="M254.19,358.58L254.23,358.47L254.24,358.36L254.24,358.25L254.21,358.14L254.16,358.04L254.09,357.95L254.01,357.87L253.91,357.82L253.80,357.78L253.69,357.76L253.58,357.77L253.47,357.80L253.37,357.85L253.28,357.92L253.20,358.00L253.15,358.10L232.55,400.25L190.39,451.04L183.08,455.35L182.67,455.66L182.33,456.05L182.07,456.50L181.90,457.00L181.83,457.51L181.87,458.03L182.00,458.53L182.23,459.00L182.55,459.41L182.94,459.75L183.39,460.01L183.88,460.18L184.40,460.25L184.92,460.21L185.42,460.08L185.88,459.85L193.33,454.97L235.12,402.08z" fill="currentColor" stroke="none" fill-opacity="1.00" fill-rule="nonzero" />
      <path d="M482.92,396.96L482.90,396.94L482.89,396.93L482.86,396.92L482.84,396.92L482.82,396.92L482.80,396.92L482.78,396.93L482.76,396.95L482.74,396.96L482.73,396.98L482.73,397.00L482.72,397.02L482.72,397.05L482.73,397.07L482.74,397.09L482.75,397.11L522.26,445.80L535.01,482.03L505.91,520.64L484.71,523.66L484.10,523.81L483.52,524.08L483.01,524.46L482.57,524.93L482.24,525.47L482.03,526.07L481.93,526.70L481.96,527.33L482.11,527.95L482.38,528.53L482.75,529.04L483.22,529.47L483.76,529.80L484.36,530.02L484.99,530.12L485.63,530.09L508.17,526.90L508.99,526.67L509.73,526.23L510.32,525.62L540.79,484.31L541.16,483.66L541.35,482.94L541.37,482.20L541.20,481.47L526.44,443.79z" fill="currentColor" stroke="none" fill-opacity="1.00" fill-rule="nonzero" />
      <path d="M479.74,396.78L479.54,396.52L479.30,396.30L479.01,396.14L478.70,396.03L478.37,395.99L478.04,396.01L477.72,396.10L477.43,396.24L477.17,396.45L476.95,396.69L476.79,396.98L476.68,397.29L476.64,397.62L476.66,397.95L476.75,398.26L476.89,398.56L498.84,437.00L506.38,490.82L503.87,505.15L503.82,505.78L503.89,506.41L504.09,507.01L504.40,507.57L504.81,508.05L505.31,508.44L505.88,508.73L506.49,508.90L507.12,508.95L507.75,508.88L508.35,508.68L508.91,508.37L509.39,507.96L509.78,507.46L510.07,506.89L510.24,506.28L512.91,491.45L505.45,435.35L504.97,434.03z" fill="currentColor" stroke="none" fill-opacity="1.00" fill-rule="nonzero" />
      <path d="M378.26,392.95L377.95,392.89L377.64,392.89L377.33,392.95L377.03,393.07L376.77,393.25L376.55,393.47L376.37,393.73L376.25,394.02L376.19,394.33L376.19,394.65L376.25,394.96L376.37,395.25L376.54,395.51L376.77,395.74L377.03,395.91L377.32,396.04L406.26,405.72L434.11,439.05L459.14,477.48L501.83,516.48L502.39,516.89L503.02,517.18L503.70,517.35L504.39,517.38L505.08,517.28L505.73,517.04L506.32,516.68L506.84,516.21L507.25,515.65L507.54,515.02L507.71,514.35L507.74,513.65L507.63,512.96L507.40,512.31L507.04,511.72L506.57,511.21L464.17,473.68L438.90,435.68L409.52,402.00L409.00,401.54L408.37,401.25z" fill="currentColor" stroke="none" fill-opacity="1.00" fill-rule="nonzero" />
      <path d="M359.56,489.43L359.51,489.39L359.45,489.37L359.39,489.35L359.33,489.35L359.27,489.36L359.22,489.38L359.17,489.41L359.12,489.45L359.09,489.50L359.06,489.56L359.05,489.62L359.05,489.68L359.06,489.74L359.08,489.79L359.11,489.84L359.15,489.89L373.12,504.95L374.14,505.48L475.81,531.83L477.99,532.00L478.69,531.96L479.38,531.78L480.02,531.47L480.58,531.04L481.05,530.51L481.41,529.89L481.64,529.22L481.74,528.52L481.69,527.81L481.51,527.13L481.20,526.49L480.77,525.92L480.24,525.45L479.63,525.10L478.96,524.86L478.25,524.77L477.18,524.77L375.89,500.88z" fill="currentColor" stroke="none" fill-opacity="1.00" fill-rule="nonzero" />
      <path d="M369.10,431.85L369.17,431.58L369.19,431.31L369.16,431.03L369.07,430.77L368.94,430.52L368.75,430.31L368.54,430.14L368.29,430.02L368.02,429.94L367.74,429.92L367.47,429.96L367.20,430.05L366.96,430.18L366.75,430.36L366.58,430.58L366.46,430.83L342.09,489.83L331.19,575.90L329.74,582.29L329.66,583.01L329.71,583.74L329.90,584.44L330.23,585.09L330.68,585.66L331.23,586.13L331.86,586.49L332.55,586.72L333.27,586.81L334.00,586.75L334.70,586.56L335.35,586.23L335.92,585.78L336.39,585.23L336.75,584.60L336.98,583.91L338.42,577.32L347.76,491.62z" fill="currentColor" stroke="none" fill-opacity="1.00" fill-rule="nonzero" />
      <path d="M374.39,406.94L374.46,406.78L374.51,406.61L374.52,406.43L374.50,406.25L374.44,406.08L374.35,405.93L374.23,405.79L374.09,405.69L373.93,405.61L373.76,405.56L373.58,405.55L373.40,405.57L373.23,405.63L373.08,405.72L372.94,405.84L372.84,405.98L315.23,494.04L297.24,526.87L296.96,527.52L296.82,528.21L296.82,528.92L296.95,529.61L297.22,530.26L297.60,530.85L298.10,531.36L298.68,531.75L299.33,532.02L300.02,532.17L300.73,532.17L301.42,532.04L302.08,531.77L302.66,531.38L303.17,530.89L303.56,530.30L321.14,497.59z" fill="currentColor" stroke="none" fill-opacity="1.00" fill-rule="nonzero" />
      <path d="M211.24,307.82L211.09,307.80L210.94,307.81L210.79,307.85L210.65,307.92L210.53,308.01L210.43,308.13L210.36,308.26L210.31,308.41L210.29,308.56L210.30,308.71L210.34,308.86L210.41,309.00L210.51,309.12L210.62,309.22L210.75,309.29L210.90,309.34L274.29,325.98L305.39,336.66L334.07,352.10L355.17,362.09L355.78,362.32L356.41,362.42L357.06,362.40L357.68,362.25L358.27,361.99L358.80,361.61L359.24,361.14L359.58,360.59L359.80,359.99L359.91,359.35L359.89,358.71L359.74,358.08L359.47,357.49L359.10,356.97L358.62,356.53L358.08,356.19L337.41,345.63L308.19,330.76L276.19,319.87z" fill="currentColor" stroke="none" fill-opacity="1.00" fill-rule="nonzero" />
      <path d="M66.98,372.11L66.98,371.94L66.95,371.77L66.89,371.61L66.79,371.46L66.67,371.34L66.53,371.24L66.37,371.17L66.20,371.13L66.03,371.13L65.86,371.16L65.70,371.23L65.55,371.32L65.43,371.44L65.33,371.58L65.26,371.74L65.23,371.91L51.33,468.58L39.49,556.63L39.47,557.40L39.59,558.16L39.86,558.88L40.27,559.53L40.79,560.09L41.41,560.53L42.11,560.85L42.86,561.02L43.62,561.05L44.38,560.92L45.10,560.65L45.75,560.25L46.31,559.73L46.76,559.10L47.07,558.40L47.25,557.66L58.65,469.52z" fill="currentColor" stroke="none" fill-opacity="1.00" fill-rule="nonzero" />
      <path d="M25.80,307.54L26.03,307.37L26.21,307.15L26.35,306.91L26.44,306.64L26.48,306.35L26.46,306.07L26.39,305.80L26.26,305.54L26.09,305.32L25.87,305.13L25.63,304.99L25.36,304.90L25.07,304.86L24.79,304.88L24.52,304.95L24.26,305.08L11.95,311.52L-15.74,316.24L-16.78,316.65L-42.71,332.51L-43.74,333.52L-82.33,393.58L-126.88,490.66L-139.98,540.74L-140.09,541.41L-140.06,542.08L-139.90,542.74L-139.62,543.35L-139.22,543.89L-138.73,544.35L-138.15,544.70L-137.52,544.93L-136.86,545.04L-136.18,545.01L-135.53,544.86L-134.92,544.57L-134.37,544.18L-133.91,543.68L-133.56,543.11L-133.33,542.47L-120.51,493.24L-76.87,396.82L-38.57,337.74L-14.05,322.10L13.35,316.39L14.22,316.05z" fill="currentColor" stroke="none" fill-opacity="1.00" fill-rule="nonzero" />
      <path d="M187.97,355.56L188.16,355.99L188.42,356.38L188.75,356.71L189.14,356.97L189.58,357.15L190.04,357.23L190.51,357.23L190.97,357.14L191.40,356.95L191.79,356.69L192.12,356.36L192.37,355.96L192.55,355.53L192.64,355.07L192.63,354.60L192.54,354.14L187.45,335.70L186.98,334.78L186.21,334.07L171.18,323.79L170.16,323.34L169.04,323.24L153.94,324.00L152.73,324.29L151.69,324.96L128.64,346.03L89.28,365.04L74.32,365.16L73.66,365.23L73.03,365.43L72.44,365.75L71.93,366.18L71.52,366.70L71.21,367.29L71.02,367.93L70.97,368.59L71.04,369.25L71.24,369.88L71.56,370.47L71.99,370.98L72.50,371.39L73.09,371.70L73.73,371.89L74.40,371.95L90.10,371.75L91.52,371.41L132.01,351.93L155.79,331.50L168.39,330.23L182.02,338.53z" fill="currentColor" stroke="none" fill-opacity="1.00" fill-rule="nonzero" />
      <path d="M181.42,267.22L181.31,267.09L181.18,266.98L181.04,266.89L180.88,266.84L180.71,266.81L180.54,266.82L180.37,266.87L180.22,266.94L180.08,267.04L179.97,267.17L179.89,267.32L179.83,267.48L179.81,267.65L179.82,267.82L179.86,267.98L179.94,268.14L195.30,296.64L202.47,319.51L197.76,344.31L192.51,354.20L192.28,354.72L192.17,355.28L192.16,355.85L192.27,356.41L192.48,356.94L192.79,357.42L193.19,357.83L193.67,358.15L194.19,358.38L194.75,358.49L195.32,358.50L195.88,358.39L196.41,358.18L196.89,357.86L197.30,357.46L197.62,356.99L203.33,346.82L209.19,319.95L209.08,318.22L200.42,294.57z" fill="currentColor" stroke="none" fill-opacity="1.00" fill-rule="nonzero" />
      <path d="M182.45,264.61L182.52,264.33L182.53,264.04L182.48,263.75L182.38,263.47L182.23,263.22L182.03,263.01L181.80,262.83L181.53,262.71L181.25,262.64L180.95,262.63L180.66,262.67L180.39,262.78L180.14,262.93L179.92,263.13L179.75,263.36L179.63,263.63L172.98,279.51L139.28,322.28L122.43,337.36L93.67,356.82L81.14,360.90L80.47,361.18L79.86,361.59L79.35,362.10L78.95,362.71L78.68,363.39L78.54,364.10L78.55,364.83L78.70,365.54L78.98,366.21L79.39,366.81L79.90,367.32L80.51,367.72L81.19,367.99L81.90,368.13L82.63,368.13L83.34,367.98L96.52,364.05L126.98,343.57L144.30,327.27L177.25,282.25z" fill="currentColor" stroke="none" fill-opacity="1.00" fill-rule="nonzero" />
      <path d="M176.66,238.97L176.69,238.54L176.63,238.12L176.50,237.71L176.28,237.34L176.00,237.01L175.66,236.75L175.27,236.56L174.86,236.44L174.43,236.41L174.00,236.47L173.60,236.60L173.22,236.82L172.90,237.10L172.63,237.44L172.44,237.83L172.33,238.24L166.93,261.37L166.90,262.40L167.16,263.39L167.69,264.27L176.42,274.94L176.90,275.43L177.47,275.82L178.11,276.09L178.78,276.23L179.47,276.24L180.15,276.11L180.79,275.85L181.37,275.47L181.86,274.99L182.25,274.42L182.52,273.79L182.67,273.11L182.67,272.42L182.55,271.74L182.29,271.10L181.91,270.52L174.40,260.98z" fill="currentColor" stroke="none" fill-opacity="1.00" fill-rule="nonzero" />
      <path d="M32.96,328.68L32.76,328.37L32.50,328.11L32.19,327.90L31.85,327.76L31.49,327.69L31.13,327.69L30.77,327.76L30.43,327.90L30.12,328.10L29.86,328.36L29.66,328.67L29.52,329.00L29.44,329.36L29.44,329.73L29.51,330.09L29.65,330.43L42.17,356.17L43.15,357.23L55.58,365.53L56.27,365.86L57.02,366.02L57.78,365.98L67.07,364.44L67.66,364.27L68.20,364.00L68.68,363.63L69.09,363.17L69.39,362.63L69.58,362.06L69.66,361.45L69.61,360.84L69.45,360.25L69.18,359.70L68.81,359.22L68.34,358.82L67.81,358.52L67.23,358.33L66.63,358.25L66.02,358.29L57.93,359.71L46.91,352.80z" fill="currentColor" stroke="none" fill-opacity="1.00" fill-rule="nonzero" />
      <path d="M48.99,280.23L49.00,280.21L49.01,280.19L49.01,280.17L49.01,280.15L49.00,280.12L48.99,280.10L48.98,280.09L48.96,280.07L48.94,280.06L48.92,280.06L48.90,280.06L48.87,280.06L48.85,280.06L48.83,280.08L48.82,280.09L48.80,280.11L33.60,299.42L13.37,320.18L-3.32,336.86L-3.71,337.37L-3.99,337.95L-4.13,338.59L-4.12,339.23L-3.97,339.86L-3.68,340.44L-3.28,340.94L-2.77,341.34L-2.18,341.62L8.01,345.26L9.58,345.37L22.49,342.67L23.41,342.32L24.15,341.69L31.13,333.71L31.74,332.57L31.97,331.48L32.07,330.90L32.06,330.30L31.94,329.72L31.70,329.17L31.36,328.68L30.93,328.27L30.43,327.94L29.88,327.73L29.29,327.62L28.70,327.63L28.11,327.76L27.57,327.99L27.08,328.33L26.66,328.76L26.34,329.26L26.12,329.82L25.99,330.25L20.40,337.22L9.21,339.17L4.03,337.62L17.20,323.90L37.11,302.47z" fill="currentColor" stroke="none" fill-opacity="1.00" fill-rule="nonzero" />
      <path d="M58.68,283.76L58.68,283.73L58.69,283.71L58.68,283.69L58.67,283.67L58.66,283.65L58.65,283.63L58.63,283.62L58.61,283.61L58.59,283.61L58.57,283.60L58.54,283.61L58.52,283.61L58.50,283.63L58.49,283.64L58.47,283.66L58.46,283.68L47.30,306.39L47.13,307.22L47.20,308.05L52.50,333.38L72.09,369.79L73.30,371.09L75.29,372.31L75.91,372.63L76.58,372.82L77.28,372.88L77.97,372.80L78.64,372.59L79.25,372.25L79.79,371.80L80.22,371.25L80.55,370.63L80.74,369.96L80.80,369.26L80.72,368.57L80.51,367.90L80.17,367.29L79.72,366.75L79.17,366.32L77.94,365.57L59.03,331.41L53.22,307.58z" fill="currentColor" stroke="none" fill-opacity="1.00" fill-rule="nonzero" />
      <path d="M132.88,166.94L137.47,164.33L144.41,163.79L160.38,164.01L168.12,165.20L176.33,167.34L178.12,157.02L162.35,148.75L148.89,142.44L140.39,139.09z" fill-rule="evenodd" fill="currentColor" stroke="none" fill-opacity="1.00" />
      <path d="M57.95,135.26L58.82,141.61L59.54,147.78L65.94,145.51L74.56,143.83L83.25,144.83L87.74,145.88L88.41,137.98L86.41,134.26L73.97,135.63L60.90,135.18L57.09,134.49z" fill-rule="evenodd" fill="currentColor" stroke="none" fill-opacity="1.00" />
      <path d="M32.10,137.98L32.08,137.99L32.07,138.01L32.05,138.03L32.05,138.05L32.04,138.08L32.05,138.10L32.05,138.12L32.06,138.15L32.08,138.16L32.10,138.18L32.12,138.19L32.14,138.20L32.16,138.20L32.19,138.20L32.21,138.19L32.23,138.18L43.83,133.51L58.73,131.12L60.50,131.32L61.04,131.30L61.55,131.19L62.04,130.97L62.48,130.66L62.84,130.28L63.13,129.83L63.32,129.33L63.41,128.81L63.39,128.28L63.28,127.76L63.06,127.27L62.75,126.84L62.37,126.47L61.92,126.18L61.42,125.99L60.90,125.90L58.80,125.80L42.49,128.67L41.55,129.04z" fill="currentColor" stroke="none" fill-opacity="1.00" fill-rule="nonzero" />
      <path d="M96.00,125.52L95.73,125.49L95.47,125.51L95.21,125.58L94.97,125.70L94.76,125.86L94.59,126.06L94.46,126.29L94.37,126.54L94.34,126.81L94.36,127.07L94.43,127.33L94.55,127.57L94.71,127.78L94.91,127.95L95.14,128.08L95.39,128.17L103.04,131.31L119.40,134.36L128.47,138.63L129.06,138.84L129.68,138.93L130.31,138.90L130.92,138.75L131.48,138.48L131.98,138.10L132.40,137.64L132.73,137.10L132.94,136.51L133.03,135.89L132.99,135.26L132.84,134.65L132.57,134.09L132.20,133.58L131.73,133.16L131.19,132.84L121.71,128.38L104.16,125.97z" fill="currentColor" stroke="none" fill-opacity="1.00" fill-rule="nonzero" />
      <path d="M42.27,223.93L42.25,223.95L42.22,223.98L42.21,224.01L42.20,224.04L42.20,224.07L42.20,224.11L42.21,224.14L42.23,224.17L42.25,224.19L42.27,224.21L42.30,224.23L42.34,224.24L42.37,224.24L42.40,224.23L42.43,224.22L42.46,224.21L52.59,218.52L61.55,219.96L77.65,226.34L85.11,231.51L85.28,231.61L85.47,231.67L85.67,231.69L85.86,231.68L86.05,231.63L86.23,231.54L86.38,231.42L86.51,231.27L86.61,231.10L86.67,230.91L86.69,230.72L86.68,230.52L86.63,230.33L86.54,230.15L86.42,230.00L86.27,229.87L78.80,224.50L62.33,217.66L52.49,215.98L52.18,215.97L51.87,216.04L51.58,216.19z" fill="currentColor" stroke="none" fill-opacity="1.00" fill-rule="nonzero" />
      <path d="M42.07,229.61L42.04,229.57L42.01,229.55L41.97,229.53L41.93,229.52L41.89,229.51L41.85,229.52L41.81,229.53L41.78,229.55L41.74,229.58L41.72,229.61L41.70,229.65L41.69,229.69L41.68,229.73L41.69,229.77L41.70,229.81L41.72,229.85L49.79,242.63L50.09,242.90L56.30,246.36L56.58,246.46L56.88,246.47L71.67,245.41L72.06,245.31L72.40,245.10L82.01,237.11L83.82,234.12L83.92,233.90L83.99,233.66L84.00,233.42L83.97,233.17L83.89,232.94L83.77,232.73L83.60,232.54L83.41,232.39L83.19,232.29L82.95,232.22L82.70,232.21L82.46,232.24L82.23,232.32L82.02,232.44L81.83,232.61L81.68,232.80L80.10,235.17L71.00,242.77L57.00,244.36L51.06,241.49z" fill="currentColor" stroke="none" fill-opacity="1.00" fill-rule="nonzero" />
      <path d="M43.30,225.64L43.22,225.65L43.13,225.67L43.06,225.71L42.99,225.76L42.93,225.82L42.89,225.89L42.86,225.97L42.85,226.06L42.85,226.14L42.87,226.22L42.91,226.30L42.96,226.37L43.02,226.43L43.10,226.47L43.18,226.50L43.26,226.51L57.26,228.84L75.45,231.37L80.70,233.65L81.20,233.79L81.71,233.83L82.23,233.76L82.72,233.60L83.17,233.34L83.56,233.00L83.87,232.59L84.11,232.13L84.24,231.63L84.28,231.12L84.21,230.60L84.05,230.11L83.79,229.66L83.45,229.27L83.04,228.96L82.58,228.73L76.87,226.83L57.70,224.63z" fill="currentColor" stroke="none" fill-opacity="1.00" fill-rule="nonzero" />
      <path d="M43.84,226.56L43.71,226.48L43.57,226.42L43.42,226.40L43.28,226.40L43.13,226.44L42.99,226.50L42.87,226.58L42.77,226.69L42.69,226.82L42.63,226.96L42.61,227.10L42.61,227.25L42.64,227.40L42.71,227.53L42.79,227.66L42.90,227.76L49.25,234.31L59.08,238.79L60.03,238.97L70.86,238.87L81.76,235.06L82.22,234.84L82.62,234.54L82.96,234.16L83.22,233.72L83.39,233.24L83.46,232.74L83.43,232.23L83.30,231.73L83.08,231.28L82.77,230.87L82.39,230.53L81.95,230.27L81.47,230.11L80.97,230.04L80.46,230.07L79.97,230.19L70.29,233.79L60.39,234.32L51.52,230.97z" fill="currentColor" stroke="none" fill-opacity="1.00" fill-rule="nonzero" />
      <path d="M64.37,197.09L64.33,197.19L64.31,197.29L64.31,197.40L64.33,197.51L64.37,197.61L64.43,197.70L64.51,197.77L64.60,197.83L64.70,197.87L64.81,197.89L64.92,197.89L65.02,197.87L65.12,197.83L65.21,197.76L65.29,197.69L65.35,197.60L69.16,192.79L73.30,192.92L77.00,196.94L77.25,197.17L77.54,197.35L77.86,197.46L78.20,197.51L78.54,197.50L78.87,197.41L79.18,197.27L79.46,197.07L79.68,196.81L79.86,196.52L79.98,196.20L80.03,195.86L80.01,195.52L79.93,195.19L79.78,194.88L79.58,194.61L75.41,189.96L75.04,189.65L74.60,189.45L74.13,189.38L68.15,189.32L67.77,189.36L67.41,189.48L67.08,189.67L66.80,189.94L66.59,190.25z" fill="currentColor" stroke="none" fill-opacity="1.00" fill-rule="nonzero" />
      <path d="M49.88,197.52L49.87,197.54L49.86,197.57L49.86,197.59L49.86,197.62L49.87,197.64L49.88,197.66L49.90,197.68L49.91,197.69L49.94,197.70L49.96,197.71L49.98,197.71L50.01,197.71L50.03,197.70L50.05,197.69L50.07,197.67L50.08,197.65L54.77,192.66L58.49,195.95L58.74,196.18L59.03,196.39L59.34,196.54L59.68,196.62L60.03,196.64L60.38,196.58L60.71,196.47L61.01,196.29L61.26,196.05L61.47,195.77L61.62,195.45L61.70,195.11L61.72,194.76L61.67,194.42L61.55,194.09L61.37,193.79L61.13,193.53L60.83,193.25L55.28,189.36L55.02,189.20L54.73,189.10L54.43,189.05L54.12,189.08L53.83,189.16L53.56,189.31L53.33,189.50L53.14,189.74z" fill="currentColor" stroke="none" fill-opacity="1.00" fill-rule="nonzero" />
      <path d="M75.24,153.49L75.23,153.42L75.21,153.35L75.17,153.29L75.12,153.24L75.07,153.20L75.00,153.17L74.94,153.15L74.87,153.14L74.80,153.15L74.73,153.18L74.67,153.21L74.62,153.26L74.58,153.32L74.55,153.38L74.53,153.45L74.53,153.52L73.48,170.78L73.77,171.78L80.53,185.32L81.92,194.03L80.80,195.65L80.56,196.20L80.43,196.78L80.42,197.38L80.53,197.97L80.75,198.53L81.07,199.03L81.48,199.46L81.97,199.80L82.52,200.04L83.11,200.17L83.70,200.18L84.29,200.07L84.85,199.86L85.35,199.53L85.78,199.12L86.12,198.63L87.51,196.08L87.84,195.18L87.87,194.23L86.70,183.89L86.30,182.70L77.81,170.05z" fill="currentColor" stroke="none" fill-opacity="1.00" fill-rule="nonzero" />
      <path d="M59.92,90.49L84.24,87.23L118.79,82.71L147.82,90.52L164.76,103.99L166.96,114.64L169.83,127.13L177.38,140.95L177.43,162.23L190.40,165.51L200.77,159.85L205.23,114.98L196.77,94.62L182.31,73.60L157.90,58.57L133.28,53.94L106.51,54.12L76.59,66.77L61.93,80.43L53.21,91.53L56.88,94.28z" fill-rule="evenodd" fill="currentColor" stroke="none" fill-opacity="1.00" />
      <path d="M37.31,128.15L37.30,128.18L37.29,128.20L37.29,128.22L37.30,128.25L37.30,128.27L37.32,128.29L37.33,128.31L37.35,128.32L37.37,128.33L37.40,128.34L37.42,128.34L37.44,128.33L37.47,128.32L37.49,128.31L37.50,128.29L37.52,128.28L48.39,112.78L61.00,95.58L74.08,90.57L103.56,86.49L120.29,86.93L143.63,93.21L164.64,108.39L166.75,111.20L167.53,125.59L167.73,126.48L168.18,127.27L175.47,137.13L177.37,146.21L175.16,164.93L175.14,165.55L175.24,166.15L175.45,166.72L175.77,167.24L176.19,167.69L176.69,168.05L177.24,168.30L177.84,168.44L178.45,168.46L179.05,168.36L179.63,168.15L180.15,167.82L180.59,167.41L180.95,166.91L181.20,166.35L181.34,165.76L184.18,146.55L182.09,134.97L181.44,133.54L173.81,124.10L172.10,110.05L171.67,108.80L169.27,104.70L168.50,103.91L146.34,88.52L121.29,81.99L103.53,81.09L72.97,84.98L58.33,91.07L57.68,91.46L57.16,92.01L45.27,110.74z" fill="currentColor" stroke="none" fill-opacity="1.00" fill-rule="nonzero" />
      <path d="M176.96,183.06L176.76,183.13L176.57,183.23L176.41,183.37L176.28,183.54L176.19,183.73L176.14,183.94L176.14,184.15L176.18,184.36L176.26,184.56L176.38,184.73L176.54,184.88L176.72,184.99L176.92,185.06L177.13,185.09L177.34,185.07L188.61,183.83L189.50,186.93L183.82,201.83L176.65,208.61L176.29,209.02L176.02,209.50L175.86,210.02L175.81,210.57L175.87,211.11L176.05,211.63L176.33,212.10L176.70,212.50L177.15,212.82L177.65,213.04L178.19,213.14L178.73,213.14L179.27,213.01L179.77,212.79L180.21,212.46L188.01,205.40L188.71,204.34L194.74,187.63L194.89,186.92L194.84,186.20L194.59,185.52L191.31,180.81L191.03,180.41L190.66,180.10L190.23,179.90L189.76,179.80L189.28,179.83z" fill="currentColor" stroke="none" fill-opacity="1.00" fill-rule="nonzero" />
      <path d="M171.09,168.88L171.06,168.89L171.04,168.90L171.02,168.91L171.00,168.93L170.99,168.95L170.98,168.97L170.97,168.99L170.97,169.01L170.98,169.04L170.99,169.06L171.00,169.08L171.02,169.10L171.04,169.11L171.06,169.12L171.08,169.13L171.10,169.13L178.38,170.54L195.73,169.33L200.09,182.53L193.38,215.01L182.01,225.70L173.47,223.07L173.48,222.81L173.06,222.32L172.55,221.93L171.97,221.65L171.34,221.48L170.70,221.44L170.06,221.52L169.45,221.73L168.89,222.06L168.41,222.48L168.01,222.99L167.73,223.57L167.56,224.20L167.52,224.84L167.61,225.48L167.81,226.09L168.14,226.65L168.84,227.60L169.53,228.30L170.40,228.77L181.71,233.08L182.47,233.26L183.25,233.27L184.02,233.10L184.73,232.77L185.35,232.28L198.62,218.97L199.20,218.20L199.53,217.30L206.72,182.97L206.61,181.22L200.69,164.99L200.39,164.37L199.95,163.83L199.41,163.40L198.79,163.10L198.11,162.96L197.42,162.96L178.01,166.37z" fill="currentColor" stroke="none" fill-opacity="1.00" fill-rule="nonzero" />
      <path d="M132.97,258.75L132.99,258.73L133.00,258.71L133.01,258.69L133.01,258.66L133.01,258.64L133.00,258.62L132.99,258.60L132.98,258.58L132.96,258.56L132.94,258.55L132.92,258.54L132.89,258.54L132.87,258.54L132.85,258.55L132.83,258.56L132.81,258.57L112.05,274.33L100.90,279.64L86.53,283.00L65.51,282.98L50.87,279.00L40.10,269.56L38.61,246.77L32.59,219.60L30.02,197.87L29.59,183.65L29.50,183.01L29.30,182.40L28.97,181.84L28.55,181.36L28.04,180.97L27.46,180.68L26.84,180.51L26.19,180.47L25.55,180.56L24.94,180.77L24.39,181.09L23.90,181.51L23.51,182.02L23.23,182.60L23.06,183.22L23.02,183.87L23.54,198.22L26.14,220.52L31.93,247.47L33.59,271.37L33.76,272.22L34.14,272.99L34.71,273.64L47.11,284.45L48.42,285.15L64.22,289.41L86.91,289.47L102.75,285.85L115.04,279.27z" fill="currentColor" stroke="none" fill-opacity="1.00" fill-rule="nonzero" />
      <path d="M83.66,136.44L78.91,160.26L81.67,172.66L93.15,180.99L109.12,184.41L123.95,184.13L138.88,175.40L144.91,162.72L145.11,142.83L134.86,135.52L115.99,130.98L93.30,131.82L85.82,134.29zM116.77,144.15L113.83,149.62L119.40,153.04L127.57,154.36L134.13,153.79L135.81,146.95L133.24,142.82L126.74,141.90L120.34,142.67L117.03,143.05z" fill-rule="evenodd" fill="currentColor" stroke="none" fill-opacity="1.00" />
      <path d="M8.24,154.75L12.14,171.97L18.93,179.15L30.80,182.47L46.28,181.92L58.05,175.71L65.65,167.51L67.70,147.60L63.56,133.43L55.28,130.67L40.51,130.15L26.78,131.48L13.12,136.50L9.22,145.01L8.52,151.25zM40.28,142.32L39.17,146.42L43.80,148.33L50.39,148.41L55.00,147.32L55.22,142.42L53.02,139.96L48.03,140.12L42.86,141.35L40.20,141.89z" fill-rule="evenodd" fill="currentColor" stroke="none" fill-opacity="1.00" />
      <path d="M277.43,50.29L277.41,50.26L277.38,50.23L277.34,50.21L277.30,50.20L277.26,50.20L277.22,50.20L277.19,50.22L277.15,50.24L277.12,50.27L277.10,50.30L277.09,50.34L277.08,50.38L276.54,53.49L273.55,63.34L271.37,66.78L265.31,72.32L262.21,74.78L261.86,75.10L261.58,75.49L261.39,75.92L261.29,76.39L261.30,76.87L261.40,77.33L261.60,77.77L261.88,78.15L262.24,78.46L268.49,83.19L272.80,87.94L276.03,96.01L276.54,96.83L278.03,98.38L278.42,98.71L278.88,98.95L279.38,99.07L279.89,99.09L280.39,98.99L280.86,98.79L281.28,98.48L281.61,98.10L281.86,97.65L286.83,85.85L290.86,80.09L294.98,76.93L295.35,76.61L295.65,76.22L295.85,75.77L295.96,75.30L295.97,74.81L295.87,74.33L295.68,73.88L295.39,73.48L294.67,72.53L288.26,66.74L281.72,55.47L280.83,50.68L280.44,49.82L279.77,49.15L278.60,49.87zM276.37,51.63L276.75,52.03L276.05,52.85L277.22,56.92L283.84,69.73L291.18,75.85L291.35,74.75L287.54,76.13L282.55,83.24L279.26,94.49L280.18,94.00L277.57,85.64L277.00,84.72L271.94,79.58L267.44,76.59L268.30,76.16L274.79,69.88L277.34,65.01L277.55,53.61L277.32,50.58z" fill="currentColor" stroke="none" fill-opacity="1.00" fill-rule="nonzero" />
      <path d="M320.79,7.64L322.46,11.52L318.87,25.61L315.45,31.09L306.98,38.74L303.71,40.29L303.32,40.51L302.98,40.81L302.72,41.17L302.55,41.59L302.46,42.03L302.48,42.48L302.60,42.91L302.81,43.31L303.10,43.65L303.45,43.93L310.99,48.68L317.16,55.62L321.30,66.67L321.72,68.03L321.89,68.43L322.14,68.78L322.45,69.08L322.82,69.31L323.23,69.45L323.66,69.50L324.10,69.47L324.51,69.35L324.89,69.14L325.22,68.86L325.49,68.52L325.68,68.13L331.32,53.22L337.06,45.23L342.50,41.66L342.86,41.38L343.16,41.03L343.37,40.61L343.49,40.17L343.50,39.70L343.41,39.25L343.22,38.83L342.95,38.45L342.60,38.15L342.07,37.70L333.83,30.22L325.16,14.73L323.99,8.34L323.71,7.65L323.24,7.07L322.02,7.55zM319.68,8.57L319.83,8.91L320.07,9.19L319.58,10.09L321.08,15.96L329.83,32.87L339.31,41.04L339.32,39.81L334.24,41.51L333.55,42.15L327.46,50.86L323.77,65.32L325.28,65.40L321.48,53.60L320.99,52.78L314.08,45.41L306.55,42.31L309.05,42.62L318.49,33.92L322.26,27.17L322.49,26.52L323.39,11.51L323.38,11.36L323.33,11.22L320.87,7.39L320.85,7.37L320.83,7.34L320.79,7.32L320.76,7.31L320.73,7.31L320.69,7.31L320.66,7.32L320.62,7.34L320.60,7.36L320.57,7.39L320.56,7.42L320.55,7.45L320.55,7.49L320.55,7.53z" fill="currentColor" stroke="none" fill-opacity="1.00" fill-rule="nonzero" />
      <path d="M341.42,63.48L341.38,63.47L341.34,63.47L341.29,63.48L341.25,63.50L341.22,63.53L341.19,63.56L341.17,63.60L341.15,63.64L341.15,63.68L341.15,63.73L341.17,63.77L343.40,69.07L339.77,81.15L336.81,85.59L329.38,92.13L326.07,94.10L325.66,94.38L325.32,94.74L325.06,95.15L324.88,95.61L324.81,96.10L324.83,96.60L324.95,97.07L325.17,97.52L325.48,97.90L325.86,98.22L332.73,103.20L337.80,109.07L341.41,118.75L343.37,121.43L343.73,121.79L344.16,122.07L344.63,122.26L345.13,122.35L345.64,122.33L346.13,122.21L346.59,121.99L346.99,121.68L347.32,121.29L347.57,120.84L353.59,107.07L358.47,100.42L363.74,96.46L364.19,96.06L364.53,95.57L364.74,95.00L364.81,94.41L364.73,93.81L364.51,93.25L363.63,91.46L356.00,84.15L348.67,71.04L347.66,65.08L347.02,63.83L345.08,63.61L344.46,63.19zM343.09,65.87L342.38,66.99L343.85,72.46L351.26,87.25L359.39,94.27L359.94,93.85L354.98,96.18L349.09,104.20L344.95,117.44L345.91,116.78L342.91,106.74L342.35,105.76L336.46,99.43L329.63,96.36L332.11,96.53L340.36,88.97L343.75,83.04L344.03,82.26L344.49,69.07L344.49,68.91L344.44,68.75L341.76,64.04z" fill="currentColor" stroke="none" fill-opacity="1.00" fill-rule="nonzero" />
      <path d="M270.94,227.12L270.83,227.17L270.73,227.24L270.65,227.33L270.58,227.43L270.54,227.54L270.52,227.66L270.52,227.78L270.55,227.90L270.60,228.01L270.67,228.11L270.76,228.19L270.86,228.25L270.98,228.29L271.10,228.31L271.22,228.31L271.33,228.28L278.85,226.56L294.59,238.10L303.03,251.20L303.31,251.56L303.66,251.85L304.06,252.07L304.49,252.20L304.94,252.25L305.39,252.21L305.83,252.08L306.23,251.87L306.58,251.59L306.87,251.24L307.09,250.84L307.23,250.41L307.28,249.96L307.23,249.50L307.11,249.07L306.90,248.67L298.00,235.34L297.40,234.73L279.85,223.81L279.46,223.62L279.03,223.56L278.60,223.64z" fill="currentColor" stroke="none" fill-opacity="1.00" fill-rule="nonzero" />
      <path d="M57.91,226.73L53.95,227.60L53.39,233.12L53.66,234.58L50.84,233.17L44.87,228.83L44.44,227.92L48.56,225.89L50.08,225.71z" fill-rule="evenodd" fill="currentColor" stroke="none" fill-opacity="1.00" />
      <path d="M54.62,286.71L55.84,292.75L50.88,306.50L54.30,307.29L83.51,299.19L98.83,292.20L111.86,282.03L116.99,274.10L95.31,281.61L70.86,284.97L66.35,284.18z" fill-rule="evenodd" fill="currentColor" stroke="none" fill-opacity="1.00" />
    </g>
  </symbol>
</svg>