<?xml version='1.0' encoding='utf-8'?>
<svg xmlns="http://www.w3.org/2000/svg" version="1.1" x="0.00px" y="0.00px" width="400.00px" height="400.00px" viewBox="0.00 0.00 400.00 400.00">
  <symbol id="frame" viewBox="0.00 0.00 400.00 400.00">
    <g class="layers.drawing-primary">
      <path d="M234.07,200.73z" fill-rule="evenodd" fill="currentColor" stroke="none" fill-opacity="1.00" />
      <path d="M182.15,126.92L182.16,126.87L182.16,126.82L182.15,126.77L182.13,126.72L182.10,126.68L182.07,126.64L182.02,126.61L181.98,126.59L181.93,126.58L181.88,126.58L181.83,126.59L181.78,126.61L181.74,126.64L181.70,126.67L181.67,126.72L181.65,126.76L170.17,158.53L166.38,210.95L174.47,244.45L178.57,253.39L178.83,253.81L179.16,254.18L179.55,254.47L180.00,254.68L180.47,254.80L180.96,254.82L181.45,254.75L181.91,254.58L182.33,254.33L182.70,254.00L182.99,253.61L183.20,253.16L183.32,252.68L183.35,252.19L183.27,251.71L183.11,251.24L179.15,243.04L171.15,210.87L173.69,159.40z" fill="currentColor" stroke="none" fill-opacity="1.00" fill-rule="nonzero" />
      <path d="M180.68,249.94L180.73,250.20L180.83,250.44L180.97,250.66L181.15,250.85L181.37,250.99L181.61,251.09L181.87,251.15L182.13,251.15L182.38,251.10L182.63,251.00L182.84,250.86L183.03,250.68L183.18,250.46L183.28,250.22L183.33,249.97L183.34,249.71L181.91,223.39L187.91,193.82L187.96,193.30L187.90,192.79L187.75,192.30L187.50,191.85L187.17,191.46L186.77,191.13L186.32,190.90L185.82,190.75L185.31,190.71L184.80,190.76L184.31,190.91L183.86,191.16L183.46,191.49L183.14,191.89L182.90,192.35L182.76,192.84L177.47,222.86z" fill="currentColor" stroke="none" fill-opacity="1.00" fill-rule="nonzero" />
      <path d="M187.87,194.59L187.81,194.31L187.69,194.03L187.52,193.79L187.30,193.59L187.05,193.43L186.78,193.32L186.48,193.27L186.19,193.27L185.90,193.34L185.63,193.46L185.38,193.63L185.18,193.84L185.02,194.09L184.91,194.37L184.86,194.66L184.87,194.96L187.89,225.24L197.74,249.04L197.97,249.45L198.27,249.81L198.64,250.10L199.05,250.32L199.50,250.45L199.97,250.49L200.43,250.44L200.88,250.30L201.29,250.07L201.65,249.77L201.94,249.40L202.16,248.99L202.29,248.54L202.33,248.07L202.28,247.61L202.14,247.16L192.17,224.41z" fill="currentColor" stroke="none" fill-opacity="1.00" fill-rule="nonzero" />
      <path d="M201.92,256.45L201.98,256.76L202.10,257.06L202.27,257.34L202.50,257.57L202.76,257.75L203.06,257.88L203.37,257.95L203.69,257.96L204.01,257.90L204.31,257.79L204.58,257.61L204.82,257.39L205.00,257.12L205.13,256.83L205.20,256.51L205.21,256.19L201.43,199.33L209.20,158.87L209.24,158.39L209.19,157.92L209.04,157.47L208.82,157.05L208.51,156.69L208.14,156.39L207.72,156.17L207.27,156.04L206.80,156.00L206.32,156.05L205.87,156.19L205.46,156.42L205.09,156.72L204.79,157.09L204.57,157.51L204.44,157.97L196.84,198.78z" fill="currentColor" stroke="none" fill-opacity="1.00" fill-rule="nonzero" />
      <path d="M188.88,238.18L188.88,238.16L188.87,238.14L188.86,238.12L188.85,238.10L188.83,238.09L188.82,238.08L188.80,238.07L188.77,238.07L188.75,238.07L188.73,238.08L188.71,238.09L188.70,238.10L188.69,238.12L188.68,238.14L188.67,238.16L188.67,238.18L187.07,267.93L184.59,309.40L187.47,319.82L188.06,320.82L197.73,330.72L204.43,335.45L204.83,335.68L205.27,335.82L205.73,335.88L206.20,335.84L206.64,335.72L207.06,335.51L207.42,335.22L207.73,334.87L207.96,334.47L208.10,334.03L208.16,333.56L208.12,333.10L208.00,332.65L207.79,332.24L207.50,331.87L207.15,331.57L201.01,327.22L191.95,317.87L189.35,309.26L191.50,268.10z" fill="currentColor" stroke="none" fill-opacity="1.00" fill-rule="nonzero" />
      <path d="M204.25,281.59L204.24,281.40L204.19,281.21L204.10,281.03L203.99,280.87L203.84,280.74L203.67,280.64L203.49,280.58L203.29,280.55L203.10,280.56L202.91,280.61L202.73,280.70L202.58,280.81L202.45,280.96L202.35,281.13L202.28,281.31L202.25,281.51L199.87,308.28L204.04,328.17L204.22,328.67L204.48,329.12L204.83,329.52L205.25,329.83L205.72,330.06L206.23,330.20L206.75,330.23L207.27,330.16L207.77,329.98L208.22,329.72L208.61,329.37L208.93,328.95L209.16,328.48L209.29,327.97L209.33,327.45L209.26,326.93L204.29,308.16z" fill="currentColor" stroke="none" fill-opacity="1.00" fill-rule="nonzero" />
      <path d="M205.15,334.24L205.07,334.08L204.97,333.94L204.84,333.82L204.69,333.73L204.52,333.67L204.34,333.64L204.17,333.65L203.99,333.69L203.83,333.77L203.69,333.87L203.57,334.00L203.48,334.16L203.42,334.32L203.40,334.50L203.41,334.68L203.45,334.85L205.00,343.67L205.23,344.14L205.55,344.55L205.96,344.88L206.42,345.11L206.92,345.25L207.44,345.26L207.96,345.17L208.44,344.97L212.49,342.63L212.93,342.32L213.29,341.91L213.54,341.42L213.67,340.89L213.67,340.35L213.02,333.25L212.90,332.70L212.65,332.20L212.29,331.76L211.84,331.42L211.33,331.19L210.78,331.08L206.27,330.35L205.71,330.36L205.17,330.48L204.67,330.70L204.21,331.02L203.83,331.42L203.53,331.88L203.33,332.40L203.23,332.95L203.24,333.50L203.36,334.04L203.58,334.55L203.90,335.00L204.30,335.39L204.77,335.69L205.28,335.89L205.83,335.98L208.37,335.80L208.90,339.32L208.59,339.38z" fill="currentColor" stroke="none" fill-opacity="1.00" fill-rule="nonzero" />
      <path d="M204.39,345.44L204.42,345.41L204.45,345.37L204.47,345.32L204.48,345.27L204.49,345.22L204.48,345.17L204.46,345.12L204.43,345.08L204.40,345.04L204.36,345.01L204.31,344.99L204.26,344.98L204.21,344.98L204.16,344.99L204.11,345.01L204.07,345.03L197.18,348.79L196.73,349.36L189.98,362.91L189.61,373.59L193.62,386.97L193.93,387.55L196.21,390.20L196.44,390.42L196.70,390.60L196.99,390.72L197.30,390.78L197.62,390.77L197.93,390.71L198.22,390.58L198.48,390.41L198.70,390.18L198.88,389.92L199.00,389.62L199.06,389.31L199.05,389.00L198.99,388.69L198.86,388.40L198.69,388.13L196.70,385.68L193.13,373.48L194.00,364.29L199.32,350.93z" fill="currentColor" stroke="none" fill-opacity="1.00" fill-rule="nonzero" />
      <path d="M211.81,346.92L211.76,346.82L211.69,346.73L211.60,346.65L211.50,346.60L211.39,346.56L211.28,346.55L211.16,346.56L211.05,346.59L210.95,346.65L210.86,346.72L210.79,346.80L210.74,346.90L210.70,347.01L210.69,347.13L210.70,347.24L210.73,347.35L212.33,354.29L210.82,363.20L203.79,379.62L202.79,380.72L202.54,381.11L202.37,381.54L202.30,381.99L202.32,382.45L202.44,382.90L202.64,383.31L202.93,383.67L203.29,383.96L203.69,384.17L204.14,384.29L204.60,384.32L205.05,384.25L205.48,384.09L205.87,383.84L206.20,383.52L207.31,382.09L214.23,364.36L215.72,354.36L215.62,353.47z" fill="currentColor" stroke="none" fill-opacity="1.00" fill-rule="nonzero" />
      <path d="M220.39,267.18L220.39,267.17L220.39,267.15L220.38,267.13L220.37,267.12L220.36,267.11L220.34,267.10L220.33,267.09L220.31,267.09L220.29,267.09L220.27,267.09L220.26,267.10L220.24,267.11L220.23,267.12L220.22,267.14L220.22,267.16L220.21,267.17L218.34,280.71L222.88,308.92L224.40,316.54L224.31,316.95L224.33,317.36L224.43,317.75L224.60,318.12L224.84,318.45L225.14,318.72L225.49,318.93L225.87,319.07L226.28,319.13L226.68,319.11L227.08,319.01L227.44,318.84L227.77,318.59L228.04,318.29L228.25,317.95L228.39,317.56L228.45,317.16L228.43,316.45L226.11,308.28L220.53,280.72z" fill="currentColor" stroke="none" fill-opacity="1.00" fill-rule="nonzero" />
      <path d="M202.58,227.37L202.56,227.31L202.53,227.26L202.49,227.22L202.44,227.18L202.39,227.15L202.33,227.14L202.27,227.13L202.21,227.14L202.15,227.16L202.10,227.19L202.05,227.23L202.01,227.28L201.99,227.34L201.97,227.40L201.97,227.46L201.98,227.52L204.68,244.99L212.35,262.07L212.64,262.53L213.05,262.88L229.39,273.88L246.02,283.35L246.43,283.53L246.86,283.63L247.31,283.64L247.75,283.57L248.16,283.41L248.54,283.18L248.86,282.87L249.12,282.51L249.30,282.10L249.40,281.67L249.42,281.22L249.34,280.78L249.19,280.37L248.95,279.99L248.64,279.67L248.28,279.41L231.87,269.93L215.60,259.96L208.07,244.00z" fill="currentColor" stroke="none" fill-opacity="1.00" fill-rule="nonzero" />
      <path d="M232.76,222.37L232.83,222.35L232.90,222.32L232.96,222.28L233.01,222.23L233.05,222.17L233.07,222.10L233.09,222.03L233.09,221.95L233.07,221.88L233.04,221.82L233.00,221.76L232.95,221.71L232.89,221.67L232.82,221.64L232.75,221.63L232.67,221.63L221.33,220.89L209.90,220.02L207.16,219.30L206.63,219.22L206.10,219.24L205.58,219.36L205.10,219.58L204.66,219.89L204.30,220.29L204.02,220.74L203.84,221.24L203.75,221.76L203.77,222.30L203.89,222.81L204.11,223.30L204.43,223.73L204.82,224.09L205.27,224.37L205.77,224.56L208.79,225.36L221.30,225.68z" fill="currentColor" stroke="none" fill-opacity="1.00" fill-rule="nonzero" />
      <path d="M327.97,297.36L328.78,305.14L327.07,317.60L329.33,317.38L341.99,316.89L351.64,324.52L360.43,331.17L363.76,332.11L357.71,322.54L345.28,301.76L344.80,300.98z" fill-rule="evenodd" fill="currentColor" stroke="none" fill-opacity="1.00" />
      <path d="M209.80,430.83L206.62,416.85L207.60,391.12L214.45,373.94L223.09,353.50L224.84,307.38L227.25,297.87L239.34,296.76L239.56,305.19L239.19,331.11L240.01,347.44L258.00,348.53L284.81,337.17L285.73,344.93L282.17,373.07L289.71,392.98L315.79,387.57L332.82,392.88L354.37,379.88L344.46,410.74L339.77,432.69z" fill-rule="evenodd" fill="currentColor" stroke="none" fill-opacity="1.00" />
      <path d="M209.09,138.82L209.08,138.76L209.06,138.71L209.03,138.66L208.98,138.62L208.94,138.59L208.88,138.57L208.83,138.56L208.77,138.56L208.71,138.57L208.66,138.59L208.61,138.62L208.57,138.66L208.54,138.71L208.52,138.77L208.51,138.82L208.51,138.88L209.95,170.32L216.53,192.40L231.03,212.71L231.78,213.42L245.23,221.93L245.71,222.18L246.24,222.32L246.78,222.36L247.32,222.29L247.83,222.12L248.30,221.85L248.71,221.50L249.05,221.07L249.29,220.58L249.43,220.06L249.47,219.52L249.41,218.98L249.23,218.46L248.97,217.99L248.61,217.58L248.18,217.25L235.15,209.07L221.52,190.32L214.14,169.66z" fill="currentColor" stroke="none" fill-opacity="1.00" fill-rule="nonzero" />
      <path d="M246.02,217.71L246.05,217.76L246.09,217.81L246.13,217.85L246.19,217.88L246.24,217.90L246.30,217.91L246.37,217.91L246.42,217.89L246.48,217.87L246.53,217.83L246.57,217.78L246.60,217.73L246.62,217.67L246.63,217.61L246.62,217.55L246.61,217.49L235.89,183.30L238.26,149.18L238.24,148.69L238.12,148.23L237.92,147.79L237.64,147.40L237.29,147.08L236.88,146.82L236.43,146.66L235.95,146.58L235.47,146.60L235.00,146.71L234.57,146.91L234.18,147.20L233.85,147.55L233.60,147.96L233.43,148.41L233.36,148.89L231.66,183.49L231.79,184.35z" fill="currentColor" stroke="none" fill-opacity="1.00" fill-rule="nonzero" />
      <path d="M242.63,134.35L242.59,134.07L242.49,133.80L242.34,133.56L242.15,133.35L241.93,133.18L241.67,133.06L241.39,132.99L241.11,132.98L240.83,133.02L240.57,133.12L240.32,133.27L240.11,133.46L239.95,133.69L239.83,133.94L239.76,134.22L239.75,134.50L240.68,169.74L240.97,170.76L256.15,198.74L256.43,199.16L256.78,199.50L257.20,199.78L257.66,199.96L258.15,200.05L258.65,200.05L259.14,199.95L259.60,199.75L260.01,199.47L260.36,199.11L260.63,198.69L260.82,198.23L260.91,197.74L260.91,197.24L260.80,196.75L260.61,196.29L245.42,168.94z" fill="currentColor" stroke="none" fill-opacity="1.00" fill-rule="nonzero" />
      <path d="M252.85,159.76L252.82,159.71L252.78,159.67L252.73,159.63L252.68,159.61L252.62,159.59L252.57,159.59L252.51,159.60L252.46,159.62L252.41,159.65L252.36,159.69L252.33,159.73L252.30,159.78L252.29,159.84L252.29,159.90L252.30,159.95L252.32,160.01L267.03,196.10L267.66,196.91L293.34,219.00L293.79,219.30L294.28,219.52L294.81,219.63L295.35,219.64L295.88,219.54L296.38,219.34L296.83,219.04L297.22,218.67L297.53,218.22L297.74,217.73L297.85,217.20L297.86,216.66L297.76,216.13L297.56,215.63L297.27,215.18L296.89,214.79L271.17,193.56z" fill="currentColor" stroke="none" fill-opacity="1.00" fill-rule="nonzero" />
      <path d="M276.42,156.56L276.40,156.51L276.37,156.46L276.32,156.42L276.28,156.39L276.22,156.37L276.17,156.36L276.11,156.36L276.06,156.37L276.00,156.39L275.96,156.42L275.92,156.46L275.89,156.51L275.86,156.56L275.85,156.62L275.85,156.68L275.86,156.73L286.23,197.69L294.91,213.73L295.18,214.13L295.53,214.47L295.94,214.74L296.39,214.92L296.87,215.00L297.35,215.00L297.83,214.90L298.28,214.70L298.68,214.43L299.02,214.08L299.28,213.67L299.46,213.22L299.55,212.74L299.54,212.25L299.44,211.78L299.25,211.33L290.67,196.07z" fill="currentColor" stroke="none" fill-opacity="1.00" fill-rule="nonzero" />
      <path d="M276.46,148.13L276.43,148.08L276.40,148.03L276.35,147.99L276.30,147.96L276.24,147.94L276.18,147.93L276.12,147.93L276.07,147.95L276.01,147.97L275.96,148.01L275.92,148.06L275.89,148.11L275.87,148.16L275.87,148.22L275.87,148.28L275.88,148.34L291.36,196.65L298.22,207.33L298.53,207.72L298.91,208.03L299.35,208.27L299.82,208.42L300.31,208.47L300.81,208.43L301.28,208.29L301.72,208.06L302.10,207.74L302.42,207.37L302.66,206.93L302.81,206.46L302.86,205.97L302.81,205.47L302.68,205.00L302.45,204.56L295.89,194.68z" fill="currentColor" stroke="none" fill-opacity="1.00" fill-rule="nonzero" />
      <path d="M216.85,313.57L216.88,313.46L216.90,313.34L216.89,313.23L216.86,313.11L216.81,313.01L216.74,312.91L216.65,312.84L216.55,312.78L216.44,312.74L216.32,312.73L216.21,312.73L216.09,312.76L215.99,312.82L215.90,312.89L215.82,312.97L215.76,313.08L208.67,324.04L200.64,330.93L200.30,331.29L200.03,331.70L199.86,332.17L199.77,332.65L199.78,333.15L199.89,333.63L200.09,334.08L200.37,334.49L200.73,334.83L201.15,335.10L201.61,335.27L202.09,335.36L202.59,335.35L203.07,335.24L203.52,335.04L203.93,334.76L212.39,327.51L213.04,326.63z" fill="currentColor" stroke="none" fill-opacity="1.00" fill-rule="nonzero" />
      <path d="M208.85,362.55L208.86,362.54L208.86,362.52L208.85,362.50L208.85,362.49L208.84,362.47L208.83,362.46L208.81,362.45L208.80,362.44L208.78,362.44L208.76,362.44L208.74,362.44L208.73,362.45L208.71,362.45L208.70,362.47L208.69,362.48L208.68,362.50L202.30,376.60L195.40,389.07L195.26,389.44L195.18,389.84L195.19,390.24L195.27,390.63L195.43,390.99L195.66,391.32L195.95,391.60L196.29,391.82L196.66,391.97L197.05,392.04L197.45,392.03L197.84,391.95L198.21,391.79L198.54,391.56L198.82,391.27L199.03,390.94L205.22,377.97z" fill="currentColor" stroke="none" fill-opacity="1.00" fill-rule="nonzero" />
      <path d="M244.08,281.72L243.90,281.80L243.74,281.92L243.61,282.07L243.51,282.23L243.44,282.42L243.41,282.61L243.42,282.81L243.47,283.00L243.55,283.18L243.67,283.34L243.81,283.47L243.98,283.57L244.17,283.64L244.36,283.67L244.56,283.66L244.75,283.62L252.03,282.06L255.51,281.26L260.63,280.30L262.62,282.17L266.06,289.04L266.58,289.83L266.92,290.16L267.32,290.42L267.76,290.60L268.23,290.68L268.70,290.68L269.16,290.58L269.60,290.39L269.99,290.12L270.32,289.78L270.58,289.39L270.75,288.95L270.84,288.48L270.83,288.01L270.74,287.54L270.55,287.11L270.28,286.72L270.20,286.70L266.73,279.35L266.33,278.76L265.77,278.31L261.94,276.72L261.31,276.48L260.64,276.48L254.80,277.54L251.10,278.27z" fill="currentColor" stroke="none" fill-opacity="1.00" fill-rule="nonzero" />
      <path d="M266.67,215.46L266.50,215.43L266.33,215.43L266.17,215.46L266.01,215.52L265.87,215.62L265.75,215.74L265.66,215.88L265.59,216.03L265.56,216.20L265.56,216.37L265.59,216.53L265.65,216.69L265.75,216.83L265.87,216.95L266.01,217.04L266.16,217.11L273.61,220.55L274.34,220.63L291.67,219.74L301.29,218.71L303.44,217.78L303.86,217.52L304.22,217.18L304.50,216.78L304.70,216.33L304.81,215.85L304.82,215.36L304.73,214.87L304.56,214.41L304.29,214.00L303.96,213.64L303.55,213.36L303.10,213.16L302.62,213.05L302.13,213.04L301.65,213.12L301.19,213.30L300.28,213.79L291.24,214.89L274.40,216.67z" fill="currentColor" stroke="none" fill-opacity="1.00" fill-rule="nonzero" />
      <path d="M266.45,218.42L266.08,218.39L265.70,218.43L265.34,218.55L265.01,218.74L264.73,218.98L264.50,219.28L264.33,219.62L264.23,219.98L264.20,220.36L264.24,220.73L264.36,221.09L264.55,221.42L264.79,221.70L265.09,221.94L265.43,222.11L265.79,222.21L274.34,223.98L292.57,224.05L299.68,222.69L300.47,222.37L301.15,221.84L301.64,221.14L302.21,220.09L302.43,219.53L302.53,218.95L302.53,218.35L302.40,217.77L302.16,217.23L301.83,216.74L301.40,216.32L300.90,216.00L300.35,215.78L299.76,215.68L299.17,215.69L298.58,215.81L298.04,216.05L297.55,216.39L297.14,216.81L296.81,217.31L297.10,217.39L292.13,218.62L274.88,219.59z" fill="currentColor" stroke="none" fill-opacity="1.00" fill-rule="nonzero" />
      <path d="M266.70,222.67L266.46,222.70L266.22,222.77L266.01,222.89L265.82,223.05L265.67,223.24L265.56,223.45L265.49,223.69L265.47,223.93L265.50,224.17L265.57,224.41L265.69,224.62L265.85,224.80L266.04,224.96L266.26,225.07L266.49,225.14L266.73,225.16L282.62,225.97L298.01,225.73L303.60,223.61L304.04,223.37L304.44,223.05L304.76,222.66L305.00,222.21L305.15,221.73L305.20,221.22L305.15,220.72L305.00,220.24L304.77,219.79L304.45,219.40L304.05,219.07L303.61,218.83L303.12,218.68L302.62,218.63L302.12,218.68L301.63,218.83L297.37,220.58L282.53,221.42z" fill="currentColor" stroke="none" fill-opacity="1.00" fill-rule="nonzero" />
      <path d="M233.74,215.27L233.79,215.26L233.83,215.24L233.86,215.22L233.89,215.19L233.92,215.15L233.93,215.11L233.94,215.07L233.94,215.02L233.93,214.98L233.91,214.94L233.89,214.90L233.86,214.87L233.82,214.85L233.78,214.84L233.74,214.83L233.69,214.83L226.59,213.98L218.81,214.18L207.55,213.16L207.55,213.04L207.11,212.80L206.62,212.64L206.12,212.59L205.61,212.63L205.13,212.77L204.67,213.00L204.28,213.32L203.95,213.71L203.70,214.15L203.55,214.63L203.49,215.14L203.53,215.65L203.67,216.13L203.91,216.59L204.22,216.98L204.61,217.31L205.21,217.71L206.43,218.15L218.58,219.26L227.01,217.77z" fill="currentColor" stroke="none" fill-opacity="1.00" fill-rule="nonzero" />
      <path d="M234.09,221.70L234.12,221.69L234.15,221.69L234.18,221.67L234.21,221.65L234.23,221.63L234.25,221.60L234.26,221.57L234.27,221.53L234.26,221.50L234.26,221.47L234.24,221.44L234.22,221.41L234.20,221.39L234.17,221.37L234.14,221.36L234.10,221.36L212.71,217.62L204.30,216.80L203.16,216.91L202.77,217.05L202.26,217.26L201.80,217.57L201.41,217.97L201.10,218.43L200.89,218.94L200.78,219.48L200.78,220.03L200.89,220.58L201.11,221.09L201.41,221.55L201.81,221.94L202.27,222.24L202.78,222.46L203.32,222.56L203.88,222.56L204.42,222.45L204.26,222.46L212.17,223.46z" fill="currentColor" stroke="none" fill-opacity="1.00" fill-rule="nonzero" />
      <path d="M245.40,262.40L245.13,262.32L244.85,262.29L244.57,262.32L244.30,262.40L244.06,262.54L243.84,262.71L243.66,262.93L243.53,263.18L243.45,263.45L243.42,263.73L243.45,264.01L243.53,264.27L243.67,264.52L243.84,264.74L244.06,264.92L244.31,265.05L248.77,267.50L248.88,267.91L249.11,268.25L249.40,268.54L249.74,268.77L250.12,268.93L250.52,269.01L250.93,269.01L251.33,268.93L251.71,268.78L252.05,268.55L252.34,268.27L252.57,267.93L252.73,267.55L252.81,267.15L252.82,266.74L252.74,266.33L252.58,265.95L252.09,264.93L251.64,264.35L251.01,263.96z" fill="currentColor" stroke="none" fill-opacity="1.00" fill-rule="nonzero" />
      <path d="M259.84,190.21L259.75,190.20L259.67,190.21L259.58,190.24L259.51,190.29L259.44,190.35L259.38,190.42L259.34,190.50L259.32,190.58L259.31,190.67L259.33,190.76L259.35,190.84L259.40,190.92L259.46,190.99L259.53,191.04L259.61,191.08L259.69,191.10L269.74,194.32L270.33,194.32L270.90,194.16L290.50,185.02L307.20,177.37L309.82,175.31L310.06,175.07L310.25,174.78L310.39,174.46L310.45,174.12L310.45,173.77L310.39,173.43L310.25,173.11L310.06,172.82L309.82,172.58L309.53,172.39L309.21,172.25L308.87,172.19L308.52,172.19L308.18,172.26L307.86,172.39L307.57,172.58L305.56,174.24L288.82,181.24L269.79,190.36z" fill="currentColor" stroke="none" fill-opacity="1.00" fill-rule="nonzero" />
      <path d="M230.89,195.51L231.02,195.55L231.14,195.56L231.27,195.55L231.39,195.52L231.51,195.46L231.61,195.38L231.69,195.28L231.75,195.17L231.79,195.05L231.80,194.92L231.79,194.79L231.76,194.67L231.70,194.56L231.62,194.46L231.52,194.37L231.41,194.31L219.47,187.82L202.36,180.01L194.24,176.18L193.74,176.01L193.22,175.97L192.70,176.05L192.21,176.25L191.82,176.49L191.46,176.73L191.16,177.04L190.93,177.40L190.77,177.81L190.69,178.23L190.70,178.66L190.79,179.08L190.96,179.48L191.20,179.84L191.51,180.14L191.88,180.37L192.28,180.53L192.70,180.61L193.13,180.60L193.56,180.51L193.95,180.34L193.36,180.42L200.46,184.10L217.95,191.34z" fill="currentColor" stroke="none" fill-opacity="1.00" fill-rule="nonzero" />
      <path d="M162.23,193.98L162.25,193.98L162.26,193.97L162.28,193.96L162.29,193.95L162.30,193.93L162.31,193.91L162.31,193.90L162.31,193.88L162.30,193.86L162.30,193.85L162.29,193.83L162.27,193.82L162.26,193.81L162.24,193.81L162.23,193.80L162.21,193.80L152.09,193.43L150.66,189.43L157.26,170.18L157.38,169.61L157.33,169.03L157.11,168.48L152.92,160.82L152.43,160.24L151.78,159.86L142.98,155.96L142.37,155.80L141.74,155.79L141.12,155.92L140.55,156.18L140.05,156.57L132.44,164.46L124.31,169.05L110.52,158.27L98.80,146.27L104.96,135.03L112.01,136.14L126.42,141.64L126.97,141.79L127.53,141.81L128.08,141.70L128.59,141.46L129.04,141.12L129.39,140.68L129.63,140.17L134.18,126.99L135.50,113.61L145.96,112.66L179.82,127.33L187.30,137.36L187.68,137.74L188.13,138.03L188.63,138.23L189.16,138.31L189.70,138.28L190.21,138.15L190.69,137.90L191.11,137.57L204.56,123.97L220.08,119.02L239.40,132.03L258.65,148.96L259.10,149.28L259.61,149.49L260.16,149.58L260.71,149.55L261.24,149.40L261.72,149.13L279.68,136.53L288.66,138.00L307.96,155.32L313.43,160.08L317.16,174.84L317.35,175.35L317.64,175.81L318.02,176.19L318.48,176.49L318.99,176.67L319.53,176.75L320.07,176.71L342.49,172.45L350.45,170.61L367.65,185.19L366.06,201.18L366.07,201.78L366.21,202.36L366.47,202.90L366.85,203.37L367.32,203.74L367.85,204.00L393.37,212.77L398.00,217.41L399.18,231.09L399.31,231.73L399.60,232.32L400.03,232.81L400.57,233.19L406.02,236.20L403.62,247.04L403.55,247.63L403.61,248.21L403.81,248.77L404.12,249.27L404.55,249.69L405.05,250.00L405.61,250.19L406.20,250.24L413.97,249.97L421.38,249.27L411.62,264.36L410.20,264.55L409.77,264.71L409.37,264.96L409.03,265.27L408.76,265.64L408.56,266.07L408.46,266.52L408.44,266.98L408.51,267.44L408.67,267.87L408.91,268.26L409.23,268.60L409.60,268.88L410.02,269.07L410.47,269.18L410.93,269.20L411.39,269.13L413.56,268.54L414.32,268.18L414.91,267.58L428.57,247.61L428.81,247.15L428.96,246.66L429.00,246.14L428.93,245.62L428.76,245.13L428.49,244.69L428.14,244.31L427.72,244.01L427.24,243.80L426.74,243.70L426.22,243.70L413.78,245.05L409.46,244.98L411.86,235.39L411.94,234.79L411.88,234.19L411.69,233.61L411.38,233.09L410.96,232.66L410.46,232.32L404.25,229.23L403.21,215.97L402.96,215.05L402.40,214.27L396.46,208.76L395.55,208.20L371.64,199.61L373.19,184.30L373.17,183.64L373.00,183.01L372.68,182.43L372.23,181.95L352.76,165.82L352.25,165.49L351.68,165.29L351.09,165.22L350.49,165.30L341.51,167.61L321.48,171.32L318.25,158.05L317.95,157.33L317.44,156.73L311.44,151.42L291.56,133.63L290.94,133.22L290.24,133.00L279.46,131.28L278.80,131.26L278.15,131.41L277.56,131.72L260.46,143.96L242.68,128.06L221.77,114.40L221.13,114.10L220.42,114.00L219.72,114.11L202.56,119.59L201.61,120.17L189.50,131.91L182.69,124.36L181.94,123.78L147.36,107.95L146.14,107.75L133.06,108.97L132.51,109.08L132.01,109.32L131.57,109.66L131.22,110.10L130.99,110.60L130.87,111.15L129.43,125.67L125.85,136.17L113.69,131.05L103.93,129.83L103.33,129.82L102.75,129.96L102.21,130.23L101.75,130.62L101.40,131.10L93.39,145.46L93.15,146.07L93.07,146.72L93.16,147.37L93.41,147.97L93.80,148.50L107.00,161.93L122.31,174.66L122.90,175.02L123.55,175.23L124.23,175.28L124.91,175.16L125.53,174.88L135.30,168.60L142.65,161.70L149.36,163.88L153.26,169.69L145.38,188.77L145.22,189.52L145.29,190.29L145.58,191.01L149.66,196.23L149.90,196.55L150.22,196.81L150.59,196.99L150.99,197.08L151.40,197.07z" fill="currentColor" stroke="none" fill-opacity="1.00" fill-rule="nonzero" />
      <path d="M98.76,131.42L98.70,131.45L98.65,131.49L98.61,131.54L98.58,131.60L98.56,131.66L98.56,131.72L98.56,131.78L98.58,131.84L98.61,131.90L98.65,131.95L98.70,131.99L98.76,132.02L98.82,132.04L98.88,132.04L98.94,132.04L99.00,132.02L123.69,123.12L124.38,122.95L124.66,122.82L124.91,122.65L125.12,122.42L125.28,122.16L125.39,121.88L125.45,121.57L125.44,121.27L125.37,120.97L125.25,120.69L125.07,120.44L124.85,120.22L124.59,120.06L124.30,119.95L124.00,119.90L123.69,119.90L123.39,119.97L122.69,120.25z" fill="currentColor" stroke="none" fill-opacity="1.00" fill-rule="nonzero" />
      <path d="M139.97,117.12L139.91,117.02L139.83,116.93L139.74,116.86L139.63,116.80L139.52,116.77L139.40,116.76L139.28,116.78L139.17,116.81L139.07,116.87L138.98,116.95L138.90,117.04L138.85,117.15L138.82,117.26L138.81,117.38L138.83,117.50L138.86,117.61L152.41,151.75L152.61,152.10L152.88,152.41L153.20,152.66L153.57,152.85L153.96,152.96L154.37,152.99L154.78,152.94L155.17,152.81L155.53,152.61L155.84,152.34L156.09,152.01L156.27,151.65L156.38,151.25L156.41,150.84L156.36,150.43L156.23,150.04z" fill="currentColor" stroke="none" fill-opacity="1.00" fill-rule="nonzero" />
      <path d="M157.97,156.80L157.90,156.98L157.87,157.17L157.88,157.36L157.92,157.54L158.00,157.71L158.11,157.87L158.25,158.00L158.41,158.10L158.59,158.17L158.77,158.20L158.96,158.19L159.15,158.15L159.32,158.07L159.48,157.96L159.61,157.82L159.71,157.66L174.99,129.50L175.14,129.09L175.21,128.66L175.20,128.22L175.10,127.79L174.92,127.39L174.66,127.04L174.34,126.74L173.97,126.51L173.56,126.35L173.13,126.28L172.69,126.29L172.26,126.39L171.86,126.58L171.51,126.83L171.21,127.15L170.97,127.52z" fill="currentColor" stroke="none" fill-opacity="1.00" fill-rule="nonzero" />
      <path d="M146.82,103.75L146.62,103.85L146.44,103.99L146.30,104.16L146.19,104.36L146.12,104.57L146.10,104.79L146.12,105.01L146.18,105.23L146.28,105.43L146.42,105.60L146.59,105.75L146.79,105.86L147.00,105.92L147.22,105.95L147.45,105.93L147.66,105.87L176.25,95.70L179.00,94.14L179.36,93.89L179.67,93.57L179.90,93.19L180.06,92.77L180.14,92.34L180.12,91.89L180.02,91.46L179.84,91.06L179.59,90.69L179.26,90.39L178.89,90.15L178.47,90.00L178.03,89.92L177.59,89.93L177.16,90.03L176.75,90.21L174.42,91.54z" fill="currentColor" stroke="none" fill-opacity="1.00" fill-rule="nonzero" />
      <path d="M187.10,130.67L187.07,130.92L187.09,131.17L187.16,131.41L187.27,131.63L187.43,131.83L187.61,131.99L187.83,132.12L188.07,132.20L188.32,132.23L188.57,132.21L188.81,132.14L189.04,132.03L189.23,131.87L189.40,131.68L189.52,131.47L189.60,131.23L195.47,106.33L195.50,106.03L195.48,105.73L195.40,105.44L195.26,105.17L195.08,104.93L194.85,104.73L194.59,104.58L194.30,104.49L194.00,104.45L193.70,104.47L193.40,104.55L193.13,104.69L192.89,104.87L192.70,105.10L192.55,105.37L192.45,105.65z" fill="currentColor" stroke="none" fill-opacity="1.00" fill-rule="nonzero" />
      <path d="M315.54,154.64L315.58,154.92L315.68,155.19L315.83,155.44L316.03,155.65L316.26,155.81L316.52,155.93L316.80,156.00L317.09,156.01L317.37,155.96L317.64,155.86L317.89,155.71L318.10,155.52L318.27,155.28L318.39,155.02L318.45,154.74L318.46,154.46L317.82,136.23L317.76,135.85L317.63,135.50L317.43,135.17L317.17,134.89L316.86,134.67L316.51,134.51L316.14,134.42L315.76,134.41L315.38,134.47L315.02,134.60L314.70,134.80L314.42,135.06L314.19,135.37L314.03,135.72L313.95,136.09L313.93,136.47z" fill="currentColor" stroke="none" fill-opacity="1.00" fill-rule="nonzero" />
      <path d="M306.52,267.22L306.53,267.20L306.53,267.18L306.53,267.16L306.52,267.14L306.51,267.12L306.50,267.10L306.49,267.09L306.47,267.08L306.45,267.07L306.43,267.07L306.41,267.07L306.39,267.07L306.37,267.08L306.35,267.10L306.34,267.11L306.32,267.13L298.43,279.15L294.32,306.67L289.64,323.51L284.86,343.25L280.55,362.93L282.51,379.42L287.02,391.83L287.22,392.26L287.50,392.63L287.85,392.94L288.25,393.18L288.69,393.34L289.16,393.40L289.63,393.38L290.08,393.26L290.50,393.06L290.88,392.78L291.19,392.43L291.43,392.03L291.58,391.59L291.65,391.12L291.62,390.66L291.51,390.20L287.33,378.55L285.61,363.55L289.32,344.35L294.75,324.87L299.14,307.79L302.26,280.61z" fill="currentColor" stroke="none" fill-opacity="1.00" fill-rule="nonzero" />
      <path d="M285.91,392.03L285.80,392.05L285.71,392.10L285.62,392.17L285.55,392.25L285.50,392.34L285.47,392.44L285.45,392.54L285.46,392.65L285.49,392.75L285.54,392.85L285.60,392.93L285.68,393.00L285.77,393.06L285.88,393.09L285.98,393.10L286.09,393.10L303.74,391.35L318.95,388.31L326.41,386.71L326.84,386.56L327.24,386.32L327.58,386.00L327.85,385.63L328.05,385.21L328.16,384.76L328.18,384.30L328.11,383.84L327.95,383.41L327.71,383.01L327.39,382.67L327.02,382.40L326.60,382.21L326.15,382.10L325.69,382.08L325.23,382.15L318.03,384.32L303.11,387.89z" fill="currentColor" stroke="none" fill-opacity="1.00" fill-rule="nonzero" />
      <path d="M313.74,378.99L313.69,379.17L313.66,379.35L313.67,379.53L313.72,379.71L313.80,379.87L313.92,380.02L314.05,380.14L314.21,380.23L314.39,380.29L314.57,380.31L314.75,380.30L314.93,380.25L315.09,380.17L315.24,380.06L315.36,379.92L315.45,379.76L323.49,364.74L323.67,363.96L325.27,328.99L327.37,307.39L328.98,291.03L332.56,277.02L332.63,276.56L332.61,276.10L332.50,275.65L332.30,275.23L332.02,274.86L331.67,274.55L331.28,274.31L330.84,274.15L330.38,274.08L329.92,274.11L329.46,274.22L329.05,274.42L328.67,274.70L328.36,275.04L328.12,275.44L327.97,275.88L324.52,290.09L322.94,306.96L320.81,328.61L319.49,363.38z" fill="currentColor" stroke="none" fill-opacity="1.00" fill-rule="nonzero" />
      <path d="M299.75,273.04L299.71,273.17L299.70,273.30L299.71,273.44L299.75,273.57L299.81,273.69L299.89,273.79L299.99,273.88L300.11,273.94L300.24,273.98L300.37,274.00L300.50,273.99L300.63,273.95L300.75,273.89L300.86,273.81L300.94,273.71L301.01,273.59L307.19,261.61L313.68,249.60L322.46,242.38L327.11,237.86L327.41,237.47L327.64,237.03L327.78,236.55L327.82,236.06L327.76,235.56L327.61,235.09L327.37,234.66L327.05,234.28L326.66,233.97L326.21,233.74L325.74,233.60L325.24,233.56L324.75,233.62L324.27,233.77L323.84,234.01L323.46,234.34L319.39,238.81L310.16,246.16L309.48,247.03L304.30,260.29z" fill="currentColor" stroke="none" fill-opacity="1.00" fill-rule="nonzero" />
      <path d="M324.76,235.49L324.76,235.62L324.79,235.75L324.84,235.87L324.92,235.97L325.01,236.06L325.12,236.13L325.24,236.18L325.37,236.20L325.50,236.20L325.63,236.17L325.74,236.12L325.85,236.04L325.94,235.95L326.01,235.84L326.06,235.72L326.08,235.59L328.96,215.31L331.03,203.37L331.02,203.25L332.26,209.37L332.83,229.12L332.89,229.56L333.04,229.98L333.26,230.36L333.56,230.70L333.91,230.96L334.31,231.16L334.74,231.27L335.19,231.30L335.63,231.23L336.05,231.09L336.43,230.86L336.76,230.57L337.03,230.21L337.23,229.81L337.34,229.38L337.36,228.94L336.37,209.03L334.40,200.10L334.27,199.69L334.05,199.32L333.75,199.01L333.39,198.77L332.99,198.61L332.57,198.54L332.14,198.56L331.72,198.68L328.35,199.91L327.89,200.17L327.50,200.55L327.22,201.00L327.07,201.52L324.93,214.73z" fill="currentColor" stroke="none" fill-opacity="1.00" fill-rule="nonzero" />
      <path d="M331.38,202.44L331.32,202.51L331.28,202.58L331.25,202.67L331.25,202.76L331.26,202.84L331.28,202.92L331.33,203.00L331.39,203.06L331.46,203.12L331.54,203.15L331.62,203.17L331.71,203.17L331.80,203.15L331.88,203.11L331.95,203.06L334.86,201.42L336.78,203.87L339.45,218.13L339.91,228.97L339.97,229.34L340.11,229.69L340.32,230.00L340.58,230.27L340.89,230.49L341.23,230.63L341.60,230.71L341.97,230.72L342.34,230.65L342.69,230.51L343.00,230.31L343.27,230.05L343.48,229.74L343.63,229.40L343.71,229.03L343.72,228.66L342.37,217.83L340.28,202.62L340.07,202.00L339.65,201.50L335.57,198.96L335.33,198.81L335.07,198.71L334.79,198.69L334.51,198.73L334.25,198.83L334.02,198.99z" fill="currentColor" stroke="none" fill-opacity="1.00" fill-rule="nonzero" />
      <path d="M337.33,201.47L337.00,201.53L336.69,201.65L336.42,201.83L336.18,202.06L335.99,202.34L335.86,202.64L335.79,202.97L335.79,203.30L335.85,203.62L335.97,203.93L336.15,204.21L336.38,204.44L336.66,204.63L336.96,204.76L337.29,204.83L337.62,204.83L342.17,204.26L344.18,220.58L344.45,229.46L344.52,229.89L344.68,230.31L344.91,230.68L345.21,231.00L345.57,231.25L345.97,231.43L346.40,231.53L346.84,231.54L347.27,231.47L347.68,231.32L348.05,231.08L348.37,230.78L348.63,230.42L348.81,230.02L348.91,229.60L348.92,229.16L347.97,220.25L344.95,202.42L344.87,202.10L344.72,201.81L344.52,201.56L344.26,201.36L343.97,201.22L343.65,201.14L343.33,201.14z" fill="currentColor" stroke="none" fill-opacity="1.00" fill-rule="nonzero" />
      <path d="M343.83,204.37L343.73,204.35L343.62,204.36L343.51,204.38L343.42,204.43L343.33,204.49L343.26,204.58L343.20,204.67L343.17,204.77L343.15,204.88L343.16,204.98L343.18,205.09L343.23,205.19L343.30,205.27L343.38,205.35L343.47,205.40L343.57,205.44L347.58,207.48L350.25,214.51L352.03,236.70L349.70,251.31L338.85,265.09L331.20,272.63L330.60,273.62L329.58,277.16L329.48,277.63L329.46,278.11L329.55,278.59L329.72,279.04L329.98,279.45L330.31,279.80L330.71,280.08L331.15,280.28L331.62,280.39L332.10,280.40L332.58,280.32L333.03,280.14L333.44,279.89L333.79,279.55L334.07,279.16L334.27,278.72L335.39,275.85L342.34,268.33L354.06,253.91L354.59,252.67L356.28,237.03L354.25,213.82L350.16,205.47L349.90,205.07L349.53,204.77L349.09,204.58z" fill="currentColor" stroke="none" fill-opacity="1.00" fill-rule="nonzero" />
      <path d="M312.92,242.62L312.96,242.66L313.00,242.70L313.06,242.72L313.12,242.74L313.18,242.74L313.23,242.73L313.29,242.71L313.34,242.68L313.39,242.64L313.42,242.59L313.45,242.54L313.46,242.48L313.47,242.42L313.46,242.36L313.44,242.31L313.41,242.26L307.72,231.78L305.72,212.73L308.65,193.79L315.40,182.02L321.85,178.28L329.97,177.53L340.96,183.09L348.13,189.82L349.15,205.97L349.24,206.48L349.43,206.96L349.72,207.39L350.09,207.76L350.53,208.03L351.02,208.21L351.54,208.29L352.05,208.25L352.55,208.11L353.01,207.87L353.41,207.53L353.73,207.13L353.96,206.66L354.09,206.16L354.11,205.64L352.90,188.54L352.78,187.95L352.52,187.41L352.14,186.94L344.05,179.29L331.50,172.94L330.87,172.73L330.20,172.70L320.90,173.62L319.95,173.92L312.44,178.15L311.54,179.04L304.20,191.75L300.79,212.32L303.93,232.78L304.29,233.68z" fill="currentColor" stroke="none" fill-opacity="1.00" fill-rule="nonzero" />
      <path d="M323.14,227.46L323.19,227.50L323.24,227.54L323.29,227.56L323.35,227.57L323.41,227.57L323.47,227.56L323.53,227.53L323.58,227.50L323.62,227.46L323.65,227.41L323.67,227.35L323.68,227.29L323.68,227.23L323.67,227.17L323.65,227.12L323.61,227.07L318.51,218.99L318.44,211.16L322.11,199.48L326.23,195.50L330.12,194.88L334.14,197.06L336.51,201.91L336.75,202.29L337.06,202.61L337.42,202.86L337.83,203.04L338.26,203.14L338.71,203.15L339.14,203.07L339.56,202.91L339.93,202.67L340.26,202.36L340.51,202.00L340.69,201.59L340.79,201.16L340.80,200.72L340.72,200.28L340.56,199.86L337.74,194.46L337.35,193.92L336.82,193.52L331.54,190.70L330.88,190.47L330.19,190.47L324.88,191.22L324.23,191.42L323.67,191.80L318.55,196.62L317.94,197.62L314.44,210.36L315.35,219.72L315.47,220.21L315.73,220.64z" fill="currentColor" stroke="none" fill-opacity="1.00" fill-rule="nonzero" />
      <path d="M323.79,354.57L323.65,354.40L323.48,354.27L323.29,354.16L323.08,354.10L322.86,354.08L322.64,354.11L322.43,354.17L322.24,354.28L322.07,354.42L321.93,354.59L321.83,354.78L321.77,354.99L321.75,355.21L321.77,355.43L321.84,355.64L321.94,355.83L326.97,364.61L322.91,380.92L322.91,383.84L322.97,384.30L323.11,384.74L323.34,385.14L323.65,385.49L324.02,385.78L324.43,385.98L324.88,386.11L325.34,386.14L325.80,386.08L326.24,385.93L326.65,385.70L327.00,385.40L327.28,385.03L327.49,384.61L327.61,384.16L327.64,383.70L327.55,381.64L330.86,364.63L330.91,364.11L330.81,363.61L330.58,363.14z" fill="currentColor" stroke="none" fill-opacity="1.00" fill-rule="nonzero" />
      <path d="M324.17,339.64L323.93,339.53L323.66,339.47L323.39,339.45L323.12,339.50L322.86,339.59L322.63,339.73L322.43,339.92L322.27,340.14L322.15,340.39L322.09,340.65L322.08,340.92L322.12,341.19L322.21,341.45L322.35,341.68L322.54,341.88L322.76,342.05L329.10,346.87L339.55,356.82L340.42,361.96L332.86,384.09L321.81,389.92L321.35,390.21L320.96,390.59L320.65,391.04L320.43,391.55L320.32,392.08L320.31,392.62L320.41,393.16L320.62,393.67L320.91,394.12L321.30,394.51L321.75,394.82L322.25,395.04L322.78,395.15L323.33,395.16L323.86,395.06L324.37,394.86L336.52,388.64L337.12,388.22L337.60,387.67L337.92,387.01L345.90,362.99L345.98,361.52L344.28,354.98L344.01,354.27L343.54,353.68L332.10,343.27z" fill="currentColor" stroke="none" fill-opacity="1.00" fill-rule="nonzero" />
      <path d="M322.96,323.04L322.84,323.11L322.74,323.21L322.66,323.32L322.59,323.44L322.56,323.57L322.55,323.71L322.57,323.85L322.62,323.98L322.68,324.10L322.78,324.20L322.89,324.29L323.01,324.35L323.14,324.38L323.28,324.39L323.42,324.37L323.55,324.33L339.77,318.11L351.30,326.46L369.14,346.97L370.55,350.40L364.46,355.62L364.12,355.98L363.86,356.41L363.68,356.87L363.59,357.36L363.60,357.86L363.71,358.35L363.92,358.80L364.20,359.21L364.56,359.55L364.99,359.82L365.45,360.00L365.94,360.08L366.44,360.07L366.93,359.96L367.38,359.76L367.79,359.47L375.20,353.02L375.62,352.55L375.91,352.00L376.06,351.39L376.05,350.76L375.88,350.16L373.60,344.68L354.95,322.82L340.92,314.49L340.51,314.29L340.06,314.20L339.60,314.22L339.16,314.36z" fill="currentColor" stroke="none" fill-opacity="1.00" fill-rule="nonzero" />
      <path d="M362.75,349.26L362.68,349.10L362.59,348.95L362.47,348.82L362.32,348.72L362.16,348.64L361.99,348.61L361.81,348.60L361.64,348.63L361.47,348.69L361.32,348.79L361.19,348.91L361.09,349.06L361.02,349.22L360.98,349.39L360.97,349.57L361.00,349.74L362.85,360.75L359.41,368.03L344.57,383.46L335.01,390.13L329.53,390.32L328.97,390.40L328.44,390.58L327.96,390.86L327.54,391.24L327.20,391.69L326.96,392.19L326.81,392.74L326.78,393.30L326.86,393.86L327.04,394.39L327.33,394.87L327.70,395.29L328.15,395.63L328.66,395.87L329.20,396.02L329.76,396.05L336.08,395.76L336.89,395.61L337.62,395.23L347.92,387.70L363.56,371.27L364.11,370.41L366.90,361.60L367.04,360.96L366.97,360.32z" fill="currentColor" stroke="none" fill-opacity="1.00" fill-rule="nonzero" />
      <path d="M326.59,295.58L326.42,295.53L326.25,295.52L326.08,295.54L325.92,295.59L325.77,295.67L325.64,295.79L325.53,295.92L325.45,296.07L325.40,296.24L325.39,296.41L325.41,296.58L325.46,296.75L325.55,296.90L325.66,297.03L325.80,297.14L325.95,297.21L337.16,303.09L344.05,305.06L362.57,335.82L363.48,336.69L364.69,337.37L365.13,337.55L365.59,337.65L366.07,337.65L366.53,337.56L366.97,337.38L367.37,337.11L367.70,336.78L367.97,336.39L368.15,335.95L368.25,335.48L368.25,335.01L368.16,334.54L367.97,334.10L367.71,333.71L367.38,333.37L366.98,333.11L366.27,332.85L347.60,301.81L347.22,301.35L346.75,300.99L346.20,300.76L338.70,298.81z" fill="currentColor" stroke="none" fill-opacity="1.00" fill-rule="nonzero" />
      <path d="M249.29,282.51L249.35,282.46L249.40,282.40L249.44,282.33L249.47,282.26L249.48,282.18L249.47,282.10L249.45,282.02L249.41,281.95L249.36,281.88L249.30,281.83L249.23,281.79L249.16,281.77L249.08,281.76L249.00,281.76L248.92,281.78L248.85,281.82L233.84,288.72L233.39,289.07L233.03,289.52L232.79,290.03L232.66,290.59L232.66,291.16L232.78,291.72L233.03,292.24L233.38,292.69L235.53,294.54L236.08,294.95L236.72,295.18L237.41,295.22L258.22,293.28L276.16,289.59L295.99,285.14L297.37,284.45L297.77,284.15L298.10,283.79L298.35,283.36L298.52,282.90L298.59,282.41L298.57,281.91L298.45,281.43L298.23,280.99L297.94,280.59L297.57,280.26L297.15,280.01L296.68,279.84L296.19,279.77L295.70,279.79L295.22,279.91L294.77,280.12L294.47,280.34L275.17,284.98L257.66,288.67L238.08,290.46L237.74,291.17z" fill="currentColor" stroke="none" fill-opacity="1.00" fill-rule="nonzero" />
      <path d="M232.59,294.43L232.48,294.32L232.34,294.23L232.19,294.18L232.04,294.15L231.88,294.16L231.72,294.19L231.58,294.26L231.45,294.35L231.34,294.47L231.26,294.60L231.20,294.75L231.17,294.91L231.18,295.06L231.21,295.22L231.28,295.36L231.37,295.49L244.15,311.15L248.50,318.65L248.78,318.98L249.13,319.26L249.53,319.46L249.96,319.57L250.40,319.61L250.84,319.55L251.26,319.42L251.64,319.20L251.98,318.91L252.25,318.56L252.45,318.16L252.57,317.74L252.61,317.30L252.55,316.86L252.41,316.44L252.20,316.05L246.58,309.35z" fill="currentColor" stroke="none" fill-opacity="1.00" fill-rule="nonzero" />
      <path d="M245.24,310.49L245.26,310.24L245.23,309.99L245.16,309.76L245.04,309.54L244.88,309.35L244.69,309.20L244.47,309.08L244.23,309.01L243.99,308.99L243.74,309.02L243.50,309.09L243.29,309.21L243.10,309.37L242.94,309.56L242.82,309.78L242.75,310.02L239.81,321.60L239.78,322.16L239.91,322.70L240.18,323.19L244.94,329.88L245.55,330.44L246.32,330.74L264.36,334.33L265.61,334.24L285.84,327.22L291.36,323.47L291.73,323.15L292.04,322.77L292.25,322.33L292.37,321.86L292.39,321.37L292.31,320.89L292.13,320.44L291.86,320.03L291.51,319.69L291.10,319.43L290.64,319.26L290.16,319.19L289.67,319.22L289.20,319.35L288.77,319.58L283.90,322.66L264.64,329.52L248.04,326.40L243.90,321.47z" fill="currentColor" stroke="none" fill-opacity="1.00" fill-rule="nonzero" />
      <path d="M244.80,328.73L244.84,328.62L244.87,328.51L244.87,328.40L244.85,328.28L244.80,328.18L244.74,328.08L244.66,328.00L244.57,327.94L244.47,327.89L244.35,327.87L244.24,327.86L244.13,327.88L244.02,327.93L243.93,327.99L243.84,328.07L243.78,328.16L234.22,341.87L234.02,342.35L233.93,342.87L233.97,343.39L234.12,343.89L234.38,344.34L240.79,352.52L241.16,352.90L241.60,353.17L242.10,353.32L242.63,353.33L256.25,352.49L286.36,339.13L286.78,338.89L287.15,338.57L287.45,338.19L287.67,337.75L287.79,337.28L287.83,336.80L287.77,336.31L287.61,335.85L287.37,335.43L287.05,335.06L286.67,334.77L286.23,334.55L285.77,334.42L285.28,334.39L284.80,334.45L284.34,334.60L255.36,347.53L243.38,349.16L238.93,342.79z" fill="currentColor" stroke="none" fill-opacity="1.00" fill-rule="nonzero" />
      <path d="M238.93,298.97L239.10,298.89L239.25,298.79L239.39,298.65L239.49,298.50L239.56,298.32L239.60,298.14L239.60,297.95L239.56,297.77L239.49,297.60L239.38,297.44L239.25,297.31L239.09,297.20L238.92,297.13L238.73,297.10L238.55,297.10L238.36,297.14L226.96,299.10L226.42,299.34L225.95,299.71L225.59,300.18L225.35,300.72L225.25,301.31L225.05,304.91L222.65,319.88L221.28,329.92L221.63,351.77L215.08,371.77L207.10,397.60L204.72,414.83L204.87,416.08L205.97,418.77L206.19,419.20L206.49,419.57L206.86,419.88L207.28,420.11L207.74,420.25L208.22,420.30L208.69,420.26L209.15,420.12L209.58,419.90L209.95,419.59L210.26,419.23L210.49,418.80L210.63,418.35L210.68,417.87L210.64,417.39L210.50,416.93L209.65,414.84L211.82,398.83L219.55,373.24L226.51,352.95L226.12,330.32L227.10,320.60L229.93,305.60L230.03,303.25z" fill="currentColor" stroke="none" fill-opacity="1.00" fill-rule="nonzero" />
      <path d="M354.63,375.55L354.64,375.49L354.63,375.43L354.61,375.37L354.58,375.32L354.54,375.27L354.49,375.23L354.44,375.21L354.38,375.19L354.32,375.19L354.26,375.19L354.20,375.21L354.15,375.24L354.10,375.28L354.06,375.33L354.03,375.38L354.02,375.44L347.92,399.11L341.81,429.40L341.77,429.91L341.83,430.42L341.98,430.91L342.23,431.36L342.56,431.75L342.96,432.07L343.42,432.30L343.91,432.44L344.42,432.48L344.93,432.43L345.42,432.27L345.87,432.02L346.26,431.69L346.58,431.29L346.81,430.84L346.95,430.34L352.00,399.86z" fill="currentColor" stroke="none" fill-opacity="1.00" fill-rule="nonzero" />
      <path d="M184.45,307.50L184.65,307.42L184.83,307.30L184.98,307.16L185.11,306.98L185.19,306.78L185.24,306.57L185.24,306.36L185.20,306.15L185.13,305.95L185.01,305.77L184.86,305.61L184.69,305.49L184.49,305.41L184.28,305.36L184.06,305.36L183.85,305.39L173.83,306.92L163.25,307.87L162.60,308.03L162.02,308.35L161.54,308.81L156.46,315.27L157.13,314.94L156.64,315.12L156.20,315.40L155.83,315.75L155.53,316.18L155.31,316.65L155.20,317.15L155.18,317.67L155.27,318.18L155.46,318.67L155.73,319.11L156.09,319.48L156.51,319.78L156.98,320.00L157.49,320.11L158.01,320.13L158.52,320.04L158.61,320.00L159.37,319.65L159.98,319.09L164.82,312.73L174.52,311.59z" fill="currentColor" stroke="none" fill-opacity="1.00" fill-rule="nonzero" />
      <path d="M153.96,318.83L153.94,318.82L153.93,318.81L153.91,318.80L153.90,318.80L153.88,318.80L153.86,318.80L153.84,318.81L153.83,318.82L153.82,318.84L153.81,318.85L153.80,318.87L153.80,318.88L153.80,318.90L153.81,318.92L153.81,318.93L153.82,318.95L162.32,330.11L160.57,343.25L157.62,362.30L158.36,367.22L158.48,367.66L158.69,368.07L158.98,368.43L159.33,368.73L159.73,368.96L160.16,369.10L160.62,369.15L161.08,369.11L161.52,368.99L161.93,368.78L162.29,368.49L162.59,368.15L162.81,367.74L162.95,367.31L163.01,366.85L162.97,366.39L162.28,362.64L165.26,343.86L164.79,329.72L164.76,329.41L164.65,329.11L164.47,328.85z" fill="currentColor" stroke="none" fill-opacity="1.00" fill-rule="nonzero" />
      <path d="M161.99,364.24L161.90,364.20L161.81,364.17L161.71,364.17L161.61,364.18L161.52,364.21L161.44,364.26L161.37,364.33L161.31,364.41L161.27,364.49L161.24,364.59L161.24,364.68L161.25,364.78L161.28,364.87L161.33,364.96L161.40,365.03L161.48,365.09L175.68,375.86L176.47,376.16L177.30,376.17L184.93,375.09L186.01,374.63L192.58,369.54L193.07,369.05L193.40,368.44L193.53,367.76L193.57,366.95L193.55,366.49L193.43,366.05L193.24,365.63L192.96,365.27L192.62,364.96L192.23,364.73L191.80,364.57L191.34,364.51L190.88,364.53L190.44,364.64L190.03,364.84L189.66,365.11L189.35,365.46L189.12,365.85L188.96,366.28L188.90,366.74L189.14,366.54L183.46,370.11L177.37,371.37z" fill="currentColor" stroke="none" fill-opacity="1.00" fill-rule="nonzero" />
      <path d="M153.55,320.68L153.81,320.64L154.05,320.56L154.27,320.44L154.47,320.27L154.63,320.06L154.74,319.83L154.81,319.59L154.83,319.33L154.80,319.07L154.72,318.83L154.59,318.61L154.42,318.41L154.22,318.25L153.99,318.14L153.74,318.07L153.49,318.05L143.66,317.20L142.95,317.32L142.31,317.65L141.79,318.15L140.29,320.12L139.96,320.73L139.81,321.40L139.86,322.09L141.59,330.24L144.04,344.50L141.79,355.54L141.75,356.18L141.85,356.81L142.10,357.39L142.48,357.90L149.02,364.47L149.50,364.86L150.07,365.12L150.68,365.24L157.54,365.50L158.00,365.48L158.46,365.37L158.88,365.18L159.25,364.90L159.57,364.56L159.81,364.16L159.97,363.72L160.04,363.26L160.02,362.80L159.91,362.35L159.71,361.92L159.43,361.55L159.09,361.24L158.69,360.99L158.26,360.84L157.80,360.76L151.93,360.34L147.30,355.22L149.25,345.02L149.26,344.04L146.37,329.33L144.58,322.10L144.82,321.75z" fill="currentColor" stroke="none" fill-opacity="1.00" fill-rule="nonzero" />
      <path d="M60.39,289.40L60.30,289.31L60.20,289.23L60.08,289.18L59.95,289.15L59.82,289.15L59.69,289.17L59.57,289.21L59.46,289.28L59.37,289.37L59.29,289.48L59.24,289.60L59.21,289.72L59.21,289.85L59.23,289.98L59.28,290.10L59.35,290.21L69.81,305.67L83.55,327.70L93.44,342.10L106.02,358.01L106.54,358.50L107.18,358.83L107.88,358.98L139.15,361.32L139.71,361.30L140.25,361.17L140.76,360.94L141.22,360.62L141.60,360.21L141.90,359.74L142.09,359.21L142.18,358.66L142.17,358.10L142.04,357.56L141.81,357.05L141.49,356.60L141.08,356.21L140.61,355.92L140.08,355.72L139.53,355.63L109.38,353.82L97.36,339.28L87.50,325.10L72.93,303.54z" fill="currentColor" stroke="none" fill-opacity="1.00" fill-rule="nonzero" />
      <path d="M78.62,267.09L78.45,266.80L78.22,266.54L77.94,266.33L77.63,266.18L77.29,266.10L76.95,266.08L76.61,266.13L76.28,266.24L75.98,266.42L75.73,266.65L75.52,266.93L75.37,267.24L75.28,267.57L75.27,267.92L75.32,268.26L75.43,268.59L81.49,282.44L109.85,316.43L120.85,337.08L121.12,337.48L121.47,337.82L121.87,338.09L122.31,338.27L122.79,338.36L123.27,338.36L123.74,338.27L124.18,338.08L124.58,337.81L124.92,337.47L125.19,337.07L125.37,336.62L125.46,336.15L125.46,335.67L125.37,335.19L125.18,334.75L113.82,314.01L85.25,280.37z" fill="currentColor" stroke="none" fill-opacity="1.00" fill-rule="nonzero" />
      <path d="M126.05,328.26L125.70,328.28L125.35,328.37L125.03,328.53L124.75,328.74L124.51,329.01L124.33,329.32L124.22,329.66L124.17,330.01L124.19,330.37L124.28,330.71L124.44,331.03L124.65,331.31L124.92,331.55L125.23,331.73L125.57,331.85L125.92,331.89L138.19,333.16L138.71,333.13L139.20,333.00L139.67,332.77L140.08,332.46L140.42,332.07L140.68,331.63L140.85,331.14L140.92,330.63L140.89,330.11L140.76,329.61L140.53,329.15L140.22,328.74L139.83,328.40L139.38,328.14L138.90,327.97L138.38,327.90z" fill="currentColor" stroke="none" fill-opacity="1.00" fill-rule="nonzero" />
      <path d="M77.29,266.58L77.32,266.58L77.35,266.58L77.37,266.58L77.40,266.57L77.42,266.56L77.44,266.54L77.46,266.52L77.47,266.50L77.48,266.47L77.48,266.44L77.48,266.41L77.47,266.39L77.46,266.36L77.44,266.34L77.42,266.33L77.39,266.31L71.53,261.87L63.42,258.99L57.79,257.83L56.61,257.92L48.16,260.52L40.25,263.04L30.34,267.18L17.49,271.24L10.66,272.40L10.71,272.36L10.16,272.31L9.61,272.36L9.08,272.52L8.59,272.78L8.16,273.13L7.80,273.56L7.54,274.05L7.38,274.58L7.32,275.13L7.38,275.68L7.54,276.21L7.80,276.70L8.15,277.13L8.57,277.48L9.06,277.74L9.59,277.91L10.00,277.97L18.60,277.29L32.12,272.09L42.20,268.41L49.75,265.46L57.56,263.03L62.12,263.56L70.02,265.90z" fill="currentColor" stroke="none" fill-opacity="1.00" fill-rule="nonzero" />
      <path d="M8.77,276.25L8.62,276.14L8.45,276.05L8.27,276.01L8.08,276.00L7.89,276.03L7.71,276.09L7.55,276.19L7.41,276.31L7.29,276.47L7.21,276.64L7.16,276.82L7.15,277.01L7.18,277.20L7.25,277.38L7.34,277.54L7.47,277.68L11.46,282.32L12.06,282.68L16.54,284.89L17.55,285.00L26.95,284.17L35.21,283.39L40.28,283.18L48.51,282.85L50.83,283.29L51.35,283.29L51.85,283.19L52.33,282.99L52.76,282.71L53.13,282.35L53.41,281.92L53.61,281.44L53.72,280.94L53.72,280.42L53.62,279.92L53.42,279.44L53.14,279.01L52.78,278.64L52.35,278.36L51.87,278.16L51.37,278.05L48.84,277.99L40.09,278.20L34.92,278.54L26.51,279.09L17.57,280.22L13.51,279.53z" fill="currentColor" stroke="none" fill-opacity="1.00" fill-rule="nonzero" />
      <path d="M22.85,283.82L22.76,283.78L22.66,283.76L22.57,283.76L22.47,283.78L22.38,283.82L22.30,283.87L22.23,283.94L22.18,284.02L22.14,284.11L22.12,284.21L22.12,284.30L22.14,284.40L22.17,284.49L22.23,284.57L22.30,284.64L22.38,284.69L26.91,288.03L31.69,291.13L40.14,291.54L47.87,293.29L57.18,293.67L58.63,294.20L59.12,294.33L59.62,294.36L60.11,294.29L60.59,294.13L61.02,293.88L61.40,293.55L61.70,293.15L61.93,292.70L62.05,292.22L62.09,291.72L62.02,291.22L61.86,290.74L61.61,290.31L61.28,289.93L60.88,289.63L60.43,289.41L58.61,288.68L48.70,288.06L40.87,286.74L33.06,286.55L28.06,285.75z" fill="currentColor" stroke="none" fill-opacity="1.00" fill-rule="nonzero" />
      <path d="M13.65,272.49L13.69,272.51L13.72,272.53L13.76,272.54L13.80,272.54L13.84,272.53L13.87,272.52L13.90,272.50L13.93,272.47L13.96,272.44L13.97,272.41L13.98,272.37L13.98,272.33L13.98,272.29L13.96,272.26L13.94,272.22L13.92,272.19L12.98,270.54L15.82,271.54L23.04,271.91L30.35,272.80L31.30,272.69L33.70,272.00L34.12,271.81L34.49,271.54L34.80,271.20L35.04,270.81L35.19,270.38L35.26,269.93L35.24,269.47L35.14,269.03L34.94,268.61L34.67,268.24L34.34,267.93L33.94,267.69L33.51,267.54L33.06,267.47L32.60,267.49L32.16,267.59L30.31,268.39L23.38,267.82L15.86,267.79L10.90,267.64L10.43,267.70L10.00,267.86L9.60,268.11L9.27,268.44L9.02,268.84L8.86,269.28L8.80,269.74L8.83,270.20L8.97,270.65L9.20,271.06L9.51,271.40z" fill="currentColor" stroke="none" fill-opacity="1.00" fill-rule="nonzero" />
      <path d="M389.93,218.03L389.93,218.01L389.92,217.99L389.91,217.98L389.90,217.97L389.89,217.96L389.87,217.95L389.85,217.95L389.84,217.94L389.82,217.95L389.80,217.95L389.79,217.96L389.78,217.97L389.77,217.99L389.76,218.00L389.75,218.02L389.75,218.04L389.20,245.33L391.39,281.37L399.07,316.43L399.30,317.05L399.70,317.58L411.66,329.60L429.50,347.49L430.51,364.14L421.14,389.05L415.42,375.12L410.83,364.47L410.58,364.03L410.25,363.64L409.85,363.32L409.40,363.09L408.91,362.95L408.41,362.91L407.90,362.96L407.42,363.12L406.97,363.37L406.58,363.69L406.27,364.09L406.03,364.54L405.89,365.03L405.85,365.54L405.91,366.04L406.06,366.53L410.64,377.16L419.03,396.33L419.28,396.78L419.62,397.17L420.04,397.47L420.51,397.68L421.01,397.78L421.53,397.77L422.03,397.66L422.50,397.43L422.90,397.12L423.23,396.72L423.47,396.27L435.83,365.55L436.01,364.35L434.39,346.19L434.16,345.34L433.66,344.62L415.04,326.20L403.44,314.78L396.25,280.86L393.56,245.07z" fill="currentColor" stroke="none" fill-opacity="1.00" fill-rule="nonzero" />
      <path d="M375.04,248.08L375.03,248.00L375.00,247.92L374.95,247.84L374.89,247.78L374.82,247.73L374.74,247.69L374.66,247.67L374.57,247.67L374.48,247.68L374.40,247.71L374.33,247.76L374.26,247.82L374.21,247.89L374.18,247.97L374.16,248.06L374.15,248.14L375.54,296.69L377.04,302.34L377.19,302.75L377.42,303.11L377.72,303.43L378.07,303.68L378.46,303.86L378.88,303.95L379.31,303.97L379.74,303.89L380.14,303.74L380.51,303.51L380.82,303.22L381.07,302.86L381.25,302.47L381.35,302.05L381.36,301.62L381.29,301.19L379.95,296.18z" fill="currentColor" stroke="none" fill-opacity="1.00" fill-rule="nonzero" />
      <path d="M395.43,326.14L395.31,325.88L395.13,325.64L394.92,325.44L394.67,325.28L394.39,325.18L394.10,325.14L393.80,325.15L393.51,325.22L393.25,325.34L393.01,325.52L392.81,325.73L392.65,325.99L392.55,326.26L392.51,326.56L392.52,326.85L392.59,327.14L399.54,348.52L401.27,367.66L393.18,382.79L378.40,400.90L377.99,401.59L377.80,402.36L377.85,403.15L380.83,417.15L381.07,417.83L381.49,418.42L382.06,418.88L383.75,419.90L384.22,420.12L384.73,420.25L385.24,420.28L385.76,420.20L386.25,420.03L386.69,419.76L387.08,419.41L387.39,418.99L387.61,418.53L387.74,418.02L387.77,417.50L387.69,416.99L387.52,416.50L387.25,416.05L386.90,415.67L386.48,415.36L385.58,415.07L383.34,403.31L397.68,386.08L405.51,369.04L405.70,368.46L405.73,367.84L403.48,347.88z" fill="currentColor" stroke="none" fill-opacity="1.00" fill-rule="nonzero" />
      <path d="M336.75,91.78L336.76,91.80L336.77,91.81L336.78,91.83L336.79,91.84L336.81,91.84L336.83,91.85L336.84,91.85L336.86,91.84L336.88,91.84L336.89,91.83L336.90,91.82L336.91,91.80L336.92,91.79L336.92,91.77L336.92,91.75L336.92,91.73L334.12,77.43L333.95,77.06L333.68,76.75L324.17,67.46L302.80,49.22L279.00,37.95L278.46,37.76L277.89,37.70L277.31,37.76L276.77,37.94L276.28,38.25L275.87,38.65L275.56,39.14L275.37,39.68L275.30,40.25L275.15,43.96L279.78,72.74L277.92,90.60L272.67,105.85L272.58,107.30L274.84,117.11L275.04,117.71L275.39,118.23L275.85,118.66L276.40,118.95L277.00,119.11L294.34,121.35L323.49,120.76L337.13,120.06L337.62,119.99L338.08,119.82L338.50,119.57L338.86,119.24L339.15,118.85L339.36,118.41L339.48,117.93L339.50,117.44L339.43,116.96L339.27,116.50L339.02,116.08L338.69,115.72L338.29,115.42L337.85,115.22L337.38,115.10L336.89,115.07L323.36,115.71L294.81,116.16L279.43,114.31L278.08,106.91L283.14,92.06L284.99,72.92L280.53,43.78L279.23,42.46L299.37,53.94L321.09,71.13L331.52,78.64z" fill="currentColor" stroke="none" fill-opacity="1.00" fill-rule="nonzero" />
      <path d="M339.83,87.14L339.82,87.02L339.79,86.91L339.74,86.81L339.67,86.72L339.58,86.64L339.48,86.58L339.37,86.55L339.25,86.54L339.14,86.54L339.03,86.58L338.93,86.63L338.83,86.70L338.76,86.79L338.70,86.89L338.67,87.00L338.65,87.11L336.73,109.53L334.47,118.27L334.41,118.72L334.44,119.18L334.56,119.62L334.76,120.03L335.04,120.39L335.39,120.69L335.79,120.92L336.22,121.07L336.67,121.12L337.13,121.09L337.57,120.97L337.98,120.77L338.34,120.49L338.64,120.14L338.87,119.75L339.01,119.31L340.84,110.25z" fill="currentColor" stroke="none" fill-opacity="1.00" fill-rule="nonzero" />
      <path d="M341.64,86.54L341.46,86.42L341.26,86.33L341.04,86.28L340.82,86.27L340.60,86.31L340.40,86.39L340.21,86.50L340.05,86.66L339.92,86.84L339.83,87.04L339.78,87.25L339.78,87.47L339.81,87.69L339.89,87.90L340.01,88.08L340.16,88.24L351.59,99.21L352.38,99.62L365.37,103.29L359.06,120.68L354.41,124.47L341.02,118.74L339.98,118.52L331.93,118.47L331.42,118.52L330.92,118.66L330.47,118.89L330.06,119.21L329.73,119.61L329.48,120.06L329.33,120.55L329.27,121.06L329.31,121.57L329.46,122.06L329.69,122.52L330.01,122.92L330.40,123.25L330.85,123.50L331.34,123.66L331.86,123.72L339.35,123.89L353.84,130.38L354.47,130.57L355.12,130.61L355.77,130.50L356.37,130.25L356.89,129.86L362.79,123.81L363.42,122.86L370.56,102.44L370.68,101.98L370.69,101.50L370.61,101.03L370.43,100.58L370.16,100.19L369.81,99.85L369.41,99.60L368.96,99.43L353.76,96.01z" fill="currentColor" stroke="none" fill-opacity="1.00" fill-rule="nonzero" />
      <path d="M367.18,99.23L367.08,99.31L367.00,99.40L366.93,99.51L366.89,99.63L366.87,99.76L366.88,99.89L366.92,100.01L366.97,100.12L367.05,100.22L367.14,100.31L367.25,100.37L367.37,100.41L367.50,100.43L367.63,100.42L367.75,100.39L367.86,100.33L370.99,100.22L394.59,94.30L414.70,93.74L426.22,100.00L423.95,106.17L415.58,116.29L414.92,117.78L413.37,129.71L410.89,147.00L407.86,155.22L399.23,149.22L363.88,131.81L359.52,127.82L359.06,127.50L358.54,127.28L357.99,127.16L357.43,127.15L356.88,127.25L356.36,127.46L355.88,127.76L355.48,128.15L355.16,128.61L354.94,129.12L354.82,129.67L354.81,130.23L354.91,130.79L355.11,131.31L355.41,131.78L355.80,132.19L360.68,136.07L395.96,154.21L407.63,162.66L408.18,162.97L408.79,163.17L409.42,163.23L410.06,163.17L410.66,162.97L411.22,162.66L411.70,162.24L412.08,161.73L412.35,161.15L416.52,148.65L419.00,130.55L420.96,119.56L428.97,109.51L429.50,108.53L432.08,99.45L432.20,98.83L432.18,98.19L432.00,97.58L431.69,97.03L431.26,96.57L430.73,96.21L416.32,89.23L415.17,88.97L394.19,89.63L369.58,96.05z" fill="currentColor" stroke="none" fill-opacity="1.00" fill-rule="nonzero" />
      <path d="M101.78,134.35L101.92,134.43L102.07,134.49L102.22,134.51L102.38,134.51L102.54,134.47L102.68,134.40L102.81,134.31L102.92,134.19L103.00,134.06L103.06,133.91L103.08,133.75L103.08,133.59L103.04,133.44L102.98,133.30L102.88,133.17L102.77,133.06L85.56,118.24L60.04,90.16L45.40,70.31L45.95,68.90L84.62,71.22L120.90,73.20L160.06,81.85L189.63,92.06L248.53,114.15L271.90,122.04L308.00,137.64L340.36,156.71L370.74,173.43L412.83,207.04L437.88,232.23L455.74,257.67L456.12,258.12L456.57,258.48L457.10,258.74L457.66,258.90L458.24,258.94L458.82,258.87L459.37,258.69L459.88,258.40L460.33,258.02L460.69,257.56L460.95,257.04L461.11,256.48L461.15,255.90L461.08,255.32L460.90,254.76L460.61,254.26L442.64,228.58L416.89,202.75L374.19,168.70L343.12,151.92L310.59,132.90L273.95,117.03L250.46,108.85L191.43,87.10L161.43,77.37L121.66,68.87L84.92,66.80L44.30,63.46L43.72,63.49L43.16,63.63L42.65,63.90L42.20,64.26L41.85,64.72L41.60,65.24L40.04,69.91L39.90,70.52L39.92,71.15L40.09,71.76L40.40,72.31L56.07,93.28L82.54,121.29z" fill="currentColor" stroke="none" fill-opacity="1.00" fill-rule="nonzero" />
      <path d="M123.39,70.75L123.25,70.75L123.12,70.78L122.99,70.84L122.88,70.92L122.79,71.02L122.71,71.13L122.66,71.26L122.64,71.40L122.64,71.54L122.67,71.67L122.73,71.80L122.81,71.91L122.91,72.01L123.02,72.08L123.15,72.13L123.29,72.15L165.22,76.81L187.08,80.50L231.32,92.69L246.23,95.80L246.53,95.84L246.83,95.81L247.13,95.73L247.40,95.60L247.64,95.41L247.84,95.18L247.99,94.92L248.08,94.63L248.12,94.32L248.10,94.02L248.02,93.73L247.88,93.46L247.70,93.22L247.46,93.02L247.20,92.87L246.91,92.77L232.27,89.20L188.25,75.90L165.83,72.45z" fill="currentColor" stroke="none" fill-opacity="1.00" fill-rule="nonzero" />
      <path d="M174.26,76.15L174.13,76.25L174.03,76.37L173.95,76.51L173.90,76.66L173.88,76.82L173.89,76.98L173.94,77.14L174.01,77.28L174.11,77.41L174.23,77.51L174.37,77.59L174.53,77.64L174.69,77.66L174.85,77.65L175.00,77.61L175.15,77.53L188.68,70.63L200.91,58.58L225.51,42.27L246.89,29.65L263.63,24.05L313.02,16.30L343.35,14.05L361.25,23.76L382.67,35.73L390.82,59.82L402.02,86.89L402.12,87.17L402.30,87.65L402.57,88.10L402.92,88.48L403.34,88.78L403.81,89.00L404.31,89.13L404.83,89.15L405.34,89.07L405.83,88.89L406.27,88.62L406.66,88.27L406.96,87.85L407.18,87.38L407.30,86.87L407.32,86.35L407.24,85.84L407.15,85.37L395.75,58.06L387.32,33.11L386.86,32.28L386.14,31.67L364.10,18.67L345.09,9.12L344.41,8.88L343.69,8.84L312.54,11.30L262.64,19.07L245.00,24.87L223.06,38.31L198.13,54.81L186.02,66.93z" fill="currentColor" stroke="none" fill-opacity="1.00" fill-rule="nonzero" />
      <path d="M382.97,152.05L382.96,152.04L382.94,152.03L382.92,152.02L382.91,152.02L382.89,152.03L382.87,152.03L382.86,152.04L382.84,152.05L382.83,152.06L382.82,152.08L382.82,152.10L382.82,152.11L382.82,152.13L382.82,152.15L382.83,152.16L382.84,152.18L401.21,173.61L422.92,198.38L438.53,227.09L438.97,228.12L439.20,228.55L439.51,228.91L439.89,229.21L440.32,229.43L440.78,229.56L441.26,229.60L441.74,229.55L442.20,229.40L442.62,229.17L442.99,228.85L443.29,228.48L443.51,228.05L443.64,227.59L443.68,227.10L443.62,226.63L443.47,226.17L442.98,225.04L427.13,195.78L404.72,170.41z" fill="currentColor" stroke="none" fill-opacity="1.00" fill-rule="nonzero" />
      <path d="M202.93,50.76L202.92,50.76L202.90,50.76L202.88,50.77L202.87,50.78L202.86,50.79L202.85,50.81L202.84,50.82L202.84,50.84L202.84,50.86L202.84,50.87L202.85,50.89L202.86,50.90L202.87,50.92L202.88,50.93L202.90,50.93L202.92,50.94L225.90,55.02L266.35,64.81L277.48,70.46L277.92,70.64L278.37,70.72L278.84,70.71L279.30,70.62L279.72,70.43L280.11,70.17L280.43,69.83L280.69,69.44L280.86,69.01L280.94,68.55L280.94,68.09L280.84,67.63L280.65,67.20L280.39,66.82L280.06,66.49L279.66,66.24L268.33,60.30L226.65,51.21z" fill="currentColor" stroke="none" fill-opacity="1.00" fill-rule="nonzero" />
      <path d="M204.32,50.22L212.26,53.21L225.82,51.64L238.49,54.64L263.67,60.19L278.84,67.14L281.79,66.18L279.66,59.05L279.28,44.80L289.22,48.50L309.51,64.13L323.39,73.46L335.13,85.63L347.51,93.92L366.29,101.70L370.81,99.60L378.67,96.47L391.54,93.31L404.67,92.65L407.65,87.72L402.42,67.45L396.37,54.78L385.36,31.62L366.05,18.60L348.44,11.64L321.08,12.34L294.02,14.90L279.16,16.13L261.76,20.75L260.85,21.26z" fill-rule="evenodd" fill="currentColor" stroke="none" fill-opacity="1.00" />
      <path d="M100.98,135.68L119.13,123.32L131.62,111.81L149.71,105.79L160.28,98.81L180.46,88.99L158.00,80.76L123.96,70.40L106.51,70.34L81.22,68.52L51.03,66.71L43.04,71.41L52.63,90.36L65.50,105.56L82.94,120.65L84.00,121.35z" fill-rule="evenodd" fill="currentColor" stroke="none" fill-opacity="1.00" />
    </g>
  </symbol>
</svg>