<?xml version='1.0' encoding='utf-8'?>
<svg xmlns="http://www.w3.org/2000/svg" version="1.1" x="0.00px" y="0.00px" width="400.00px" height="400.00px" viewBox="0.00 0.00 400.00 400.00">
  <symbol id="frame" viewBox="0.00 0.00 400.00 400.00">
    <g class="layers.drawing-primary">
      <path d="M193.56,48.40L201.38,52.08L214.95,50.41L227.60,53.30L252.80,58.74L267.99,65.58L270.80,64.60L268.56,57.59L268.85,43.80L278.07,47.55L298.30,63.12L312.16,72.41L323.91,84.55L336.40,92.88L355.44,100.71L360.19,98.52L367.19,93.52L380.52,90.57L393.36,90.36L396.23,86.13L391.34,66.03L385.60,53.23L374.83,29.84L355.14,17.20L337.53,10.48L310.27,11.43L283.24,14.22L268.49,15.68L251.46,20.43L250.88,21.01z" fill-rule="evenodd" fill="currentColor" stroke="none" fill-opacity="1.00" />
      <path d="M89.95,133.88L109.05,122.82L121.30,111.18L139.21,104.98L149.70,97.77L169.91,87.46L147.17,79.21L113.08,69.09L95.62,69.49L70.35,67.37L40.19,65.26L31.95,69.84L41.32,89.16L54.04,104.65L71.39,120.07L72.34,121.06z" fill-rule="evenodd" fill="currentColor" stroke="none" fill-opacity="1.00" />
      <path d="M328.95,297.29L328.55,305.14L327.03,317.63L329.32,317.24L342.09,316.58L351.95,324.12L360.71,330.54L363.04,331.62L359.28,321.59L346.71,300.96L346.07,300.31z" fill-rule="evenodd" fill="currentColor" stroke="none" fill-opacity="1.00" />
      <path d="M210.33,430.70L205.69,416.94L206.90,390.97L214.00,373.75L223.01,353.45L217.53,307.37L218.53,297.97L236.76,297.27L238.99,305.41L240.02,331.28L240.74,346.85L257.85,347.61L285.30,336.31L286.77,344.91L283.26,372.95L290.26,391.97L315.84,386.23L332.69,391.63L355.09,378.96L345.50,411.00L340.73,432.89z" fill-rule="evenodd" fill="currentColor" stroke="none" fill-opacity="1.00" />
      <path d="M172.55,127.37L172.56,127.32L172.56,127.27L172.55,127.22L172.53,127.17L172.50,127.13L172.47,127.09L172.42,127.07L172.37,127.05L172.32,127.04L172.27,127.04L172.22,127.05L172.18,127.07L172.14,127.10L172.10,127.14L172.07,127.18L172.05,127.23L161.37,159.20L157.48,211.42L165.43,244.85L169.39,253.79L169.64,254.21L169.96,254.58L170.35,254.88L170.79,255.10L171.27,255.22L171.76,255.25L172.25,255.19L172.71,255.03L173.14,254.78L173.51,254.45L173.80,254.06L174.02,253.62L174.15,253.15L174.18,252.66L174.11,252.17L173.95,251.70L170.11,243.47L162.26,211.36L164.91,160.00z" fill="currentColor" stroke="none" fill-opacity="1.00" fill-rule="nonzero" />
      <path d="M171.37,250.48L171.43,250.74L171.53,250.98L171.68,251.19L171.86,251.38L172.08,251.52L172.32,251.62L172.58,251.67L172.84,251.66L173.10,251.61L173.34,251.51L173.55,251.36L173.74,251.18L173.88,250.96L173.98,250.71L174.02,250.46L174.02,250.20L172.09,223.87L178.17,194.27L178.21,193.76L178.16,193.25L178.01,192.76L177.76,192.31L177.43,191.91L177.03,191.59L176.58,191.35L176.08,191.20L175.57,191.16L175.06,191.21L174.57,191.36L174.12,191.61L173.72,191.94L173.40,192.34L173.16,192.79L173.01,193.28L167.64,223.35z" fill="currentColor" stroke="none" fill-opacity="1.00" fill-rule="nonzero" />
      <path d="M178.94,195.07L178.88,194.78L178.76,194.51L178.59,194.26L178.38,194.05L178.13,193.89L177.86,193.78L177.57,193.73L177.27,193.73L176.98,193.79L176.71,193.90L176.46,194.07L176.25,194.28L176.09,194.53L175.98,194.81L175.93,195.10L175.93,195.40L178.54,225.72L188.46,249.53L188.68,249.94L188.99,250.30L189.35,250.59L189.77,250.80L190.22,250.93L190.68,250.97L191.15,250.92L191.60,250.78L192.01,250.55L192.36,250.25L192.66,249.88L192.87,249.47L193.00,249.02L193.04,248.55L192.99,248.09L192.84,247.64L182.83,224.93z" fill="currentColor" stroke="none" fill-opacity="1.00" fill-rule="nonzero" />
      <path d="M190.43,257.01L190.47,257.33L190.58,257.64L190.74,257.92L190.95,258.16L191.21,258.36L191.50,258.50L191.81,258.58L192.13,258.60L192.45,258.56L192.76,258.46L193.04,258.30L193.28,258.08L193.47,257.83L193.62,257.54L193.70,257.23L193.72,256.91L192.53,199.92L199.91,159.38L199.95,158.91L199.89,158.44L199.75,157.99L199.52,157.57L199.21,157.21L198.84,156.92L198.41,156.70L197.96,156.57L197.49,156.54L197.01,156.59L196.56,156.74L196.15,156.97L195.79,157.28L195.50,157.65L195.28,158.07L195.15,158.53L187.95,199.35z" fill="currentColor" stroke="none" fill-opacity="1.00" fill-rule="nonzero" />
      <path d="M198.11,139.47L198.10,139.41L198.08,139.36L198.05,139.31L198.01,139.27L197.96,139.23L197.91,139.21L197.85,139.20L197.79,139.20L197.74,139.21L197.68,139.23L197.63,139.26L197.59,139.30L197.56,139.35L197.54,139.40L197.53,139.46L197.53,139.52L198.53,171.22L205.38,193.86L220.34,214.66L221.10,215.36L234.88,224.04L235.36,224.29L235.88,224.43L236.43,224.47L236.96,224.40L237.48,224.22L237.95,223.96L238.36,223.60L238.69,223.17L238.93,222.68L239.08,222.16L239.11,221.62L239.05,221.08L238.87,220.57L238.60,220.10L238.25,219.69L237.82,219.35L224.46,211.00L210.36,191.76L202.73,170.60z" fill="currentColor" stroke="none" fill-opacity="1.00" fill-rule="nonzero" />
      <path d="M234.48,219.04L234.50,219.09L234.54,219.14L234.58,219.18L234.63,219.21L234.69,219.24L234.75,219.25L234.81,219.24L234.87,219.23L234.93,219.20L234.98,219.17L235.02,219.12L235.05,219.07L235.07,219.01L235.08,218.95L235.08,218.89L235.07,218.83L225.09,184.06L227.31,149.59L227.29,149.11L227.17,148.64L226.97,148.21L226.68,147.82L226.33,147.50L225.92,147.25L225.47,147.08L224.99,147.01L224.51,147.03L224.04,147.14L223.61,147.35L223.22,147.63L222.90,147.99L222.65,148.40L222.48,148.85L222.41,149.33L220.86,184.24L220.97,185.03z" fill="currentColor" stroke="none" fill-opacity="1.00" fill-rule="nonzero" />
      <path d="M231.37,135.02L231.32,134.74L231.21,134.48L231.06,134.24L230.86,134.03L230.63,133.87L230.37,133.76L230.09,133.70L229.81,133.69L229.53,133.74L229.27,133.85L229.03,134.00L228.83,134.20L228.66,134.43L228.55,134.69L228.49,134.96L228.49,135.25L230.34,170.62L230.62,171.57L245.76,199.80L246.04,200.21L246.39,200.56L246.81,200.84L247.27,201.02L247.76,201.12L248.26,201.11L248.75,201.01L249.21,200.82L249.62,200.54L249.97,200.19L250.24,199.77L250.43,199.31L250.53,198.82L250.52,198.32L250.42,197.83L250.23,197.37L235.06,169.74z" fill="currentColor" stroke="none" fill-opacity="1.00" fill-rule="nonzero" />
      <path d="M243.13,160.46L243.10,160.41L243.06,160.37L243.02,160.33L242.97,160.31L242.91,160.30L242.85,160.29L242.79,160.30L242.74,160.32L242.69,160.35L242.65,160.39L242.61,160.44L242.59,160.49L242.58,160.55L242.58,160.61L242.59,160.66L242.61,160.72L257.84,196.51L258.45,197.29L284.05,219.42L284.49,219.72L284.99,219.94L285.51,220.05L286.05,220.06L286.58,219.96L287.09,219.76L287.54,219.47L287.93,219.10L288.23,218.65L288.45,218.16L288.56,217.63L288.57,217.09L288.47,216.56L288.27,216.06L287.98,215.61L287.60,215.22L261.95,193.93z" fill="currentColor" stroke="none" fill-opacity="1.00" fill-rule="nonzero" />
      <path d="M265.36,157.54L265.34,157.49L265.31,157.44L265.27,157.40L265.22,157.38L265.16,157.36L265.11,157.35L265.05,157.35L265.00,157.36L264.94,157.39L264.90,157.42L264.86,157.46L264.83,157.51L264.81,157.56L264.80,157.62L264.80,157.68L264.82,157.73L276.84,198.32L285.24,214.38L285.51,214.78L285.86,215.12L286.26,215.39L286.71,215.58L287.19,215.68L287.67,215.68L288.15,215.58L288.60,215.40L289.00,215.13L289.35,214.78L289.62,214.38L289.80,213.93L289.90,213.45L289.90,212.96L289.80,212.49L289.62,212.04L281.22,196.59z" fill="currentColor" stroke="none" fill-opacity="1.00" fill-rule="nonzero" />
      <path d="M265.76,149.20L265.73,149.15L265.69,149.10L265.64,149.06L265.59,149.04L265.53,149.02L265.47,149.02L265.41,149.03L265.35,149.05L265.30,149.08L265.26,149.12L265.22,149.16L265.19,149.22L265.18,149.28L265.17,149.34L265.18,149.39L265.20,149.45L285.24,198.50L301.01,214.28L301.40,214.59L301.83,214.82L302.31,214.96L302.80,215.01L303.29,214.95L303.77,214.80L304.20,214.57L304.58,214.25L304.89,213.86L305.12,213.43L305.26,212.95L305.30,212.46L305.25,211.97L305.10,211.49L304.86,211.06L304.55,210.68L289.54,196.03z" fill="currentColor" stroke="none" fill-opacity="1.00" fill-rule="nonzero" />
      <path d="M180.96,238.75L180.96,238.73L180.95,238.71L180.94,238.69L180.93,238.67L180.92,238.66L180.90,238.65L180.88,238.64L180.86,238.63L180.84,238.63L180.82,238.64L180.80,238.65L180.78,238.66L180.77,238.67L180.75,238.69L180.75,238.71L180.74,238.73L176.25,268.26L174.20,310.08L174.33,310.96L177.64,320.74L178.25,321.69L188.32,331.40L195.33,335.79L195.75,335.99L196.20,336.11L196.66,336.14L197.12,336.08L197.56,335.93L197.97,335.70L198.31,335.39L198.60,335.02L198.80,334.61L198.92,334.16L198.95,333.70L198.89,333.23L198.74,332.80L198.51,332.39L198.20,332.04L197.84,331.76L191.47,327.77L182.03,318.62L178.97,309.84L180.67,268.58z" fill="currentColor" stroke="none" fill-opacity="1.00" fill-rule="nonzero" />
      <path d="M217.81,314.11L217.85,314.00L217.88,313.89L217.88,313.77L217.85,313.65L217.81,313.55L217.74,313.45L217.66,313.37L217.56,313.30L217.45,313.26L217.34,313.23L217.22,313.23L217.11,313.26L217.00,313.30L216.90,313.37L216.82,313.45L216.75,313.55L208.90,324.13L200.85,331.22L200.51,331.58L200.25,332.00L200.08,332.46L200.00,332.95L200.02,333.44L200.13,333.92L200.34,334.37L200.62,334.78L200.99,335.11L201.41,335.37L201.87,335.55L202.36,335.63L202.85,335.61L203.33,335.50L203.78,335.29L204.18,335.00L212.58,327.62z" fill="currentColor" stroke="none" fill-opacity="1.00" fill-rule="nonzero" />
      <path d="M196.15,282.19L196.14,282.00L196.09,281.81L196.01,281.63L195.89,281.47L195.75,281.34L195.58,281.24L195.39,281.18L195.20,281.15L195.01,281.16L194.82,281.21L194.64,281.29L194.48,281.41L194.35,281.55L194.25,281.72L194.19,281.91L194.16,282.10L191.70,308.69L195.85,328.41L196.03,328.91L196.29,329.36L196.64,329.75L197.06,330.07L197.53,330.30L198.04,330.43L198.56,330.46L199.08,330.39L199.58,330.22L200.03,329.95L200.43,329.60L200.74,329.18L200.97,328.71L201.11,328.20L201.14,327.68L201.06,327.16L196.12,308.58z" fill="currentColor" stroke="none" fill-opacity="1.00" fill-rule="nonzero" />
      <path d="M197.25,334.48L197.19,334.32L197.09,334.17L196.97,334.04L196.82,333.94L196.66,333.87L196.49,333.83L196.31,333.82L196.14,333.85L195.97,333.91L195.82,334.01L195.69,334.13L195.59,334.28L195.52,334.44L195.48,334.61L195.48,334.79L195.51,334.96L196.10,342.82L196.28,343.29L196.56,343.72L196.93,344.07L197.36,344.35L197.84,344.52L198.35,344.59L198.86,344.55L199.35,344.41L199.79,344.16L202.12,342.43L202.57,342.02L202.90,341.51L203.08,340.93L203.11,340.32L202.73,334.82L202.63,334.31L202.42,333.84L202.12,333.42L201.74,333.07L201.29,332.81L200.79,332.65L200.27,332.60L196.60,332.25L196.05,332.31L195.52,332.47L195.04,332.74L194.61,333.09L194.26,333.53L194.00,334.02L193.85,334.55L193.80,335.10L193.86,335.65L194.02,336.18L194.29,336.67L194.64,337.09L195.07,337.44L195.56,337.70L196.09,337.85L196.65,337.90L198.06,337.52L198.37,339.40L199.24,339.92z" fill="currentColor" stroke="none" fill-opacity="1.00" fill-rule="nonzero" />
      <path d="M196.30,347.79L196.32,347.74L196.32,347.69L196.31,347.64L196.30,347.59L196.27,347.55L196.24,347.51L196.20,347.48L196.16,347.45L196.11,347.44L196.06,347.44L196.01,347.44L195.96,347.46L195.92,347.48L195.88,347.51L195.84,347.55L195.82,347.60L191.98,353.84L191.01,368.57L194.54,377.77L202.96,387.91L203.45,388.31L206.20,389.73L206.49,389.85L206.80,389.91L207.12,389.91L207.43,389.85L207.72,389.73L207.98,389.56L208.21,389.33L208.38,389.07L208.50,388.78L208.57,388.47L208.57,388.15L208.50,387.84L208.38,387.55L208.21,387.29L207.99,387.06L207.72,386.89L205.30,385.53L197.74,376.29L195.25,368.26L194.88,354.70z" fill="currentColor" stroke="none" fill-opacity="1.00" fill-rule="nonzero" />
      <path d="M202.49,361.77L202.48,361.76L202.47,361.74L202.46,361.73L202.44,361.72L202.42,361.71L202.41,361.71L202.39,361.71L202.37,361.72L202.36,361.72L202.34,361.73L202.33,361.74L202.32,361.76L202.32,361.78L202.31,361.79L202.31,361.81L202.32,361.83L205.63,376.72L203.80,390.65L203.80,391.05L203.88,391.45L204.03,391.82L204.25,392.15L204.53,392.43L204.87,392.66L205.24,392.81L205.63,392.89L206.03,392.89L206.42,392.81L206.79,392.66L207.12,392.44L207.41,392.16L207.63,391.82L207.78,391.45L207.86,391.06L208.87,376.70L208.79,376.04z" fill="currentColor" stroke="none" fill-opacity="1.00" fill-rule="nonzero" />
      <path d="M201.88,345.75L201.78,345.68L201.68,345.64L201.57,345.61L201.45,345.61L201.34,345.63L201.23,345.67L201.14,345.74L201.06,345.82L200.99,345.91L200.95,346.02L200.92,346.13L200.92,346.24L200.94,346.35L200.98,346.46L201.05,346.55L201.13,346.64L205.88,352.08L207.98,360.84L208.06,378.68L207.52,380.04L207.43,380.46L207.41,380.89L207.49,381.31L207.64,381.72L207.87,382.08L208.16,382.40L208.52,382.65L208.91,382.82L209.33,382.92L209.76,382.93L210.19,382.86L210.59,382.71L210.96,382.48L211.27,382.18L211.52,381.83L211.70,381.44L212.24,379.69L211.58,360.56L209.00,350.73L208.80,350.26L208.46,349.86z" fill="currentColor" stroke="none" fill-opacity="1.00" fill-rule="nonzero" />
      <path d="M209.29,267.93L209.29,267.91L209.28,267.90L209.27,267.88L209.26,267.87L209.25,267.86L209.23,267.85L209.22,267.85L209.20,267.85L209.18,267.85L209.17,267.85L209.15,267.86L209.14,267.88L209.13,267.89L209.12,267.91L209.12,267.92L209.12,267.94L208.91,281.38L213.19,309.48L214.47,316.55L214.43,316.28L214.30,316.66L214.25,317.07L214.29,317.47L214.40,317.86L214.58,318.23L214.83,318.55L215.14,318.81L215.50,319.01L215.88,319.13L216.29,319.18L216.69,319.15L217.08,319.04L217.45,318.85L217.76,318.60L218.03,318.29L218.23,317.94L218.34,317.56L218.50,316.95L218.46,316.31L216.43,308.88L211.09,281.19z" fill="currentColor" stroke="none" fill-opacity="1.00" fill-rule="nonzero" />
      <path d="M194.60,227.57L194.59,227.51L194.57,227.45L194.53,227.40L194.49,227.36L194.44,227.33L194.38,227.30L194.32,227.29L194.26,227.29L194.20,227.30L194.14,227.33L194.09,227.36L194.05,227.40L194.02,227.46L193.99,227.51L193.98,227.57L193.98,227.63L194.39,245.59L202.56,263.00L202.86,263.45L203.27,263.79L219.94,274.60L236.76,283.76L237.17,283.94L237.60,284.03L238.05,284.03L238.49,283.95L238.90,283.78L239.27,283.54L239.59,283.23L239.84,282.86L240.02,282.45L240.11,282.02L240.11,281.57L240.03,281.13L239.87,280.72L239.62,280.35L239.31,280.03L238.94,279.78L222.35,270.60L205.77,260.82L197.87,244.92z" fill="currentColor" stroke="none" fill-opacity="1.00" fill-rule="nonzero" />
      <path d="M238.00,283.12L237.82,283.20L237.67,283.32L237.54,283.47L237.44,283.64L237.38,283.83L237.35,284.02L237.37,284.22L237.42,284.41L237.50,284.59L237.62,284.74L237.77,284.87L237.94,284.97L238.13,285.03L238.33,285.06L238.52,285.04L238.71,284.99L247.22,282.78L251.35,281.92L257.31,280.83L259.15,282.42L262.60,289.11L263.15,289.97L263.47,290.32L263.85,290.60L264.28,290.80L264.74,290.92L265.21,290.94L265.68,290.87L266.13,290.72L266.53,290.47L266.88,290.15L267.17,289.77L267.37,289.35L267.48,288.89L267.51,288.41L267.44,287.94L267.28,287.50L267.04,287.09L266.76,286.79L263.19,279.49L262.73,278.86L262.11,278.40L258.45,277.19L257.87,277.01L257.26,277.02L250.66,278.20L246.31,278.98z" fill="currentColor" stroke="none" fill-opacity="1.00" fill-rule="nonzero" />
      <path d="M256.77,218.70L256.61,218.75L256.47,218.83L256.34,218.94L256.24,219.08L256.16,219.23L256.11,219.39L256.10,219.56L256.12,219.73L256.18,219.89L256.26,220.03L256.37,220.16L256.50,220.26L256.65,220.34L256.81,220.39L256.98,220.40L257.15,220.38L265.05,219.75L282.15,219.50L291.71,219.10L293.15,219.04L293.63,218.97L294.10,218.81L294.52,218.57L294.89,218.24L295.19,217.85L295.41,217.41L295.53,216.93L295.57,216.44L295.50,215.95L295.34,215.49L295.09,215.06L294.77,214.70L294.38,214.40L293.94,214.18L293.46,214.05L292.97,214.02L291.51,214.06L281.94,214.64L264.71,215.82z" fill="currentColor" stroke="none" fill-opacity="1.00" fill-rule="nonzero" />
      <path d="M256.76,220.19L256.39,220.24L256.03,220.36L255.70,220.55L255.42,220.80L255.19,221.10L255.02,221.44L254.93,221.80L254.90,222.18L254.95,222.55L255.07,222.91L255.26,223.24L255.51,223.52L255.81,223.75L256.15,223.91L256.51,224.01L256.89,224.04L265.38,224.04L283.84,224.30L292.56,223.16L293.36,222.90L294.06,222.44L295.09,221.55L295.49,221.11L295.80,220.61L296.01,220.05L296.10,219.46L296.07,218.87L295.94,218.29L295.69,217.75L295.34,217.27L294.90,216.86L294.39,216.55L293.83,216.35L293.25,216.26L292.65,216.28L292.07,216.42L291.53,216.67L291.05,217.02L290.75,217.48L283.56,218.87L265.30,219.62z" fill="currentColor" stroke="none" fill-opacity="1.00" fill-rule="nonzero" />
      <path d="M257.44,222.54L257.20,222.54L256.96,222.59L256.73,222.68L256.53,222.82L256.36,222.99L256.22,223.19L256.13,223.42L256.08,223.66L256.08,223.90L256.13,224.14L256.22,224.36L256.36,224.57L256.53,224.74L256.73,224.88L256.96,224.97L257.19,225.02L273.03,227.64L290.87,227.02L297.94,224.56L298.40,224.34L298.80,224.03L299.14,223.65L299.40,223.22L299.56,222.74L299.64,222.24L299.61,221.73L299.48,221.24L299.26,220.79L298.96,220.38L298.58,220.04L298.14,219.79L297.67,219.62L297.16,219.55L296.66,219.57L296.17,219.70L290.21,221.87L273.31,223.10z" fill="currentColor" stroke="none" fill-opacity="1.00" fill-rule="nonzero" />
      <path d="M224.39,215.28L224.43,215.26L224.47,215.24L224.50,215.20L224.52,215.17L224.54,215.13L224.55,215.08L224.54,215.04L224.53,215.00L224.52,214.96L224.49,214.92L224.46,214.89L224.42,214.87L224.38,214.85L224.34,214.85L224.30,214.85L224.25,214.86L217.12,215.47L209.50,215.45L198.33,214.31L198.49,214.22L198.09,213.86L197.62,213.59L197.10,213.43L196.57,213.37L196.03,213.43L195.51,213.60L195.04,213.87L194.64,214.23L194.33,214.67L194.11,215.17L194.00,215.70L194.00,216.24L194.11,216.77L194.33,217.26L194.65,217.70L195.24,218.33L195.98,218.90L196.86,219.17L209.17,220.52L217.66,219.26z" fill="currentColor" stroke="none" fill-opacity="1.00" fill-rule="nonzero" />
      <path d="M224.74,220.24L224.77,220.24L224.80,220.23L224.83,220.21L224.86,220.19L224.88,220.17L224.90,220.14L224.91,220.10L224.91,220.07L224.91,220.04L224.90,220.01L224.88,219.98L224.86,219.95L224.83,219.93L224.80,219.91L224.77,219.90L224.74,219.90L203.34,217.30L195.04,216.33L194.54,216.29L193.99,216.28L193.44,216.38L192.93,216.58L192.46,216.88L192.06,217.27L191.75,217.72L191.53,218.23L191.41,218.77L191.41,219.33L191.50,219.87L191.71,220.38L192.01,220.85L192.39,221.25L192.85,221.56L193.36,221.78L193.90,221.90L194.34,221.97L202.79,223.14z" fill="currentColor" stroke="none" fill-opacity="1.00" fill-rule="nonzero" />
      <path d="M223.36,222.39L223.43,222.38L223.50,222.36L223.57,222.32L223.62,222.27L223.67,222.22L223.70,222.15L223.72,222.08L223.72,222.01L223.72,221.94L223.69,221.87L223.66,221.80L223.61,221.75L223.55,221.70L223.49,221.67L223.42,221.65L223.34,221.65L212.08,219.91L200.59,219.20L197.88,218.62L197.35,218.56L196.82,218.60L196.31,218.75L195.83,218.99L195.42,219.33L195.07,219.73L194.81,220.20L194.65,220.70L194.59,221.23L194.63,221.76L194.78,222.28L195.03,222.75L195.36,223.17L195.76,223.51L196.23,223.77L196.74,223.93L199.68,224.57L211.99,224.70z" fill="currentColor" stroke="none" fill-opacity="1.00" fill-rule="nonzero" />
      <path d="M237.20,261.56L236.96,261.41L236.69,261.32L236.42,261.27L236.14,261.28L235.86,261.35L235.61,261.47L235.38,261.63L235.19,261.84L235.05,262.08L234.95,262.34L234.91,262.62L234.92,262.90L234.98,263.17L235.10,263.43L235.27,263.65L235.47,263.84L239.55,267.77L240.17,268.50L240.46,268.79L240.80,269.02L241.18,269.18L241.58,269.26L241.99,269.26L242.39,269.18L242.77,269.03L243.11,268.80L243.40,268.51L243.63,268.17L243.79,267.79L243.87,267.39L243.87,266.98L243.79,266.58L243.64,266.20L243.41,265.86L242.68,264.89z" fill="currentColor" stroke="none" fill-opacity="1.00" fill-rule="nonzero" />
      <path d="M250.51,192.00L250.42,192.01L250.34,192.04L250.26,192.08L250.19,192.14L250.14,192.21L250.10,192.29L250.08,192.38L250.07,192.46L250.08,192.55L250.11,192.64L250.16,192.71L250.22,192.78L250.29,192.83L250.37,192.87L250.45,192.90L250.54,192.90L260.54,194.05L261.29,193.88L280.90,185.08L297.71,177.73L300.35,176.06L300.62,175.84L300.84,175.58L301.01,175.27L301.12,174.94L301.15,174.60L301.12,174.25L301.03,173.92L300.87,173.61L300.65,173.34L300.39,173.12L300.08,172.95L299.75,172.85L299.41,172.81L299.07,172.84L298.73,172.93L298.42,173.09L296.20,174.54L279.28,181.28L260.02,190.16z" fill="currentColor" stroke="none" fill-opacity="1.00" fill-rule="nonzero" />
      <path d="M222.50,193.72L222.62,193.72L222.75,193.70L222.87,193.65L222.98,193.59L223.07,193.50L223.14,193.39L223.19,193.28L223.22,193.15L223.23,193.02L223.20,192.90L223.16,192.78L223.09,192.67L223.00,192.58L222.90,192.51L222.78,192.45L222.66,192.43L209.38,189.52L192.76,181.29L185.15,177.08L184.90,176.87L184.54,176.63L184.15,176.45L183.73,176.36L183.29,176.35L182.87,176.43L182.47,176.58L182.10,176.81L181.79,177.11L181.54,177.47L181.37,177.86L181.27,178.29L181.27,178.72L181.34,179.14L181.50,179.55L181.73,179.91L182.03,180.22L182.43,180.60L190.62,185.26L208.02,193.11z" fill="currentColor" stroke="none" fill-opacity="1.00" fill-rule="nonzero" />
      <path d="M152.66,193.85L152.68,193.84L152.69,193.83L152.70,193.82L152.71,193.81L152.72,193.79L152.73,193.78L152.73,193.76L152.73,193.74L152.72,193.73L152.71,193.71L152.70,193.70L152.69,193.69L152.67,193.68L152.66,193.67L152.64,193.67L152.62,193.67L142.56,194.14L141.12,189.99L147.87,170.72L148.00,170.15L147.95,169.57L147.74,169.03L143.66,161.27L143.17,160.68L142.52,160.28L133.58,156.21L132.98,156.04L132.35,156.02L131.74,156.14L131.16,156.39L130.66,156.77L122.82,164.61L114.88,169.03L100.94,158.97L89.12,146.83L95.45,135.24L102.73,136.33L116.88,141.81L117.43,141.96L117.99,141.98L118.55,141.87L119.07,141.63L119.51,141.28L119.87,140.84L120.11,140.32L124.41,127.40L125.81,113.80L136.70,112.73L171.31,126.70L177.92,136.52L178.30,136.92L178.75,137.24L179.26,137.45L179.81,137.55L180.36,137.53L180.90,137.39L181.39,137.14L181.82,136.79L194.61,123.56L210.81,118.61L230.47,131.95L249.29,148.89L249.74,149.22L250.25,149.43L250.79,149.53L251.35,149.50L251.88,149.35L252.37,149.08L269.95,136.86L277.87,140.20L297.52,157.19L303.13,161.40L307.46,176.03L307.66,176.52L307.96,176.96L308.35,177.33L308.81,177.60L309.32,177.78L309.85,177.84L310.38,177.79L333.18,173.11L341.24,170.81L359.13,185.41L357.87,200.98L357.91,201.67L358.11,202.33L358.48,202.91L358.98,203.38L359.58,203.71L384.03,213.05L388.46,217.90L389.36,231.83L389.48,232.47L389.75,233.06L390.16,233.56L390.68,233.95L395.83,237.00L393.22,248.29L393.15,248.85L393.20,249.40L393.36,249.94L393.64,250.43L394.01,250.84L394.47,251.17L394.98,251.39L395.53,251.50L404.40,252.12L409.85,251.33L401.36,263.84L400.31,264.06L399.89,264.26L399.52,264.53L399.20,264.87L398.96,265.26L398.80,265.69L398.73,266.15L398.75,266.61L398.85,267.07L399.05,267.49L399.32,267.86L399.66,268.18L400.05,268.42L400.49,268.58L400.94,268.65L401.40,268.64L401.86,268.53L403.53,267.93L404.17,267.59L404.68,267.07L417.47,249.27L417.73,248.80L417.89,248.29L417.93,247.75L417.86,247.22L417.68,246.71L417.39,246.26L417.01,245.87L416.56,245.58L416.06,245.38L415.53,245.30L414.99,245.34L404.51,247.19L399.01,246.57L401.66,236.28L401.74,235.69L401.69,235.10L401.51,234.54L401.22,234.02L400.82,233.58L400.34,233.23L394.47,230.10L393.71,216.61L393.49,215.71L392.98,214.94L387.29,209.17L386.38,208.56L363.41,199.42L364.64,184.42L364.62,183.77L364.43,183.13L364.10,182.57L363.64,182.09L343.42,165.95L342.89,165.62L342.30,165.42L341.68,165.38L341.06,165.48L332.09,168.29L311.65,172.39L307.85,159.13L307.50,158.39L306.93,157.79L300.87,153.18L280.95,136.00L270.63,131.57L270.00,131.40L269.36,131.39L268.73,131.54L268.16,131.84L251.15,143.90L233.79,128.00L212.53,114.00L211.89,113.70L211.19,113.60L210.50,113.71L192.64,119.17L191.64,119.78L180.27,131.03L174.27,123.81L173.41,123.14L138.00,107.99L136.82,107.81L123.36,109.18L122.82,109.30L122.32,109.53L121.89,109.88L121.55,110.31L121.31,110.81L121.19,111.35L119.65,126.11L116.30,136.32L104.42,131.23L94.39,130.06L93.79,130.05L93.21,130.19L92.68,130.46L92.23,130.85L91.88,131.33L83.72,146.02L83.48,146.63L83.40,147.28L83.48,147.93L83.73,148.53L84.13,149.05L97.45,162.66L113.03,174.65L113.61,174.98L114.24,175.17L114.90,175.20L115.55,175.08L116.15,174.81L125.65,168.77L133.17,161.94L140.05,164.27L143.88,170.18L135.85,189.28L135.69,190.03L135.74,190.79L136.02,191.50L140.15,197.02L140.42,197.37L140.77,197.65L141.17,197.83L141.61,197.90L142.05,197.86z" fill="currentColor" stroke="none" fill-opacity="1.00" fill-rule="nonzero" />
      <path d="M89.00,131.21L88.95,131.24L88.90,131.28L88.86,131.33L88.83,131.39L88.81,131.45L88.80,131.51L88.81,131.57L88.83,131.64L88.86,131.69L88.90,131.74L88.95,131.78L89.01,131.81L89.07,131.83L89.13,131.83L89.19,131.83L89.25,131.81L114.03,122.59L114.92,122.46L115.21,122.36L115.48,122.22L115.72,122.02L115.91,121.78L116.05,121.51L116.14,121.21L116.16,120.91L116.13,120.60L116.04,120.31L115.89,120.04L115.70,119.80L115.46,119.61L115.18,119.47L114.89,119.38L114.58,119.35L114.28,119.39L113.26,119.65z" fill="currentColor" stroke="none" fill-opacity="1.00" fill-rule="nonzero" />
      <path d="M130.65,117.63L130.60,117.53L130.52,117.44L130.43,117.36L130.33,117.30L130.21,117.27L130.09,117.26L129.98,117.27L129.86,117.30L129.76,117.36L129.67,117.43L129.59,117.52L129.53,117.63L129.50,117.74L129.49,117.86L129.50,117.98L129.53,118.09L142.10,152.65L142.30,153.01L142.56,153.33L142.87,153.59L143.23,153.79L143.63,153.91L144.03,153.95L144.44,153.91L144.83,153.79L145.20,153.60L145.52,153.34L145.78,153.02L145.97,152.66L146.09,152.27L146.13,151.86L146.09,151.45L145.98,151.06z" fill="currentColor" stroke="none" fill-opacity="1.00" fill-rule="nonzero" />
      <path d="M146.94,156.45L146.87,156.62L146.83,156.81L146.83,157.00L146.86,157.18L146.93,157.36L147.04,157.52L147.17,157.66L147.32,157.76L147.50,157.84L147.69,157.88L147.88,157.88L148.06,157.85L148.24,157.78L148.40,157.67L148.53,157.54L148.64,157.38L165.21,129.93L165.38,129.53L165.47,129.10L165.48,128.66L165.40,128.23L165.24,127.82L165.00,127.46L164.69,127.14L164.33,126.89L163.93,126.72L163.50,126.63L163.06,126.62L162.63,126.70L162.22,126.87L161.85,127.11L161.54,127.41L161.29,127.77z" fill="currentColor" stroke="none" fill-opacity="1.00" fill-rule="nonzero" />
      <path d="M136.75,102.66L136.56,102.77L136.38,102.91L136.24,103.08L136.14,103.28L136.07,103.49L136.05,103.72L136.07,103.94L136.13,104.15L136.24,104.35L136.38,104.52L136.55,104.67L136.75,104.77L136.97,104.84L137.19,104.86L137.41,104.84L137.63,104.77L166.00,94.31L168.62,92.87L168.99,92.62L169.30,92.30L169.54,91.93L169.71,91.52L169.79,91.09L169.79,90.64L169.69,90.21L169.52,89.80L169.27,89.43L168.95,89.12L168.58,88.88L168.17,88.71L167.73,88.63L167.29,88.64L166.86,88.73L166.45,88.90L164.15,90.15z" fill="currentColor" stroke="none" fill-opacity="1.00" fill-rule="nonzero" />
      <path d="M176.13,130.75L176.09,131.00L176.11,131.25L176.17,131.49L176.28,131.72L176.43,131.92L176.62,132.08L176.84,132.21L177.07,132.29L177.32,132.33L177.57,132.31L177.81,132.25L178.04,132.14L178.24,131.99L178.41,131.80L178.53,131.58L178.62,131.35L184.83,106.54L184.88,106.24L184.86,105.94L184.78,105.65L184.65,105.38L184.47,105.14L184.24,104.93L183.98,104.78L183.69,104.68L183.39,104.64L183.09,104.66L182.80,104.74L182.52,104.87L182.28,105.05L182.08,105.28L181.93,105.54L181.83,105.82z" fill="currentColor" stroke="none" fill-opacity="1.00" fill-rule="nonzero" />
      <path d="M304.79,155.06L304.81,155.35L304.88,155.62L305.01,155.88L305.19,156.11L305.40,156.30L305.65,156.44L305.93,156.53L306.21,156.56L306.50,156.54L306.78,156.47L307.03,156.34L307.26,156.16L307.45,155.95L307.59,155.70L307.68,155.42L307.72,155.14L308.69,136.92L308.66,136.54L308.56,136.17L308.39,135.83L308.16,135.53L307.87,135.28L307.54,135.09L307.17,134.97L306.80,134.92L306.41,134.95L306.05,135.05L305.70,135.22L305.40,135.45L305.15,135.74L304.96,136.07L304.84,136.43L304.80,136.81z" fill="currentColor" stroke="none" fill-opacity="1.00" fill-rule="nonzero" />
      <path d="M304.41,266.68L304.41,266.66L304.41,266.64L304.40,266.62L304.39,266.60L304.38,266.58L304.36,266.57L304.34,266.56L304.32,266.55L304.30,266.55L304.28,266.55L304.26,266.56L304.24,266.57L304.23,266.58L304.21,266.60L304.20,266.62L304.20,266.64L299.70,279.92L295.21,306.80L290.00,323.53L284.68,343.14L279.82,362.81L281.22,379.59L285.22,392.31L285.40,392.74L285.67,393.12L286.00,393.45L286.39,393.71L286.83,393.88L287.29,393.97L287.76,393.96L288.21,393.87L288.64,393.68L289.03,393.42L289.36,393.09L289.61,392.69L289.79,392.26L289.88,391.80L289.87,391.33L289.77,390.87L286.07,378.91L284.85,363.58L289.11,344.36L295.06,325.04L300.00,308.06L303.71,280.65z" fill="currentColor" stroke="none" fill-opacity="1.00" fill-rule="nonzero" />
      <path d="M285.89,389.74L285.79,389.74L285.68,389.76L285.59,389.80L285.50,389.86L285.42,389.94L285.36,390.02L285.32,390.12L285.30,390.23L285.30,390.33L285.32,390.44L285.36,390.54L285.42,390.63L285.50,390.70L285.59,390.76L285.69,390.80L285.79,390.82L303.64,393.75L319.47,389.93L326.90,387.59L327.32,387.39L327.69,387.12L328.00,386.77L328.23,386.38L328.39,385.94L328.46,385.48L328.43,385.02L328.32,384.57L328.12,384.16L327.84,383.79L327.50,383.48L327.10,383.24L326.67,383.09L326.21,383.02L325.75,383.04L325.30,383.16L318.33,386.00L303.66,390.22z" fill="currentColor" stroke="none" fill-opacity="1.00" fill-rule="nonzero" />
      <path d="M313.23,378.68L313.17,378.86L313.15,379.04L313.16,379.22L313.21,379.40L313.29,379.56L313.40,379.71L313.54,379.83L313.69,379.92L313.87,379.98L314.05,380.01L314.23,380.00L314.41,379.95L314.57,379.87L314.72,379.76L314.84,379.62L314.93,379.46L323.01,364.62L323.20,363.83L324.76,328.96L326.85,307.35L328.45,290.94L332.03,276.90L332.09,276.44L332.07,275.97L331.96,275.52L331.76,275.10L331.48,274.73L331.13,274.42L330.73,274.18L330.30,274.03L329.84,273.96L329.37,273.98L328.92,274.10L328.50,274.30L328.13,274.57L327.82,274.92L327.58,275.32L327.43,275.76L323.99,290.01L322.42,306.92L320.30,328.59L319.02,363.24z" fill="currentColor" stroke="none" fill-opacity="1.00" fill-rule="nonzero" />
      <path d="M298.56,272.57L298.51,272.70L298.48,272.83L298.49,272.96L298.51,273.09L298.57,273.22L298.64,273.33L298.74,273.42L298.85,273.49L298.98,273.54L299.11,273.57L299.24,273.56L299.37,273.54L299.50,273.48L299.61,273.41L299.70,273.31L299.77,273.20L306.83,261.56L313.32,249.27L322.06,241.89L326.60,237.27L326.90,236.87L327.12,236.42L327.24,235.94L327.27,235.45L327.20,234.95L327.04,234.48L326.79,234.05L326.46,233.68L326.06,233.38L325.61,233.17L325.13,233.04L324.63,233.01L324.14,233.08L323.67,233.24L323.24,233.50L322.87,233.83L318.93,238.36L309.76,245.87L309.09,246.75L303.99,260.13z" fill="currentColor" stroke="none" fill-opacity="1.00" fill-rule="nonzero" />
      <path d="M325.59,235.52L325.59,235.65L325.62,235.78L325.67,235.89L325.75,236.00L325.84,236.09L325.95,236.16L326.07,236.21L326.20,236.23L326.33,236.23L326.46,236.20L326.57,236.15L326.68,236.08L326.77,235.99L326.84,235.88L326.89,235.76L326.91,235.63L329.96,215.41L331.82,203.85L331.14,203.14L331.34,209.44L331.93,229.15L331.99,229.59L332.14,230.01L332.36,230.40L332.66,230.73L333.01,231.00L333.41,231.19L333.85,231.30L334.29,231.33L334.73,231.26L335.15,231.12L335.53,230.89L335.86,230.60L336.13,230.24L336.33,229.84L336.44,229.41L336.46,228.97L335.44,209.13L333.96,201.01L333.84,200.61L333.64,200.24L333.38,199.92L333.05,199.67L332.67,199.49L332.27,199.39L331.85,199.37L331.44,199.45L331.06,199.61L328.90,200.64L328.38,201.03L328.01,201.55L327.82,202.17L325.93,214.86z" fill="currentColor" stroke="none" fill-opacity="1.00" fill-rule="nonzero" />
      <path d="M330.82,201.27L330.75,201.31L330.68,201.36L330.63,201.42L330.59,201.49L330.57,201.57L330.56,201.65L330.56,201.74L330.59,201.81L330.63,201.89L330.68,201.95L330.74,202.00L330.81,202.04L330.89,202.07L330.97,202.07L331.05,202.07L331.13,202.04L334.62,201.45L336.79,203.93L339.67,218.13L340.36,228.97L340.44,229.34L340.59,229.68L340.80,229.99L341.06,230.26L341.38,230.46L341.72,230.60L342.09,230.67L342.46,230.67L342.83,230.60L343.18,230.45L343.49,230.24L343.75,229.97L343.96,229.66L344.10,229.31L344.17,228.95L344.17,228.57L342.58,217.77L340.27,202.59L340.14,202.16L339.90,201.78L339.58,201.46L335.52,199.17L335.26,199.02L334.96,198.94L334.66,198.94L334.36,199.02z" fill="currentColor" stroke="none" fill-opacity="1.00" fill-rule="nonzero" />
      <path d="M337.82,200.66L337.49,200.66L337.17,200.73L336.86,200.86L336.59,201.04L336.35,201.28L336.17,201.55L336.04,201.86L335.98,202.19L335.98,202.52L336.05,202.84L336.18,203.15L336.36,203.42L336.60,203.65L336.87,203.84L337.18,203.96L337.50,204.03L341.90,204.26L344.03,220.63L344.47,229.50L344.55,229.94L344.71,230.34L344.95,230.71L345.26,231.02L345.62,231.27L346.03,231.44L346.46,231.53L346.90,231.54L347.33,231.46L347.74,231.29L348.10,231.05L348.42,230.75L348.67,230.38L348.84,229.98L348.93,229.55L348.93,229.11L347.81,220.23L344.70,202.64L344.62,202.32L344.46,202.02L344.25,201.77L343.98,201.57L343.68,201.43L343.35,201.37z" fill="currentColor" stroke="none" fill-opacity="1.00" fill-rule="nonzero" />
      <path d="M343.32,207.18L343.22,207.22L343.13,207.27L343.05,207.35L342.99,207.44L342.95,207.54L342.93,207.64L342.92,207.75L342.94,207.86L342.98,207.96L343.04,208.05L343.12,208.13L343.21,208.19L343.30,208.23L343.41,208.25L343.52,208.26L343.62,208.24L347.68,208.16L349.71,214.57L351.08,236.63L348.48,250.71L337.58,263.87L329.43,271.40L327.27,275.99L327.11,276.45L327.05,276.93L327.07,277.41L327.19,277.88L327.40,278.32L327.70,278.70L328.06,279.03L328.47,279.27L328.93,279.43L329.41,279.50L329.89,279.47L330.36,279.35L330.80,279.14L331.18,278.85L331.51,278.49L331.75,278.07L333.43,274.83L340.97,267.20L352.78,253.41L353.34,252.19L355.32,237.05L353.73,213.99L350.11,205.66L349.92,205.32L349.66,205.03L349.33,204.81L348.97,204.69L348.58,204.65L348.19,204.71z" fill="currentColor" stroke="none" fill-opacity="1.00" fill-rule="nonzero" />
      <path d="M310.26,244.15L310.29,244.20L310.34,244.24L310.39,244.28L310.44,244.30L310.50,244.31L310.56,244.31L310.62,244.30L310.67,244.28L310.72,244.25L310.76,244.21L310.80,244.16L310.82,244.10L310.83,244.04L310.83,243.98L310.82,243.92L310.80,243.87L306.63,232.31L304.27,212.69L307.01,193.19L313.98,180.55L321.18,176.06L330.47,174.97L342.64,180.82L348.19,189.47L349.34,205.97L349.42,206.45L349.60,206.91L349.86,207.32L350.20,207.67L350.59,207.95L351.04,208.15L351.51,208.25L352.00,208.26L352.48,208.18L352.93,208.01L353.35,207.75L353.70,207.41L353.98,207.01L354.18,206.57L354.28,206.09L354.29,205.61L352.97,188.50L352.59,187.38L346.38,177.60L345.94,177.09L345.37,176.71L331.90,170.35L331.26,170.15L330.59,170.14L320.10,171.43L319.14,171.76L310.91,176.77L310.06,177.66L302.53,191.22L299.32,212.35L302.83,233.20z" fill="currentColor" stroke="none" fill-opacity="1.00" fill-rule="nonzero" />
      <path d="M324.32,226.70L324.37,226.75L324.42,226.78L324.47,226.80L324.53,226.81L324.59,226.81L324.65,226.80L324.70,226.78L324.75,226.74L324.80,226.70L324.83,226.65L324.85,226.60L324.86,226.54L324.86,226.48L324.85,226.42L324.83,226.36L324.79,226.31L319.97,218.49L319.96,211.30L323.41,200.23L326.92,196.81L329.91,196.32L333.13,198.08L335.26,202.57L335.50,202.95L335.80,203.27L336.16,203.53L336.57,203.71L337.00,203.82L337.44,203.83L337.88,203.76L338.30,203.60L338.68,203.37L339.00,203.06L339.26,202.70L339.44,202.30L339.54,201.86L339.56,201.42L339.49,200.98L339.33,200.56L336.76,195.52L336.37,194.96L335.83,194.56L331.34,192.15L330.69,191.92L329.99,191.91L325.57,192.52L324.92,192.72L324.36,193.11L319.84,197.38L319.23,198.38L315.95,210.50L316.81,219.22L316.92,219.71L317.18,220.14z" fill="currentColor" stroke="none" fill-opacity="1.00" fill-rule="nonzero" />
      <path d="M323.84,354.32L323.67,354.18L323.48,354.07L323.27,354.00L323.05,353.97L322.84,353.98L322.62,354.04L322.43,354.14L322.25,354.27L322.11,354.44L322.00,354.63L321.93,354.83L321.90,355.05L321.91,355.27L321.97,355.48L322.07,355.68L322.20,355.86L329.07,364.31L324.79,381.12L324.50,383.55L324.50,384.01L324.59,384.47L324.76,384.90L325.02,385.28L325.35,385.61L325.73,385.87L326.16,386.05L326.61,386.15L327.08,386.15L327.53,386.06L327.97,385.89L328.35,385.63L328.68,385.30L328.94,384.92L329.12,384.49L329.22,384.04L329.41,382.02L333.00,364.16L333.05,363.70L332.98,363.24L332.81,362.81L332.53,362.44z" fill="currentColor" stroke="none" fill-opacity="1.00" fill-rule="nonzero" />
      <path d="M323.35,341.74L323.09,341.67L322.81,341.65L322.54,341.69L322.29,341.78L322.05,341.92L321.85,342.11L321.68,342.32L321.57,342.57L321.50,342.84L321.48,343.11L321.52,343.38L321.61,343.64L321.75,343.87L321.93,344.07L322.15,344.24L322.40,344.36L328.86,347.71L338.61,357.24L339.19,361.80L331.78,383.07L321.13,388.36L320.66,388.65L320.26,389.02L319.94,389.46L319.72,389.96L319.59,390.49L319.57,391.03L319.66,391.57L319.85,392.08L320.13,392.55L320.50,392.94L320.95,393.26L321.44,393.49L321.97,393.62L322.52,393.64L323.06,393.55L323.57,393.36L335.36,387.70L335.99,387.28L336.48,386.72L336.81,386.05L344.65,362.90L344.76,361.51L343.40,355.53L343.14,354.79L342.66,354.17L331.73,343.98L330.91,343.47z" fill="currentColor" stroke="none" fill-opacity="1.00" fill-rule="nonzero" />
      <path d="M322.07,319.67L321.94,319.71L321.82,319.78L321.71,319.86L321.62,319.97L321.56,320.09L321.52,320.22L321.50,320.36L321.51,320.50L321.55,320.63L321.62,320.75L321.70,320.86L321.81,320.95L321.93,321.01L322.06,321.06L322.20,321.07L322.34,321.06L339.45,318.98L351.14,326.78L369.50,346.88L371.51,350.85L365.48,357.01L365.17,357.40L364.94,357.85L364.80,358.33L364.76,358.82L364.82,359.32L364.97,359.79L365.21,360.23L365.53,360.61L365.92,360.92L366.36,361.15L366.84,361.28L367.34,361.33L367.83,361.27L368.31,361.12L368.74,360.88L369.12,360.56L376.37,353.06L376.74,352.56L376.98,351.99L377.08,351.37L377.02,350.75L376.80,350.17L373.80,344.32L354.68,323.04L340.73,315.48L340.11,315.25L339.46,315.25z" fill="currentColor" stroke="none" fill-opacity="1.00" fill-rule="nonzero" />
      <path d="M360.42,349.92L360.31,349.78L360.17,349.66L360.02,349.58L359.85,349.52L359.67,349.50L359.50,349.52L359.33,349.56L359.17,349.65L359.03,349.76L358.91,349.89L358.83,350.04L358.77,350.21L358.75,350.39L358.77,350.57L358.82,350.74L358.90,350.89L364.06,361.04L360.14,368.39L344.79,383.58L335.09,389.72L329.79,389.41L329.23,389.43L328.69,389.57L328.18,389.80L327.72,390.14L327.35,390.55L327.05,391.03L326.86,391.56L326.78,392.12L326.80,392.68L326.94,393.22L327.18,393.73L327.51,394.19L327.92,394.57L328.40,394.86L328.93,395.05L329.49,395.13L335.71,395.43L336.60,395.34L337.41,394.98L347.97,387.95L364.19,371.76L368.24,361.69L368.39,361.21L368.41,360.71L368.31,360.21L368.10,359.76z" fill="currentColor" stroke="none" fill-opacity="1.00" fill-rule="nonzero" />
      <path d="M326.37,296.43L326.20,296.40L326.03,296.40L325.86,296.44L325.70,296.51L325.56,296.60L325.44,296.73L325.35,296.87L325.29,297.04L325.26,297.21L325.26,297.38L325.30,297.55L325.37,297.70L325.47,297.84L325.59,297.96L325.74,298.06L325.90,298.12L337.44,302.79L344.14,304.88L362.56,335.81L363.20,336.52L364.27,337.33L364.67,337.57L365.12,337.73L365.59,337.80L366.07,337.77L366.53,337.65L366.95,337.45L367.33,337.16L367.65,336.81L367.89,336.40L368.05,335.95L368.11,335.48L368.09,335.01L367.97,334.55L367.76,334.12L367.48,333.74L367.12,333.42L366.38,332.98L347.72,301.68L347.36,301.22L346.90,300.87L346.37,300.63L338.73,298.43z" fill="currentColor" stroke="none" fill-opacity="1.00" fill-rule="nonzero" />
      <path d="M247.35,279.80L247.40,279.74L247.44,279.67L247.46,279.59L247.47,279.51L247.46,279.43L247.44,279.36L247.40,279.29L247.35,279.22L247.28,279.17L247.21,279.14L247.13,279.11L247.05,279.11L246.98,279.12L246.90,279.14L246.83,279.18L246.77,279.23L234.03,289.17L233.66,289.64L233.42,290.19L233.30,290.77L233.33,291.37L233.49,291.94L233.78,292.46L235.32,294.21L235.72,294.64L236.22,294.96L236.78,295.14L237.36,295.17L258.23,293.83L276.32,290.73L295.87,286.91L296.26,287.03L296.75,287.08L297.25,287.03L297.72,286.88L298.15,286.64L298.53,286.33L298.85,285.94L299.08,285.51L299.22,285.03L299.26,284.54L299.21,284.05L299.06,283.58L298.83,283.14L298.51,282.76L298.13,282.45L297.69,282.22L297.22,282.08L296.33,281.91L295.36,281.91L275.48,286.09L257.81,289.21L238.21,290.72L238.41,291.15z" fill="currentColor" stroke="none" fill-opacity="1.00" fill-rule="nonzero" />
      <path d="M232.40,294.56L232.28,294.45L232.15,294.37L232.00,294.32L231.84,294.29L231.68,294.30L231.53,294.34L231.38,294.41L231.26,294.50L231.15,294.62L231.07,294.76L231.01,294.91L230.99,295.06L231.00,295.22L231.04,295.38L231.11,295.52L231.20,295.65L244.25,311.09L248.54,318.60L248.82,318.94L249.17,319.21L249.57,319.41L249.99,319.54L250.43,319.57L250.87,319.52L251.30,319.39L251.68,319.17L252.02,318.88L252.30,318.54L252.50,318.14L252.62,317.72L252.65,317.27L252.60,316.83L252.47,316.41L252.25,316.02L246.67,309.29z" fill="currentColor" stroke="none" fill-opacity="1.00" fill-rule="nonzero" />
      <path d="M245.70,310.35L245.69,310.10L245.64,309.86L245.54,309.63L245.40,309.43L245.22,309.26L245.01,309.12L244.78,309.03L244.54,308.99L244.29,308.99L244.05,309.05L243.82,309.15L243.62,309.29L243.44,309.47L243.31,309.68L243.22,309.91L243.18,310.15L241.57,321.25L241.64,321.94L241.94,322.57L245.82,328.44L246.20,328.86L246.68,329.17L247.22,329.35L264.26,332.88L265.51,332.80L285.31,326.11L290.78,322.64L291.15,322.36L291.45,322.02L291.68,321.62L291.83,321.19L291.89,320.73L291.86,320.28L291.74,319.84L291.54,319.42L291.26,319.06L290.92,318.76L290.52,318.53L290.09,318.38L289.64,318.32L289.18,318.35L288.74,318.46L288.33,318.67L283.45,321.52L264.57,328.07L249.00,325.03L245.61,320.83z" fill="currentColor" stroke="none" fill-opacity="1.00" fill-rule="nonzero" />
      <path d="M245.60,329.10L245.65,328.99L245.68,328.88L245.68,328.77L245.67,328.65L245.63,328.55L245.57,328.45L245.49,328.36L245.40,328.30L245.30,328.25L245.19,328.22L245.07,328.21L244.96,328.23L244.85,328.27L244.76,328.33L244.67,328.40L244.60,328.50L234.64,341.76L234.41,342.25L234.31,342.78L234.34,343.33L234.50,343.85L234.77,344.31L241.00,352.12L241.36,352.49L241.81,352.76L242.32,352.90L242.84,352.92L256.14,351.97L286.12,338.57L286.54,338.32L286.91,338.00L287.21,337.62L287.42,337.18L287.55,336.71L287.58,336.23L287.52,335.75L287.37,335.29L287.12,334.87L286.80,334.50L286.42,334.20L285.98,333.99L285.51,333.86L285.03,333.83L284.55,333.89L284.09,334.04L255.21,347.02L243.55,348.73L239.35,342.79z" fill="currentColor" stroke="none" fill-opacity="1.00" fill-rule="nonzero" />
      <path d="M235.61,298.45L235.80,298.40L235.97,298.33L236.12,298.22L236.25,298.08L236.35,297.92L236.42,297.75L236.45,297.56L236.44,297.38L236.40,297.19L236.32,297.02L236.21,296.87L236.08,296.74L235.92,296.64L235.74,296.57L235.56,296.54L235.37,296.55L216.77,297.43L216.25,297.56L215.77,297.80L215.35,298.13L215.02,298.55L214.79,299.03L214.66,299.56L214.66,300.09L215.18,305.53L218.17,320.86L219.50,330.66L220.34,351.61L213.93,371.41L206.19,397.49L206.10,398.40L207.60,414.98L207.83,417.52L207.92,418.00L208.10,418.44L208.37,418.84L208.70,419.18L209.10,419.45L209.54,419.64L210.01,419.74L210.49,419.74L210.96,419.65L211.41,419.47L211.81,419.21L212.15,418.87L212.42,418.47L212.60,418.03L212.70,417.56L212.70,417.08L212.47,414.53L210.99,398.42L218.41,372.85L225.23,352.74L224.34,330.32L222.62,320.14L220.07,304.94L219.74,301.96z" fill="currentColor" stroke="none" fill-opacity="1.00" fill-rule="nonzero" />
      <path d="M356.80,376.18L356.81,376.12L356.80,376.06L356.79,376.00L356.77,375.94L356.73,375.89L356.69,375.85L356.63,375.82L356.58,375.80L356.52,375.79L356.46,375.79L356.40,375.80L356.34,375.83L356.29,375.86L356.25,375.91L356.22,375.96L356.19,376.02L348.05,398.96L342.22,429.50L342.18,430.01L342.25,430.52L342.41,431.00L342.66,431.45L342.99,431.84L343.40,432.15L343.86,432.38L344.35,432.52L344.86,432.56L345.37,432.49L345.85,432.33L346.30,432.08L346.69,431.74L347.00,431.34L347.23,430.88L347.37,430.39L352.07,399.96z" fill="currentColor" stroke="none" fill-opacity="1.00" fill-rule="nonzero" />
      <path d="M175.70,306.19L175.88,306.07L176.03,305.92L176.15,305.74L176.23,305.54L176.27,305.33L176.27,305.12L176.23,304.91L176.15,304.71L176.03,304.53L175.88,304.38L175.70,304.26L175.50,304.18L175.29,304.14L175.08,304.14L174.87,304.18L174.67,304.26L167.04,306.90L159.05,307.56L158.31,307.75L157.67,308.15L157.17,308.73L152.87,315.51L152.89,315.42L152.49,315.80L152.17,316.25L151.96,316.76L151.85,317.30L151.86,317.86L151.99,318.40L152.22,318.90L152.55,319.34L152.97,319.70L153.45,319.97L153.98,320.13L154.53,320.18L155.08,320.11L155.60,319.93L156.08,319.64L156.40,319.38L160.77,312.41L167.97,311.54L168.84,311.28z" fill="currentColor" stroke="none" fill-opacity="1.00" fill-rule="nonzero" />
      <path d="M154.09,318.76L154.08,318.74L154.07,318.73L154.05,318.72L154.03,318.72L154.02,318.71L154.00,318.72L153.98,318.72L153.97,318.73L153.95,318.74L153.94,318.75L153.93,318.77L153.93,318.78L153.92,318.80L153.93,318.82L153.93,318.83L153.94,318.85L159.82,330.74L158.37,343.12L155.83,362.45L155.90,363.37L157.08,367.75L157.25,368.18L157.49,368.57L157.81,368.90L158.19,369.17L158.61,369.36L159.05,369.46L159.51,369.47L159.97,369.39L160.39,369.23L160.78,368.98L161.12,368.67L161.38,368.29L161.57,367.87L161.67,367.42L161.68,366.97L161.60,366.51L160.51,362.59L163.08,343.61L162.27,330.44L162.23,330.10L162.09,329.78z" fill="currentColor" stroke="none" fill-opacity="1.00" fill-rule="nonzero" />
      <path d="M159.29,365.23L159.21,365.18L159.11,365.15L159.02,365.14L158.92,365.14L158.83,365.16L158.74,365.20L158.66,365.26L158.60,365.33L158.55,365.42L158.51,365.51L158.50,365.60L158.50,365.70L158.53,365.80L158.57,365.88L158.63,365.96L158.70,366.03L170.27,376.97L170.83,377.27L171.44,377.42L172.07,377.40L178.83,376.49L189.70,370.69L190.33,370.21L190.77,369.54L191.19,368.57L191.33,368.13L191.38,367.68L191.34,367.22L191.21,366.78L191.00,366.37L190.72,366.01L190.37,365.72L189.96,365.49L189.53,365.35L189.07,365.30L188.61,365.34L188.17,365.47L187.77,365.68L187.41,365.96L187.11,366.31L186.89,366.72L186.91,367.02L177.57,371.47L172.28,372.58z" fill="currentColor" stroke="none" fill-opacity="1.00" fill-rule="nonzero" />
      <path d="M153.09,322.33L153.35,322.37L153.61,322.36L153.86,322.29L154.09,322.18L154.30,322.03L154.47,321.84L154.60,321.61L154.69,321.37L154.72,321.12L154.71,320.86L154.65,320.61L154.54,320.38L154.38,320.17L154.19,320.00L153.97,319.87L153.73,319.78L143.77,316.19L143.16,316.12L142.55,316.20L141.98,316.44L141.49,316.82L141.12,317.30L139.40,320.21L139.15,320.79L139.06,321.42L139.14,322.05L141.30,330.40L144.16,344.58L142.31,355.46L142.29,356.11L142.42,356.75L142.70,357.33L143.11,357.83L149.51,363.64L150.03,364.02L150.63,364.25L151.27,364.32L157.77,364.07L158.23,364.01L158.67,363.87L159.08,363.64L159.43,363.33L159.72,362.97L159.92,362.55L160.05,362.10L160.08,361.64L160.03,361.18L159.88,360.74L159.65,360.33L159.35,359.98L158.98,359.69L158.57,359.48L158.12,359.36L157.66,359.32L152.18,359.35L147.82,354.93L149.39,344.93L149.36,343.97L146.05,329.32L144.07,321.80L144.36,321.30z" fill="currentColor" stroke="none" fill-opacity="1.00" fill-rule="nonzero" />
      <path d="M95.35,274.58L95.30,274.46L95.23,274.34L95.14,274.25L95.04,274.17L94.92,274.12L94.79,274.09L94.66,274.09L94.54,274.11L94.41,274.16L94.30,274.22L94.21,274.31L94.13,274.42L94.08,274.54L94.05,274.66L94.05,274.79L94.07,274.92L98.54,296.19L99.26,324.90L101.96,341.29L109.02,357.63L109.40,358.23L109.93,358.71L110.57,359.03L111.27,359.16L137.20,360.78L137.76,360.75L138.31,360.62L138.81,360.38L139.26,360.05L139.64,359.64L139.93,359.16L140.12,358.64L140.20,358.08L140.18,357.53L140.04,356.98L139.81,356.48L139.48,356.03L139.06,355.65L138.59,355.36L138.06,355.17L137.51,355.09L113.15,354.01L106.67,340.18L103.98,324.56L102.30,295.82z" fill="currentColor" stroke="none" fill-opacity="1.00" fill-rule="nonzero" />
      <path d="M109.89,252.40L109.73,252.09L109.53,251.82L109.27,251.59L108.97,251.41L108.64,251.30L108.30,251.25L107.96,251.27L107.62,251.36L107.31,251.51L107.04,251.72L106.81,251.97L106.63,252.27L106.52,252.60L106.47,252.94L106.49,253.29L106.58,253.62L112.12,269.79L126.21,312.80L128.84,335.19L128.94,335.66L129.14,336.10L129.42,336.49L129.77,336.82L130.17,337.08L130.62,337.25L131.10,337.34L131.58,337.32L132.05,337.22L132.49,337.02L132.88,336.75L133.22,336.40L133.47,335.99L133.65,335.54L133.73,335.07L133.72,334.58L130.79,312.00L116.17,268.41z" fill="currentColor" stroke="none" fill-opacity="1.00" fill-rule="nonzero" />
      <path d="M130.70,326.47L130.34,326.45L129.99,326.51L129.66,326.63L129.35,326.81L129.09,327.05L128.87,327.34L128.72,327.66L128.64,328.01L128.62,328.36L128.67,328.72L128.79,329.05L128.98,329.36L129.22,329.62L129.50,329.83L129.82,329.98L130.17,330.07L140.25,332.38L140.77,332.40L141.28,332.33L141.76,332.15L142.20,331.89L142.59,331.54L142.89,331.12L143.11,330.66L143.24,330.16L143.26,329.64L143.19,329.13L143.01,328.64L142.75,328.20L142.40,327.82L141.98,327.51L141.52,327.29L141.02,327.17z" fill="currentColor" stroke="none" fill-opacity="1.00" fill-rule="nonzero" />
      <path d="M106.52,253.26L106.54,253.27L106.57,253.28L106.60,253.27L106.62,253.27L106.65,253.26L106.67,253.24L106.69,253.22L106.70,253.20L106.71,253.17L106.72,253.14L106.72,253.12L106.71,253.09L106.70,253.06L106.68,253.04L106.66,253.02L106.64,253.01L100.93,248.05L92.62,244.31L87.32,242.76L86.00,242.79L78.53,244.89L71.00,247.54L61.09,252.83L46.02,259.77L35.63,262.53L34.72,262.87L34.23,263.13L33.81,263.49L33.47,263.92L33.21,264.42L33.06,264.95L33.01,265.50L33.07,266.05L33.24,266.58L33.51,267.07L33.87,267.49L34.30,267.83L34.79,268.09L35.32,268.24L35.88,268.29L36.43,268.23L36.96,268.06L37.18,267.94L47.79,265.66L63.42,257.50L73.21,252.82L80.07,249.85L86.75,247.95L90.95,248.76L99.12,251.95z" fill="currentColor" stroke="none" fill-opacity="1.00" fill-rule="nonzero" />
      <path d="M34.32,267.06L34.17,266.94L34.00,266.86L33.82,266.80L33.63,266.78L33.44,266.80L33.26,266.86L33.10,266.95L32.95,267.07L32.83,267.22L32.74,267.39L32.69,267.57L32.67,267.76L32.69,267.95L32.75,268.13L32.84,268.30L32.96,268.44L37.72,274.20L38.05,274.46L38.45,274.63L38.87,274.69L46.81,275.61L59.89,271.93L69.24,269.35L74.50,268.26L82.64,267.24L84.95,267.40L85.46,267.35L85.95,267.19L86.40,266.94L86.80,266.61L87.12,266.21L87.35,265.75L87.50,265.25L87.54,264.74L87.48,264.23L87.33,263.74L87.08,263.28L86.74,262.89L86.34,262.57L85.88,262.33L85.39,262.19L84.87,262.15L82.44,262.37L73.79,263.33L68.15,264.62L58.54,267.00L46.57,270.85L39.65,271.28z" fill="currentColor" stroke="none" fill-opacity="1.00" fill-rule="nonzero" />
      <path d="M54.89,270.48L54.80,270.46L54.70,270.45L54.60,270.47L54.51,270.50L54.43,270.55L54.35,270.61L54.30,270.69L54.25,270.78L54.23,270.87L54.22,270.97L54.24,271.06L54.27,271.16L54.32,271.24L54.38,271.31L54.46,271.37L54.55,271.41L59.98,274.24L65.65,276.72L74.71,276.19L82.47,277.90L91.00,278.62L92.01,279.28L92.46,279.50L92.95,279.62L93.45,279.65L93.95,279.59L94.42,279.42L94.85,279.17L95.23,278.84L95.53,278.44L95.75,277.99L95.88,277.50L95.91,277.00L95.84,276.50L95.68,276.03L95.42,275.59L95.09,275.22L94.69,274.92L93.19,273.94L92.07,273.57L83.35,272.68L75.31,271.36L66.38,271.99L60.79,271.82z" fill="currentColor" stroke="none" fill-opacity="1.00" fill-rule="nonzero" />
      <path d="M38.34,264.03L38.37,264.06L38.40,264.07L38.44,264.08L38.48,264.08L38.52,264.08L38.55,264.07L38.59,264.05L38.62,264.02L38.64,263.99L38.66,263.95L38.67,263.92L38.67,263.88L38.66,263.84L38.65,263.80L38.63,263.77L38.60,263.74L37.64,260.21L42.29,258.10L51.98,256.42L60.62,255.67L61.57,255.34L63.59,254.24L63.95,253.96L64.25,253.61L64.47,253.21L64.62,252.78L64.67,252.32L64.64,251.87L64.52,251.42L64.31,251.02L64.03,250.65L63.68,250.36L63.29,250.13L62.85,249.99L62.40,249.93L61.94,249.96L61.50,250.09L61.09,250.29L59.66,251.37L51.48,252.34L41.41,254.44L32.83,257.44L32.40,257.67L32.03,257.98L31.74,258.37L31.55,258.82L31.46,259.30L31.48,259.78L31.61,260.25L31.84,260.68L32.16,261.05z" fill="currentColor" stroke="none" fill-opacity="1.00" fill-rule="nonzero" />
      <path d="M377.74,218.99L377.74,218.98L377.73,218.96L377.72,218.95L377.71,218.94L377.69,218.93L377.67,218.92L377.66,218.92L377.64,218.92L377.62,218.92L377.61,218.93L377.59,218.94L377.58,218.95L377.57,218.97L377.57,218.99L377.56,219.00L377.56,219.02L379.48,245.99L381.28,281.96L388.70,317.44L388.92,318.05L389.29,318.57L401.17,331.11L418.38,348.72L418.93,364.33L411.27,387.30L405.42,375.83L400.94,365.24L400.70,364.79L400.38,364.40L399.98,364.08L399.53,363.85L399.04,363.70L398.54,363.66L398.03,363.71L397.54,363.86L397.10,364.10L396.71,364.43L396.39,364.82L396.15,365.27L396.01,365.76L395.96,366.27L396.01,366.77L396.16,367.26L400.67,377.95L409.60,394.41L409.88,394.83L410.24,395.18L410.67,395.45L411.15,395.62L411.65,395.69L412.15,395.65L412.64,395.50L413.08,395.26L413.46,394.94L413.77,394.53L413.98,394.08L424.27,365.63L424.41,364.59L423.30,347.52L423.09,346.65L422.59,345.91L404.62,327.78L393.10,315.86L386.15,281.50L383.83,245.64z" fill="currentColor" stroke="none" fill-opacity="1.00" fill-rule="nonzero" />
      <path d="M362.71,248.89L362.69,248.81L362.65,248.73L362.60,248.66L362.53,248.61L362.45,248.56L362.37,248.53L362.29,248.52L362.20,248.53L362.11,248.55L362.04,248.59L361.97,248.65L361.91,248.71L361.87,248.79L361.84,248.87L361.83,248.96L361.84,249.04L368.31,297.05L368.95,302.28L369.04,302.70L369.22,303.10L369.46,303.45L369.78,303.75L370.14,303.98L370.54,304.14L370.97,304.21L371.40,304.20L371.82,304.11L372.22,303.94L372.57,303.69L372.87,303.38L373.10,303.01L373.26,302.61L373.33,302.18L373.32,301.75L372.70,296.47z" fill="currentColor" stroke="none" fill-opacity="1.00" fill-rule="nonzero" />
      <path d="M385.46,325.36L385.31,325.10L385.11,324.88L384.87,324.70L384.61,324.58L384.32,324.50L384.03,324.48L383.73,324.52L383.46,324.62L383.20,324.77L382.98,324.97L382.80,325.20L382.67,325.47L382.60,325.76L382.58,326.05L382.62,326.34L382.72,326.62L391.84,347.47L393.25,367.35L384.60,383.03L369.72,400.55L369.29,401.23L369.09,401.99L369.12,402.79L371.59,415.88L371.90,416.71L372.46,417.39L373.67,418.45L374.09,418.75L374.57,418.96L375.07,419.08L375.59,419.09L376.10,419.00L376.59,418.82L377.03,418.54L377.41,418.18L377.71,417.76L377.92,417.29L378.04,416.78L378.05,416.26L377.96,415.75L377.78,415.26L377.50,414.82L377.14,414.44L376.49,414.08L374.61,403.06L389.04,386.40L397.47,368.80L397.71,367.61L395.78,346.79z" fill="currentColor" stroke="none" fill-opacity="1.00" fill-rule="nonzero" />
      <path d="M326.89,92.52L326.90,92.53L326.91,92.55L326.92,92.56L326.94,92.57L326.95,92.57L326.97,92.57L326.99,92.57L327.00,92.57L327.02,92.56L327.03,92.55L327.04,92.53L327.05,92.52L327.06,92.50L327.06,92.48L327.06,92.47L327.05,92.45L323.02,79.03L322.64,78.49L313.63,69.39L292.57,51.09L270.39,39.70L269.91,39.51L269.39,39.41L268.87,39.42L268.37,39.54L267.89,39.75L267.47,40.06L267.12,40.44L266.85,40.88L266.68,41.37L266.61,41.89L266.64,42.41L266.95,44.88L271.30,73.22L269.22,91.14L263.06,106.23L262.87,107.05L262.94,107.90L265.53,117.67L265.75,118.25L266.11,118.76L266.58,119.16L267.13,119.44L267.73,119.58L285.05,121.44L314.12,120.48L327.77,119.42L328.25,119.34L328.71,119.16L329.12,118.90L329.48,118.56L329.76,118.16L329.95,117.71L330.06,117.23L330.07,116.74L329.99,116.26L329.81,115.81L329.55,115.39L329.21,115.04L328.81,114.76L328.36,114.56L327.88,114.45L327.39,114.44L313.91,115.44L285.41,116.25L270.03,114.73L268.45,107.46L274.37,92.83L276.51,73.46L272.26,44.06L270.70,44.07L289.07,55.76L310.51,73.03L320.52,80.41z" fill="currentColor" stroke="none" fill-opacity="1.00" fill-rule="nonzero" />
      <path d="M329.66,87.59L329.65,87.47L329.62,87.36L329.57,87.26L329.50,87.17L329.41,87.09L329.31,87.04L329.20,87.00L329.08,86.99L328.97,87.00L328.86,87.03L328.75,87.08L328.66,87.15L328.59,87.24L328.53,87.34L328.50,87.45L328.48,87.57L326.64,109.95L324.37,118.64L324.32,119.09L324.35,119.55L324.47,119.99L324.67,120.40L324.95,120.76L325.29,121.06L325.69,121.29L326.12,121.44L326.57,121.50L327.03,121.47L327.47,121.35L327.88,121.14L328.24,120.86L328.54,120.52L328.77,120.12L328.92,119.69L330.75,110.67z" fill="currentColor" stroke="none" fill-opacity="1.00" fill-rule="nonzero" />
      <path d="M332.05,87.24L331.87,87.12L331.66,87.03L331.45,86.99L331.23,86.99L331.01,87.03L330.80,87.11L330.62,87.24L330.46,87.39L330.34,87.58L330.26,87.78L330.21,88.00L330.21,88.22L330.25,88.43L330.34,88.64L330.46,88.82L330.61,88.98L342.30,99.66L343.05,100.04L356.04,103.77L349.69,121.19L345.04,124.93L331.68,119.14L330.65,118.91L322.57,118.81L322.06,118.85L321.57,118.99L321.11,119.22L320.70,119.54L320.37,119.93L320.12,120.38L319.96,120.86L319.90,121.38L319.93,121.89L320.07,122.38L320.31,122.84L320.62,123.25L321.01,123.58L321.46,123.83L321.95,123.99L322.46,124.05L329.99,124.29L344.45,130.83L345.07,131.02L345.72,131.07L346.37,130.96L346.97,130.71L347.50,130.32L353.40,124.34L354.04,123.37L361.23,102.94L361.34,102.48L361.36,102.00L361.28,101.53L361.10,101.09L360.83,100.69L360.49,100.36L360.08,100.10L359.63,99.93L344.41,96.44z" fill="currentColor" stroke="none" fill-opacity="1.00" fill-rule="nonzero" />
      <path d="M356.96,99.28L356.91,99.40L356.88,99.52L356.87,99.65L356.89,99.77L356.93,99.89L357.00,100.00L357.08,100.09L357.18,100.17L357.30,100.22L357.42,100.25L357.55,100.26L357.67,100.24L357.79,100.20L357.90,100.13L358.00,100.05L358.07,99.95L360.89,98.24L384.86,92.43L405.76,92.16L418.64,99.73L416.00,107.45L407.49,117.32L406.79,118.80L405.10,130.23L400.50,147.17L398.07,155.20L389.78,149.73L354.06,132.77L349.21,129.09L348.72,128.82L348.19,128.64L347.63,128.57L347.07,128.61L346.53,128.76L346.03,129.01L345.59,129.35L345.22,129.78L344.94,130.27L344.76,130.80L344.70,131.36L344.74,131.92L344.88,132.46L345.14,132.96L345.48,133.40L345.91,133.77L351.17,137.24L386.62,154.79L398.15,162.73L398.73,163.03L399.35,163.21L400.00,163.25L400.64,163.16L401.25,162.94L401.80,162.59L402.26,162.14L402.62,161.60L402.87,161.00L406.14,148.74L410.64,131.57L412.80,120.70L420.98,110.85L421.57,109.78L424.46,99.21L424.57,98.61L424.55,98.00L424.38,97.41L424.09,96.87L423.69,96.42L423.19,96.06L407.52,87.69L406.33,87.39L384.52,87.76L358.95,94.21L358.41,94.42L357.95,94.76L357.59,95.21z" fill="currentColor" stroke="none" fill-opacity="1.00" fill-rule="nonzero" />
      <path d="M92.73,134.42L92.87,134.51L93.02,134.56L93.18,134.58L93.33,134.58L93.49,134.54L93.63,134.47L93.76,134.38L93.87,134.26L93.95,134.12L94.00,133.98L94.03,133.82L94.02,133.66L93.98,133.51L93.92,133.36L93.82,133.23L93.70,133.13L76.39,118.51L50.94,90.46L36.41,70.78L36.81,69.79L75.21,72.19L111.46,74.21L150.57,82.89L180.36,92.36L239.20,114.51L262.55,122.47L298.63,138.14L330.95,157.27L361.29,174.06L403.32,207.71L428.33,232.95L447.08,257.83L447.48,258.26L447.95,258.61L448.48,258.85L449.05,258.99L449.63,259.02L450.21,258.93L450.75,258.73L451.25,258.42L451.68,258.03L452.03,257.55L452.27,257.03L452.41,256.46L452.43,255.87L452.34,255.30L452.14,254.75L451.84,254.25L432.99,229.19L407.39,203.42L364.75,169.33L333.72,152.49L301.23,133.41L264.62,117.46L241.14,109.21L182.13,87.39L151.86,78.38L112.22,69.88L75.52,67.78L35.16,64.34L34.58,64.36L34.02,64.51L33.50,64.78L33.05,65.15L32.70,65.60L32.45,66.13L31.05,70.38L30.91,71.00L30.94,71.63L31.11,72.23L31.42,72.78L46.97,93.58L73.38,121.57z" fill="currentColor" stroke="none" fill-opacity="1.00" fill-rule="nonzero" />
      <path d="M114.21,69.92L114.08,69.91L113.94,69.93L113.81,69.98L113.69,70.05L113.59,70.15L113.51,70.26L113.45,70.39L113.42,70.52L113.42,70.66L113.44,70.79L113.49,70.92L113.56,71.04L113.65,71.14L113.77,71.22L113.89,71.28L114.03,71.31L155.67,78.39L177.58,81.71L221.88,93.53L236.90,96.29L237.20,96.32L237.50,96.29L237.80,96.20L238.06,96.06L238.30,95.87L238.49,95.63L238.64,95.36L238.73,95.07L238.76,94.77L238.73,94.47L238.64,94.17L238.50,93.91L238.30,93.67L238.07,93.48L237.80,93.33L237.51,93.24L222.79,90.04L178.71,77.11L156.28,74.03z" fill="currentColor" stroke="none" fill-opacity="1.00" fill-rule="nonzero" />
      <path d="M164.68,76.33L164.56,76.43L164.46,76.55L164.38,76.70L164.33,76.85L164.32,77.01L164.34,77.17L164.38,77.33L164.46,77.47L164.56,77.59L164.69,77.69L164.83,77.77L164.99,77.82L165.15,77.83L165.31,77.81L165.46,77.77L165.60,77.69L178.87,70.47L191.05,58.54L215.76,42.22L237.25,29.61L254.11,24.03L303.59,16.33L334.10,14.14L352.40,23.43L374.05,35.63L382.35,60.01L393.54,87.14L393.63,87.50L393.78,88.00L394.02,88.46L394.34,88.86L394.74,89.19L395.20,89.44L395.69,89.60L396.21,89.65L396.72,89.61L397.22,89.46L397.68,89.22L398.09,88.89L398.42,88.49L398.67,88.04L398.82,87.54L398.88,87.03L398.83,86.51L398.74,85.87L387.27,58.25L378.70,33.01L378.25,32.19L377.53,31.58L355.23,18.33L335.74,9.18L334.41,8.93L303.11,11.33L253.13,19.05L235.37,24.82L213.32,38.25L188.28,54.76L176.15,66.82z" fill="currentColor" stroke="none" fill-opacity="1.00" fill-rule="nonzero" />
      <path d="M371.52,154.68L371.51,154.67L371.49,154.66L371.47,154.66L371.46,154.66L371.44,154.66L371.42,154.67L371.41,154.67L371.40,154.69L371.39,154.70L371.38,154.72L371.37,154.73L371.37,154.75L371.38,154.77L371.38,154.78L371.39,154.80L371.40,154.81L390.71,175.27L412.05,199.92L427.24,228.26L427.40,229.06L427.55,229.52L427.79,229.93L428.11,230.30L428.49,230.59L428.92,230.80L429.39,230.93L429.87,230.96L430.35,230.90L430.80,230.75L431.22,230.51L431.58,230.19L431.88,229.81L432.09,229.38L432.22,228.91L432.25,228.43L432.19,227.95L431.92,226.84L416.28,197.34L394.20,172.04z" fill="currentColor" stroke="none" fill-opacity="1.00" fill-rule="nonzero" />
      <path d="M193.62,50.24L193.60,50.24L193.58,50.25L193.57,50.25L193.55,50.26L193.54,50.28L193.53,50.29L193.52,50.31L193.52,50.32L193.52,50.34L193.53,50.36L193.53,50.38L193.54,50.39L193.56,50.40L193.57,50.41L193.59,50.42L193.60,50.42L216.81,53.75L257.55,63.74L268.83,69.58L269.26,69.76L269.72,69.85L270.19,69.84L270.64,69.75L271.07,69.57L271.46,69.31L271.78,68.98L272.04,68.59L272.22,68.16L272.30,67.70L272.30,67.23L272.21,66.78L272.03,66.35L271.77,65.96L271.43,65.63L271.05,65.38L259.56,59.24L217.53,49.94z" fill="currentColor" stroke="none" fill-opacity="1.00" fill-rule="nonzero" />
    </g>
  </symbol>
</svg>