<?xml version='1.0' encoding='utf-8'?>
<svg xmlns="http://www.w3.org/2000/svg" version="1.1" x="0.00px" y="0.00px" width="400.00px" height="400.00px" viewBox="0.00 0.00 400.00 400.00">
  <symbol id="frame" viewBox="0.00 0.00 400.00 400.00">
    <g class="layers.drawing-primary">
      <path d="M327.84,303.04L327.80,310.74L326.59,324.21L329.98,324.35L342.24,323.68L351.60,331.01L360.67,337.68L365.08,338.21L357.60,328.61L345.47,307.63L345.30,306.67z" fill-rule="evenodd" fill="currentColor" stroke="none" fill-opacity="1.00" />
      <path d="M211.61,436.16L207.11,422.48L208.29,396.76L215.33,379.67L224.52,359.23L222.07,313.74L220.90,304.64L235.32,303.42L240.82,310.48L242.71,336.83L242.46,351.41L258.30,352.18L286.23,341.40L287.56,350.54L283.60,378.61L290.53,398.24L316.50,390.95L333.18,396.10L356.59,383.48L347.75,417.02L343.24,438.91z" fill-rule="evenodd" fill="currentColor" stroke="none" fill-opacity="1.00" />
      <path d="M178.10,132.70L178.11,132.65L178.11,132.60L178.10,132.55L178.08,132.50L178.05,132.46L178.02,132.42L177.98,132.39L177.93,132.37L177.88,132.36L177.83,132.36L177.78,132.37L177.73,132.39L177.69,132.42L177.65,132.46L177.62,132.50L177.60,132.55L166.12,164.32L162.34,216.73L170.42,250.23L174.53,259.17L174.78,259.59L175.11,259.96L175.50,260.25L175.95,260.46L176.43,260.58L176.92,260.61L177.40,260.53L177.87,260.37L178.29,260.11L178.65,259.78L178.94,259.39L179.15,258.94L179.27,258.47L179.30,257.98L179.23,257.49L179.06,257.03L175.10,248.83L167.11,216.65L169.64,165.18z" fill="currentColor" stroke="none" fill-opacity="1.00" fill-rule="nonzero" />
      <path d="M176.63,255.72L176.68,255.98L176.78,256.22L176.92,256.44L177.11,256.63L177.32,256.78L177.56,256.88L177.82,256.93L178.08,256.93L178.34,256.89L178.58,256.79L178.80,256.65L178.98,256.46L179.13,256.25L179.23,256.01L179.29,255.75L179.29,255.49L177.87,229.17L183.87,199.60L183.91,199.09L183.86,198.58L183.70,198.09L183.46,197.63L183.13,197.24L182.73,196.92L182.27,196.68L181.78,196.53L181.26,196.49L180.75,196.54L180.26,196.70L179.81,196.94L179.42,197.27L179.09,197.67L178.86,198.13L178.71,198.62L173.42,228.65z" fill="currentColor" stroke="none" fill-opacity="1.00" fill-rule="nonzero" />
      <path d="M183.83,200.38L183.76,200.09L183.64,199.82L183.47,199.57L183.26,199.37L183.01,199.21L182.73,199.10L182.44,199.05L182.14,199.06L181.85,199.12L181.58,199.24L181.34,199.41L181.13,199.63L180.97,199.88L180.86,200.15L180.81,200.45L180.82,200.74L183.84,231.02L193.70,254.82L193.92,255.23L194.22,255.59L194.59,255.88L195.00,256.10L195.45,256.23L195.92,256.27L196.39,256.22L196.83,256.08L197.24,255.85L197.60,255.55L197.89,255.19L198.11,254.77L198.24,254.32L198.28,253.86L198.23,253.39L198.09,252.94L188.12,230.19z" fill="currentColor" stroke="none" fill-opacity="1.00" fill-rule="nonzero" />
      <path d="M197.88,262.23L197.93,262.55L198.05,262.85L198.22,263.12L198.45,263.35L198.71,263.54L199.01,263.67L199.32,263.74L199.65,263.74L199.96,263.69L200.26,263.57L200.54,263.40L200.77,263.17L200.95,262.91L201.08,262.61L201.15,262.30L201.16,261.97L197.38,205.11L205.15,164.65L205.19,164.18L205.14,163.71L205.00,163.25L204.77,162.84L204.47,162.47L204.10,162.18L203.68,161.96L203.22,161.82L202.75,161.78L202.28,161.83L201.82,161.98L201.41,162.20L201.04,162.51L200.75,162.88L200.53,163.30L200.39,163.75L192.80,204.56z" fill="currentColor" stroke="none" fill-opacity="1.00" fill-rule="nonzero" />
      <path d="M203.43,144.72L203.41,144.66L203.39,144.61L203.36,144.56L203.32,144.52L203.27,144.49L203.21,144.47L203.16,144.46L203.10,144.46L203.04,144.48L202.99,144.50L202.94,144.53L202.90,144.57L202.87,144.62L202.85,144.68L202.84,144.73L202.84,144.79L204.77,176.36L211.39,198.74L226.09,219.44L226.84,220.14L240.45,228.87L240.93,229.12L241.45,229.26L241.99,229.31L242.53,229.24L243.05,229.07L243.52,228.81L243.93,228.45L244.27,228.03L244.52,227.54L244.66,227.02L244.70,226.48L244.64,225.94L244.47,225.43L244.21,224.95L243.85,224.54L243.43,224.20L230.23,215.81L216.39,196.68L208.96,175.66z" fill="currentColor" stroke="none" fill-opacity="1.00" fill-rule="nonzero" />
      <path d="M239.69,224.35L239.72,224.40L239.75,224.45L239.80,224.49L239.85,224.52L239.91,224.54L239.97,224.55L240.03,224.55L240.09,224.53L240.15,224.51L240.19,224.47L240.24,224.42L240.27,224.37L240.29,224.31L240.30,224.25L240.29,224.19L240.28,224.13L229.65,189.42L231.96,154.82L231.94,154.34L231.83,153.87L231.63,153.44L231.34,153.05L230.99,152.72L230.58,152.47L230.13,152.31L229.65,152.23L229.17,152.25L228.70,152.37L228.27,152.57L227.88,152.85L227.55,153.21L227.30,153.62L227.14,154.07L227.06,154.54L225.42,189.61L225.54,190.45z" fill="currentColor" stroke="none" fill-opacity="1.00" fill-rule="nonzero" />
      <path d="M235.94,140.28L235.88,140.01L235.76,139.75L235.60,139.52L235.39,139.32L235.15,139.17L234.89,139.07L234.61,139.03L234.32,139.04L234.05,139.10L233.79,139.22L233.56,139.38L233.37,139.59L233.22,139.83L233.12,140.09L233.07,140.37L233.08,140.66L236.72,175.68L251.78,204.66L252.06,205.08L252.41,205.43L252.82,205.71L253.29,205.90L253.77,206.00L254.27,206.00L254.76,205.90L255.22,205.71L255.64,205.43L255.99,205.08L256.27,204.67L256.46,204.21L256.56,203.72L256.56,203.22L256.47,202.73L256.28,202.27L241.39,174.64z" fill="currentColor" stroke="none" fill-opacity="1.00" fill-rule="nonzero" />
      <path d="M247.39,166.30L247.36,166.25L247.32,166.21L247.27,166.17L247.21,166.15L247.16,166.14L247.10,166.14L247.04,166.15L246.99,166.17L246.94,166.20L246.90,166.24L246.87,166.29L246.84,166.34L246.83,166.40L246.83,166.46L246.84,166.51L246.86,166.57L262.91,202.05L263.49,202.77L289.05,225.05L289.52,225.37L290.05,225.59L290.62,225.70L291.19,225.68L291.75,225.55L292.27,225.30L292.73,224.95L293.10,224.51L293.37,224.01L293.54,223.46L293.58,222.88L293.51,222.31L293.32,221.77L293.02,221.28L292.62,220.86L266.98,199.41z" fill="currentColor" stroke="none" fill-opacity="1.00" fill-rule="nonzero" />
      <path d="M273.13,162.15L273.11,162.10L273.08,162.05L273.04,162.01L273.00,161.97L272.95,161.95L272.89,161.93L272.84,161.93L272.78,161.94L272.73,161.96L272.68,161.98L272.63,162.02L272.60,162.07L272.58,162.12L272.56,162.17L272.56,162.23L272.57,162.29L280.44,204.04L289.63,220.27L289.91,220.67L290.27,221.00L290.68,221.25L291.14,221.42L291.62,221.50L292.10,221.48L292.57,221.37L293.02,221.17L293.41,220.89L293.74,220.53L294.00,220.12L294.17,219.66L294.25,219.18L294.23,218.69L294.12,218.22L293.92,217.78L284.95,202.60z" fill="currentColor" stroke="none" fill-opacity="1.00" fill-rule="nonzero" />
      <path d="M269.82,155.03L269.79,154.98L269.75,154.94L269.70,154.90L269.64,154.88L269.58,154.87L269.52,154.87L269.46,154.88L269.41,154.90L269.36,154.93L269.31,154.98L269.28,155.03L269.26,155.08L269.25,155.14L269.25,155.20L269.26,155.26L269.28,155.31L292.03,202.95L301.59,214.38L301.94,214.73L302.36,214.99L302.82,215.17L303.31,215.26L303.80,215.25L304.29,215.15L304.74,214.95L305.15,214.67L305.49,214.32L305.76,213.90L305.94,213.44L306.03,212.95L306.02,212.46L305.92,211.97L305.72,211.52L305.44,211.11L296.27,200.40z" fill="currentColor" stroke="none" fill-opacity="1.00" fill-rule="nonzero" />
      <path d="M185.79,243.99L185.79,243.97L185.78,243.95L185.78,243.93L185.76,243.92L185.75,243.90L185.73,243.89L185.71,243.88L185.69,243.88L185.67,243.88L185.65,243.89L185.63,243.90L185.61,243.91L185.60,243.93L185.59,243.94L185.58,243.96L185.58,243.99L182.25,273.63L180.03,315.27L183.23,325.79L183.83,326.77L193.72,336.53L200.60,341.05L201.01,341.26L201.45,341.39L201.92,341.43L202.38,341.38L202.82,341.24L203.23,341.02L203.59,340.72L203.88,340.36L204.09,339.95L204.22,339.50L204.26,339.04L204.21,338.58L204.07,338.13L203.85,337.73L203.55,337.37L203.19,337.08L196.92,332.95L187.65,323.74L184.80,315.07L186.67,273.84z" fill="currentColor" stroke="none" fill-opacity="1.00" fill-rule="nonzero" />
      <path d="M223.23,319.34L223.27,319.23L223.27,319.11L223.26,318.99L223.22,318.88L223.16,318.78L223.09,318.69L223.00,318.62L222.89,318.57L222.78,318.54L222.66,318.53L222.55,318.54L222.43,318.58L222.33,318.64L222.24,318.71L222.17,318.81L222.12,318.91L215.56,330.60L207.25,337.62L206.91,337.98L206.64,338.39L206.45,338.85L206.36,339.34L206.37,339.83L206.47,340.32L206.67,340.77L206.95,341.18L207.30,341.52L207.72,341.79L208.18,341.98L208.67,342.07L209.16,342.06L209.64,341.95L210.10,341.76L210.50,341.48L219.31,334.05L220.04,333.02z" fill="currentColor" stroke="none" fill-opacity="1.00" fill-rule="nonzero" />
      <path d="M201.71,287.48L201.70,287.28L201.66,287.09L201.57,286.91L201.46,286.76L201.31,286.62L201.15,286.52L200.96,286.46L200.77,286.43L200.57,286.44L200.38,286.48L200.21,286.57L200.05,286.68L199.92,286.83L199.81,286.99L199.75,287.18L199.72,287.37L197.12,313.93L201.29,333.65L201.47,334.14L201.73,334.60L202.08,334.99L202.50,335.30L202.97,335.53L203.48,335.67L204.01,335.70L204.53,335.62L205.02,335.45L205.48,335.18L205.87,334.84L206.18,334.42L206.41,333.94L206.54,333.44L206.58,332.91L206.50,332.39L201.54,313.84z" fill="currentColor" stroke="none" fill-opacity="1.00" fill-rule="nonzero" />
      <path d="M202.26,339.85L202.20,339.68L202.11,339.53L201.99,339.39L201.85,339.29L201.69,339.21L201.52,339.17L201.34,339.16L201.16,339.18L201.00,339.24L200.84,339.33L200.71,339.45L200.61,339.59L200.53,339.75L200.49,339.93L200.48,340.10L200.50,340.28L201.06,348.82L201.23,349.29L201.49,349.72L201.84,350.08L202.25,350.37L202.72,350.56L203.21,350.65L203.71,350.63L204.20,350.52L204.66,350.30L208.04,348.12L208.46,347.80L208.79,347.39L209.02,346.92L209.14,346.40L209.14,345.88L208.53,339.51L208.39,338.94L208.13,338.41L207.74,337.97L207.27,337.63L206.72,337.42L206.14,337.34L202.02,336.89L201.47,336.93L200.94,337.08L200.45,337.33L200.01,337.68L199.65,338.10L199.38,338.58L199.21,339.11L199.15,339.66L199.19,340.21L199.34,340.75L199.59,341.24L199.94,341.68L200.36,342.04L200.84,342.31L201.37,342.48L201.92,342.54L203.91,342.20L204.36,344.94L204.31,346.02z" fill="currentColor" stroke="none" fill-opacity="1.00" fill-rule="nonzero" />
      <path d="M201.26,350.78L201.28,350.74L201.29,350.69L201.29,350.64L201.29,350.59L201.27,350.54L201.24,350.50L201.21,350.46L201.17,350.43L201.12,350.41L201.07,350.40L201.02,350.40L200.97,350.40L200.92,350.42L200.88,350.45L200.84,350.48L200.81,350.52L196.02,356.16L191.40,370.10L192.45,380.00L198.07,392.09L200.71,394.77L200.98,394.98L201.28,395.13L201.60,395.21L201.94,395.23L202.27,395.17L202.59,395.05L202.87,394.86L203.11,394.62L203.29,394.34L203.40,394.02L203.45,393.69L203.43,393.35L203.34,393.03L203.19,392.73L202.98,392.47L200.96,390.41L195.92,379.39L195.58,370.88L198.71,357.53z" fill="currentColor" stroke="none" fill-opacity="1.00" fill-rule="nonzero" />
      <path d="M204.76,366.41L204.76,366.39L204.76,366.37L204.75,366.36L204.74,366.34L204.73,366.33L204.71,366.32L204.69,366.32L204.68,366.31L204.66,366.32L204.64,366.32L204.63,366.33L204.61,366.34L204.60,366.35L204.59,366.37L204.59,366.38L204.58,366.40L202.34,381.29L197.40,394.33L197.30,394.72L197.29,395.12L197.35,395.51L197.49,395.89L197.70,396.23L197.97,396.52L198.30,396.76L198.66,396.92L199.05,397.02L199.45,397.03L199.85,396.97L200.22,396.83L200.56,396.62L200.86,396.35L201.09,396.02L201.26,395.66L205.45,382.12z" fill="currentColor" stroke="none" fill-opacity="1.00" fill-rule="nonzero" />
      <path d="M207.55,350.84L207.48,350.75L207.40,350.67L207.30,350.61L207.19,350.58L207.08,350.56L206.96,350.57L206.85,350.60L206.75,350.65L206.66,350.71L206.58,350.80L206.53,350.90L206.49,351.01L206.47,351.12L206.48,351.23L206.51,351.34L206.56,351.45L209.26,357.94L209.21,366.79L204.97,383.99L204.20,385.17L204.01,385.59L203.91,386.04L203.90,386.50L203.99,386.95L204.18,387.38L204.44,387.75L204.78,388.06L205.18,388.30L205.62,388.44L206.08,388.49L206.53,388.45L206.97,388.31L207.37,388.08L207.72,387.78L207.99,387.41L208.84,385.88L212.77,367.38L212.62,357.44L212.37,356.58z" fill="currentColor" stroke="none" fill-opacity="1.00" fill-rule="nonzero" />
      <path d="M213.46,273.33L213.45,273.31L213.44,273.30L213.43,273.29L213.42,273.28L213.40,273.27L213.38,273.27L213.36,273.27L213.35,273.27L213.33,273.28L213.32,273.29L213.31,273.30L213.30,273.31L213.29,273.33L213.29,273.35L213.29,273.36L213.29,273.38L216.30,286.51L220.06,314.43L221.03,321.40L221.02,320.97L220.70,321.22L220.44,321.53L220.24,321.88L220.11,322.27L220.07,322.67L220.10,323.08L220.21,323.47L220.40,323.83L220.65,324.15L220.96,324.41L221.31,324.61L221.70,324.73L222.11,324.78L222.51,324.75L222.90,324.64L223.26,324.45L223.96,323.94L224.32,323.65L224.60,323.28L224.79,322.86L224.88,322.41L224.87,321.95L223.32,313.95L218.45,286.10z" fill="currentColor" stroke="none" fill-opacity="1.00" fill-rule="nonzero" />
      <path d="M198.87,233.04L198.85,232.99L198.81,232.94L198.77,232.89L198.72,232.86L198.66,232.84L198.60,232.83L198.54,232.83L198.48,232.84L198.42,232.87L198.37,232.90L198.33,232.94L198.30,233.00L198.27,233.05L198.26,233.11L198.26,233.18L198.28,233.24L202.31,250.32L209.45,266.83L209.74,267.29L210.15,267.66L226.02,278.52L242.51,288.16L242.91,288.34L243.34,288.45L243.79,288.47L244.23,288.40L244.65,288.24L245.03,288.01L245.36,287.71L245.62,287.35L245.80,286.95L245.91,286.51L245.93,286.07L245.86,285.63L245.71,285.21L245.47,284.83L245.17,284.50L244.81,284.24L228.53,274.59L212.73,264.75L205.64,249.14z" fill="currentColor" stroke="none" fill-opacity="1.00" fill-rule="nonzero" />
      <path d="M238.36,288.61L238.21,288.74L238.08,288.89L237.99,289.06L237.93,289.25L237.91,289.45L237.93,289.64L237.98,289.83L238.08,290.01L238.20,290.16L238.35,290.28L238.52,290.38L238.71,290.44L238.91,290.46L239.10,290.44L239.29,290.38L239.47,290.29L247.43,286.17L251.46,285.62L258.04,284.77L260.65,286.98L263.87,293.59L263.79,293.72L263.86,294.19L264.02,294.63L264.26,295.04L264.58,295.39L264.96,295.68L265.39,295.88L265.85,296.00L266.32,296.02L266.79,295.95L267.24,295.80L267.64,295.55L267.99,295.24L268.28,294.86L268.48,294.43L268.60,293.97L268.62,293.50L268.56,292.91L268.34,292.01L264.79,284.20L264.38,283.58L263.80,283.12L259.39,281.21L258.82,280.99L258.21,280.97L251.00,281.86L246.50,282.36L245.66,282.66z" fill="currentColor" stroke="none" fill-opacity="1.00" fill-rule="nonzero" />
      <path d="M262.48,220.71L262.31,220.70L262.14,220.73L261.99,220.80L261.84,220.89L261.72,221.00L261.63,221.14L261.56,221.30L261.52,221.46L261.52,221.63L261.55,221.80L261.61,221.96L261.71,222.10L261.82,222.22L261.96,222.31L262.12,222.38L262.28,222.42L269.88,224.40L287.46,223.75L296.93,222.97L298.74,222.42L299.19,222.22L299.59,221.93L299.93,221.58L300.19,221.16L300.37,220.70L300.45,220.22L300.44,219.73L300.33,219.25L300.13,218.80L299.85,218.40L299.49,218.06L299.07,217.79L298.61,217.62L298.13,217.54L297.64,217.55L297.16,217.66L296.18,217.99L287.12,218.90L270.16,220.47z" fill="currentColor" stroke="none" fill-opacity="1.00" fill-rule="nonzero" />
      <path d="M261.71,227.31L261.36,227.45L261.05,227.66L260.78,227.92L260.57,228.24L260.42,228.58L260.35,228.95L260.34,229.33L260.41,229.70L260.56,230.05L260.76,230.36L261.03,230.63L261.34,230.84L261.69,230.99L262.06,231.07L262.43,231.07L262.80,231.00L270.95,228.89L289.11,229.49L297.88,228.67L300.20,227.67L300.70,227.34L301.12,226.92L301.45,226.43L301.68,225.88L301.79,225.30L301.79,224.70L301.68,224.12L301.45,223.57L301.12,223.07L300.70,222.65L300.21,222.32L299.66,222.09L299.08,221.98L298.48,221.98L297.90,222.09L297.35,222.32L296.57,222.81L288.96,224.05L270.65,224.47z" fill="currentColor" stroke="none" fill-opacity="1.00" fill-rule="nonzero" />
      <path d="M262.65,228.75L262.41,228.78L262.18,228.86L261.97,228.98L261.78,229.13L261.63,229.33L261.52,229.54L261.45,229.78L261.44,230.02L261.47,230.26L261.54,230.49L261.66,230.71L261.82,230.89L262.01,231.04L262.23,231.15L262.46,231.22L262.71,231.24L278.60,231.93L296.04,231.60L303.04,229.47L303.51,229.28L303.93,228.99L304.28,228.63L304.56,228.20L304.74,227.73L304.84,227.23L304.83,226.73L304.73,226.23L304.53,225.77L304.24,225.35L303.88,224.99L303.45,224.72L302.98,224.53L302.48,224.44L301.98,224.44L301.48,224.55L295.50,226.44L278.48,227.38z" fill="currentColor" stroke="none" fill-opacity="1.00" fill-rule="nonzero" />
      <path d="M229.74,220.87L229.78,220.85L229.81,220.83L229.84,220.79L229.87,220.76L229.88,220.72L229.89,220.67L229.88,220.63L229.87,220.59L229.85,220.55L229.83,220.51L229.80,220.48L229.76,220.46L229.72,220.45L229.67,220.44L229.63,220.44L229.59,220.45L222.47,221.22L214.84,221.18L203.52,219.99L203.60,219.82L203.22,219.49L202.78,219.24L202.30,219.07L201.80,219.01L201.29,219.04L200.80,219.17L200.34,219.39L199.94,219.70L199.60,220.08L199.35,220.52L199.19,221.00L199.12,221.51L199.15,222.02L199.28,222.51L199.51,222.96L199.82,223.36L200.48,224.05L201.20,224.59L202.06,224.85L214.50,226.24L223.02,225.00z" fill="currentColor" stroke="none" fill-opacity="1.00" fill-rule="nonzero" />
      <path d="M230.09,224.52L230.12,224.51L230.15,224.50L230.18,224.48L230.20,224.46L230.22,224.43L230.24,224.40L230.24,224.37L230.24,224.33L230.24,224.30L230.22,224.27L230.21,224.24L230.18,224.22L230.16,224.20L230.12,224.18L230.09,224.18L230.06,224.18L208.56,223.22L201.04,222.20L201.16,222.21L200.68,221.94L200.16,221.77L199.61,221.71L199.05,221.75L198.52,221.90L198.03,222.15L197.59,222.49L197.23,222.91L196.96,223.39L196.79,223.92L196.72,224.47L196.77,225.02L196.91,225.55L197.16,226.05L197.51,226.48L197.93,226.84L198.35,227.16L199.54,227.64L207.99,229.07z" fill="currentColor" stroke="none" fill-opacity="1.00" fill-rule="nonzero" />
      <path d="M228.67,228.14L228.74,228.13L228.81,228.11L228.88,228.07L228.93,228.02L228.98,227.97L229.01,227.90L229.03,227.83L229.04,227.76L229.03,227.69L229.01,227.62L228.98,227.55L228.93,227.50L228.87,227.45L228.81,227.42L228.74,227.40L228.67,227.39L217.42,225.47L205.86,224.77L203.11,224.22L202.55,224.16L201.98,224.23L201.45,224.41L200.96,224.70L200.54,225.08L200.21,225.54L199.98,226.06L199.87,226.62L199.87,227.19L199.99,227.74L200.23,228.26L200.56,228.72L200.99,229.09L201.48,229.37L202.03,229.54L205.00,230.16L217.32,230.26z" fill="currentColor" stroke="none" fill-opacity="1.00" fill-rule="nonzero" />
      <path d="M241.04,268.80L240.77,268.71L240.49,268.68L240.21,268.71L239.94,268.78L239.69,268.91L239.47,269.09L239.29,269.30L239.16,269.55L239.07,269.82L239.04,270.09L239.06,270.37L239.14,270.64L239.27,270.89L239.44,271.11L239.66,271.29L239.90,271.43L244.12,273.87L244.12,274.08L244.34,274.43L244.63,274.73L244.96,274.97L245.33,275.13L245.73,275.23L246.14,275.24L246.55,275.17L246.93,275.02L247.28,274.80L247.58,274.52L247.81,274.19L247.98,273.81L248.07,273.41L248.08,273.00L248.02,272.60L247.87,272.22L247.49,271.37L247.04,270.77L246.42,270.36z" fill="currentColor" stroke="none" fill-opacity="1.00" fill-rule="nonzero" />
      <path d="M255.95,199.02L255.87,199.05L255.79,199.09L255.72,199.14L255.66,199.21L255.62,199.29L255.59,199.37L255.58,199.46L255.59,199.55L255.61,199.63L255.65,199.71L255.71,199.78L255.78,199.84L255.86,199.88L255.94,199.91L256.03,199.92L256.12,199.91L266.23,199.56L286.40,190.82L303.34,183.66L306.05,182.22L306.33,182.02L306.58,181.78L306.77,181.49L306.90,181.17L306.96,180.83L306.96,180.48L306.89,180.14L306.76,179.82L306.57,179.53L306.32,179.29L306.03,179.10L305.71,178.97L305.37,178.90L305.02,178.90L304.68,178.97L304.36,179.11L301.93,180.43L284.83,187.00L265.29,195.75z" fill="currentColor" stroke="none" fill-opacity="1.00" fill-rule="nonzero" />
      <path d="M227.31,200.17L227.44,200.19L227.57,200.19L227.69,200.17L227.81,200.11L227.91,200.04L228.00,199.95L228.07,199.84L228.12,199.72L228.14,199.60L228.14,199.47L228.11,199.34L228.06,199.23L227.99,199.12L227.90,199.03L227.79,198.97L227.67,198.92L215.13,194.06L198.25,186.06L190.25,182.00L189.45,181.76L189.01,181.74L188.58,181.74L188.15,181.83L187.76,182.00L187.40,182.24L187.09,182.55L186.86,182.91L186.69,183.31L186.61,183.73L186.61,184.16L186.70,184.59L186.87,184.99L187.11,185.34L187.42,185.65L187.78,185.89L188.18,186.05L188.60,186.13L188.62,186.11L196.24,190.10L213.68,197.60z" fill="currentColor" stroke="none" fill-opacity="1.00" fill-rule="nonzero" />
      <path d="M157.26,196.72L157.27,196.71L157.28,196.70L157.29,196.69L157.30,196.67L157.30,196.65L157.30,196.64L157.30,196.62L157.29,196.60L157.28,196.59L157.27,196.58L157.26,196.57L157.24,196.56L157.22,196.56L157.20,196.56L157.19,196.56L157.17,196.57L147.23,200.24L145.66,195.40L152.98,176.04L153.12,175.50L153.10,174.94L152.93,174.42L149.31,166.37L148.85,165.74L148.20,165.30L138.85,160.56L138.26,160.37L137.65,160.31L137.04,160.40L136.46,160.61L135.95,160.96L127.31,168.55L120.05,172.30L105.75,164.61L93.62,152.18L100.37,139.56L108.39,140.45L121.60,145.81L122.09,145.96L122.61,146.00L123.12,145.94L123.61,145.76L124.05,145.49L124.42,145.13L124.71,144.70L124.90,144.22L128.25,132.22L129.90,117.76L142.25,116.13L175.58,133.28L183.27,143.28L183.71,143.70L184.24,144.00L184.83,144.17L185.44,144.20L186.04,144.08L186.59,143.82L187.07,143.45L200.50,129.69L216.09,124.59L235.59,137.52L254.63,154.21L255.09,154.53L255.60,154.73L256.15,154.82L256.70,154.79L257.23,154.63L257.72,154.36L275.48,141.67L284.45,143.84L303.79,161.25L309.20,165.98L312.98,180.84L313.17,181.35L313.46,181.81L313.84,182.19L314.29,182.48L314.80,182.67L315.34,182.75L315.88,182.71L338.50,178.52L346.33,176.71L363.28,191.11L361.69,207.18L361.70,207.82L361.86,208.43L362.16,208.99L362.58,209.47L363.10,209.83L363.69,210.06L390.47,216.85L395.55,222.39L396.36,236.04L396.47,236.67L396.74,237.25L397.14,237.75L397.65,238.14L402.98,241.41L400.24,252.27L400.16,252.80L400.18,253.34L400.32,253.85L400.55,254.33L400.88,254.75L401.29,255.10L401.76,255.35L402.28,255.50L402.81,255.55L409.91,255.27L417.80,254.77L407.92,270.86L406.26,271.46L405.84,271.66L405.47,271.94L405.16,272.29L404.93,272.69L404.78,273.12L404.72,273.58L404.75,274.05L404.86,274.49L405.07,274.91L405.35,275.28L405.69,275.58L406.09,275.82L406.53,275.97L406.99,276.03L407.45,276.00L407.90,275.88L410.29,274.97L410.95,274.59L411.46,274.02L424.70,253.24L424.94,252.74L425.07,252.20L425.07,251.65L424.96,251.10L424.73,250.60L424.39,250.16L423.97,249.81L423.48,249.55L422.94,249.41L422.39,249.39L409.75,250.35L406.16,250.27L408.84,240.80L408.93,240.21L408.89,239.61L408.72,239.04L408.43,238.52L408.04,238.07L407.56,237.72L401.48,234.34L400.80,221.12L400.59,220.21L400.07,219.43L393.63,212.85L393.08,212.42L392.44,212.15L367.28,205.42L368.81,190.22L368.80,189.56L368.62,188.93L368.30,188.36L367.86,187.88L348.65,171.92L348.14,171.59L347.57,171.39L346.97,171.32L346.38,171.39L337.53,173.67L317.29,177.33L314.02,163.95L313.72,163.24L313.22,162.64L307.28,157.35L287.43,139.54L286.30,138.95L275.53,136.40L274.80,136.34L274.08,136.48L273.43,136.82L256.43,149.19L238.86,133.53L217.74,119.95L217.09,119.66L216.39,119.57L215.69,119.68L198.47,125.34L197.52,125.92L185.41,137.81L178.46,130.34L177.85,129.84L143.84,111.45L143.13,111.20L142.38,111.19L127.38,113.21L126.87,113.34L126.39,113.58L125.98,113.92L125.65,114.34L125.42,114.82L125.30,115.34L123.46,131.09L120.95,140.24L110.10,135.36L99.17,134.41L98.59,134.43L98.02,134.58L97.51,134.86L97.07,135.24L96.74,135.72L88.21,151.41L87.98,152.02L87.91,152.66L88.00,153.30L88.25,153.90L88.64,154.42L102.38,168.42L118.69,177.97L119.35,178.23L120.06,178.32L120.77,178.23L121.43,177.96L129.99,172.82L138.15,166.25L145.54,169.16L149.03,175.36L140.42,194.54L140.24,195.26L140.27,196.01L140.51,196.71L144.93,203.48L145.16,203.82L145.45,204.09L145.80,204.29L146.19,204.41L146.59,204.43L146.99,204.37L147.36,204.21z" fill="currentColor" stroke="none" fill-opacity="1.00" fill-rule="nonzero" />
      <path d="M94.63,137.09L94.58,137.12L94.53,137.16L94.49,137.21L94.46,137.27L94.45,137.33L94.45,137.39L94.45,137.46L94.48,137.52L94.51,137.57L94.55,137.62L94.60,137.66L94.66,137.68L94.72,137.70L94.78,137.70L94.85,137.69L94.91,137.67L119.21,127.56L120.03,127.59L120.34,127.54L120.62,127.43L120.89,127.27L121.11,127.06L121.29,126.81L121.42,126.53L121.49,126.23L121.50,125.93L121.45,125.62L121.35,125.34L121.18,125.07L120.98,124.85L120.73,124.67L120.45,124.54L120.15,124.47L119.84,124.46L118.75,124.57L118.19,124.71z" fill="currentColor" stroke="none" fill-opacity="1.00" fill-rule="nonzero" />
      <path d="M136.72,122.53L136.66,122.43L136.58,122.33L136.49,122.26L136.39,122.20L136.27,122.17L136.16,122.16L136.04,122.17L135.93,122.21L135.82,122.26L135.73,122.34L135.66,122.43L135.60,122.54L135.57,122.65L135.55,122.77L135.57,122.88L135.60,123.00L148.43,157.44L148.62,157.81L148.89,158.12L149.20,158.38L149.57,158.57L149.96,158.69L150.37,158.73L150.78,158.69L151.17,158.57L151.53,158.37L151.85,158.11L152.11,157.79L152.30,157.43L152.41,157.03L152.45,156.63L152.41,156.22L152.29,155.83z" fill="currentColor" stroke="none" fill-opacity="1.00" fill-rule="nonzero" />
      <path d="M152.24,161.66L152.16,161.83L152.11,162.01L152.10,162.20L152.13,162.39L152.19,162.57L152.29,162.73L152.42,162.87L152.57,162.99L152.75,163.07L152.93,163.11L153.12,163.12L153.31,163.09L153.49,163.03L153.65,162.93L153.79,162.80L153.90,162.65L171.40,135.71L171.58,135.31L171.69,134.89L171.71,134.45L171.64,134.01L171.49,133.60L171.27,133.23L170.97,132.90L170.62,132.64L170.22,132.46L169.80,132.35L169.36,132.33L168.92,132.40L168.51,132.55L168.14,132.77L167.81,133.07L167.55,133.42z" fill="currentColor" stroke="none" fill-opacity="1.00" fill-rule="nonzero" />
      <path d="M142.75,109.67L142.56,109.78L142.39,109.93L142.26,110.11L142.16,110.31L142.11,110.53L142.10,110.76L142.13,110.98L142.20,111.19L142.32,111.38L142.47,111.55L142.65,111.68L142.85,111.78L143.07,111.83L143.29,111.84L143.51,111.81L143.72,111.74L171.58,99.90L174.08,98.77L174.46,98.55L174.80,98.26L175.07,97.90L175.27,97.51L175.39,97.08L175.42,96.64L175.36,96.20L175.22,95.78L175.00,95.39L174.71,95.05L174.36,94.78L173.96,94.58L173.53,94.47L173.09,94.44L172.65,94.49L172.23,94.63L169.70,95.75z" fill="currentColor" stroke="none" fill-opacity="1.00" fill-rule="nonzero" />
      <path d="M183.15,136.44L183.11,136.69L183.12,136.94L183.18,137.18L183.29,137.41L183.44,137.61L183.62,137.78L183.84,137.91L184.07,137.99L184.32,138.03L184.57,138.02L184.81,137.96L185.04,137.85L185.24,137.70L185.41,137.52L185.54,137.31L185.63,137.07L192.20,112.37L192.24,112.07L192.23,111.76L192.16,111.47L192.03,111.20L191.85,110.95L191.63,110.75L191.37,110.59L191.08,110.49L190.78,110.44L190.48,110.46L190.19,110.53L189.91,110.66L189.67,110.84L189.46,111.06L189.31,111.32L189.20,111.60z" fill="currentColor" stroke="none" fill-opacity="1.00" fill-rule="nonzero" />
      <path d="M307.07,160.68L307.10,160.96L307.18,161.24L307.31,161.49L307.49,161.71L307.71,161.90L307.97,162.04L308.24,162.12L308.53,162.15L308.81,162.12L309.09,162.04L309.34,161.91L309.56,161.73L309.75,161.51L309.89,161.26L309.97,160.98L310.00,160.70L310.61,142.47L310.58,142.09L310.47,141.73L310.29,141.39L310.05,141.09L309.76,140.85L309.42,140.67L309.06,140.55L308.68,140.51L308.30,140.55L307.93,140.66L307.59,140.83L307.30,141.07L307.05,141.37L306.87,141.70L306.76,142.07L306.72,142.45z" fill="currentColor" stroke="none" fill-opacity="1.00" fill-rule="nonzero" />
      <path d="M306.37,272.64L306.37,272.62L306.37,272.60L306.37,272.58L306.36,272.56L306.35,272.54L306.33,272.53L306.32,272.52L306.30,272.51L306.28,272.50L306.26,272.50L306.24,272.51L306.22,272.51L306.20,272.53L306.18,272.54L306.17,272.56L306.16,272.58L300.14,285.27L295.84,312.45L290.86,329.26L285.78,348.91L281.18,368.52L282.81,385.06L287.03,397.60L287.22,398.02L287.49,398.40L287.83,398.73L288.23,398.97L288.67,399.14L289.13,399.22L289.60,399.20L290.06,399.10L290.48,398.91L290.86,398.63L291.18,398.29L291.43,397.90L291.60,397.46L291.68,397.00L291.66,396.53L291.56,396.07L287.65,384.29L286.22,369.22L290.22,350.08L295.94,330.70L300.64,313.65L304.09,286.33z" fill="currentColor" stroke="none" fill-opacity="1.00" fill-rule="nonzero" />
      <path d="M286.56,397.54L286.45,397.56L286.35,397.60L286.27,397.66L286.19,397.74L286.13,397.83L286.09,397.93L286.07,398.03L286.07,398.14L286.10,398.24L286.14,398.34L286.20,398.43L286.27,398.50L286.36,398.56L286.46,398.60L286.57,398.62L286.67,398.62L304.40,397.94L319.80,394.70L327.26,392.93L327.69,392.77L328.08,392.52L328.42,392.20L328.68,391.82L328.87,391.40L328.97,390.94L328.98,390.48L328.90,390.03L328.73,389.60L328.48,389.21L328.16,388.87L327.78,388.61L327.36,388.42L326.91,388.32L326.45,388.31L325.99,388.39L318.83,390.72L303.92,394.45z" fill="currentColor" stroke="none" fill-opacity="1.00" fill-rule="nonzero" />
      <path d="M312.02,382.94L311.92,383.09L311.85,383.26L311.81,383.44L311.81,383.62L311.84,383.80L311.91,383.97L312.01,384.12L312.14,384.25L312.29,384.36L312.46,384.43L312.64,384.47L312.82,384.47L313.00,384.43L313.17,384.37L313.32,384.27L313.45,384.14L325.65,371.39L326.01,370.78L326.14,370.09L327.08,334.62L328.46,312.98L329.35,296.50L332.24,282.31L332.29,281.85L332.24,281.39L332.11,280.94L331.89,280.53L331.59,280.17L331.23,279.88L330.82,279.66L330.38,279.53L329.92,279.48L329.45,279.53L329.01,279.66L328.60,279.88L328.24,280.18L327.95,280.54L327.73,280.95L327.60,281.39L324.86,295.79L324.02,312.71L322.61,334.38L321.96,369.25z" fill="currentColor" stroke="none" fill-opacity="1.00" fill-rule="nonzero" />
      <path d="M299.74,278.40L299.69,278.52L299.67,278.65L299.67,278.79L299.70,278.92L299.75,279.04L299.83,279.15L299.93,279.25L300.04,279.32L300.17,279.37L300.30,279.39L300.43,279.39L300.56,279.36L300.68,279.30L300.79,279.23L300.89,279.13L300.96,279.02L307.91,267.36L314.34,255.22L323.03,247.90L327.60,243.28L327.90,242.88L328.12,242.44L328.24,241.96L328.27,241.46L328.21,240.97L328.04,240.50L327.79,240.07L327.46,239.69L327.07,239.39L326.62,239.18L326.14,239.05L325.64,239.02L325.15,239.09L324.68,239.25L324.25,239.50L323.88,239.83L319.91,244.37L310.78,251.81L310.11,252.69L305.06,265.95z" fill="currentColor" stroke="none" fill-opacity="1.00" fill-rule="nonzero" />
      <path d="M324.93,241.07L324.93,241.19L324.95,241.32L325.00,241.44L325.06,241.55L325.15,241.65L325.26,241.72L325.38,241.78L325.50,241.81L325.63,241.81L325.76,241.79L325.88,241.74L325.99,241.67L326.09,241.59L326.16,241.48L326.22,241.36L326.25,241.23L330.23,221.04L332.06,209.20L332.08,208.21L332.74,215.03L333.48,234.76L333.54,235.20L333.69,235.62L333.92,236.00L334.22,236.33L334.57,236.60L334.97,236.79L335.41,236.90L335.85,236.92L336.29,236.85L336.71,236.70L337.09,236.48L337.42,236.18L337.68,235.82L337.88,235.42L337.98,234.99L338.01,234.54L336.84,214.65L334.87,205.99L334.73,205.57L334.49,205.19L334.17,204.87L333.79,204.63L333.37,204.49L332.92,204.44L332.48,204.49L332.06,204.64L329.21,205.91L328.79,206.19L328.44,206.56L328.20,207.00L328.06,207.49L326.21,220.46z" fill="currentColor" stroke="none" fill-opacity="1.00" fill-rule="nonzero" />
      <path d="M331.90,207.60L331.82,207.63L331.76,207.68L331.71,207.74L331.66,207.82L331.64,207.89L331.63,207.97L331.63,208.06L331.65,208.14L331.69,208.21L331.74,208.27L331.80,208.33L331.87,208.37L331.95,208.40L332.03,208.41L332.11,208.40L332.19,208.38L335.16,208.07L336.57,210.03L339.35,223.87L340.07,234.69L340.14,235.05L340.29,235.40L340.50,235.71L340.77,235.97L341.08,236.18L341.43,236.32L341.80,236.39L342.17,236.38L342.54,236.31L342.88,236.16L343.19,235.95L343.45,235.68L343.66,235.37L343.80,235.02L343.87,234.65L343.87,234.28L342.26,223.51L340.05,208.72L339.82,208.10L339.39,207.61L336.11,205.82L335.85,205.66L335.56,205.57L335.25,205.56L334.96,205.63z" fill="currentColor" stroke="none" fill-opacity="1.00" fill-rule="nonzero" />
      <path d="M339.19,205.13L338.87,205.04L338.54,205.02L338.21,205.06L337.90,205.17L337.61,205.33L337.36,205.55L337.16,205.81L337.01,206.10L336.92,206.42L336.90,206.75L336.94,207.08L337.04,207.40L337.21,207.68L337.42,207.93L337.68,208.14L337.98,208.29L342.31,209.76L344.65,226.29L345.32,235.16L345.41,235.59L345.59,236.00L345.84,236.36L346.15,236.66L346.52,236.90L346.93,237.06L347.36,237.14L347.80,237.13L348.23,237.04L348.63,236.87L349.00,236.62L349.30,236.30L349.54,235.93L349.70,235.52L349.78,235.09L349.77,234.65L348.42,225.81L345.15,208.41L345.03,208.04L344.83,207.71L344.54,207.44L344.20,207.25z" fill="currentColor" stroke="none" fill-opacity="1.00" fill-rule="nonzero" />
      <path d="M344.12,211.95L344.02,211.97L343.92,212.01L343.83,212.07L343.75,212.14L343.69,212.23L343.64,212.33L343.62,212.44L343.62,212.54L343.63,212.65L343.67,212.75L343.73,212.84L343.81,212.92L343.89,212.98L343.99,213.03L344.10,213.05L344.21,213.05L348.03,213.80L350.19,220.25L351.72,242.27L349.27,256.44L338.46,269.76L330.49,277.34L329.92,278.21L328.54,281.97L328.40,282.44L328.35,282.92L328.40,283.40L328.54,283.86L328.77,284.29L329.08,284.66L329.45,284.97L329.88,285.20L330.34,285.34L330.82,285.38L331.31,285.33L331.77,285.19L332.20,284.96L332.57,284.65L332.87,284.28L333.10,283.85L334.57,280.69L341.90,273.05L353.60,259.10L354.14,257.86L355.97,242.65L354.20,219.63L350.52,211.53L350.33,211.19L350.05,210.90L349.71,210.69L349.33,210.57L348.94,210.55z" fill="currentColor" stroke="none" fill-opacity="1.00" fill-rule="nonzero" />
      <path d="M313.34,248.38L313.38,248.42L313.43,248.46L313.49,248.48L313.54,248.49L313.60,248.49L313.66,248.48L313.72,248.46L313.77,248.42L313.81,248.38L313.84,248.33L313.86,248.27L313.87,248.22L313.87,248.16L313.86,248.10L313.84,248.04L313.81,247.99L307.37,237.69L305.44,218.37L308.52,199.17L315.52,187.19L322.27,183.38L330.65,182.72L341.50,188.32L346.31,195.92L347.74,211.82L347.84,212.30L348.02,212.75L348.29,213.16L348.63,213.50L349.04,213.77L349.48,213.96L349.96,214.06L350.45,214.06L350.93,213.97L351.38,213.79L351.78,213.52L352.13,213.17L352.40,212.77L352.59,212.32L352.69,211.84L352.69,211.36L351.08,194.90L350.72,193.83L345.28,185.15L344.33,184.28L332.22,178.15L331.59,177.93L330.93,177.89L321.37,178.71L320.42,179.00L312.60,183.29L311.69,184.18L304.09,197.10L300.50,217.93L303.58,238.74L303.73,239.27L304.01,239.74z" fill="currentColor" stroke="none" fill-opacity="1.00" fill-rule="nonzero" />
      <path d="M322.33,233.93L322.37,233.98L322.41,234.03L322.46,234.06L322.52,234.08L322.58,234.09L322.64,234.09L322.69,234.08L322.75,234.06L322.80,234.02L322.84,233.98L322.87,233.93L322.90,233.88L322.91,233.82L322.91,233.76L322.90,233.70L322.87,233.64L319.49,224.64L319.14,216.73L322.56,204.91L326.69,200.58L330.98,199.66L335.66,201.92L338.50,206.94L338.76,207.30L339.08,207.60L339.46,207.84L339.88,207.99L340.32,208.06L340.76,208.05L341.19,207.94L341.60,207.76L341.96,207.50L342.26,207.17L342.50,206.80L342.65,206.38L342.72,205.94L342.71,205.50L342.60,205.06L342.42,204.66L339.12,199.13L338.71,198.62L338.17,198.25L332.19,195.42L331.52,195.23L330.82,195.25L325.13,196.37L324.50,196.60L323.97,197.00L318.90,202.19L318.34,203.17L315.11,216.03L316.33,225.28L316.52,225.88z" fill="currentColor" stroke="none" fill-opacity="1.00" fill-rule="nonzero" />
      <path d="M323.34,360.79L323.18,360.65L322.98,360.54L322.78,360.47L322.56,360.44L322.34,360.46L322.13,360.52L321.93,360.61L321.76,360.75L321.61,360.92L321.50,361.11L321.44,361.32L321.41,361.53L321.42,361.75L321.48,361.97L321.58,362.16L321.72,362.33L328.18,370.27L323.91,386.55L323.63,389.18L323.63,389.64L323.72,390.10L323.90,390.52L324.16,390.91L324.49,391.23L324.88,391.49L325.31,391.67L325.77,391.75L326.23,391.75L326.69,391.66L327.12,391.48L327.50,391.22L327.83,390.89L328.08,390.50L328.26,390.07L328.35,389.61L328.52,387.47L332.12,370.13L332.17,369.67L332.10,369.20L331.93,368.77L331.65,368.39z" fill="currentColor" stroke="none" fill-opacity="1.00" fill-rule="nonzero" />
      <path d="M323.70,347.10L323.43,347.10L323.16,347.15L322.91,347.25L322.68,347.40L322.48,347.59L322.33,347.82L322.22,348.07L322.16,348.33L322.16,348.61L322.21,348.88L322.31,349.13L322.46,349.36L322.65,349.55L322.88,349.71L323.13,349.81L323.40,349.87L330.75,351.63L340.87,361.92L341.41,367.48L333.39,389.51L322.22,394.84L321.75,395.12L321.34,395.49L321.02,395.93L320.78,396.42L320.65,396.95L320.62,397.49L320.70,398.03L320.88,398.55L321.16,399.01L321.52,399.42L321.96,399.75L322.45,399.98L322.98,400.11L323.53,400.14L324.07,400.06L324.58,399.88L336.90,394.19L337.53,393.79L338.04,393.23L338.38,392.57L346.85,368.70L346.98,367.37L345.71,360.37L345.47,359.60L345.00,358.95L333.47,347.73L332.83,347.28L332.08,347.07z" fill="currentColor" stroke="none" fill-opacity="1.00" fill-rule="nonzero" />
      <path d="M323.33,327.49L323.20,327.54L323.08,327.61L322.98,327.71L322.90,327.82L322.85,327.95L322.82,328.08L322.82,328.22L322.84,328.35L322.89,328.48L322.96,328.60L323.06,328.70L323.17,328.78L323.30,328.83L323.43,328.86L323.57,328.87L323.71,328.84L340.04,325.44L351.08,333.16L369.10,353.19L370.63,356.13L365.03,361.32L364.70,361.70L364.45,362.13L364.29,362.60L364.22,363.09L364.25,363.59L364.38,364.07L364.60,364.52L364.90,364.91L365.28,365.24L365.71,365.49L366.18,365.65L366.67,365.72L367.17,365.69L367.65,365.56L368.10,365.34L368.49,365.04L375.46,358.50L375.82,358.08L376.08,357.60L376.23,357.08L376.26,356.53L376.17,356.00L375.97,355.49L373.37,350.59L354.67,329.46L341.29,321.90L340.83,321.70L340.33,321.63L339.83,321.70z" fill="currentColor" stroke="none" fill-opacity="1.00" fill-rule="nonzero" />
      <path d="M364.39,354.53L364.34,354.36L364.25,354.21L364.14,354.07L364.00,353.96L363.84,353.88L363.67,353.83L363.50,353.81L363.32,353.83L363.15,353.89L363.00,353.97L362.86,354.08L362.75,354.22L362.67,354.38L362.62,354.55L362.60,354.73L362.62,354.90L363.85,366.33L360.40,373.92L345.55,389.53L335.80,396.42L330.10,396.74L329.55,396.83L329.02,397.02L328.54,397.32L328.13,397.70L327.80,398.16L327.57,398.67L327.44,399.21L327.42,399.78L327.50,400.33L327.70,400.86L327.99,401.34L328.38,401.75L328.83,402.08L329.34,402.31L329.89,402.44L330.45,402.46L336.97,402.03L337.75,401.87L338.46,401.50L348.92,393.75L364.58,377.14L365.13,376.25L367.88,367.20L368.01,366.64L367.97,366.07z" fill="currentColor" stroke="none" fill-opacity="1.00" fill-rule="nonzero" />
      <path d="M326.36,304.38L326.19,304.41L326.03,304.46L325.88,304.55L325.75,304.66L325.64,304.80L325.57,304.95L325.52,305.12L325.51,305.29L325.53,305.46L325.59,305.62L325.67,305.77L325.78,305.90L325.92,306.01L326.08,306.09L326.24,306.13L326.41,306.14L338.64,307.17L345.21,309.78L363.34,341.25L363.96,342.42L364.23,342.81L364.58,343.14L364.98,343.40L365.42,343.57L365.89,343.65L366.36,343.65L366.82,343.54L367.26,343.35L367.65,343.08L367.98,342.74L368.23,342.34L368.41,341.90L368.49,341.43L368.48,340.96L368.38,340.49L368.19,340.06L367.51,338.90L348.87,306.71L348.36,306.09L347.67,305.69L339.84,302.77L338.96,302.62z" fill="currentColor" stroke="none" fill-opacity="1.00" fill-rule="nonzero" />
      <path d="M248.49,286.16L248.55,286.10L248.59,286.03L248.62,285.95L248.63,285.87L248.63,285.79L248.61,285.72L248.57,285.64L248.53,285.58L248.47,285.52L248.40,285.48L248.33,285.45L248.25,285.44L248.17,285.44L248.09,285.46L248.02,285.49L247.95,285.54L234.41,294.62L234.04,295.03L233.76,295.51L233.59,296.04L233.55,296.59L233.62,297.14L233.80,297.66L234.10,298.13L235.93,300.09L236.34,300.49L236.83,300.78L237.37,300.94L237.93,300.97L258.87,299.45L276.93,296.16L296.66,292.14L297.23,292.14L297.72,292.09L298.19,291.94L298.63,291.70L299.01,291.38L299.32,290.99L299.54,290.55L299.68,290.08L299.72,289.59L299.67,289.10L299.52,288.62L299.28,288.19L298.96,287.81L298.57,287.50L298.13,287.28L297.66,287.14L297.17,287.10L296.35,287.11L276.04,291.53L258.41,294.83L238.83,296.21L238.65,296.77z" fill="currentColor" stroke="none" fill-opacity="1.00" fill-rule="nonzero" />
      <path d="M235.72,298.24L235.62,298.11L235.51,298.00L235.37,297.92L235.22,297.87L235.06,297.85L234.90,297.85L234.75,297.89L234.61,297.96L234.48,298.05L234.37,298.17L234.29,298.31L234.24,298.46L234.21,298.62L234.22,298.77L234.26,298.93L234.33,299.07L244.24,316.95L249.21,324.38L249.52,324.70L249.89,324.95L250.30,325.12L250.73,325.21L251.17,325.22L251.61,325.14L252.02,324.97L252.39,324.73L252.71,324.42L252.96,324.06L253.13,323.65L253.22,323.22L253.23,322.77L253.15,322.34L252.98,321.93L252.74,321.56L246.77,315.31z" fill="currentColor" stroke="none" fill-opacity="1.00" fill-rule="nonzero" />
      <path d="M246.55,316.01L246.55,315.74L246.50,315.49L246.39,315.24L246.24,315.03L246.04,314.85L245.81,314.72L245.56,314.64L245.30,314.61L245.04,314.64L244.78,314.72L244.55,314.85L244.36,315.02L244.20,315.24L244.09,315.48L244.04,315.74L242.09,326.85L242.10,327.34L242.23,327.81L242.47,328.24L246.42,334.13L246.80,334.54L247.28,334.84L247.82,335.02L264.90,338.52L266.14,338.43L285.93,331.70L291.38,328.17L291.74,327.89L292.04,327.54L292.26,327.14L292.41,326.71L292.46,326.26L292.43,325.80L292.31,325.36L292.11,324.95L291.82,324.59L291.48,324.29L291.08,324.06L290.65,323.92L290.19,323.86L289.73,323.89L289.29,324.01L288.88,324.22L284.04,327.11L265.19,333.71L249.58,330.70L246.15,326.51z" fill="currentColor" stroke="none" fill-opacity="1.00" fill-rule="nonzero" />
      <path d="M246.65,334.86L246.69,334.75L246.71,334.64L246.71,334.53L246.69,334.42L246.64,334.31L246.57,334.22L246.49,334.14L246.40,334.08L246.29,334.03L246.18,334.01L246.06,334.02L245.95,334.04L245.85,334.09L245.75,334.15L245.68,334.23L245.61,334.33L237.06,347.32L236.85,347.92L236.81,348.54L236.95,349.16L237.25,349.71L242.30,356.21L242.67,356.59L243.12,356.87L243.63,357.02L244.16,357.03L256.41,356.20L286.24,343.07L286.67,342.83L287.03,342.52L287.33,342.13L287.55,341.70L287.68,341.23L287.72,340.75L287.66,340.26L287.51,339.80L287.27,339.38L286.95,339.01L286.56,338.71L286.13,338.49L285.66,338.36L285.18,338.33L284.70,338.39L284.23,338.54L255.49,351.24L244.90,352.85L241.76,348.15z" fill="currentColor" stroke="none" fill-opacity="1.00" fill-rule="nonzero" />
      <path d="M234.68,304.84L234.86,304.79L235.03,304.70L235.18,304.59L235.30,304.44L235.39,304.28L235.45,304.10L235.47,303.91L235.45,303.73L235.40,303.55L235.32,303.38L235.20,303.23L235.06,303.11L234.89,303.02L234.71,302.96L234.53,302.94L234.34,302.95L219.40,304.15L218.85,304.32L218.35,304.61L217.94,305.02L217.63,305.51L217.45,306.05L217.40,306.63L217.48,307.20L218.82,312.11L220.77,326.64L221.52,336.30L221.86,357.33L215.29,377.26L207.65,403.24L208.45,420.48L208.69,423.09L208.78,423.56L208.97,424.01L209.23,424.41L209.57,424.75L209.97,425.02L210.41,425.20L210.88,425.30L211.36,425.30L211.83,425.21L212.27,425.03L212.67,424.76L213.01,424.42L213.28,424.03L213.47,423.58L213.56,423.11L213.56,422.64L213.33,420.16L212.44,404.20L219.76,378.72L226.73,358.51L226.38,336.12L225.25,326.19L223.69,311.34L222.89,308.47z" fill="currentColor" stroke="none" fill-opacity="1.00" fill-rule="nonzero" />
      <path d="M356.69,381.63L356.71,381.57L356.71,381.51L356.70,381.45L356.68,381.39L356.65,381.34L356.61,381.29L356.56,381.26L356.51,381.23L356.45,381.21L356.39,381.21L356.33,381.22L356.27,381.24L356.21,381.27L356.17,381.31L356.13,381.36L356.11,381.42L346.14,403.85L340.52,434.75L340.48,435.26L340.55,435.77L340.72,436.25L340.97,436.69L341.31,437.08L341.72,437.39L342.18,437.61L342.67,437.75L343.19,437.78L343.69,437.71L344.18,437.54L344.62,437.29L345.01,436.95L345.32,436.54L345.54,436.08L345.67,435.59L350.11,405.07z" fill="currentColor" stroke="none" fill-opacity="1.00" fill-rule="nonzero" />
      <path d="M176.57,314.11L176.77,314.04L176.95,313.93L177.12,313.79L177.25,313.62L177.34,313.43L177.39,313.22L177.41,313.01L177.38,312.79L177.31,312.59L177.20,312.40L177.06,312.24L176.89,312.11L176.70,312.02L176.49,311.96L176.28,311.95L176.06,311.98L167.95,312.59L159.83,313.54L159.09,313.76L158.46,314.19L157.98,314.79L153.87,321.81L153.59,322.54L153.54,323.32L153.72,324.08L153.73,324.15L153.97,324.61L154.29,325.02L154.69,325.35L155.14,325.60L155.63,325.76L156.15,325.81L156.67,325.77L157.16,325.63L157.62,325.39L158.03,325.06L158.36,324.67L158.61,324.21L158.77,323.72L158.83,323.20L158.78,322.69L158.64,322.19L158.78,323.28L161.72,318.33L168.69,317.25z" fill="currentColor" stroke="none" fill-opacity="1.00" fill-rule="nonzero" />
      <path d="M156.07,323.45L156.06,323.44L156.05,323.43L156.03,323.42L156.02,323.41L156.00,323.40L155.98,323.40L155.96,323.41L155.95,323.41L155.93,323.42L155.92,323.43L155.91,323.45L155.90,323.46L155.90,323.48L155.90,323.50L155.90,323.51L155.91,323.53L160.77,336.21L159.52,348.82L157.18,368.06L157.28,369.07L158.64,373.27L158.83,373.69L159.09,374.06L159.42,374.38L159.81,374.63L160.24,374.79L160.69,374.87L161.15,374.86L161.60,374.76L162.02,374.58L162.40,374.31L162.71,373.98L162.96,373.59L163.13,373.16L163.21,372.71L163.20,372.25L163.10,371.81L161.87,368.11L164.23,349.26L163.21,335.95L163.09,335.41z" fill="currentColor" stroke="none" fill-opacity="1.00" fill-rule="nonzero" />
      <path d="M159.77,370.94L159.68,370.91L159.58,370.89L159.48,370.89L159.39,370.91L159.30,370.95L159.22,371.01L159.15,371.08L159.10,371.16L159.07,371.25L159.05,371.35L159.05,371.44L159.07,371.54L159.11,371.63L159.17,371.71L159.24,371.77L159.32,371.83L171.75,380.23L172.41,380.45L173.10,380.47L178.69,380.03L189.12,374.97L190.16,374.17L190.49,373.80L190.73,373.38L190.88,372.91L190.93,372.43L190.88,371.94L190.72,371.47L190.48,371.05L190.15,370.69L189.75,370.40L189.31,370.21L188.83,370.11L188.34,370.11L187.86,370.21L187.41,370.41L187.02,370.70L186.82,370.91L177.67,374.95L173.25,375.70z" fill="currentColor" stroke="none" fill-opacity="1.00" fill-rule="nonzero" />
      <path d="M153.79,327.28L154.06,327.31L154.34,327.28L154.60,327.20L154.84,327.07L155.04,326.89L155.21,326.67L155.32,326.42L155.38,326.15L155.39,325.88L155.33,325.61L155.22,325.35L155.07,325.13L154.86,324.94L154.63,324.80L154.37,324.71L144.09,321.27L143.50,321.21L142.91,321.30L142.36,321.54L141.88,321.89L141.51,322.36L139.45,325.68L139.19,326.27L139.10,326.90L139.17,327.54L141.32,336.14L144.16,350.21L142.32,361.29L142.29,361.93L142.42,362.56L142.70,363.14L143.10,363.63L149.86,369.86L150.37,370.24L150.97,370.48L151.60,370.55L158.34,370.37L158.81,370.32L159.25,370.18L159.66,369.95L160.01,369.65L160.30,369.29L160.52,368.88L160.65,368.43L160.69,367.97L160.64,367.50L160.50,367.06L160.27,366.65L159.97,366.30L159.61,366.01L159.20,365.79L158.75,365.66L158.29,365.62L152.56,365.59L147.82,360.75L149.38,350.55L146.07,335.08L144.11,327.35L144.71,326.35z" fill="currentColor" stroke="none" fill-opacity="1.00" fill-rule="nonzero" />
      <path d="M76.35,287.11L76.30,286.99L76.23,286.88L76.14,286.78L76.04,286.71L75.92,286.66L75.79,286.63L75.66,286.62L75.53,286.65L75.41,286.69L75.30,286.76L75.21,286.85L75.13,286.96L75.08,287.08L75.05,287.20L75.05,287.33L75.07,287.46L79.67,308.75L87.23,335.49L94.67,350.44L106.04,365.05L106.61,365.58L107.32,365.91L108.09,366.03L139.15,366.27L139.71,366.21L140.24,366.05L140.73,365.79L141.17,365.43L141.52,365.00L141.78,364.51L141.95,363.97L142.00,363.42L141.95,362.86L141.79,362.33L141.52,361.83L141.17,361.40L140.74,361.05L140.24,360.78L139.71,360.62L139.15,360.57L109.35,360.78L98.87,348.04L91.70,333.93L83.30,307.72z" fill="currentColor" stroke="none" fill-opacity="1.00" fill-rule="nonzero" />
      <path d="M89.45,265.27L89.27,264.98L89.03,264.73L88.75,264.53L88.43,264.39L88.09,264.32L87.75,264.31L87.41,264.37L87.09,264.49L86.79,264.68L86.54,264.91L86.34,265.20L86.20,265.51L86.13,265.85L86.12,266.20L86.18,266.54L86.30,266.86L93.64,282.29L114.08,323.12L123.76,343.80L124.01,344.21L124.34,344.57L124.72,344.85L125.16,345.06L125.63,345.18L126.11,345.20L126.58,345.13L127.04,344.96L127.45,344.71L127.81,344.39L128.09,344.00L128.30,343.57L128.41,343.10L128.44,342.62L128.37,342.14L128.20,341.69L118.26,321.10L97.47,280.37z" fill="currentColor" stroke="none" fill-opacity="1.00" fill-rule="nonzero" />
      <path d="M123.41,332.74L123.05,332.73L122.70,332.79L122.37,332.91L122.07,333.10L121.81,333.35L121.60,333.64L121.46,333.97L121.38,334.31L121.37,334.67L121.43,335.02L121.55,335.35L121.74,335.66L121.99,335.92L122.28,336.12L122.60,336.27L122.95,336.35L137.16,338.98L137.68,338.99L138.19,338.91L138.67,338.72L139.11,338.45L139.48,338.09L139.78,337.67L139.99,337.20L140.11,336.70L140.12,336.18L140.04,335.67L139.85,335.19L139.58,334.75L139.22,334.38L138.80,334.08L138.33,333.87L137.83,333.75z" fill="currentColor" stroke="none" fill-opacity="1.00" fill-rule="nonzero" />
      <path d="M87.00,266.57L87.03,266.57L87.06,266.57L87.08,266.56L87.11,266.55L87.13,266.54L87.15,266.52L87.16,266.49L87.17,266.47L87.18,266.44L87.18,266.41L87.17,266.39L87.16,266.36L87.14,266.34L87.12,266.32L87.10,266.31L87.07,266.30L80.41,262.45L72.57,258.78L68.17,257.18L67.44,257.06L66.71,257.16L59.62,259.11L52.36,261.54L43.03,266.52L30.20,272.62L21.95,274.17L21.19,274.40L20.53,274.84L20.02,275.43L19.76,275.81L19.51,276.30L19.35,276.83L19.31,277.39L19.37,277.94L19.55,278.47L19.82,278.95L20.17,279.37L20.61,279.71L21.10,279.97L21.64,280.12L22.19,280.16L22.74,280.10L23.27,279.93L23.75,279.66L24.17,279.30L24.52,278.86L23.92,279.31L31.64,278.61L45.40,271.18L54.52,266.84L61.11,264.08L67.36,262.34L70.79,263.19L78.84,266.46z" fill="currentColor" stroke="none" fill-opacity="1.00" fill-rule="nonzero" />
      <path d="M21.07,277.67L20.94,277.54L20.78,277.43L20.60,277.36L20.41,277.33L20.22,277.33L20.04,277.37L19.86,277.44L19.71,277.55L19.57,277.69L19.47,277.85L19.40,278.02L19.37,278.21L19.37,278.40L19.41,278.59L19.48,278.76L19.59,278.92L23.25,284.43L23.56,284.72L23.93,284.92L24.35,285.03L30.25,286.45L31.23,286.37L41.21,283.59L49.22,281.49L54.00,280.61L61.73,279.75L63.98,279.99L64.50,279.95L64.99,279.81L65.45,279.57L65.86,279.25L66.19,278.86L66.44,278.41L66.60,277.92L66.66,277.41L66.62,276.89L66.48,276.40L66.25,275.94L65.93,275.53L65.54,275.20L65.09,274.95L64.59,274.79L64.08,274.73L61.67,274.88L53.37,275.66L48.22,276.74L39.93,278.65L30.36,281.67L25.45,281.70z" fill="currentColor" stroke="none" fill-opacity="1.00" fill-rule="nonzero" />
      <path d="M37.06,283.02L36.99,282.96L36.91,282.91L36.81,282.88L36.72,282.87L36.62,282.87L36.53,282.90L36.44,282.94L36.36,283.00L36.30,283.08L36.25,283.16L36.22,283.25L36.21,283.35L36.22,283.45L36.24,283.54L36.28,283.63L36.34,283.70L39.87,288.58L40.15,288.80L40.49,288.94L46.14,291.51L54.40,290.93L61.71,292.38L70.49,292.78L71.85,293.19L72.37,293.30L72.90,293.30L73.43,293.19L73.92,292.97L74.35,292.66L74.71,292.26L74.97,291.80L75.14,291.29L75.19,290.76L75.14,290.22L74.97,289.72L74.70,289.25L74.34,288.86L73.91,288.54L73.42,288.32L71.76,287.74L62.43,287.14L54.89,286.09L46.91,286.79L41.47,286.56z" fill="currentColor" stroke="none" fill-opacity="1.00" fill-rule="nonzero" />
      <path d="M23.86,274.69L23.89,274.72L23.92,274.74L23.95,274.76L23.99,274.77L24.03,274.77L24.07,274.77L24.11,274.76L24.14,274.74L24.17,274.71L24.19,274.68L24.21,274.65L24.22,274.61L24.22,274.57L24.22,274.53L24.21,274.50L24.19,274.46L24.55,271.57L27.56,270.23L35.32,269.13L42.62,268.78L43.72,268.39L45.54,267.32L45.89,267.02L46.17,266.66L46.38,266.26L46.51,265.82L46.55,265.36L46.49,264.90L46.35,264.47L46.13,264.07L45.84,263.72L45.48,263.43L45.07,263.22L44.63,263.10L44.17,263.06L43.72,263.11L43.28,263.25L42.88,263.47L41.76,264.52L34.94,265.03L26.79,266.55L20.42,268.42L20.02,268.61L19.66,268.87L19.37,269.21L19.15,269.59L19.01,270.01L18.96,270.46L19.01,270.90L19.14,271.32L19.36,271.71z" fill="currentColor" stroke="none" fill-opacity="1.00" fill-rule="nonzero" />
      <path d="M385.93,223.80L385.93,223.78L385.92,223.77L385.91,223.75L385.90,223.74L385.89,223.73L385.87,223.72L385.85,223.72L385.84,223.72L385.82,223.72L385.80,223.73L385.79,223.74L385.78,223.75L385.77,223.77L385.76,223.78L385.76,223.80L385.76,223.82L386.37,251.04L388.37,287.01L395.78,321.80L396.00,322.42L396.40,322.95L408.09,334.89L425.90,353.05L426.79,369.95L417.16,394.96L411.54,380.86L406.72,370.23L406.46,369.79L406.13,369.41L405.72,369.10L405.27,368.88L404.78,368.74L404.27,368.71L403.76,368.78L403.28,368.94L402.84,369.20L402.46,369.53L402.15,369.93L401.93,370.39L401.79,370.88L401.76,371.39L401.83,371.89L401.99,372.38L406.76,382.88L414.98,402.25L415.23,402.70L415.57,403.09L415.98,403.40L416.45,403.61L416.95,403.72L417.47,403.71L417.97,403.60L418.44,403.38L418.85,403.07L419.18,402.68L419.42,402.22L432.10,371.40L432.29,370.20L430.80,351.79L430.59,350.94L430.09,350.21L411.50,331.52L400.17,320.18L393.23,286.53L390.72,250.72z" fill="currentColor" stroke="none" fill-opacity="1.00" fill-rule="nonzero" />
      <path d="M370.88,253.86L370.86,253.77L370.82,253.69L370.77,253.62L370.71,253.56L370.64,253.51L370.55,253.48L370.47,253.47L370.38,253.47L370.30,253.49L370.22,253.52L370.15,253.57L370.08,253.64L370.04,253.71L370.01,253.79L369.99,253.88L369.99,253.96L373.98,302.20L375.02,307.55L375.15,307.96L375.35,308.35L375.62,308.68L375.95,308.96L376.33,309.16L376.74,309.29L377.17,309.34L377.60,309.30L378.02,309.17L378.40,308.97L378.73,308.70L379.01,308.37L379.22,307.99L379.34,307.57L379.39,307.14L379.35,306.71L378.37,301.60z" fill="currentColor" stroke="none" fill-opacity="1.00" fill-rule="nonzero" />
      <path d="M393.69,329.97L393.60,329.68L393.46,329.43L393.27,329.20L393.04,329.02L392.78,328.88L392.49,328.80L392.20,328.77L391.90,328.81L391.62,328.90L391.36,329.04L391.14,329.23L390.95,329.46L390.82,329.73L390.74,330.01L390.71,330.30L390.75,330.60L395.06,353.01L397.21,372.46L389.37,388.05L375.16,405.93L374.76,406.63L374.58,407.42L374.65,408.23L377.71,420.70L377.95,421.32L378.33,421.86L378.84,422.29L379.44,422.58L380.09,422.71L381.33,422.81L381.85,422.79L382.36,422.68L382.83,422.47L383.26,422.17L383.62,421.79L383.89,421.35L384.08,420.87L384.17,420.36L384.16,419.84L384.04,419.33L383.83,418.86L383.53,418.43L383.15,418.07L382.72,417.80L382.23,417.61L381.72,417.52L381.99,418.05L380.15,408.25L393.92,391.27L401.48,373.74L401.66,373.16L401.67,372.55L398.99,352.44z" fill="currentColor" stroke="none" fill-opacity="1.00" fill-rule="nonzero" />
      <path d="M332.29,97.74L332.29,97.75L332.30,97.77L332.31,97.78L332.33,97.79L332.34,97.80L332.36,97.80L332.38,97.80L332.39,97.80L332.41,97.80L332.42,97.79L332.44,97.78L332.45,97.76L332.45,97.75L332.46,97.73L332.46,97.71L332.46,97.69L330.32,83.12L330.15,82.70L329.85,82.36L320.22,73.10L298.78,54.94L274.97,43.78L274.48,43.60L273.95,43.53L273.43,43.56L272.92,43.70L272.45,43.94L272.04,44.27L271.71,44.68L271.46,45.14L271.32,45.65L271.28,46.18L271.27,49.84L276.00,78.54L274.24,96.49L269.38,111.71L269.30,113.02L271.20,122.38L271.39,122.99L271.73,123.53L272.19,123.97L272.75,124.28L273.37,124.44L290.31,126.68L319.42,126.25L333.05,125.72L333.53,125.65L334.00,125.50L334.42,125.25L334.79,124.92L335.08,124.53L335.30,124.09L335.42,123.62L335.45,123.13L335.39,122.65L335.23,122.18L334.98,121.76L334.66,121.39L334.27,121.10L333.83,120.88L333.35,120.76L332.86,120.73L319.33,121.21L290.79,121.50L275.85,119.65L274.79,112.72L279.49,97.85L281.22,78.68L276.64,49.51L275.26,48.26L295.36,59.68L317.17,76.79L327.67,84.25z" fill="currentColor" stroke="none" fill-opacity="1.00" fill-rule="nonzero" />
      <path d="M334.46,92.84L334.46,92.73L334.43,92.61L334.39,92.51L334.32,92.41L334.24,92.33L334.14,92.27L334.03,92.23L333.92,92.21L333.80,92.21L333.69,92.23L333.59,92.28L333.49,92.34L333.41,92.43L333.35,92.52L333.30,92.63L333.28,92.74L329.93,114.87L327.89,123.59L327.84,124.05L327.88,124.50L328.01,124.94L328.23,125.35L328.51,125.70L328.87,125.99L329.27,126.21L329.70,126.35L330.16,126.39L330.61,126.35L331.05,126.22L331.46,126.01L331.81,125.72L332.10,125.37L332.32,124.97L332.46,124.53L334.04,115.58z" fill="currentColor" stroke="none" fill-opacity="1.00" fill-rule="nonzero" />
      <path d="M336.81,93.07L336.62,92.94L336.42,92.86L336.20,92.82L335.98,92.82L335.77,92.86L335.56,92.95L335.38,93.07L335.22,93.22L335.10,93.41L335.02,93.61L334.97,93.83L334.97,94.05L335.02,94.27L335.10,94.47L335.23,94.65L335.38,94.81L347.29,105.57L348.05,105.95L360.68,109.41L354.39,126.05L350.22,129.43L337.18,123.66L336.14,123.42L327.90,123.29L327.39,123.33L326.90,123.47L326.44,123.70L326.03,124.01L325.70,124.40L325.44,124.85L325.28,125.34L325.22,125.85L325.26,126.36L325.39,126.86L325.62,127.32L325.94,127.72L326.33,128.06L326.78,128.31L327.27,128.47L327.78,128.54L335.46,128.79L349.61,135.34L350.24,135.54L350.90,135.58L351.56,135.47L352.17,135.22L352.70,134.82L358.11,129.18L358.72,128.26L365.90,108.59L366.02,108.12L366.04,107.63L365.96,107.15L365.78,106.70L365.51,106.30L365.16,105.96L364.74,105.71L364.29,105.54L349.38,102.33z" fill="currentColor" stroke="none" fill-opacity="1.00" fill-rule="nonzero" />
      <path d="M362.44,104.80L362.40,104.92L362.38,105.04L362.39,105.17L362.42,105.29L362.47,105.41L362.55,105.51L362.64,105.60L362.75,105.66L362.87,105.71L362.99,105.73L363.12,105.72L363.24,105.69L363.36,105.64L363.46,105.56L363.55,105.47L363.61,105.36L366.28,103.39L390.18,97.65L411.08,97.43L423.90,105.01L421.23,112.63L412.65,122.49L411.95,123.97L410.17,135.57L408.76,153.31L404.55,163.39L393.86,156.89L358.47,139.65L353.77,135.60L353.30,135.29L352.78,135.08L352.23,134.98L351.66,134.98L351.11,135.10L350.60,135.32L350.13,135.63L349.74,136.03L349.43,136.50L349.22,137.02L349.12,137.57L349.12,138.14L349.24,138.69L349.46,139.20L349.77,139.67L350.17,140.06L355.36,143.98L390.83,162.04L404.42,170.60L405.03,170.89L405.69,171.04L406.36,171.05L407.02,170.91L407.64,170.63L408.18,170.22L408.61,169.71L408.93,169.12L414.37,155.06L415.81,136.42L417.95,125.90L426.19,116.06L426.78,115.00L429.72,104.52L429.84,103.92L429.81,103.30L429.65,102.71L429.36,102.17L428.96,101.71L428.46,101.35L412.85,92.97L411.66,92.67L389.85,92.97L364.23,99.38L363.63,99.62L363.14,100.03L362.78,100.56z" fill="currentColor" stroke="none" fill-opacity="1.00" fill-rule="nonzero" />
      <path d="M97.57,140.49L97.71,140.56L97.86,140.60L98.02,140.61L98.18,140.59L98.33,140.54L98.47,140.47L98.59,140.36L98.69,140.24L98.76,140.10L98.80,139.94L98.81,139.78L98.80,139.63L98.75,139.48L98.67,139.34L98.56,139.22L98.44,139.12L79.90,125.73L54.42,97.28L39.66,76.45L40.98,73.45L80.65,75.84L116.95,78.13L156.10,87.08L185.23,98.61L244.38,120.27L267.94,127.72L304.26,142.88L336.88,161.54L367.60,177.90L410.19,211.29L435.79,236.34L452.55,262.71L452.91,263.17L453.36,263.55L453.86,263.84L454.42,264.02L455.00,264.09L455.58,264.05L456.14,263.89L456.66,263.63L457.12,263.27L457.50,262.83L457.79,262.32L457.97,261.77L458.04,261.19L458.00,260.60L457.84,260.04L457.58,259.52L440.65,232.84L414.21,206.95L371.00,173.13L339.58,156.72L306.79,138.11L269.92,122.67L246.25,114.95L187.10,93.68L157.63,82.64L117.75,73.80L80.95,71.42L39.46,68.01L38.81,68.05L38.18,68.24L37.62,68.59L37.16,69.06L36.83,69.63L34.30,75.77L34.12,76.40L34.11,77.06L34.27,77.70L34.58,78.29L50.40,100.34L76.92,128.83z" fill="currentColor" stroke="none" fill-opacity="1.00" fill-rule="nonzero" />
      <path d="M119.47,75.72L119.34,75.72L119.20,75.74L119.07,75.79L118.95,75.86L118.85,75.96L118.77,76.07L118.72,76.20L118.69,76.33L118.68,76.47L118.71,76.61L118.75,76.73L118.83,76.85L118.92,76.95L119.03,77.03L119.16,77.09L119.30,77.12L160.95,83.97L182.83,87.32L227.12,99.17L242.13,101.97L242.44,102.00L242.74,101.97L243.03,101.88L243.30,101.74L243.54,101.55L243.73,101.31L243.87,101.04L243.96,100.75L244.00,100.45L243.97,100.15L243.88,99.86L243.74,99.59L243.54,99.35L243.31,99.16L243.04,99.01L242.75,98.92L228.03,95.68L183.96,82.72L161.57,79.61z" fill="currentColor" stroke="none" fill-opacity="1.00" fill-rule="nonzero" />
      <path d="M169.48,80.32L169.34,80.40L169.22,80.51L169.13,80.63L169.06,80.78L169.02,80.94L169.01,81.10L169.03,81.26L169.08,81.41L169.16,81.55L169.27,81.67L169.40,81.77L169.54,81.84L169.70,81.88L169.86,81.89L170.02,81.86L170.17,81.81L184.52,76.77L196.86,64.32L221.29,47.74L242.60,34.82L259.38,28.89L308.84,20.82L339.61,18.29L357.66,28.63L379.23,40.99L387.31,65.39L398.20,92.03L398.16,91.82L398.11,92.34L398.18,92.85L398.34,93.35L398.59,93.80L398.93,94.19L399.34,94.52L399.80,94.75L400.30,94.89L400.82,94.93L401.33,94.87L401.82,94.71L402.28,94.46L402.67,94.12L402.99,93.71L403.23,93.25L403.37,92.75L403.49,92.22L403.52,91.47L403.33,90.74L392.25,63.66L383.90,38.40L383.45,37.58L382.74,36.97L360.58,23.59L341.42,13.38L340.71,13.12L339.95,13.07L308.32,15.82L258.34,23.92L240.63,30.07L218.80,43.81L194.03,60.58L182.22,72.82z" fill="currentColor" stroke="none" fill-opacity="1.00" fill-rule="nonzero" />
      <path d="M377.13,159.66L377.11,159.65L377.10,159.64L377.08,159.63L377.06,159.63L377.05,159.64L377.03,159.64L377.01,159.65L377.00,159.66L376.99,159.68L376.98,159.69L376.98,159.71L376.98,159.73L376.98,159.75L376.99,159.76L377.00,159.78L377.01,159.79L396.63,179.99L417.99,204.76L433.16,233.17L433.28,233.98L433.41,234.44L433.63,234.87L433.93,235.25L434.30,235.56L434.72,235.79L435.18,235.94L435.66,235.99L436.14,235.95L436.60,235.82L437.03,235.60L437.41,235.30L437.72,234.93L437.95,234.51L438.10,234.05L438.15,233.57L438.11,233.09L437.89,231.92L422.22,202.19L400.11,176.75z" fill="currentColor" stroke="none" fill-opacity="1.00" fill-rule="nonzero" />
      <path d="M198.77,58.46L198.75,58.46L198.74,58.46L198.72,58.47L198.71,58.48L198.70,58.50L198.69,58.51L198.68,58.53L198.68,58.55L198.68,58.56L198.69,58.58L198.70,58.60L198.71,58.61L198.72,58.62L198.74,58.63L198.75,58.63L198.77,58.64L221.96,60.61L262.22,70.68L273.18,76.60L273.61,76.79L274.06,76.88L274.53,76.89L274.99,76.80L275.42,76.63L275.81,76.37L276.14,76.05L276.41,75.66L276.59,75.24L276.69,74.78L276.69,74.31L276.60,73.86L276.43,73.42L276.18,73.03L275.85,72.70L275.47,72.44L264.29,66.21L222.64,56.78z" fill="currentColor" stroke="none" fill-opacity="1.00" fill-rule="nonzero" />
      <path d="M198.34,56.52L206.74,58.60L220.30,57.18L232.72,60.29L257.72,65.94L273.33,73.12L278.05,71.31L276.26,62.88L273.11,48.12L284.20,51.96L304.41,67.90L318.13,77.49L329.67,89.89L341.91,98.45L360.87,106.58L365.85,104.67L372.10,98.08L385.77,94.93L398.04,94.81L400.09,91.62L395.18,72.32L389.41,59.72L378.82,36.79L359.69,24.61L342.65,17.98L315.80,18.85L288.82,21.55L274.18,22.89L257.48,27.43L257.06,27.81z" fill-rule="evenodd" fill="currentColor" stroke="none" fill-opacity="1.00" />
      <path d="M96.50,140.37L114.63,128.07L127.16,116.53L145.28,110.49L155.82,103.52L175.75,94.14L153.63,86.36L119.66,76.02L102.41,73.72L77.10,72.21L46.54,70.74L38.03,76.31L47.98,95.77L61.13,110.83L78.78,125.70L80.00,126.14z" fill-rule="evenodd" fill="currentColor" stroke="none" fill-opacity="1.00" />
    </g>
  </symbol>
</svg>